<svg version="1.1" viewBox="0.0 0.0 600.0 371.0" fill="none" stroke="none" stroke-linecap="square" stroke-miterlimit="10" width="600" height="371" xmlns:xlink="http://www.w3.org/1999/xlink" xmlns="http://www.w3.org/2000/svg"><path fill="#ffffff" d="M0 0L600.0 0L600.0 371.0L0 371.0L0 0Z" fill-rule="nonzero"/><path stroke="#333333" stroke-width="1.0" stroke-linecap="butt" d="M85.5 298.5L581.5 298.5" fill-rule="nonzero"/><path stroke="#cccccc" stroke-width="1.0" stroke-linecap="butt" d="M85.5 228.5L581.5 228.5" fill-rule="nonzero"/><path stroke="#cccccc" stroke-width="1.0" stroke-linecap="butt" d="M85.5 159.5L581.5 159.5" fill-rule="nonzero"/><path stroke="#cccccc" stroke-width="1.0" stroke-linecap="butt" d="M85.5 89.5L581.5 89.5" fill-rule="nonzero"/><clipPath id="id_0"><path d="M85.55 89.78333L581.45 89.78333L581.45 298.45L85.55 298.45L85.55 89.78333Z" clip-rule="nonzero"/></clipPath><path stroke="#000000" stroke-width="0.0" stroke-linecap="butt" stroke-opacity="0.0" clip-path="url(#id_0)" d="M147.0 298.0L118.0 298.0L118.0 243.0C118.0 241.89543 118.89543 241.0 120.0 241.0L145.0 241.0C146.10457 241.0 147.0 241.89543 147.0 243.0Z" fill-rule="nonzero"/><path fill="#34a853" clip-path="url(#id_0)" d="M147.0 298.0L118.0 298.0L118.0 243.0C118.0 241.89543 118.89543 241.0 120.0 241.0L145.0 241.0C146.10457 241.0 147.0 241.89543 147.0 243.0Z" fill-rule="nonzero"/><path stroke="#000000" stroke-width="0.0" stroke-linecap="butt" stroke-opacity="0.0" clip-path="url(#id_0)" d="M240.0 298.0L211.0 298.0L211.0 196.0C211.0 194.89543 211.89543 194.0 213.0 194.0L238.0 194.0C239.10457 194.0 240.0 194.89543 240.0 196.0Z" fill-rule="nonzero"/><path fill="#34a853" clip-path="url(#id_0)" d="M240.0 298.0L211.0 298.0L211.0 196.0C211.0 194.89543 211.89543 194.0 213.0 194.0L238.0 194.0C239.10457 194.0 240.0 194.89543 240.0 196.0Z" fill-rule="nonzero"/><path stroke="#000000" stroke-width="0.0" stroke-linecap="butt" stroke-opacity="0.0" clip-path="url(#id_0)" d="M333.0 298.0L304.0 298.0L304.0 156.0C304.0 154.89543 304.89542 154.0 306.0 154.0L331.0 154.0C332.10458 154.0 333.0 154.89543 333.0 156.0Z" fill-rule="nonzero"/><path fill="#34a853" clip-path="url(#id_0)" d="M333.0 298.0L304.0 298.0L304.0 156.0C304.0 154.89543 304.89542 154.0 306.0 154.0L331.0 154.0C332.10458 154.0 333.0 154.89543 333.0 156.0Z" fill-rule="nonzero"/><path stroke="#000000" stroke-width="0.0" stroke-linecap="butt" stroke-opacity="0.0" clip-path="url(#id_0)" d="M425.0 298.0L396.0 298.0L396.0 126.0C396.0 124.89543 396.89542 124.0 398.0 124.0L423.0 124.0C424.10458 124.0 425.0 124.89543 425.0 126.0Z" fill-rule="nonzero"/><path fill="#34a853" clip-path="url(#id_0)" d="M425.0 298.0L396.0 298.0L396.0 126.0C396.0 124.89543 396.89542 124.0 398.0 124.0L423.0 124.0C424.10458 124.0 425.0 124.89543 425.0 126.0Z" fill-rule="nonzero"/><path stroke="#000000" stroke-width="0.0" stroke-linecap="butt" stroke-opacity="0.0" clip-path="url(#id_0)" d="M518.0 298.0L489.0 298.0L489.0 108.0C489.0 106.89543 489.89542 106.0 491.0 106.0L516.0 106.0C517.10455 106.0 518.0 106.89543 518.0 108.0Z" fill-rule="nonzero"/><path fill="#34a853" clip-path="url(#id_0)" d="M518.0 298.0L489.0 298.0L489.0 108.0C489.0 106.89543 489.89542 106.0 491.0 106.0L516.0 106.0C517.10455 106.0 518.0 106.89543 518.0 108.0Z" fill-rule="nonzero"/><path stroke="#000000" stroke-width="0.0" stroke-linecap="butt" stroke-opacity="0.0" clip-path="url(#id_0)" d="M177.0 298.0L148.0 298.0L148.0 252.0C148.0 250.89543 148.89543 250.0 150.0 250.0L175.0 250.0C176.10457 250.0 177.0 250.89543 177.0 252.0Z" fill-rule="nonzero"/><path fill="#4285f4" clip-path="url(#id_0)" d="M177.0 298.0L148.0 298.0L148.0 252.0C148.0 250.89543 148.89543 250.0 150.0 250.0L175.0 250.0C176.10457 250.0 177.0 250.89543 177.0 252.0Z" fill-rule="nonzero"/><path stroke="#000000" stroke-width="0.0" stroke-linecap="butt" stroke-opacity="0.0" clip-path="url(#id_0)" d="M270.0 298.0L241.0 298.0L241.0 235.0C241.0 233.89543 241.89543 233.0 243.0 233.0L268.0 233.0C269.10458 233.0 270.0 233.89543 270.0 235.0Z" fill-rule="nonzero"/><path fill="#4285f4" clip-path="url(#id_0)" d="M270.0 298.0L241.0 298.0L241.0 235.0C241.0 233.89543 241.89543 233.0 243.0 233.0L268.0 233.0C269.10458 233.0 270.0 233.89543 270.0 235.0Z" fill-rule="nonzero"/><path stroke="#000000" stroke-width="0.0" stroke-linecap="butt" stroke-opacity="0.0" clip-path="url(#id_0)" d="M363.0 298.0L334.0 298.0L334.0 231.0C334.0 229.89543 334.89542 229.0 336.0 229.0L361.0 229.0C362.10458 229.0 363.0 229.89543 363.0 231.0Z" fill-rule="nonzero"/><path fill="#4285f4" clip-path="url(#id_0)" d="M363.0 298.0L334.0 298.0L334.0 231.0C334.0 229.89543 334.89542 229.0 336.0 229.0L361.0 229.0C362.10458 229.0 363.0 229.89543 363.0 231.0Z" fill-rule="nonzero"/><path stroke="#000000" stroke-width="0.0" stroke-linecap="butt" stroke-opacity="0.0" clip-path="url(#id_0)" d="M455.0 298.0L426.0 298.0L426.0 231.0C426.0 229.89543 426.89542 229.0 428.0 229.0L453.0 229.0C454.10458 229.0 455.0 229.89543 455.0 231.0Z" fill-rule="nonzero"/><path fill="#4285f4" clip-path="url(#id_0)" d="M455.0 298.0L426.0 298.0L426.0 231.0C426.0 229.89543 426.89542 229.0 428.0 229.0L453.0 229.0C454.10458 229.0 455.0 229.89543 455.0 231.0Z" fill-rule="nonzero"/><path stroke="#000000" stroke-width="0.0" stroke-linecap="butt" stroke-opacity="0.0" clip-path="url(#id_0)" d="M548.0 298.0L519.0 298.0L519.0 226.0C519.0 224.89543 519.89545 224.0 521.0 224.0L546.0 224.0C547.10455 224.0 548.0 224.89543 548.0 226.0Z" fill-rule="nonzero"/><path fill="#4285f4" clip-path="url(#id_0)" d="M548.0 298.0L519.0 298.0L519.0 226.0C519.0 224.89543 519.89545 224.0 521.0 224.0L546.0 224.0C547.10455 224.0 548.0 224.89543 548.0 226.0Z" fill-rule="nonzero"/><path fill="#000000" d="M293.45312 346.60626Q293.35938 347.98126 292.4375 348.77814Q291.53125 349.575 290.03125 349.575Q288.39062 349.575 287.4375 348.46564Q286.5 347.35626 286.5 345.4344L286.5 344.90314Q286.5 343.6844 286.9375 342.7469Q287.375 341.8094 288.17188 341.3094Q288.98438 340.79376 290.04688 340.79376Q291.53125 340.79376 292.42188 341.59064Q293.32812 342.3875 293.46875 343.8094L291.71875 343.8094Q291.65625 342.98126 291.25 342.6219Q290.85938 342.2469 290.04688 342.2469Q289.17188 342.2469 288.73438 342.8719Q288.29688 343.4969 288.28125 344.825L288.28125 345.46564Q288.28125 346.85626 288.70312 347.4969Q289.125 348.1375 290.03125 348.1375Q290.84375 348.1375 291.23438 347.7625Q291.64062 347.3875 291.70312 346.60626L293.45312 346.60626ZM294.39062 346.21564Q294.39062 345.27814 294.75 344.54376Q295.10938 343.79376 295.79688 343.40314Q296.48438 342.9969 297.375 342.9969Q298.67188 342.9969 299.46875 343.77814Q300.28125 344.5594 300.375 345.90314L300.39062 346.34064Q300.39062 347.8094 299.57812 348.7Q298.76562 349.575 297.39062 349.575Q296.01562 349.575 295.20312 348.7Q294.39062 347.8094 294.39062 346.29376L294.39062 346.21564ZM296.07812 346.34064Q296.07812 347.2469 296.42188 347.73126Q296.76562 348.2 297.39062 348.2Q298.01562 348.2 298.35938 347.73126Q298.70312 347.2625 298.70312 346.21564Q298.70312 345.34064 298.35938 344.85626Q298.01562 344.35626 297.375 344.35626Q296.76562 344.35626 296.42188 344.84064Q296.07812 345.325 296.07812 346.34064ZM303.20312 343.10626L303.26562 343.84064Q303.9375 342.9969 305.07812 342.9969Q306.09375 342.9969 306.57812 343.59064Q307.07812 344.16876 307.09375 345.35626L307.09375 349.45L305.39062 349.45L305.39062 345.3875Q305.39062 344.85626 305.15625 344.6219Q304.92188 344.3719 304.375 344.3719Q303.67188 344.3719 303.3125 344.98126L303.3125 349.45L301.60938 349.45L301.60938 343.10626L303.20312 343.10626ZM311.28125 348.2Q311.75 348.2 312.04688 347.95Q312.34375 347.6844 312.35938 347.2625L313.9375 347.2625Q313.9375 347.90314 313.59375 348.45Q313.25 348.98126 312.64062 349.27814Q312.04688 349.575 311.3125 349.575Q309.95312 349.575 309.17188 348.71564Q308.39062 347.84064 308.39062 346.3094L308.39062 346.2Q308.39062 344.73126 309.17188 343.8719Q309.95312 342.9969 311.3125 342.9969Q312.5 342.9969 313.21875 343.66876Q313.9375 344.34064 313.9375 345.46564L312.35938 345.46564Q312.34375 344.98126 312.04688 344.66876Q311.75 344.35626 311.28125 344.35626Q310.6875 344.35626 310.375 344.79376Q310.07812 345.23126 310.07812 346.1844L310.07812 346.3719Q310.07812 347.34064 310.375 347.77814Q310.67188 348.2 311.28125 348.2ZM318.45312 348.8094Q317.82812 349.575 316.71875 349.575Q315.6875 349.575 315.15625 348.98126Q314.625 348.3875 314.60938 347.2625L314.60938 343.10626L316.29688 343.10626L316.29688 347.2Q316.29688 348.2 317.20312 348.2Q318.0625 348.2 318.39062 347.59064L318.39062 343.10626L320.09375 343.10626L320.09375 349.45L318.5 349.45L318.45312 348.8094ZM325.21875 344.7Q324.875 344.65314 324.60938 344.65314Q323.64062 344.65314 323.34375 345.29376L323.34375 349.45L321.65625 349.45L321.65625 343.10626L323.25 343.10626L323.29688 343.8719Q323.8125 342.9969 324.70312 342.9969Q324.98438 342.9969 325.23438 343.075L325.21875 344.7ZM329.21875 344.7Q328.875 344.65314 328.60938 344.65314Q327.64062 344.65314 327.34375 345.29376L327.34375 349.45L325.65625 349.45L325.65625 343.10626L327.25 343.10626L327.29688 343.8719Q327.8125 342.9969 328.70312 342.9969Q328.98438 342.9969 329.23438 343.075L329.21875 344.7ZM332.5625 349.575Q331.17188 349.575 330.29688 348.71564Q329.42188 347.85626 329.42188 346.4344L329.42188 346.2625Q329.42188 345.3094 329.78125 344.5594Q330.15625 343.8094 330.82812 343.40314Q331.51562 342.9969 332.375 342.9969Q333.6875 342.9969 334.42188 343.825Q335.17188 344.6375 335.17188 346.1375L335.17188 346.825L331.14062 346.825Q331.21875 347.45 331.625 347.825Q332.04688 348.2 332.6875 348.2Q333.65625 348.2 334.20312 347.4969L335.04688 348.41876Q334.65625 348.96564 334.0 349.27814Q333.35938 349.575 332.5625 349.575ZM332.375 344.35626Q331.875 344.35626 331.5625 344.7Q331.25 345.04376 331.15625 345.66876L333.51562 345.66876L333.51562 345.54376Q333.5 344.98126 333.20312 344.66876Q332.92188 344.35626 332.375 344.35626ZM337.20312 343.10626L337.26562 343.84064Q337.9375 342.9969 339.07812 342.9969Q340.09375 342.9969 340.57812 343.59064Q341.07812 344.16876 341.09375 345.35626L341.09375 349.45L339.39062 349.45L339.39062 345.3875Q339.39062 344.85626 339.15625 344.6219Q338.92188 344.3719 338.375 344.3719Q337.67188 344.3719 337.3125 344.98126L337.3125 349.45L335.60938 349.45L335.60938 343.10626L337.20312 343.10626ZM345.28125 348.2Q345.75 348.2 346.04688 347.95Q346.34375 347.6844 346.35938 347.2625L347.9375 347.2625Q347.9375 347.90314 347.59375 348.45Q347.25 348.98126 346.64062 349.27814Q346.04688 349.575 345.3125 349.575Q343.95312 349.575 343.17188 348.71564Q342.39062 347.84064 342.39062 346.3094L342.39062 346.2Q342.39062 344.73126 343.17188 343.8719Q343.95312 342.9969 345.3125 342.9969Q346.5 342.9969 347.21875 343.66876Q347.9375 344.34064 347.9375 345.46564L346.35938 345.46564Q346.34375 344.98126 346.04688 344.66876Q345.75 344.35626 345.28125 344.35626Q344.6875 344.35626 344.375 344.79376Q344.07812 345.23126 344.07812 346.1844L344.07812 346.3719Q344.07812 347.34064 344.375 347.77814Q344.67188 348.2 345.28125 348.2ZM351.01562 347.0594L352.1875 343.10626L354.0 343.10626L351.45312 350.4344L351.3125 350.7625Q350.75 352.0125 349.4375 352.0125Q349.07812 352.0125 348.6875 351.90314L348.6875 350.6219L348.95312 350.6219Q349.4375 350.6219 349.67188 350.46564Q349.90625 350.325 350.04688 349.9969L350.23438 349.46564L348.01562 343.10626L349.84375 343.10626L351.01562 347.0594ZM359.4375 349.45L357.73438 349.45L357.73438 340.45L359.4375 340.45L359.4375 349.45ZM363.5625 349.575Q362.17188 349.575 361.29688 348.71564Q360.42188 347.85626 360.42188 346.4344L360.42188 346.2625Q360.42188 345.3094 360.78125 344.5594Q361.15625 343.8094 361.82812 343.40314Q362.51562 342.9969 363.375 342.9969Q364.6875 342.9969 365.42188 343.825Q366.17188 344.6375 366.17188 346.1375L366.17188 346.825L362.14062 346.825Q362.21875 347.45 362.625 347.825Q363.04688 348.2 363.6875 348.2Q364.65625 348.2 365.20312 347.4969L366.04688 348.41876Q365.65625 348.96564 365.0 349.27814Q364.35938 349.575 363.5625 349.575ZM363.375 344.35626Q362.875 344.35626 362.5625 344.7Q362.25 345.04376 362.15625 345.66876L364.51562 345.66876L364.51562 345.54376Q364.5 344.98126 364.20312 344.66876Q363.92188 344.35626 363.375 344.35626ZM369.03125 347.3875L370.20312 343.10626L371.96875 343.10626L369.82812 349.45L368.21875 349.45L366.07812 343.10626L367.84375 343.10626L369.03125 347.3875ZM375.5625 349.575Q374.17188 349.575 373.29688 348.71564Q372.42188 347.85626 372.42188 346.4344L372.42188 346.2625Q372.42188 345.3094 372.78125 344.5594Q373.15625 343.8094 373.82812 343.40314Q374.51562 342.9969 375.375 342.9969Q376.6875 342.9969 377.42188 343.825Q378.17188 344.6375 378.17188 346.1375L378.17188 346.825L374.14062 346.825Q374.21875 347.45 374.625 347.825Q375.04688 348.2 375.6875 348.2Q376.65625 348.2 377.20312 347.4969L378.04688 348.41876Q377.65625 348.96564 377.0 349.27814Q376.35938 349.575 375.5625 349.575ZM375.375 344.35626Q374.875 344.35626 374.5625 344.7Q374.25 345.04376 374.15625 345.66876L376.51562 345.66876L376.51562 345.54376Q376.5 344.98126 376.20312 344.66876Q375.92188 344.35626 375.375 344.35626ZM380.4375 349.45L378.73438 349.45L378.73438 340.45L380.4375 340.45L380.4375 349.45Z" fill-rule="nonzero"/><path fill="#000000" d="M27.425013 252.9448L27.425013 254.35104L30.550013 254.35104L30.550013 256.10104L22.018763 256.10104L22.018763 252.92917Q22.018763 251.42917 22.690638 250.61667Q23.362513 249.78854 24.596888 249.78854Q25.471888 249.78854 26.050013 250.16354Q26.628138 250.53854 26.987513 251.30417L30.471888 249.46042L30.550013 249.46042L30.550013 251.35104L27.425013 252.9448ZM26.003138 254.35104L26.003138 252.92917Q26.003138 252.27292 25.675013 251.91354Q25.331263 251.53854 24.737513 251.53854Q24.128138 251.53854 23.784388 251.8823Q23.440638 252.22604 23.440638 252.92917L23.440638 254.35104L26.003138 254.35104ZM30.675013 245.30417Q30.675013 246.6948 29.815638 247.5698Q28.956263 248.4448 27.534388 248.4448L27.362513 248.4448Q26.409388 248.4448 25.659388 248.08542Q24.909388 247.71042 24.503138 247.03854Q24.096888 246.35104 24.096888 245.49167Q24.096888 244.17917 24.925013 243.4448Q25.737513 242.6948 27.237513 242.6948L27.925013 242.6948L27.925013 246.72604Q28.550013 246.64792 28.925013 246.24167Q29.300013 245.8198 29.300013 245.17917Q29.300013 244.21042 28.596888 243.66354L29.518763 242.8198Q30.065638 243.21042 30.378138 243.86667Q30.675013 244.5073 30.675013 245.30417ZM25.456263 245.49167Q25.456263 245.99167 25.800013 246.30417Q26.143763 246.61667 26.768763 246.71042L26.768763 244.35104L26.643763 244.35104Q26.081263 244.36667 25.768763 244.66354Q25.456263 244.9448 25.456263 245.49167ZM27.315638 242.47604Q25.831263 242.47604 24.971888 241.8198Q24.096888 241.14792 24.096888 239.99167Q24.096888 238.97604 24.878138 238.36667L24.206263 238.2573L24.206263 236.77292L32.98751 236.77292L32.98751 238.46042L30.003138 238.46042Q30.675013 239.05417 30.675013 240.0073Q30.675013 241.1323 29.800013 241.80417Q28.909388 242.47604 27.315638 242.47604ZM27.440638 240.78854Q28.346888 240.78854 28.831263 240.47604Q29.300013 240.14792 29.300013 239.5698Q29.300013 238.78854 28.675013 238.46042L26.065638 238.46042Q25.456263 238.78854 25.456263 239.55417Q25.456263 240.14792 25.940638 240.47604Q26.409388 240.78854 27.440638 240.78854ZM29.909388 231.41354Q30.675013 232.03854 30.675013 233.14792Q30.675013 234.17917 30.081263 234.71042Q29.487513 235.24167 28.362513 235.2573L24.206263 235.2573L24.206263 233.5698L28.300013 233.5698Q29.300013 233.5698 29.300013 232.66354Q29.300013 231.80417 28.690638 231.47604L24.206263 231.47604L24.206263 229.77292L30.550013 229.77292L30.550013 231.36667L29.909388 231.41354ZM30.675013 225.30417Q30.675013 226.6948 29.815638 227.5698Q28.956263 228.4448 27.534388 228.4448L27.362513 228.4448Q26.409388 228.4448 25.659388 228.08542Q24.909388 227.71042 24.503138 227.03854Q24.096888 226.35104 24.096888 225.49167Q24.096888 224.17917 24.925013 223.4448Q25.737513 222.6948 27.237513 222.6948L27.925013 222.6948L27.925013 226.72604Q28.550013 226.64792 28.925013 226.24167Q29.300013 225.8198 29.300013 225.17917Q29.300013 224.21042 28.596888 223.66354L29.518763 222.8198Q30.065638 223.21042 30.378138 223.86667Q30.675013 224.5073 30.675013 225.30417ZM25.456263 225.49167Q25.456263 225.99167 25.800013 226.30417Q26.143763 226.61667 26.768763 226.71042L26.768763 224.35104L26.643763 224.35104Q26.081263 224.36667 25.768763 224.66354Q25.456263 224.9448 25.456263 225.49167ZM28.800013 218.78854Q28.487513 218.78854 28.315638 219.10104Q28.128138 219.39792 27.987513 220.0698Q27.518763 222.33542 26.065638 222.33542Q25.221888 222.33542 24.659388 221.64792Q24.096888 220.9448 24.096888 219.80417Q24.096888 218.60104 24.659388 217.8823Q25.221888 217.14792 26.143763 217.14792L26.143763 218.85104Q25.768763 218.85104 25.534388 219.08542Q25.300013 219.3198 25.300013 219.8198Q25.300013 220.24167 25.503138 220.47604Q25.690638 220.71042 25.987513 220.71042Q26.268763 220.71042 26.440638 220.4448Q26.612513 220.17917 26.737513 219.55417Q26.862513 218.91354 27.018763 218.47604Q27.518763 217.1323 28.721888 217.1323Q29.596888 217.1323 30.143763 217.8823Q30.675013 218.61667 30.675013 219.80417Q30.675013 220.60104 30.393763 221.22604Q30.096888 221.83542 29.612513 222.1948Q29.112513 222.53854 28.534388 222.53854L28.534388 220.92917Q28.987513 220.91354 29.237513 220.60104Q29.471888 220.28854 29.471888 219.77292Q29.471888 219.27292 29.284388 219.03854Q29.096888 218.78854 28.800013 218.78854ZM22.643763 214.1948L24.206263 214.1948L24.206263 213.10104L25.456263 213.10104L25.456263 214.1948L28.612513 214.1948Q28.971888 214.1948 29.128138 214.05417Q29.268763 213.91354 29.268763 213.53854Q29.268763 213.2573 29.237513 213.03854L30.518763 213.03854Q30.675013 213.53854 30.675013 214.0698Q30.675013 215.85104 28.862513 215.8823L25.456263 215.8823L25.456263 216.80417L24.206263 216.80417L24.206263 215.8823L22.643763 215.8823L22.643763 214.1948ZM28.800013 208.78854Q28.487513 208.78854 28.315638 209.10104Q28.128138 209.39792 27.987513 210.0698Q27.518763 212.33542 26.065638 212.33542Q25.221888 212.33542 24.659388 211.64792Q24.096888 210.9448 24.096888 209.80417Q24.096888 208.60104 24.659388 207.8823Q25.221888 207.14792 26.143763 207.14792L26.143763 208.85104Q25.768763 208.85104 25.534388 209.08542Q25.300013 209.3198 25.300013 209.8198Q25.300013 210.24167 25.503138 210.47604Q25.690638 210.71042 25.987513 210.71042Q26.268763 210.71042 26.440638 210.4448Q26.612513 210.17917 26.737513 209.55417Q26.862513 208.91354 27.018763 208.47604Q27.518763 207.1323 28.721888 207.1323Q29.596888 207.1323 30.143763 207.8823Q30.675013 208.61667 30.675013 209.80417Q30.675013 210.60104 30.393763 211.22604Q30.096888 211.83542 29.612513 212.1948Q29.112513 212.53854 28.534388 212.53854L28.534388 210.92917Q28.987513 210.91354 29.237513 210.60104Q29.471888 210.28854 29.471888 209.77292Q29.471888 209.27292 29.284388 209.03854Q29.096888 208.78854 28.800013 208.78854ZM27.440638 197.5073Q28.909388 197.5073 29.800013 198.17917Q30.675013 198.83542 30.675013 199.97604Q30.675013 200.92917 30.003138 201.52292L32.98751 201.52292L32.98751 203.21042L24.206263 203.21042L24.206263 201.64792L24.831263 201.58542Q24.096888 200.97604 24.096888 199.97604Q24.096888 198.80417 24.971888 198.16354Q25.831263 197.5073 27.346888 197.5073L27.440638 197.5073ZM27.315638 199.1948Q26.425013 199.1948 25.956263 199.52292Q25.471888 199.83542 25.471888 200.42917Q25.471888 201.22604 26.081263 201.52292L28.675013 201.52292Q29.300013 201.21042 29.300013 200.41354Q29.300013 199.1948 27.315638 199.1948ZM30.675013 193.30417Q30.675013 194.6948 29.815638 195.5698Q28.956263 196.4448 27.534388 196.4448L27.362513 196.4448Q26.409388 196.4448 25.659388 196.08542Q24.909388 195.71042 24.503138 195.03854Q24.096888 194.35104 24.096888 193.49167Q24.096888 192.17917 24.925013 191.4448Q25.737513 190.6948 27.237513 190.6948L27.925013 190.6948L27.925013 194.72604Q28.550013 194.64792 28.925013 194.24167Q29.300013 193.8198 29.300013 193.17917Q29.300013 192.21042 28.596888 191.66354L29.518763 190.8198Q30.065638 191.21042 30.378138 191.86667Q30.675013 192.5073 30.675013 193.30417ZM25.456263 193.49167Q25.456263 193.99167 25.800013 194.30417Q26.143763 194.61667 26.768763 194.71042L26.768763 192.35104L26.643763 192.35104Q26.081263 192.36667 25.768763 192.66354Q25.456263 192.9448 25.456263 193.49167ZM25.800013 186.64792Q25.753138 186.99167 25.753138 187.2573Q25.753138 188.22604 26.393763 188.52292L30.550013 188.52292L30.550013 190.21042L24.206263 190.21042L24.206263 188.61667L24.971888 188.5698Q24.096888 188.05417 24.096888 187.16354Q24.096888 186.8823 24.175013 186.6323L25.800013 186.64792ZM28.800013 179.78854Q28.487513 179.78854 28.315638 180.10104Q28.128138 180.39792 27.987513 181.0698Q27.518763 183.33542 26.065638 183.33542Q25.221888 183.33542 24.659388 182.64792Q24.096888 181.9448 24.096888 180.80417Q24.096888 179.60104 24.659388 178.8823Q25.221888 178.14792 26.143763 178.14792L26.143763 179.85104Q25.768763 179.85104 25.534388 180.08542Q25.300013 180.3198 25.300013 180.8198Q25.300013 181.24167 25.503138 181.47604Q25.690638 181.71042 25.987513 181.71042Q26.268763 181.71042 26.440638 181.4448Q26.612513 181.17917 26.737513 180.55417Q26.862513 179.91354 27.018763 179.47604Q27.518763 178.1323 28.721888 178.1323Q29.596888 178.1323 30.143763 178.8823Q30.675013 179.61667 30.675013 180.80417Q30.675013 181.60104 30.393763 182.22604Q30.096888 182.83542 29.612513 183.1948Q29.112513 183.53854 28.534388 183.53854L28.534388 181.92917Q28.987513 181.91354 29.237513 181.60104Q29.471888 181.28854 29.471888 180.77292Q29.471888 180.27292 29.284388 180.03854Q29.096888 179.78854 28.800013 179.78854ZM30.675013 174.30417Q30.675013 175.6948 29.815638 176.5698Q28.956263 177.4448 27.534388 177.4448L27.362513 177.4448Q26.409388 177.4448 25.659388 177.08542Q24.909388 176.71042 24.503138 176.03854Q24.096888 175.35104 24.096888 174.49167Q24.096888 173.17917 24.925013 172.4448Q25.737513 171.6948 27.237513 171.6948L27.925013 171.6948L27.925013 175.72604Q28.550013 175.64792 28.925013 175.24167Q29.300013 174.8198 29.300013 174.17917Q29.300013 173.21042 28.596888 172.66354L29.518763 171.8198Q30.065638 172.21042 30.378138 172.86667Q30.675013 173.5073 30.675013 174.30417ZM25.456263 174.49167Q25.456263 174.99167 25.800013 175.30417Q26.143763 175.61667 26.768763 175.71042L26.768763 173.35104L26.643763 173.35104Q26.081263 173.36667 25.768763 173.66354Q25.456263 173.9448 25.456263 174.49167ZM29.300013 168.58542Q29.300013 168.11667 29.050013 167.8198Q28.784388 167.52292 28.362513 167.5073L28.362513 165.92917Q29.003138 165.92917 29.550013 166.27292Q30.081263 166.61667 30.378138 167.22604Q30.675013 167.8198 30.675013 168.55417Q30.675013 169.91354 29.815638 170.6948Q28.940638 171.47604 27.409388 171.47604L27.300013 171.47604Q25.831263 171.47604 24.971888 170.6948Q24.096888 169.91354 24.096888 168.55417Q24.096888 167.36667 24.768763 166.64792Q25.440638 165.92917 26.565638 165.92917L26.565638 167.5073Q26.081263 167.52292 25.768763 167.8198Q25.456263 168.11667 25.456263 168.58542Q25.456263 169.17917 25.893763 169.49167Q26.331263 169.78854 27.284388 169.78854L27.471888 169.78854Q28.440638 169.78854 28.878138 169.49167Q29.300013 169.1948 29.300013 168.58542ZM27.315638 165.47604Q26.378138 165.47604 25.643763 165.11667Q24.893763 164.7573 24.503138 164.0698Q24.096888 163.3823 24.096888 162.49167Q24.096888 161.1948 24.878138 160.39792Q25.659388 159.58542 27.003138 159.49167L27.440638 159.47604Q28.909388 159.47604 29.800013 160.28854Q30.675013 161.10104 30.675013 162.47604Q30.675013 163.85104 29.800013 164.66354Q28.909388 165.47604 27.393763 165.47604L27.315638 165.47604ZM27.440638 163.78854Q28.346888 163.78854 28.831263 163.4448Q29.300013 163.10104 29.300013 162.47604Q29.300013 161.85104 28.831263 161.5073Q28.362513 161.16354 27.315638 161.16354Q26.440638 161.16354 25.956263 161.5073Q25.456263 161.85104 25.456263 162.49167Q25.456263 163.10104 25.940638 163.4448Q26.425013 163.78854 27.440638 163.78854ZM24.206263 156.66354L24.940638 156.60104Q24.096888 155.92917 24.096888 154.78854Q24.096888 153.77292 24.690638 153.28854Q25.268763 152.78854 26.456263 152.77292L30.550013 152.77292L30.550013 154.47604L26.487513 154.47604Q25.956263 154.47604 25.721888 154.71042Q25.471888 154.9448 25.471888 155.49167Q25.471888 156.1948 26.081263 156.55417L30.550013 156.55417L30.550013 158.2573L24.206263 158.2573L24.206263 156.66354ZM27.331263 151.47604Q25.846888 151.47604 24.971888 150.8198Q24.096888 150.14792 24.096888 148.99167Q24.096888 148.0698 24.784388 147.46042L21.550013 147.46042L21.550013 145.77292L30.550013 145.77292L30.550013 147.28854L29.878138 147.3823Q30.675013 148.0073 30.675013 149.0073Q30.675013 150.1323 29.800013 150.80417Q28.909388 151.47604 27.331263 151.47604ZM27.456263 149.78854Q28.346888 149.78854 28.831263 149.47604Q29.300013 149.16354 29.300013 148.5698Q29.300013 147.78854 28.628138 147.46042L26.128138 147.46042Q25.471888 147.78854 25.471888 148.55417Q25.471888 149.78854 27.456263 149.78854Z" fill-rule="nonzero"/><path fill="#000000" d="M78.6125 299.3094Q78.6125 301.21564 77.95625 302.15314Q77.31563 303.075 75.925 303.075Q74.56563 303.075 73.90938 302.16876Q73.25313 301.2625 73.22188 299.45L73.22188 298.0125Q73.22188 296.1219 73.8625 295.21564Q74.51875 294.29376 75.90938 294.29376Q77.28438 294.29376 77.94063 295.1844Q78.59688 296.0594 78.6125 297.90314L78.6125 299.3094ZM77.51875 297.825Q77.51875 296.45 77.12813 295.825Q76.75313 295.1844 75.90938 295.1844Q75.08125 295.1844 74.69063 295.825Q74.31563 296.45 74.31563 297.7469L74.31563 299.48126Q74.31563 300.85626 74.70625 301.52814Q75.1125 302.1844 75.925 302.1844Q76.72188 302.1844 77.1125 301.5594Q77.50313 300.9344 77.51875 299.60626L77.51875 297.825Z" fill-rule="nonzero"/><path fill="#000000" d="M59.753124 229.11319L60.190624 224.86319L64.56563 224.86319L64.56563 225.86319L61.1125 225.86319L60.846874 228.19131Q61.4875 227.81631 62.284374 227.81631Q63.440624 227.81631 64.12813 228.59756Q64.81563 229.36319 64.81563 230.67569Q64.81563 231.98819 64.09688 232.75381Q63.39375 233.51944 62.1125 233.51944Q60.9875 233.51944 60.26875 232.89444Q59.55 232.25381 59.45625 231.14444L60.471874 231.14444Q60.58125 231.87881 61.003124 232.25381Q61.425 232.62881 62.1125 232.62881Q62.8625 232.62881 63.3 232.11319Q63.7375 231.59756 63.7375 230.69131Q63.7375 229.83194 63.26875 229.31631Q62.8 228.80069 62.01875 228.80069Q61.315624 228.80069 60.909374 229.09756L60.628124 229.33194L59.753124 229.11319ZM71.6125 229.75381Q71.6125 231.66006 70.95625 232.59756Q70.31563 233.51944 68.925 233.51944Q67.56563 233.51944 66.90938 232.61319Q66.25313 231.70694 66.22188 229.89444L66.22188 228.45694Q66.22188 226.56631 66.8625 225.66006Q67.51875 224.73819 68.90938 224.73819Q70.28438 224.73819 70.94063 225.62881Q71.59688 226.50381 71.6125 228.34756L71.6125 229.75381ZM70.51875 228.26944Q70.51875 226.89444 70.12813 226.26944Q69.75313 225.62881 68.90938 225.62881Q68.08125 225.62881 67.69063 226.26944Q67.31563 226.89444 67.31563 228.19131L67.31563 229.92569Q67.31563 231.30069 67.70625 231.97256Q68.1125 232.62881 68.925 232.62881Q69.72188 232.62881 70.1125 232.00381Q70.50313 231.37881 70.51875 230.05069L70.51875 228.26944ZM78.6125 229.75381Q78.6125 231.66006 77.95625 232.59756Q77.31563 233.51944 75.925 233.51944Q74.56563 233.51944 73.90938 232.61319Q73.25313 231.70694 73.22188 229.89444L73.22188 228.45694Q73.22188 226.56631 73.8625 225.66006Q74.51875 224.73819 75.90938 224.73819Q77.28438 224.73819 77.94063 225.62881Q78.59688 226.50381 78.6125 228.34756L78.6125 229.75381ZM77.51875 228.26944Q77.51875 226.89444 77.12813 226.26944Q76.75313 225.62881 75.90938 225.62881Q75.08125 225.62881 74.69063 226.26944Q74.31563 226.89444 74.31563 228.19131L74.31563 229.92569Q74.31563 231.30069 74.70625 231.97256Q75.1125 232.62881 75.925 232.62881Q76.72188 232.62881 77.1125 232.00381Q77.50313 231.37881 77.51875 230.05069L77.51875 228.26944Z" fill-rule="nonzero"/><path fill="#000000" d="M55.815624 163.83888L54.7375 163.83888L54.7375 156.62013L52.55 157.417L52.55 156.43263L55.659374 155.26076L55.815624 155.26076L55.815624 163.83888ZM64.6125 160.19826Q64.6125 162.1045 63.95625 163.042Q63.315624 163.96388 61.925 163.96388Q60.565624 163.96388 59.909374 163.05763Q59.253124 162.15138 59.221874 160.33888L59.221874 158.90138Q59.221874 157.01076 59.8625 156.1045Q60.51875 155.18263 61.909374 155.18263Q63.284374 155.18263 63.940624 156.07326Q64.59688 156.94826 64.6125 158.792L64.6125 160.19826ZM63.51875 158.71388Q63.51875 157.33888 63.128124 156.71388Q62.753124 156.07326 61.909374 156.07326Q61.08125 156.07326 60.690624 156.71388Q60.315624 157.33888 60.315624 158.63576L60.315624 160.37013Q60.315624 161.74513 60.70625 162.417Q61.1125 163.07326 61.925 163.07326Q62.721874 163.07326 63.1125 162.44826Q63.503124 161.82326 63.51875 160.49513L63.51875 158.71388ZM71.6125 160.19826Q71.6125 162.1045 70.95625 163.042Q70.31563 163.96388 68.925 163.96388Q67.56563 163.96388 66.90938 163.05763Q66.25313 162.15138 66.22188 160.33888L66.22188 158.90138Q66.22188 157.01076 66.8625 156.1045Q67.51875 155.18263 68.90938 155.18263Q70.28438 155.18263 70.94063 156.07326Q71.59688 156.94826 71.6125 158.792L71.6125 160.19826ZM70.51875 158.71388Q70.51875 157.33888 70.12813 156.71388Q69.75313 156.07326 68.90938 156.07326Q68.08125 156.07326 67.69063 156.71388Q67.31563 157.33888 67.31563 158.63576L67.31563 160.37013Q67.31563 161.74513 67.70625 162.417Q68.1125 163.07326 68.925 163.07326Q69.72188 163.07326 70.1125 162.44826Q70.50313 161.82326 70.51875 160.49513L70.51875 158.71388ZM78.6125 160.19826Q78.6125 162.1045 77.95625 163.042Q77.31563 163.96388 75.925 163.96388Q74.56563 163.96388 73.90938 163.05763Q73.25313 162.15138 73.22188 160.33888L73.22188 158.90138Q73.22188 157.01076 73.8625 156.1045Q74.51875 155.18263 75.90938 155.18263Q77.28438 155.18263 77.94063 156.07326Q78.59688 156.94826 78.6125 158.792L78.6125 160.19826ZM77.51875 158.71388Q77.51875 157.33888 77.12813 156.71388Q76.75313 156.07326 75.90938 156.07326Q75.08125 156.07326 74.69063 156.71388Q74.31563 157.33888 74.31563 158.63576L74.31563 160.37013Q74.31563 161.74513 74.70625 162.417Q75.1125 163.07326 75.925 163.07326Q76.72188 163.07326 77.1125 162.44826Q77.50313 161.82326 77.51875 160.49513L77.51875 158.71388Z" fill-rule="nonzero"/><path fill="#000000" d="M55.815624 94.28333L54.7375 94.28333L54.7375 87.06458L52.55 87.86146L52.55 86.87708L55.659374 85.70521L55.815624 85.70521L55.815624 94.28333ZM59.753124 90.00208L60.190624 85.75208L64.56563 85.75208L64.56563 86.75208L61.1125 86.75208L60.846874 89.08021Q61.4875 88.70521 62.284374 88.70521Q63.440624 88.70521 64.12813 89.48646Q64.81563 90.25208 64.81563 91.56458Q64.81563 92.87708 64.09688 93.64271Q63.39375 94.40833 62.1125 94.40833Q60.9875 94.40833 60.26875 93.78333Q59.55 93.14271 59.45625 92.03333L60.471874 92.03333Q60.58125 92.76771 61.003124 93.14271Q61.425 93.51771 62.1125 93.51771Q62.8625 93.51771 63.3 93.00208Q63.7375 92.48646 63.7375 91.58021Q63.7375 90.72083 63.26875 90.20521Q62.8 89.68958 62.01875 89.68958Q61.315624 89.68958 60.909374 89.98646L60.628124 90.22083L59.753124 90.00208ZM71.6125 90.64271Q71.6125 92.54896 70.95625 93.48646Q70.31563 94.40833 68.925 94.40833Q67.56563 94.40833 66.90938 93.50208Q66.25313 92.59583 66.22188 90.78333L66.22188 89.34583Q66.22188 87.45521 66.8625 86.54896Q67.51875 85.62708 68.90938 85.62708Q70.28438 85.62708 70.94063 86.51771Q71.59688 87.39271 71.6125 89.23646L71.6125 90.64271ZM70.51875 89.15833Q70.51875 87.78333 70.12813 87.15833Q69.75313 86.51771 68.90938 86.51771Q68.08125 86.51771 67.69063 87.15833Q67.31563 87.78333 67.31563 89.08021L67.31563 90.81458Q67.31563 92.18958 67.70625 92.86146Q68.1125 93.51771 68.925 93.51771Q69.72188 93.51771 70.1125 92.89271Q70.50313 92.26771 70.51875 90.93958L70.51875 89.15833ZM78.6125 90.64271Q78.6125 92.54896 77.95625 93.48646Q77.31563 94.40833 75.925 94.40833Q74.56563 94.40833 73.90938 93.50208Q73.25313 92.59583 73.22188 90.78333L73.22188 89.34583Q73.22188 87.45521 73.8625 86.54896Q74.51875 85.62708 75.90938 85.62708Q77.28438 85.62708 77.94063 86.51771Q78.59688 87.39271 78.6125 89.23646L78.6125 90.64271ZM77.51875 89.15833Q77.51875 87.78333 77.12813 87.15833Q76.75313 86.51771 75.90938 86.51771Q75.08125 86.51771 74.69063 87.15833Q74.31563 87.78333 74.31563 89.08021L74.31563 90.81458Q74.31563 92.18958 74.70625 92.86146Q75.1125 93.51771 75.925 93.51771Q76.72188 93.51771 77.1125 92.89271Q77.50313 92.26771 77.51875 90.93958L77.51875 89.15833Z" fill-rule="nonzero"/><path fill="#000000" d="M142.31995 312.16876L142.75745 307.91876L147.13245 307.91876L147.13245 308.91876L143.67932 308.91876L143.4137 311.2469Q144.05432 310.8719 144.8512 310.8719Q146.00745 310.8719 146.69495 311.65314Q147.38245 312.41876 147.38245 313.73126Q147.38245 315.04376 146.6637 315.8094Q145.96057 316.575 144.67932 316.575Q143.55432 316.575 142.83557 315.95Q142.11682 315.3094 142.02307 314.2L143.0387 314.2Q143.14807 314.9344 143.56995 315.3094Q143.99182 315.6844 144.67932 315.6844Q145.42932 315.6844 145.86682 315.16876Q146.30432 314.65314 146.30432 313.7469Q146.30432 312.8875 145.83557 312.3719Q145.36682 311.85626 144.58557 311.85626Q143.88245 311.85626 143.4762 312.15314L143.19495 312.3875L142.31995 312.16876ZM154.17932 312.8094Q154.17932 314.71564 153.52307 315.65314Q152.88245 316.575 151.49182 316.575Q150.13245 316.575 149.4762 315.66876Q148.81995 314.7625 148.7887 312.95L148.7887 311.5125Q148.7887 309.6219 149.42932 308.71564Q150.08557 307.79376 151.4762 307.79376Q152.8512 307.79376 153.50745 308.6844Q154.1637 309.5594 154.17932 311.40314L154.17932 312.8094ZM153.08557 311.325Q153.08557 309.95 152.69495 309.325Q152.31995 308.6844 151.4762 308.6844Q150.64807 308.6844 150.25745 309.325Q149.88245 309.95 149.88245 311.2469L149.88245 312.98126Q149.88245 314.35626 150.27307 315.02814Q150.67932 315.6844 151.49182 315.6844Q152.2887 315.6844 152.67932 315.0594Q153.06995 314.4344 153.08557 313.10626L153.08557 311.325Z" fill-rule="nonzero"/><path fill="#000000" d="M234.57404 316.45L233.49591 316.45L233.49591 309.23126L231.30841 310.02814L231.30841 309.04376L234.41779 307.8719L234.57404 307.8719L234.57404 316.45ZM243.37091 312.8094Q243.37091 314.71564 242.71466 315.65314Q242.07404 316.575 240.68341 316.575Q239.32404 316.575 238.66779 315.66876Q238.01154 314.7625 237.98029 312.95L237.98029 311.5125Q237.98029 309.6219 238.62091 308.71564Q239.27716 307.79376 240.66779 307.79376Q242.04279 307.79376 242.69904 308.6844Q243.35529 309.5594 243.37091 311.40314L243.37091 312.8094ZM242.27716 311.325Q242.27716 309.95 241.88654 309.325Q241.51154 308.6844 240.66779 308.6844Q239.83966 308.6844 239.44904 309.325Q239.07404 309.95 239.07404 311.2469L239.07404 312.98126Q239.07404 314.35626 239.46466 315.02814Q239.87091 315.6844 240.68341 315.6844Q241.48029 315.6844 241.87091 315.0594Q242.26154 314.4344 242.27716 313.10626L242.27716 311.325ZM250.37091 312.8094Q250.37091 314.71564 249.71466 315.65314Q249.07404 316.575 247.68341 316.575Q246.32404 316.575 245.66779 315.66876Q245.01154 314.7625 244.98029 312.95L244.98029 311.5125Q244.98029 309.6219 245.62091 308.71564Q246.27716 307.79376 247.66779 307.79376Q249.04279 307.79376 249.69904 308.6844Q250.35529 309.5594 250.37091 311.40314L250.37091 312.8094ZM249.27716 311.325Q249.27716 309.95 248.88654 309.325Q248.51154 308.6844 247.66779 308.6844Q246.83966 308.6844 246.44904 309.325Q246.07404 309.95 246.07404 311.2469L246.07404 312.98126Q246.07404 314.35626 246.46466 315.02814Q246.87091 315.6844 247.68341 315.6844Q248.48029 315.6844 248.87091 315.0594Q249.26154 314.4344 249.27716 313.10626L249.27716 311.325Z" fill-rule="nonzero"/><path fill="#000000" d="M327.26562 316.45L326.1875 316.45L326.1875 309.23126L324.0 310.02814L324.0 309.04376L327.10938 307.8719L327.26562 307.8719L327.26562 316.45ZM331.20312 312.16876L331.64062 307.91876L336.01562 307.91876L336.01562 308.91876L332.5625 308.91876L332.29688 311.2469Q332.9375 310.8719 333.73438 310.8719Q334.89062 310.8719 335.57812 311.65314Q336.26562 312.41876 336.26562 313.73126Q336.26562 315.04376 335.54688 315.8094Q334.84375 316.575 333.5625 316.575Q332.4375 316.575 331.71875 315.95Q331.0 315.3094 330.90625 314.2L331.92188 314.2Q332.03125 314.9344 332.45312 315.3094Q332.875 315.6844 333.5625 315.6844Q334.3125 315.6844 334.75 315.16876Q335.1875 314.65314 335.1875 313.7469Q335.1875 312.8875 334.71875 312.3719Q334.25 311.85626 333.46875 311.85626Q332.76562 311.85626 332.35938 312.15314L332.07812 312.3875L331.20312 312.16876ZM343.0625 312.8094Q343.0625 314.71564 342.40625 315.65314Q341.76562 316.575 340.375 316.575Q339.01562 316.575 338.35938 315.66876Q337.70312 314.7625 337.67188 312.95L337.67188 311.5125Q337.67188 309.6219 338.3125 308.71564Q338.96875 307.79376 340.35938 307.79376Q341.73438 307.79376 342.39062 308.6844Q343.04688 309.5594 343.0625 311.40314L343.0625 312.8094ZM341.96875 311.325Q341.96875 309.95 341.57812 309.325Q341.20312 308.6844 340.35938 308.6844Q339.53125 308.6844 339.14062 309.325Q338.76562 309.95 338.76562 311.2469L338.76562 312.98126Q338.76562 314.35626 339.15625 315.02814Q339.5625 315.6844 340.375 315.6844Q341.17188 315.6844 341.5625 315.0594Q341.95312 314.4344 341.96875 313.10626L341.96875 311.325Z" fill-rule="nonzero"/><path fill="#000000" d="M421.98846 316.45L416.3947 316.45L416.3947 315.66876L419.34784 312.3875Q420.0041 311.6375 420.2541 311.1844Q420.5041 310.71564 420.5041 310.21564Q420.5041 309.54376 420.09784 309.1219Q419.7072 308.6844 419.0197 308.6844Q418.22284 308.6844 417.7697 309.15314Q417.3166 309.60626 417.3166 310.4344L416.23846 310.4344Q416.23846 309.2469 416.98846 308.52814Q417.7541 307.79376 419.0197 307.79376Q420.22284 307.79376 420.91034 308.41876Q421.59784 309.04376 421.59784 310.09064Q421.59784 311.34064 419.98846 313.09064L417.7072 315.5594L421.98846 315.5594L421.98846 316.45ZM428.7541 312.8094Q428.7541 314.71564 428.09784 315.65314Q427.4572 316.575 426.0666 316.575Q424.7072 316.575 424.05096 315.66876Q423.3947 314.7625 423.36346 312.95L423.36346 311.5125Q423.36346 309.6219 424.0041 308.71564Q424.66034 307.79376 426.05096 307.79376Q427.42596 307.79376 428.0822 308.6844Q428.73846 309.5594 428.7541 311.40314L428.7541 312.8094ZM427.66034 311.325Q427.66034 309.95 427.2697 309.325Q426.8947 308.6844 426.05096 308.6844Q425.22284 308.6844 424.8322 309.325Q424.4572 309.95 424.4572 311.2469L424.4572 312.98126Q424.4572 314.35626 424.84784 315.02814Q425.2541 315.6844 426.0666 315.6844Q426.86346 315.6844 427.2541 315.0594Q427.6447 314.4344 427.66034 313.10626L427.66034 311.325ZM435.7541 312.8094Q435.7541 314.71564 435.09784 315.65314Q434.4572 316.575 433.0666 316.575Q431.7072 316.575 431.05096 315.66876Q430.3947 314.7625 430.36346 312.95L430.36346 311.5125Q430.36346 309.6219 431.0041 308.71564Q431.66034 307.79376 433.05096 307.79376Q434.42596 307.79376 435.0822 308.6844Q435.73846 309.5594 435.7541 311.40314L435.7541 312.8094ZM434.66034 311.325Q434.66034 309.95 434.2697 309.325Q433.8947 308.6844 433.05096 308.6844Q432.22284 308.6844 431.8322 309.325Q431.4572 309.95 431.4572 311.2469L431.4572 312.98126Q431.4572 314.35626 431.84784 315.02814Q432.2541 315.6844 433.0666 315.6844Q433.86346 315.6844 434.2541 315.0594Q434.6447 314.4344 434.66034 313.10626L434.66034 311.325Z" fill-rule="nonzero"/><path fill="#000000" d="M514.68005 316.45L509.0863 316.45L509.0863 315.66876L512.0394 312.3875Q512.6957 311.6375 512.9457 311.1844Q513.1957 310.71564 513.1957 310.21564Q513.1957 309.54376 512.7894 309.1219Q512.3988 308.6844 511.7113 308.6844Q510.91443 308.6844 510.4613 309.15314Q510.00818 309.60626 510.00818 310.4344L508.93005 310.4344Q508.93005 309.2469 509.68005 308.52814Q510.44568 307.79376 511.7113 307.79376Q512.9144 307.79376 513.6019 308.41876Q514.2894 309.04376 514.2894 310.09064Q514.2894 311.34064 512.68005 313.09064L510.3988 315.5594L514.68005 315.5594L514.68005 316.45ZM516.5863 312.16876L517.0238 307.91876L521.3988 307.91876L521.3988 308.91876L517.9457 308.91876L517.68005 311.2469Q518.3207 310.8719 519.11755 310.8719Q520.2738 310.8719 520.9613 311.65314Q521.6488 312.41876 521.6488 313.73126Q521.6488 315.04376 520.93005 315.8094Q520.2269 316.575 518.9457 316.575Q517.8207 316.575 517.1019 315.95Q516.3832 315.3094 516.2894 314.2L517.30505 314.2Q517.4144 314.9344 517.8363 315.3094Q518.2582 315.6844 518.9457 315.6844Q519.6957 315.6844 520.1332 315.16876Q520.5707 314.65314 520.5707 313.7469Q520.5707 312.8875 520.1019 312.3719Q519.6332 311.85626 518.8519 311.85626Q518.1488 311.85626 517.74255 312.15314L517.4613 312.3875L516.5863 312.16876ZM528.4457 312.8094Q528.4457 314.71564 527.7894 315.65314Q527.1488 316.575 525.7582 316.575Q524.3988 316.575 523.74255 315.66876Q523.0863 314.7625 523.05505 312.95L523.05505 311.5125Q523.05505 309.6219 523.6957 308.71564Q524.3519 307.79376 525.74255 307.79376Q527.11755 307.79376 527.7738 308.6844Q528.43005 309.5594 528.4457 311.40314L528.4457 312.8094ZM527.3519 311.325Q527.3519 309.95 526.9613 309.325Q526.5863 308.6844 525.74255 308.6844Q524.9144 308.6844 524.5238 309.325Q524.1488 309.95 524.1488 311.2469L524.1488 312.98126Q524.1488 314.35626 524.5394 315.02814Q524.9457 315.6844 525.7582 315.6844Q526.55505 315.6844 526.9457 315.0594Q527.3363 314.4344 527.3519 313.10626L527.3519 311.325Z" fill-rule="nonzero"/><path fill="#34a853" d="M238.5 57.416668C238.5 56.864384 238.94771 56.416668 239.5 56.416668L249.5 56.416668C250.05229 56.416668 250.5 56.864384 250.5 57.416668L250.5 67.416664C250.5 67.96895 250.05229 68.416664 249.5 68.416664L239.5 68.416664C238.94771 68.416664 238.5 67.96895 238.5 67.416664Z" fill-rule="nonzero"/><path fill="#1a1a1a" d="M260.34375 60.572914L260.375 61.36979Q261.10938 60.46354 262.28125 60.46354Q264.29688 60.46354 264.3125 62.729164L264.3125 66.916664L263.21875 66.916664L263.21875 62.71354Q263.21875 62.041664 262.90625 61.71354Q262.60938 61.385414 261.95312 61.385414Q261.42188 61.385414 261.01562 61.666664Q260.625 61.947914 260.40625 62.40104L260.40625 66.916664L259.32812 66.916664L259.32812 60.572914L260.34375 60.572914ZM266.03125 63.68229Q266.03125 62.760414 266.39062 62.010414Q266.76562 61.260414 267.42188 60.86979Q268.07812 60.46354 268.90625 60.46354Q270.20312 60.46354 271.0 61.354164Q271.8125 62.24479 271.8125 63.74479L271.8125 63.822914Q271.8125 64.74479 271.45312 65.479164Q271.09375 66.21354 270.4375 66.635414Q269.78125 67.041664 268.92188 67.041664Q267.64062 67.041664 266.82812 66.15104Q266.03125 65.24479 266.03125 63.760414L266.03125 63.68229ZM267.125 63.822914Q267.125 64.86979 267.60938 65.510414Q268.10938 66.15104 268.92188 66.15104Q269.75 66.15104 270.23438 65.510414Q270.71875 64.854164 270.71875 63.68229Q270.71875 62.65104 270.21875 62.010414Q269.73438 61.354164 268.90625 61.354164Q268.10938 61.354164 267.60938 61.99479Q267.125 62.61979 267.125 63.822914ZM273.0625 63.697914Q273.0625 62.229164 273.75 61.354164Q274.4375 60.46354 275.5625 60.46354Q276.67188 60.46354 277.32812 61.21354L277.32812 57.916664L278.40625 57.916664L278.40625 66.916664L277.40625 66.916664L277.35938 66.229164Q276.70312 67.041664 275.54688 67.041664Q274.45312 67.041664 273.75 66.135414Q273.0625 65.229164 273.0625 63.77604L273.0625 63.697914ZM274.14062 63.822914Q274.14062 64.90104 274.57812 65.510414Q275.03125 66.11979 275.8125 66.11979Q276.84375 66.11979 277.32812 65.18229L277.32812 62.27604Q276.84375 61.385414 275.82812 61.385414Q275.03125 61.385414 274.57812 61.99479Q274.14062 62.604164 274.14062 63.822914ZM282.95312 67.041664Q281.65625 67.041664 280.84375 66.197914Q280.04688 65.33854 280.04688 63.916664L280.04688 63.729164Q280.04688 62.77604 280.40625 62.041664Q280.76562 61.291664 281.40625 60.885414Q282.0625 60.46354 282.8125 60.46354Q284.04688 60.46354 284.73438 61.27604Q285.42188 62.08854 285.42188 63.604164L285.42188 64.05729L281.125 64.05729Q281.15625 64.99479 281.67188 65.572914Q282.20312 66.15104 283.01562 66.15104Q283.57812 66.15104 283.96875 65.916664Q284.375 65.68229 284.6875 65.291664L285.34375 65.80729Q284.54688 67.041664 282.95312 67.041664ZM282.8125 61.354164Q282.15625 61.354164 281.70312 61.83854Q281.26562 62.30729 281.17188 63.166664L284.34375 63.166664L284.34375 63.08854Q284.29688 62.260414 283.89062 61.80729Q283.5 61.354164 282.8125 61.354164Z" fill-rule="nonzero"/><path fill="#4285f4" d="M301.5 57.416668C301.5 56.864384 301.94772 56.416668 302.5 56.416668L312.5 56.416668C313.05228 56.416668 313.5 56.864384 313.5 57.416668L313.5 67.416664C313.5 67.96895 313.05228 68.416664 312.5 68.416664L302.5 68.416664C301.94772 68.416664 301.5 67.96895 301.5 67.416664Z" fill-rule="nonzero"/><path fill="#1a1a1a" d="M326.23438 66.916664Q326.14062 66.729164 326.07812 66.24479Q325.32812 67.041664 324.28125 67.041664Q323.34375 67.041664 322.73438 66.510414Q322.14062 65.979164 322.14062 65.15104Q322.14062 64.166664 322.89062 63.61979Q323.64062 63.072914 325.01562 63.072914L326.0625 63.072914L326.0625 62.572914Q326.0625 62.010414 325.71875 61.68229Q325.39062 61.33854 324.71875 61.33854Q324.14062 61.33854 323.75 61.635414Q323.35938 61.916664 323.35938 62.33854L322.26562 62.33854Q322.26562 61.854164 322.59375 61.416664Q322.9375 60.979164 323.51562 60.729164Q324.09375 60.46354 324.78125 60.46354Q325.89062 60.46354 326.5 61.010414Q327.125 61.55729 327.15625 62.510414L327.15625 65.43229Q327.15625 66.30729 327.375 66.822914L327.375 66.916664L326.23438 66.916664ZM324.4375 66.08854Q324.95312 66.08854 325.40625 65.822914Q325.85938 65.55729 326.0625 65.135414L326.0625 63.83854L325.21875 63.83854Q323.21875 63.83854 323.21875 65.010414Q323.21875 65.510414 323.5625 65.80729Q323.90625 66.08854 324.4375 66.08854ZM334.67188 63.822914Q334.67188 65.260414 334.01562 66.15104Q333.35938 67.041664 332.21875 67.041664Q331.0625 67.041664 330.40625 66.30729L330.40625 69.354164L329.32812 69.354164L329.32812 60.572914L330.3125 60.572914L330.35938 61.27604Q331.03125 60.46354 332.20312 60.46354Q333.34375 60.46354 334.0 61.322914Q334.67188 62.18229 334.67188 63.71354L334.67188 63.822914ZM333.59375 63.697914Q333.59375 62.61979 333.125 62.010414Q332.67188 61.385414 331.875 61.385414Q330.89062 61.385414 330.40625 62.24479L330.40625 65.27604Q330.89062 66.15104 331.89062 66.15104Q332.67188 66.15104 333.125 65.541664Q333.59375 64.916664 333.59375 63.697914ZM340.23438 66.916664Q340.14062 66.729164 340.07812 66.24479Q339.32812 67.041664 338.28125 67.041664Q337.34375 67.041664 336.73438 66.510414Q336.14062 65.979164 336.14062 65.15104Q336.14062 64.166664 336.89062 63.61979Q337.64062 63.072914 339.01562 63.072914L340.0625 63.072914L340.0625 62.572914Q340.0625 62.010414 339.71875 61.68229Q339.39062 61.33854 338.71875 61.33854Q338.14062 61.33854 337.75 61.635414Q337.35938 61.916664 337.35938 62.33854L336.26562 62.33854Q336.26562 61.854164 336.59375 61.416664Q336.9375 60.979164 337.51562 60.729164Q338.09375 60.46354 338.78125 60.46354Q339.89062 60.46354 340.5 61.010414Q341.125 61.55729 341.15625 62.510414L341.15625 65.43229Q341.15625 66.30729 341.375 66.822914L341.375 66.916664L340.23438 66.916664ZM338.4375 66.08854Q338.95312 66.08854 339.40625 65.822914Q339.85938 65.55729 340.0625 65.135414L340.0625 63.83854L339.21875 63.83854Q337.21875 63.83854 337.21875 65.010414Q337.21875 65.510414 337.5625 65.80729Q337.90625 66.08854 338.4375 66.08854ZM345.85938 66.15104Q346.4375 66.15104 346.875 65.80729Q347.3125 65.447914 347.35938 64.916664L348.39062 64.916664Q348.35938 65.46354 348.0 65.96354Q347.65625 66.447914 347.07812 66.74479Q346.51562 67.041664 345.85938 67.041664Q344.5625 67.041664 343.79688 66.18229Q343.04688 65.30729 343.04688 63.80729L343.04688 63.61979Q343.04688 62.697914 343.375 61.979164Q343.71875 61.260414 344.34375 60.86979Q344.98438 60.46354 345.85938 60.46354Q346.92188 60.46354 347.625 61.104164Q348.34375 61.729164 348.39062 62.760414L347.35938 62.760414Q347.3125 62.135414 346.89062 61.74479Q346.46875 61.354164 345.85938 61.354164Q345.03125 61.354164 344.57812 61.947914Q344.125 62.541664 344.125 63.666664L344.125 63.86979Q344.125 64.96354 344.57812 65.55729Q345.03125 66.15104 345.85938 66.15104ZM350.40625 61.33854Q351.125 60.46354 352.28125 60.46354Q354.29688 60.46354 354.3125 62.729164L354.3125 66.916664L353.21875 66.916664L353.21875 62.71354Q353.21875 62.041664 352.90625 61.71354Q352.60938 61.385414 351.95312 61.385414Q351.42188 61.385414 351.01562 61.666664Q350.625 61.947914 350.40625 62.40104L350.40625 66.916664L349.32812 66.916664L349.32812 57.916664L350.40625 57.916664L350.40625 61.33854ZM358.95312 67.041664Q357.65625 67.041664 356.84375 66.197914Q356.04688 65.33854 356.04688 63.916664L356.04688 63.729164Q356.04688 62.77604 356.40625 62.041664Q356.76562 61.291664 357.40625 60.885414Q358.0625 60.46354 358.8125 60.46354Q360.04688 60.46354 360.73438 61.27604Q361.42188 62.08854 361.42188 63.604164L361.42188 64.05729L357.125 64.05729Q357.15625 64.99479 357.67188 65.572914Q358.20312 66.15104 359.01562 66.15104Q359.57812 66.15104 359.96875 65.916664Q360.375 65.68229 360.6875 65.291664L361.34375 65.80729Q360.54688 67.041664 358.95312 67.041664ZM358.8125 61.354164Q358.15625 61.354164 357.70312 61.83854Q357.26562 62.30729 357.17188 63.166664L360.34375 63.166664L360.34375 63.08854Q360.29688 62.260414 359.89062 61.80729Q359.5 61.354164 358.8125 61.354164Z" fill-rule="nonzero"/><path fill="#757575" d="M24.39375 31.20625Q21.971874 30.51875 20.878124 29.51875Q19.784374 28.503124 19.784374 27.01875Q19.784374 25.33125 21.128124 24.2375Q22.471874 23.128124 24.6125 23.128124Q26.08125 23.128124 27.221874 23.70625Q28.378124 24.26875 29.003124 25.26875Q29.628124 26.253124 29.628124 27.440624L27.753124 27.440624Q27.753124 26.159374 26.925 25.425Q26.1125 24.675 24.6125 24.675Q23.221874 24.675 22.440624 25.284374Q21.675 25.89375 21.675 26.9875Q21.675 27.846874 22.409374 28.45625Q23.14375 29.05 24.909374 29.55Q26.690624 30.05 27.690624 30.659374Q28.690624 31.253124 29.175 32.05Q29.659374 32.846874 29.659374 33.940624Q29.659374 35.659374 28.315624 36.70625Q26.971874 37.753124 24.70625 37.753124Q23.253124 37.753124 21.971874 37.190624Q20.70625 36.628124 20.01875 35.659374Q19.33125 34.675 19.33125 33.425L21.221874 33.425Q21.221874 34.721874 22.175 35.471874Q23.128124 36.20625 24.70625 36.20625Q26.190624 36.20625 26.9875 35.6125Q27.784374 35.003124 27.784374 33.95625Q27.784374 32.909374 27.05 32.346874Q26.315624 31.76875 24.39375 31.20625ZM33.878124 37.55L32.08125 37.55L32.08125 26.9875L33.878124 26.9875L33.878124 37.55ZM31.925 24.175Q31.925 23.7375 32.190624 23.440624Q32.471874 23.128124 32.9875 23.128124Q33.51875 23.128124 33.784374 23.440624Q34.065624 23.7375 34.065624 24.175Q34.065624 24.6125 33.784374 24.909374Q33.51875 25.20625 32.9875 25.20625Q32.471874 25.20625 32.190624 24.909374Q31.925 24.6125 31.925 24.175ZM38.6125 26.9875L38.659374 28.159374Q39.83125 26.784374 41.8 26.784374Q44.01875 26.784374 44.815624 28.4875Q45.346874 27.721874 46.190624 27.253124Q47.034374 26.784374 48.190624 26.784374Q51.659374 26.784374 51.721874 30.471874L51.721874 37.55L49.909374 37.55L49.909374 30.58125Q49.909374 29.440624 49.39375 28.878124Q48.878124 28.315624 47.659374 28.315624Q46.659374 28.315624 45.9875 28.925Q45.33125 29.51875 45.221874 30.534374L45.221874 37.55L43.409374 37.55L43.409374 30.628124Q43.409374 28.315624 41.14375 28.315624Q39.3625 28.315624 38.721874 29.83125L38.721874 37.55L36.909374 37.55L36.909374 26.9875L38.6125 26.9875ZM61.440624 36.503124Q60.39375 37.753124 58.346874 37.753124Q56.659374 37.753124 55.76875 36.76875Q54.89375 35.784374 54.878124 33.8625L54.878124 26.9875L56.690624 26.9875L56.690624 33.815624Q56.690624 36.20625 58.64375 36.20625Q60.70625 36.20625 61.39375 34.675L61.39375 26.9875L63.20625 26.9875L63.20625 37.55L61.4875 37.55L61.440624 36.503124ZM67.87813 37.55L66.08125 37.55L66.08125 22.55L67.87813 22.55L67.87813 37.55ZM77.44063 37.55Q77.28438 37.2375 77.19063 36.440624Q75.925 37.753124 74.175 37.753124Q72.6125 37.753124 71.6125 36.8625Q70.6125 35.971874 70.6125 34.6125Q70.6125 32.971874 71.8625 32.065624Q73.12813 31.14375 75.39375 31.14375L77.15938 31.14375L77.15938 30.315624Q77.15938 29.3625 76.58125 28.8Q76.01875 28.2375 74.925 28.2375Q73.95625 28.2375 73.3 28.7375Q72.64375 29.221874 72.64375 29.909374L70.83125 29.909374Q70.83125 29.128124 71.39375 28.39375Q71.95625 27.64375 72.90938 27.221874Q73.87813 26.784374 75.03438 26.784374Q76.8625 26.784374 77.89375 27.70625Q78.925 28.6125 78.97188 30.221874L78.97188 35.08125Q78.97188 36.534374 79.33125 37.39375L79.33125 37.55L77.44063 37.55ZM74.44063 36.175Q75.3 36.175 76.05 35.7375Q76.81563 35.3 77.15938 34.596874L77.15938 32.425L75.7375 32.425Q72.425 32.425 72.425 34.3625Q72.425 35.221874 72.9875 35.70625Q73.55 36.175 74.44063 36.175ZM84.3625 24.425L84.3625 26.9875L86.34688 26.9875L86.34688 28.378124L84.3625 28.378124L84.3625 34.925Q84.3625 35.565624 84.62813 35.89375Q84.89375 36.20625 85.53438 36.20625Q85.84688 36.20625 86.39375 36.08125L86.39375 37.55Q85.675 37.753124 85.00313 37.753124Q83.8 37.753124 83.175 37.01875Q82.56563 36.284374 82.56563 34.925L82.56563 28.378124L80.64375 28.378124L80.64375 26.9875L82.56563 26.9875L82.56563 24.425L84.3625 24.425ZM93.3 37.753124Q91.15938 37.753124 89.8 36.346874Q88.45625 34.925 88.45625 32.565624L88.45625 32.221874Q88.45625 30.659374 89.05 29.425Q89.65938 28.190624 90.7375 27.4875Q91.81563 26.784374 93.08125 26.784374Q95.14375 26.784374 96.28438 28.14375Q97.425 29.503124 97.425 32.034374L97.425 32.784374L90.26875 32.784374Q90.3 34.346874 91.175 35.315624Q92.05 36.26875 93.39375 36.26875Q94.3625 36.26875 95.01875 35.878124Q95.69063 35.4875 96.19063 34.846874L97.28438 35.70625Q95.95625 37.753124 93.3 37.753124ZM93.08125 28.26875Q91.9875 28.26875 91.2375 29.065624Q90.50313 29.8625 90.33125 31.3L95.6125 31.3L95.6125 31.159374Q95.53438 29.784374 94.8625 29.034374Q94.20625 28.26875 93.08125 28.26875ZM99.47188 32.175Q99.47188 29.753124 100.62813 28.26875Q101.78438 26.784374 103.64375 26.784374Q105.50313 26.784374 106.58125 28.05L106.58125 22.55L108.39375 22.55L108.39375 37.55L106.7375 37.55L106.64375 36.409374Q105.56563 37.753124 103.62813 37.753124Q101.8 37.753124 100.62813 36.253124Q99.47188 34.7375 99.47188 32.315624L99.47188 32.175ZM101.28438 32.378124Q101.28438 34.175 102.01875 35.190624Q102.76875 36.20625 104.08125 36.20625Q105.8 36.20625 106.58125 34.675L106.58125 29.815624Q105.78438 28.315624 104.09688 28.315624Q102.76875 28.315624 102.01875 29.346874Q101.28438 30.378124 101.28438 32.378124ZM118.20625 37.55L116.33125 37.55L116.33125 23.33125L118.20625 23.33125L118.20625 37.55ZM132.14375 30.89375Q132.14375 32.9875 131.44063 34.55Q130.7375 36.096874 129.44063 36.925Q128.15938 37.753124 126.44063 37.753124Q124.75313 37.753124 123.45625 36.925Q122.15938 36.096874 121.44063 34.565624Q120.72188 33.034374 120.70625 31.01875L120.70625 30.003124Q120.70625 27.95625 121.40938 26.378124Q122.12813 24.8 123.425 23.971874Q124.7375 23.128124 126.40938 23.128124Q128.12813 23.128124 129.425 23.95625Q130.7375 24.784374 131.44063 26.3625Q132.14375 27.925 132.14375 30.003124L132.14375 30.89375ZM130.26875 29.9875Q130.26875 27.45625 129.25313 26.1125Q128.2375 24.753124 126.40938 24.753124Q124.64375 24.753124 123.6125 26.1125Q122.59688 27.45625 122.56563 29.846874L122.56563 30.89375Q122.56563 33.346874 123.59688 34.753124Q124.62813 36.159374 126.44063 36.159374Q128.25313 36.159374 129.2375 34.83125Q130.2375 33.503124 130.26875 31.034374L130.26875 29.9875Z" fill-rule="nonzero"/></svg>