<svg version="1.1" viewBox="0.0 0.0 600.0 371.0" fill="none" stroke="none" stroke-linecap="square" stroke-miterlimit="10" width="600" height="371" xmlns:xlink="http://www.w3.org/1999/xlink" xmlns="http://www.w3.org/2000/svg"><path fill="#ffffff" d="M0 0L600.0 0L600.0 371.0L0 371.0L0 0Z" fill-rule="nonzero"/><path stroke="#333333" stroke-width="1.0" stroke-linecap="butt" d="M92.5 298.5L581.5 298.5" fill-rule="nonzero"/><path stroke="#cccccc" stroke-width="1.0" stroke-linecap="butt" d="M92.5 228.5L581.5 228.5" fill-rule="nonzero"/><path stroke="#cccccc" stroke-width="1.0" stroke-linecap="butt" d="M92.5 159.5L581.5 159.5" fill-rule="nonzero"/><path stroke="#cccccc" stroke-width="1.0" stroke-linecap="butt" d="M92.5 89.5L581.5 89.5" fill-rule="nonzero"/><clipPath id="id_0"><path d="M92.55 89.78333L581.45 89.78333L581.45 298.45L92.55 298.45L92.55 89.78333Z" clip-rule="nonzero"/></clipPath><path stroke="#000000" stroke-width="0.0" stroke-linecap="butt" stroke-opacity="0.0" clip-path="url(#id_0)" d="M153.0 298.0L124.0 298.0L124.0 294.0C124.0 292.89542 124.89543 292.0 126.0 292.0L151.0 292.0C152.10457 292.0 153.0 292.89542 153.0 294.0Z" fill-rule="nonzero"/><path fill="#34a853" clip-path="url(#id_0)" d="M153.0 298.0L124.0 298.0L124.0 294.0C124.0 292.89542 124.89543 292.0 126.0 292.0L151.0 292.0C152.10457 292.0 153.0 292.89542 153.0 294.0Z" fill-rule="nonzero"/><path stroke="#000000" stroke-width="0.0" stroke-linecap="butt" stroke-opacity="0.0" clip-path="url(#id_0)" d="M245.0 298.0L216.0 298.0L216.0 290.0C216.0 288.89542 216.89543 288.0 218.0 288.0L243.0 288.0C244.10457 288.0 245.0 288.89542 245.0 290.0Z" fill-rule="nonzero"/><path fill="#34a853" clip-path="url(#id_0)" d="M245.0 298.0L216.0 298.0L216.0 290.0C216.0 288.89542 216.89543 288.0 218.0 288.0L243.0 288.0C244.10457 288.0 245.0 288.89542 245.0 290.0Z" fill-rule="nonzero"/><path stroke="#000000" stroke-width="0.0" stroke-linecap="butt" stroke-opacity="0.0" clip-path="url(#id_0)" d="M336.0 298.0L307.0 298.0L307.0 275.0C307.0 273.89542 307.89542 273.0 309.0 273.0L334.0 273.0C335.10458 273.0 336.0 273.89542 336.0 275.0Z" fill-rule="nonzero"/><path fill="#34a853" clip-path="url(#id_0)" d="M336.0 298.0L307.0 298.0L307.0 275.0C307.0 273.89542 307.89542 273.0 309.0 273.0L334.0 273.0C335.10458 273.0 336.0 273.89542 336.0 275.0Z" fill-rule="nonzero"/><path stroke="#000000" stroke-width="0.0" stroke-linecap="butt" stroke-opacity="0.0" clip-path="url(#id_0)" d="M427.0 298.0L398.0 298.0L398.0 271.0C398.0 269.89542 398.89542 269.0 400.0 269.0L425.0 269.0C426.10458 269.0 427.0 269.89542 427.0 271.0Z" fill-rule="nonzero"/><path fill="#34a853" clip-path="url(#id_0)" d="M427.0 298.0L398.0 298.0L398.0 271.0C398.0 269.89542 398.89542 269.0 400.0 269.0L425.0 269.0C426.10458 269.0 427.0 269.89542 427.0 271.0Z" fill-rule="nonzero"/><path stroke="#000000" stroke-width="0.0" stroke-linecap="butt" stroke-opacity="0.0" clip-path="url(#id_0)" d="M519.0 298.0L490.0 298.0L490.0 263.0C490.0 261.89542 490.89542 261.0 492.0 261.0L517.0 261.0C518.10455 261.0 519.0 261.89542 519.0 263.0Z" fill-rule="nonzero"/><path fill="#34a853" clip-path="url(#id_0)" d="M519.0 298.0L490.0 298.0L490.0 263.0C490.0 261.89542 490.89542 261.0 492.0 261.0L517.0 261.0C518.10455 261.0 519.0 261.89542 519.0 263.0Z" fill-rule="nonzero"/><path stroke="#000000" stroke-width="0.0" stroke-linecap="butt" stroke-opacity="0.0" clip-path="url(#id_0)" d="M183.0 298.0L154.0 298.0L154.0 279.0C154.0 277.89542 154.89543 277.0 156.0 277.0L181.0 277.0C182.10457 277.0 183.0 277.89542 183.0 279.0Z" fill-rule="nonzero"/><path fill="#4285f4" clip-path="url(#id_0)" d="M183.0 298.0L154.0 298.0L154.0 279.0C154.0 277.89542 154.89543 277.0 156.0 277.0L181.0 277.0C182.10457 277.0 183.0 277.89542 183.0 279.0Z" fill-rule="nonzero"/><path stroke="#000000" stroke-width="0.0" stroke-linecap="butt" stroke-opacity="0.0" clip-path="url(#id_0)" d="M275.0 298.0L246.0 298.0L246.0 259.0C246.0 257.89542 246.89543 257.0 248.0 257.0L273.0 257.0C274.10458 257.0 275.0 257.89542 275.0 259.0Z" fill-rule="nonzero"/><path fill="#4285f4" clip-path="url(#id_0)" d="M275.0 298.0L246.0 298.0L246.0 259.0C246.0 257.89542 246.89543 257.0 248.0 257.0L273.0 257.0C274.10458 257.0 275.0 257.89542 275.0 259.0Z" fill-rule="nonzero"/><path stroke="#000000" stroke-width="0.0" stroke-linecap="butt" stroke-opacity="0.0" clip-path="url(#id_0)" d="M366.0 298.0L337.0 298.0L337.0 145.0C337.0 143.89543 337.89542 143.0 339.0 143.0L364.0 143.0C365.10458 143.0 366.0 143.89543 366.0 145.0Z" fill-rule="nonzero"/><path fill="#4285f4" clip-path="url(#id_0)" d="M366.0 298.0L337.0 298.0L337.0 145.0C337.0 143.89543 337.89542 143.0 339.0 143.0L364.0 143.0C365.10458 143.0 366.0 143.89543 366.0 145.0Z" fill-rule="nonzero"/><path stroke="#000000" stroke-width="0.0" stroke-linecap="butt" stroke-opacity="0.0" clip-path="url(#id_0)" d="M457.0 298.0L428.0 298.0L428.0 130.0C428.0 128.89543 428.89542 128.0 430.0 128.0L455.0 128.0C456.10458 128.0 457.0 128.89543 457.0 130.0Z" fill-rule="nonzero"/><path fill="#4285f4" clip-path="url(#id_0)" d="M457.0 298.0L428.0 298.0L428.0 130.0C428.0 128.89543 428.89542 128.0 430.0 128.0L455.0 128.0C456.10458 128.0 457.0 128.89543 457.0 130.0Z" fill-rule="nonzero"/><path stroke="#000000" stroke-width="0.0" stroke-linecap="butt" stroke-opacity="0.0" clip-path="url(#id_0)" d="M549.0 298.0L520.0 298.0L520.0 114.0C520.0 112.89543 520.89545 112.0 522.0 112.0L547.0 112.0C548.10455 112.0 549.0 112.89543 549.0 114.0Z" fill-rule="nonzero"/><path fill="#4285f4" clip-path="url(#id_0)" d="M549.0 298.0L520.0 298.0L520.0 114.0C520.0 112.89543 520.89545 112.0 522.0 112.0L547.0 112.0C548.10455 112.0 549.0 112.89543 549.0 114.0Z" fill-rule="nonzero"/><path fill="#000000" d="M296.95312 346.60626Q296.85938 347.98126 295.9375 348.77814Q295.03125 349.575 293.53125 349.575Q291.89062 349.575 290.9375 348.46564Q290.0 347.35626 290.0 345.4344L290.0 344.90314Q290.0 343.6844 290.4375 342.7469Q290.875 341.8094 291.67188 341.3094Q292.48438 340.79376 293.54688 340.79376Q295.03125 340.79376 295.92188 341.59064Q296.82812 342.3875 296.96875 343.8094L295.21875 343.8094Q295.15625 342.98126 294.75 342.6219Q294.35938 342.2469 293.54688 342.2469Q292.67188 342.2469 292.23438 342.8719Q291.79688 343.4969 291.78125 344.825L291.78125 345.46564Q291.78125 346.85626 292.20312 347.4969Q292.625 348.1375 293.53125 348.1375Q294.34375 348.1375 294.73438 347.7625Q295.14062 347.3875 295.20312 346.60626L296.95312 346.60626ZM297.89062 346.21564Q297.89062 345.27814 298.25 344.54376Q298.60938 343.79376 299.29688 343.40314Q299.98438 342.9969 300.875 342.9969Q302.17188 342.9969 302.96875 343.77814Q303.78125 344.5594 303.875 345.90314L303.89062 346.34064Q303.89062 347.8094 303.07812 348.7Q302.26562 349.575 300.89062 349.575Q299.51562 349.575 298.70312 348.7Q297.89062 347.8094 297.89062 346.29376L297.89062 346.21564ZM299.57812 346.34064Q299.57812 347.2469 299.92188 347.73126Q300.26562 348.2 300.89062 348.2Q301.51562 348.2 301.85938 347.73126Q302.20312 347.2625 302.20312 346.21564Q302.20312 345.34064 301.85938 344.85626Q301.51562 344.35626 300.875 344.35626Q300.26562 344.35626 299.92188 344.84064Q299.57812 345.325 299.57812 346.34064ZM306.70312 343.10626L306.76562 343.84064Q307.4375 342.9969 308.57812 342.9969Q309.59375 342.9969 310.07812 343.59064Q310.57812 344.16876 310.59375 345.35626L310.59375 349.45L308.89062 349.45L308.89062 345.3875Q308.89062 344.85626 308.65625 344.6219Q308.42188 344.3719 307.875 344.3719Q307.17188 344.3719 306.8125 344.98126L306.8125 349.45L305.10938 349.45L305.10938 343.10626L306.70312 343.10626ZM314.78125 348.2Q315.25 348.2 315.54688 347.95Q315.84375 347.6844 315.85938 347.2625L317.4375 347.2625Q317.4375 347.90314 317.09375 348.45Q316.75 348.98126 316.14062 349.27814Q315.54688 349.575 314.8125 349.575Q313.45312 349.575 312.67188 348.71564Q311.89062 347.84064 311.89062 346.3094L311.89062 346.2Q311.89062 344.73126 312.67188 343.8719Q313.45312 342.9969 314.8125 342.9969Q316.0 342.9969 316.71875 343.66876Q317.4375 344.34064 317.4375 345.46564L315.85938 345.46564Q315.84375 344.98126 315.54688 344.66876Q315.25 344.35626 314.78125 344.35626Q314.1875 344.35626 313.875 344.79376Q313.57812 345.23126 313.57812 346.1844L313.57812 346.3719Q313.57812 347.34064 313.875 347.77814Q314.17188 348.2 314.78125 348.2ZM321.95312 348.8094Q321.32812 349.575 320.21875 349.575Q319.1875 349.575 318.65625 348.98126Q318.125 348.3875 318.10938 347.2625L318.10938 343.10626L319.79688 343.10626L319.79688 347.2Q319.79688 348.2 320.70312 348.2Q321.5625 348.2 321.89062 347.59064L321.89062 343.10626L323.59375 343.10626L323.59375 349.45L322.0 349.45L321.95312 348.8094ZM328.71875 344.7Q328.375 344.65314 328.10938 344.65314Q327.14062 344.65314 326.84375 345.29376L326.84375 349.45L325.15625 349.45L325.15625 343.10626L326.75 343.10626L326.79688 343.8719Q327.3125 342.9969 328.20312 342.9969Q328.48438 342.9969 328.73438 343.075L328.71875 344.7ZM332.71875 344.7Q332.375 344.65314 332.10938 344.65314Q331.14062 344.65314 330.84375 345.29376L330.84375 349.45L329.15625 349.45L329.15625 343.10626L330.75 343.10626L330.79688 343.8719Q331.3125 342.9969 332.20312 342.9969Q332.48438 342.9969 332.73438 343.075L332.71875 344.7ZM336.0625 349.575Q334.67188 349.575 333.79688 348.71564Q332.92188 347.85626 332.92188 346.4344L332.92188 346.2625Q332.92188 345.3094 333.28125 344.5594Q333.65625 343.8094 334.32812 343.40314Q335.01562 342.9969 335.875 342.9969Q337.1875 342.9969 337.92188 343.825Q338.67188 344.6375 338.67188 346.1375L338.67188 346.825L334.64062 346.825Q334.71875 347.45 335.125 347.825Q335.54688 348.2 336.1875 348.2Q337.15625 348.2 337.70312 347.4969L338.54688 348.41876Q338.15625 348.96564 337.5 349.27814Q336.85938 349.575 336.0625 349.575ZM335.875 344.35626Q335.375 344.35626 335.0625 344.7Q334.75 345.04376 334.65625 345.66876L337.01562 345.66876L337.01562 345.54376Q337.0 344.98126 336.70312 344.66876Q336.42188 344.35626 335.875 344.35626ZM340.70312 343.10626L340.76562 343.84064Q341.4375 342.9969 342.57812 342.9969Q343.59375 342.9969 344.07812 343.59064Q344.57812 344.16876 344.59375 345.35626L344.59375 349.45L342.89062 349.45L342.89062 345.3875Q342.89062 344.85626 342.65625 344.6219Q342.42188 344.3719 341.875 344.3719Q341.17188 344.3719 340.8125 344.98126L340.8125 349.45L339.10938 349.45L339.10938 343.10626L340.70312 343.10626ZM348.78125 348.2Q349.25 348.2 349.54688 347.95Q349.84375 347.6844 349.85938 347.2625L351.4375 347.2625Q351.4375 347.90314 351.09375 348.45Q350.75 348.98126 350.14062 349.27814Q349.54688 349.575 348.8125 349.575Q347.45312 349.575 346.67188 348.71564Q345.89062 347.84064 345.89062 346.3094L345.89062 346.2Q345.89062 344.73126 346.67188 343.8719Q347.45312 342.9969 348.8125 342.9969Q350.0 342.9969 350.71875 343.66876Q351.4375 344.34064 351.4375 345.46564L349.85938 345.46564Q349.84375 344.98126 349.54688 344.66876Q349.25 344.35626 348.78125 344.35626Q348.1875 344.35626 347.875 344.79376Q347.57812 345.23126 347.57812 346.1844L347.57812 346.3719Q347.57812 347.34064 347.875 347.77814Q348.17188 348.2 348.78125 348.2ZM354.51562 347.0594L355.6875 343.10626L357.5 343.10626L354.95312 350.4344L354.8125 350.7625Q354.25 352.0125 352.9375 352.0125Q352.57812 352.0125 352.1875 351.90314L352.1875 350.6219L352.45312 350.6219Q352.9375 350.6219 353.17188 350.46564Q353.40625 350.325 353.54688 349.9969L353.73438 349.46564L351.51562 343.10626L353.34375 343.10626L354.51562 347.0594ZM362.9375 349.45L361.23438 349.45L361.23438 340.45L362.9375 340.45L362.9375 349.45ZM367.0625 349.575Q365.67188 349.575 364.79688 348.71564Q363.92188 347.85626 363.92188 346.4344L363.92188 346.2625Q363.92188 345.3094 364.28125 344.5594Q364.65625 343.8094 365.32812 343.40314Q366.01562 342.9969 366.875 342.9969Q368.1875 342.9969 368.92188 343.825Q369.67188 344.6375 369.67188 346.1375L369.67188 346.825L365.64062 346.825Q365.71875 347.45 366.125 347.825Q366.54688 348.2 367.1875 348.2Q368.15625 348.2 368.70312 347.4969L369.54688 348.41876Q369.15625 348.96564 368.5 349.27814Q367.85938 349.575 367.0625 349.575ZM366.875 344.35626Q366.375 344.35626 366.0625 344.7Q365.75 345.04376 365.65625 345.66876L368.01562 345.66876L368.01562 345.54376Q368.0 344.98126 367.70312 344.66876Q367.42188 344.35626 366.875 344.35626ZM372.53125 347.3875L373.70312 343.10626L375.46875 343.10626L373.32812 349.45L371.71875 349.45L369.57812 343.10626L371.34375 343.10626L372.53125 347.3875ZM379.0625 349.575Q377.67188 349.575 376.79688 348.71564Q375.92188 347.85626 375.92188 346.4344L375.92188 346.2625Q375.92188 345.3094 376.28125 344.5594Q376.65625 343.8094 377.32812 343.40314Q378.01562 342.9969 378.875 342.9969Q380.1875 342.9969 380.92188 343.825Q381.67188 344.6375 381.67188 346.1375L381.67188 346.825L377.64062 346.825Q377.71875 347.45 378.125 347.825Q378.54688 348.2 379.1875 348.2Q380.15625 348.2 380.70312 347.4969L381.54688 348.41876Q381.15625 348.96564 380.5 349.27814Q379.85938 349.575 379.0625 349.575ZM378.875 344.35626Q378.375 344.35626 378.0625 344.7Q377.75 345.04376 377.65625 345.66876L380.01562 345.66876L380.01562 345.54376Q380.0 344.98126 379.70312 344.66876Q379.42188 344.35626 378.875 344.35626ZM383.9375 349.45L382.23438 349.45L382.23438 340.45L383.9375 340.45L383.9375 349.45Z" fill-rule="nonzero"/><path fill="#000000" d="M29.143763 268.35104L29.143763 264.61667L30.550013 264.61667L30.550013 270.10104L22.018763 270.10104L22.018763 268.35104L29.143763 268.35104ZM27.315638 263.47604Q26.378138 263.47604 25.643763 263.11667Q24.893763 262.7573 24.503138 262.0698Q24.096888 261.3823 24.096888 260.49167Q24.096888 259.1948 24.878138 258.39792Q25.659388 257.58542 27.003138 257.49167L27.440638 257.47604Q28.909388 257.47604 29.800013 258.28854Q30.675013 259.10104 30.675013 260.47604Q30.675013 261.85104 29.800013 262.66354Q28.909388 263.47604 27.393763 263.47604L27.315638 263.47604ZM27.440638 261.78854Q28.346888 261.78854 28.831263 261.4448Q29.300013 261.10104 29.300013 260.47604Q29.300013 259.85104 28.831263 259.5073Q28.362513 259.16354 27.315638 259.16354Q26.440638 259.16354 25.956263 259.5073Q25.456263 259.85104 25.456263 260.49167Q25.456263 261.10104 25.940638 261.4448Q26.425013 261.78854 27.440638 261.78854ZM24.206263 254.66354L24.940638 254.60104Q24.096888 253.92917 24.096888 252.78854Q24.096888 251.77292 24.690638 251.28854Q25.268763 250.78854 26.456263 250.77292L30.550013 250.77292L30.550013 252.47604L26.487513 252.47604Q25.956263 252.47604 25.721888 252.71042Q25.471888 252.9448 25.471888 253.49167Q25.471888 254.1948 26.081263 254.55417L30.550013 254.55417L30.550013 256.2573L24.206263 256.2573L24.206263 254.66354ZM27.331263 249.46042Q25.878138 249.46042 24.987513 248.77292Q24.096888 248.0698 24.096888 246.89792Q24.096888 245.85104 24.800013 245.27292L24.206263 245.1948L24.206263 243.66354L30.331263 243.66354Q31.175013 243.66354 31.784388 244.05417Q32.409386 244.42917 32.721886 245.11667Q33.05001 245.78854 33.05001 246.71042Q33.05001 247.41354 32.76876 248.08542Q32.48751 248.74167 32.05001 249.0698L31.018763 248.3198Q31.721888 247.6948 31.721888 246.78854Q31.721888 246.11667 31.362513 245.74167Q31.003138 245.36667 30.346888 245.36667L30.003138 245.36667Q30.675013 245.9448 30.675013 246.91354Q30.675013 248.05417 29.784388 248.7573Q28.878138 249.46042 27.409388 249.46042L27.331263 249.46042ZM27.456263 247.77292Q28.315638 247.77292 28.815638 247.42917Q29.300013 247.0698 29.300013 246.47604Q29.300013 245.6948 28.721888 245.36667L26.050013 245.36667Q25.471888 245.71042 25.471888 246.46042Q25.471888 247.0698 25.971888 247.42917Q26.471888 247.77292 27.456263 247.77292ZM30.675013 239.30417Q30.675013 240.6948 29.815638 241.5698Q28.956263 242.4448 27.534388 242.4448L27.362513 242.4448Q26.409388 242.4448 25.659388 242.08542Q24.909388 241.71042 24.503138 241.03854Q24.096888 240.35104 24.096888 239.49167Q24.096888 238.17917 24.925013 237.4448Q25.737513 236.6948 27.237513 236.6948L27.925013 236.6948L27.925013 240.72604Q28.550013 240.64792 28.925013 240.24167Q29.300013 239.8198 29.300013 239.17917Q29.300013 238.21042 28.596888 237.66354L29.518763 236.8198Q30.065638 237.21042 30.378138 237.86667Q30.675013 238.5073 30.675013 239.30417ZM25.456263 239.49167Q25.456263 239.99167 25.800013 240.30417Q26.143763 240.61667 26.768763 240.71042L26.768763 238.35104L26.643763 238.35104Q26.081263 238.36667 25.768763 238.66354Q25.456263 238.9448 25.456263 239.49167ZM28.800013 232.78854Q28.487513 232.78854 28.315638 233.10104Q28.128138 233.39792 27.987513 234.0698Q27.518763 236.33542 26.065638 236.33542Q25.221888 236.33542 24.659388 235.64792Q24.096888 234.9448 24.096888 233.80417Q24.096888 232.60104 24.659388 231.8823Q25.221888 231.14792 26.143763 231.14792L26.143763 232.85104Q25.768763 232.85104 25.534388 233.08542Q25.300013 233.3198 25.300013 233.8198Q25.300013 234.24167 25.503138 234.47604Q25.690638 234.71042 25.987513 234.71042Q26.268763 234.71042 26.440638 234.4448Q26.612513 234.17917 26.737513 233.55417Q26.862513 232.91354 27.018763 232.47604Q27.518763 231.1323 28.721888 231.1323Q29.596888 231.1323 30.143763 231.8823Q30.675013 232.61667 30.675013 233.80417Q30.675013 234.60104 30.393763 235.22604Q30.096888 235.83542 29.612513 236.1948Q29.112513 236.53854 28.534388 236.53854L28.534388 234.92917Q28.987513 234.91354 29.237513 234.60104Q29.471888 234.28854 29.471888 233.77292Q29.471888 233.27292 29.284388 233.03854Q29.096888 232.78854 28.800013 232.78854ZM22.643763 228.1948L24.206263 228.1948L24.206263 227.10104L25.456263 227.10104L25.456263 228.1948L28.612513 228.1948Q28.971888 228.1948 29.128138 228.05417Q29.268763 227.91354 29.268763 227.53854Q29.268763 227.2573 29.237513 227.03854L30.518763 227.03854Q30.675013 227.53854 30.675013 228.0698Q30.675013 229.85104 28.862513 229.8823L25.456263 229.8823L25.456263 230.80417L24.206263 230.80417L24.206263 229.8823L22.643763 229.8823L22.643763 228.1948ZM25.800013 219.64792Q25.753138 219.99167 25.753138 220.2573Q25.753138 221.22604 26.393763 221.52292L30.550013 221.52292L30.550013 223.21042L24.206263 223.21042L24.206263 221.61667L24.971888 221.5698Q24.096888 221.05417 24.096888 220.16354Q24.096888 219.8823 24.175013 219.6323L25.800013 219.64792ZM30.675013 216.30417Q30.675013 217.6948 29.815638 218.5698Q28.956263 219.4448 27.534388 219.4448L27.362513 219.4448Q26.409388 219.4448 25.659388 219.08542Q24.909388 218.71042 24.503138 218.03854Q24.096888 217.35104 24.096888 216.49167Q24.096888 215.17917 24.925013 214.4448Q25.737513 213.6948 27.237513 213.6948L27.925013 213.6948L27.925013 217.72604Q28.550013 217.64792 28.925013 217.24167Q29.300013 216.8198 29.300013 216.17917Q29.300013 215.21042 28.596888 214.66354L29.518763 213.8198Q30.065638 214.21042 30.378138 214.86667Q30.675013 215.5073 30.675013 216.30417ZM25.456263 216.49167Q25.456263 216.99167 25.800013 217.30417Q26.143763 217.61667 26.768763 217.71042L26.768763 215.35104L26.643763 215.35104Q26.081263 215.36667 25.768763 215.66354Q25.456263 215.9448 25.456263 216.49167ZM27.315638 213.47604Q25.831263 213.47604 24.971888 212.8198Q24.096888 212.14792 24.096888 210.99167Q24.096888 209.97604 24.878138 209.36667L24.206263 209.2573L24.206263 207.77292L32.98751 207.77292L32.98751 209.46042L30.003138 209.46042Q30.675013 210.05417 30.675013 211.0073Q30.675013 212.1323 29.800013 212.80417Q28.909388 213.47604 27.315638 213.47604ZM27.440638 211.78854Q28.346888 211.78854 28.831263 211.47604Q29.300013 211.14792 29.300013 210.5698Q29.300013 209.78854 28.675013 209.46042L26.065638 209.46042Q25.456263 209.78854 25.456263 210.55417Q25.456263 211.14792 25.940638 211.47604Q26.409388 211.78854 27.440638 211.78854ZM29.909388 202.41354Q30.675013 203.03854 30.675013 204.14792Q30.675013 205.17917 30.081263 205.71042Q29.487513 206.24167 28.362513 206.2573L24.206263 206.2573L24.206263 204.5698L28.300013 204.5698Q29.300013 204.5698 29.300013 203.66354Q29.300013 202.80417 28.690638 202.47604L24.206263 202.47604L24.206263 200.77292L30.550013 200.77292L30.550013 202.36667L29.909388 202.41354ZM30.675013 196.30417Q30.675013 197.6948 29.815638 198.5698Q28.956263 199.4448 27.534388 199.4448L27.362513 199.4448Q26.409388 199.4448 25.659388 199.08542Q24.909388 198.71042 24.503138 198.03854Q24.096888 197.35104 24.096888 196.49167Q24.096888 195.17917 24.925013 194.4448Q25.737513 193.6948 27.237513 193.6948L27.925013 193.6948L27.925013 197.72604Q28.550013 197.64792 28.925013 197.24167Q29.300013 196.8198 29.300013 196.17917Q29.300013 195.21042 28.596888 194.66354L29.518763 193.8198Q30.065638 194.21042 30.378138 194.86667Q30.675013 195.5073 30.675013 196.30417ZM25.456263 196.49167Q25.456263 196.99167 25.800013 197.30417Q26.143763 197.61667 26.768763 197.71042L26.768763 195.35104L26.643763 195.35104Q26.081263 195.36667 25.768763 195.66354Q25.456263 195.9448 25.456263 196.49167ZM28.800013 189.78854Q28.487513 189.78854 28.315638 190.10104Q28.128138 190.39792 27.987513 191.0698Q27.518763 193.33542 26.065638 193.33542Q25.221888 193.33542 24.659388 192.64792Q24.096888 191.9448 24.096888 190.80417Q24.096888 189.60104 24.659388 188.8823Q25.221888 188.14792 26.143763 188.14792L26.143763 189.85104Q25.768763 189.85104 25.534388 190.08542Q25.300013 190.3198 25.300013 190.8198Q25.300013 191.24167 25.503138 191.47604Q25.690638 191.71042 25.987513 191.71042Q26.268763 191.71042 26.440638 191.4448Q26.612513 191.17917 26.737513 190.55417Q26.862513 189.91354 27.018763 189.47604Q27.518763 188.1323 28.721888 188.1323Q29.596888 188.1323 30.143763 188.8823Q30.675013 189.61667 30.675013 190.80417Q30.675013 191.60104 30.393763 192.22604Q30.096888 192.83542 29.612513 193.1948Q29.112513 193.53854 28.534388 193.53854L28.534388 191.92917Q28.987513 191.91354 29.237513 191.60104Q29.471888 191.28854 29.471888 190.77292Q29.471888 190.27292 29.284388 190.03854Q29.096888 189.78854 28.800013 189.78854ZM22.643763 185.1948L24.206263 185.1948L24.206263 184.10104L25.456263 184.10104L25.456263 185.1948L28.612513 185.1948Q28.971888 185.1948 29.128138 185.05417Q29.268763 184.91354 29.268763 184.53854Q29.268763 184.2573 29.237513 184.03854L30.518763 184.03854Q30.675013 184.53854 30.675013 185.0698Q30.675013 186.85104 28.862513 186.8823L25.456263 186.8823L25.456263 187.80417L24.206263 187.80417L24.206263 186.8823L22.643763 186.8823L22.643763 185.1948ZM22.643763 178.1948L24.206263 178.1948L24.206263 177.10104L25.456263 177.10104L25.456263 178.1948L28.612513 178.1948Q28.971888 178.1948 29.128138 178.05417Q29.268763 177.91354 29.268763 177.53854Q29.268763 177.2573 29.237513 177.03854L30.518763 177.03854Q30.675013 177.53854 30.675013 178.0698Q30.675013 179.85104 28.862513 179.8823L25.456263 179.8823L25.456263 180.80417L24.206263 180.80417L24.206263 179.8823L22.643763 179.8823L22.643763 178.1948ZM30.550013 174.42917L30.550013 176.1323L24.206263 176.1323L24.206263 174.42917L30.550013 174.42917ZM22.565638 176.22604Q22.190638 176.22604 21.940638 175.97604Q21.690638 175.71042 21.690638 175.27292Q21.690638 174.85104 21.940638 174.60104Q22.190638 174.33542 22.565638 174.33542Q22.956263 174.33542 23.206263 174.60104Q23.440638 174.85104 23.440638 175.28854Q23.440638 175.71042 23.206263 175.97604Q22.956263 176.22604 22.565638 176.22604ZM24.206263 171.6323L24.925013 171.5698Q24.096888 170.89792 24.096888 169.7573Q24.096888 168.52292 25.065638 168.0698Q24.096888 167.39792 24.096888 166.16354Q24.096888 165.1323 24.706263 164.6323Q25.300013 164.1323 26.503138 164.1323L30.550013 164.1323L30.550013 165.8198L26.503138 165.8198Q25.971888 165.8198 25.721888 166.03854Q25.471888 166.24167 25.471888 166.78854Q25.471888 167.53854 26.190638 167.83542L30.550013 167.83542L30.550013 169.52292L26.518763 169.52292Q25.956263 169.52292 25.721888 169.74167Q25.471888 169.96042 25.471888 170.47604Q25.471888 171.1948 26.065638 171.52292L30.550013 171.52292L30.550013 173.21042L24.206263 173.21042L24.206263 171.6323ZM30.675013 160.30417Q30.675013 161.6948 29.815638 162.5698Q28.956263 163.4448 27.534388 163.4448L27.362513 163.4448Q26.409388 163.4448 25.659388 163.08542Q24.909388 162.71042 24.503138 162.03854Q24.096888 161.35104 24.096888 160.49167Q24.096888 159.17917 24.925013 158.4448Q25.737513 157.6948 27.237513 157.6948L27.925013 157.6948L27.925013 161.72604Q28.550013 161.64792 28.925013 161.24167Q29.300013 160.8198 29.300013 160.17917Q29.300013 159.21042 28.596888 158.66354L29.518763 157.8198Q30.065638 158.21042 30.378138 158.86667Q30.675013 159.5073 30.675013 160.30417ZM25.456263 160.49167Q25.456263 160.99167 25.800013 161.30417Q26.143763 161.61667 26.768763 161.71042L26.768763 159.35104L26.643763 159.35104Q26.081263 159.36667 25.768763 159.66354Q25.456263 159.9448 25.456263 160.49167ZM27.081263 154.1323Q25.737513 154.1323 24.534388 153.78854Q23.315638 153.42917 22.378138 152.72604Q21.440638 152.02292 21.081263 151.21042L21.987513 150.8823Q22.628138 151.74167 23.956263 152.22604Q25.268763 152.71042 27.050013 152.71042L27.221888 152.71042Q29.003138 152.71042 30.331263 152.24167Q31.659388 151.7573 32.315636 150.8823L33.221886 151.21042Q32.86251 152.0073 31.956263 152.6948Q31.050013 153.3823 29.862513 153.7573Q28.675013 154.11667 27.393763 154.1323L27.081263 154.1323ZM24.206263 148.6323L24.925013 148.5698Q24.096888 147.89792 24.096888 146.7573Q24.096888 145.52292 25.065638 145.0698Q24.096888 144.39792 24.096888 143.16354Q24.096888 142.1323 24.706263 141.6323Q25.300013 141.1323 26.503138 141.1323L30.550013 141.1323L30.550013 142.8198L26.503138 142.8198Q25.971888 142.8198 25.721888 143.03854Q25.471888 143.24167 25.471888 143.78854Q25.471888 144.53854 26.190638 144.83542L30.550013 144.83542L30.550013 146.52292L26.518763 146.52292Q25.956263 146.52292 25.721888 146.74167Q25.471888 146.96042 25.471888 147.47604Q25.471888 148.1948 26.065638 148.52292L30.550013 148.52292L30.550013 150.21042L24.206263 150.21042L24.206263 148.6323ZM28.800013 136.78854Q28.487513 136.78854 28.315638 137.10104Q28.128138 137.39792 27.987513 138.0698Q27.518763 140.33542 26.065638 140.33542Q25.221888 140.33542 24.659388 139.64792Q24.096888 138.9448 24.096888 137.80417Q24.096888 136.60104 24.659388 135.8823Q25.221888 135.14792 26.143763 135.14792L26.143763 136.85104Q25.768763 136.85104 25.534388 137.08542Q25.300013 137.3198 25.300013 137.8198Q25.300013 138.24167 25.503138 138.47604Q25.690638 138.71042 25.987513 138.71042Q26.268763 138.71042 26.440638 138.4448Q26.612513 138.17917 26.737513 137.55417Q26.862513 136.91354 27.018763 136.47604Q27.518763 135.1323 28.721888 135.1323Q29.596888 135.1323 30.143763 135.8823Q30.675013 136.61667 30.675013 137.80417Q30.675013 138.60104 30.393763 139.22604Q30.096888 139.83542 29.612513 140.1948Q29.112513 140.53854 28.534388 140.53854L28.534388 138.92917Q28.987513 138.91354 29.237513 138.60104Q29.471888 138.28854 29.471888 137.77292Q29.471888 137.27292 29.284388 137.03854Q29.096888 136.78854 28.800013 136.78854ZM27.221888 131.30417Q28.534388 131.30417 29.768763 131.67917Q30.987513 132.05417 31.925013 132.77292Q32.86251 133.49167 33.221886 134.30417L32.315636 134.6323Q31.690638 133.80417 30.393763 133.3198Q29.081263 132.83542 27.378138 132.8198L27.065638 132.8198Q25.315638 132.8198 23.987513 133.30417Q22.643763 133.77292 21.971888 134.6323L21.081263 134.30417Q21.425013 133.5073 22.331263 132.80417Q23.237513 132.10104 24.456263 131.71042Q25.659388 131.3198 26.956263 131.30417L27.221888 131.30417Z" fill-rule="nonzero"/><path fill="#000000" d="M85.6125 299.3094Q85.6125 301.21564 84.95625 302.15314Q84.31563 303.075 82.925 303.075Q81.56563 303.075 80.90938 302.16876Q80.25313 301.2625 80.22188 299.45L80.22188 298.0125Q80.22188 296.1219 80.8625 295.21564Q81.51875 294.29376 82.90938 294.29376Q84.28438 294.29376 84.94063 295.1844Q85.59688 296.0594 85.6125 297.90314L85.6125 299.3094ZM84.51875 297.825Q84.51875 296.45 84.12813 295.825Q83.75313 295.1844 82.90938 295.1844Q82.08125 295.1844 81.69063 295.825Q81.31563 296.45 81.31563 297.7469L81.31563 299.48126Q81.31563 300.85626 81.70625 301.52814Q82.1125 302.1844 82.925 302.1844Q83.72188 302.1844 84.1125 301.5594Q84.50313 300.9344 84.51875 299.60626L84.51875 297.825Z" fill-rule="nonzero"/><path fill="#000000" d="M59.753124 229.11319L60.190624 224.86319L64.56563 224.86319L64.56563 225.86319L61.1125 225.86319L60.846874 228.19131Q61.4875 227.81631 62.284374 227.81631Q63.440624 227.81631 64.12813 228.59756Q64.81563 229.36319 64.81563 230.67569Q64.81563 231.98819 64.09688 232.75381Q63.39375 233.51944 62.1125 233.51944Q60.9875 233.51944 60.26875 232.89444Q59.55 232.25381 59.45625 231.14444L60.471874 231.14444Q60.58125 231.87881 61.003124 232.25381Q61.425 232.62881 62.1125 232.62881Q62.8625 232.62881 63.3 232.11319Q63.7375 231.59756 63.7375 230.69131Q63.7375 229.83194 63.26875 229.31631Q62.8 228.80069 62.01875 228.80069Q61.315624 228.80069 60.909374 229.09756L60.628124 229.33194L59.753124 229.11319ZM71.6125 229.75381Q71.6125 231.66006 70.95625 232.59756Q70.31563 233.51944 68.925 233.51944Q67.56563 233.51944 66.90938 232.61319Q66.25313 231.70694 66.22188 229.89444L66.22188 228.45694Q66.22188 226.56631 66.8625 225.66006Q67.51875 224.73819 68.90938 224.73819Q70.28438 224.73819 70.94063 225.62881Q71.59688 226.50381 71.6125 228.34756L71.6125 229.75381ZM70.51875 228.26944Q70.51875 226.89444 70.12813 226.26944Q69.75313 225.62881 68.90938 225.62881Q68.08125 225.62881 67.69063 226.26944Q67.31563 226.89444 67.31563 228.19131L67.31563 229.92569Q67.31563 231.30069 67.70625 231.97256Q68.1125 232.62881 68.925 232.62881Q69.72188 232.62881 70.1125 232.00381Q70.50313 231.37881 70.51875 230.05069L70.51875 228.26944ZM78.6125 229.75381Q78.6125 231.66006 77.95625 232.59756Q77.31563 233.51944 75.925 233.51944Q74.56563 233.51944 73.90938 232.61319Q73.25313 231.70694 73.22188 229.89444L73.22188 228.45694Q73.22188 226.56631 73.8625 225.66006Q74.51875 224.73819 75.90938 224.73819Q77.28438 224.73819 77.94063 225.62881Q78.59688 226.50381 78.6125 228.34756L78.6125 229.75381ZM77.51875 228.26944Q77.51875 226.89444 77.12813 226.26944Q76.75313 225.62881 75.90938 225.62881Q75.08125 225.62881 74.69063 226.26944Q74.31563 226.89444 74.31563 228.19131L74.31563 229.92569Q74.31563 231.30069 74.70625 231.97256Q75.1125 232.62881 75.925 232.62881Q76.72188 232.62881 77.1125 232.00381Q77.50313 231.37881 77.51875 230.05069L77.51875 228.26944ZM85.6125 229.75381Q85.6125 231.66006 84.95625 232.59756Q84.31563 233.51944 82.925 233.51944Q81.56563 233.51944 80.90938 232.61319Q80.25313 231.70694 80.22188 229.89444L80.22188 228.45694Q80.22188 226.56631 80.8625 225.66006Q81.51875 224.73819 82.90938 224.73819Q84.28438 224.73819 84.94063 225.62881Q85.59688 226.50381 85.6125 228.34756L85.6125 229.75381ZM84.51875 228.26944Q84.51875 226.89444 84.12813 226.26944Q83.75313 225.62881 82.90938 225.62881Q82.08125 225.62881 81.69063 226.26944Q81.31563 226.89444 81.31563 228.19131L81.31563 229.92569Q81.31563 231.30069 81.70625 231.97256Q82.1125 232.62881 82.925 232.62881Q83.72188 232.62881 84.1125 232.00381Q84.50313 231.37881 84.51875 230.05069L84.51875 228.26944Z" fill-rule="nonzero"/><path fill="#000000" d="M55.815624 163.83888L54.7375 163.83888L54.7375 156.62013L52.55 157.417L52.55 156.43263L55.659374 155.26076L55.815624 155.26076L55.815624 163.83888ZM64.6125 160.19826Q64.6125 162.1045 63.95625 163.042Q63.315624 163.96388 61.925 163.96388Q60.565624 163.96388 59.909374 163.05763Q59.253124 162.15138 59.221874 160.33888L59.221874 158.90138Q59.221874 157.01076 59.8625 156.1045Q60.51875 155.18263 61.909374 155.18263Q63.284374 155.18263 63.940624 156.07326Q64.59688 156.94826 64.6125 158.792L64.6125 160.19826ZM63.51875 158.71388Q63.51875 157.33888 63.128124 156.71388Q62.753124 156.07326 61.909374 156.07326Q61.08125 156.07326 60.690624 156.71388Q60.315624 157.33888 60.315624 158.63576L60.315624 160.37013Q60.315624 161.74513 60.70625 162.417Q61.1125 163.07326 61.925 163.07326Q62.721874 163.07326 63.1125 162.44826Q63.503124 161.82326 63.51875 160.49513L63.51875 158.71388ZM71.6125 160.19826Q71.6125 162.1045 70.95625 163.042Q70.31563 163.96388 68.925 163.96388Q67.56563 163.96388 66.90938 163.05763Q66.25313 162.15138 66.22188 160.33888L66.22188 158.90138Q66.22188 157.01076 66.8625 156.1045Q67.51875 155.18263 68.90938 155.18263Q70.28438 155.18263 70.94063 156.07326Q71.59688 156.94826 71.6125 158.792L71.6125 160.19826ZM70.51875 158.71388Q70.51875 157.33888 70.12813 156.71388Q69.75313 156.07326 68.90938 156.07326Q68.08125 156.07326 67.69063 156.71388Q67.31563 157.33888 67.31563 158.63576L67.31563 160.37013Q67.31563 161.74513 67.70625 162.417Q68.1125 163.07326 68.925 163.07326Q69.72188 163.07326 70.1125 162.44826Q70.50313 161.82326 70.51875 160.49513L70.51875 158.71388ZM78.6125 160.19826Q78.6125 162.1045 77.95625 163.042Q77.31563 163.96388 75.925 163.96388Q74.56563 163.96388 73.90938 163.05763Q73.25313 162.15138 73.22188 160.33888L73.22188 158.90138Q73.22188 157.01076 73.8625 156.1045Q74.51875 155.18263 75.90938 155.18263Q77.28438 155.18263 77.94063 156.07326Q78.59688 156.94826 78.6125 158.792L78.6125 160.19826ZM77.51875 158.71388Q77.51875 157.33888 77.12813 156.71388Q76.75313 156.07326 75.90938 156.07326Q75.08125 156.07326 74.69063 156.71388Q74.31563 157.33888 74.31563 158.63576L74.31563 160.37013Q74.31563 161.74513 74.70625 162.417Q75.1125 163.07326 75.925 163.07326Q76.72188 163.07326 77.1125 162.44826Q77.50313 161.82326 77.51875 160.49513L77.51875 158.71388ZM85.6125 160.19826Q85.6125 162.1045 84.95625 163.042Q84.31563 163.96388 82.925 163.96388Q81.56563 163.96388 80.90938 163.05763Q80.25313 162.15138 80.22188 160.33888L80.22188 158.90138Q80.22188 157.01076 80.8625 156.1045Q81.51875 155.18263 82.90938 155.18263Q84.28438 155.18263 84.94063 156.07326Q85.59688 156.94826 85.6125 158.792L85.6125 160.19826ZM84.51875 158.71388Q84.51875 157.33888 84.12813 156.71388Q83.75313 156.07326 82.90938 156.07326Q82.08125 156.07326 81.69063 156.71388Q81.31563 157.33888 81.31563 158.63576L81.31563 160.37013Q81.31563 161.74513 81.70625 162.417Q82.1125 163.07326 82.925 163.07326Q83.72188 163.07326 84.1125 162.44826Q84.50313 161.82326 84.51875 160.49513L84.51875 158.71388Z" fill-rule="nonzero"/><path fill="#000000" d="M55.815624 94.28333L54.7375 94.28333L54.7375 87.06458L52.55 87.86146L52.55 86.87708L55.659374 85.70521L55.815624 85.70521L55.815624 94.28333ZM59.753124 90.00208L60.190624 85.75208L64.56563 85.75208L64.56563 86.75208L61.1125 86.75208L60.846874 89.08021Q61.4875 88.70521 62.284374 88.70521Q63.440624 88.70521 64.12813 89.48646Q64.81563 90.25208 64.81563 91.56458Q64.81563 92.87708 64.09688 93.64271Q63.39375 94.40833 62.1125 94.40833Q60.9875 94.40833 60.26875 93.78333Q59.55 93.14271 59.45625 92.03333L60.471874 92.03333Q60.58125 92.76771 61.003124 93.14271Q61.425 93.51771 62.1125 93.51771Q62.8625 93.51771 63.3 93.00208Q63.7375 92.48646 63.7375 91.58021Q63.7375 90.72083 63.26875 90.20521Q62.8 89.68958 62.01875 89.68958Q61.315624 89.68958 60.909374 89.98646L60.628124 90.22083L59.753124 90.00208ZM71.6125 90.64271Q71.6125 92.54896 70.95625 93.48646Q70.31563 94.40833 68.925 94.40833Q67.56563 94.40833 66.90938 93.50208Q66.25313 92.59583 66.22188 90.78333L66.22188 89.34583Q66.22188 87.45521 66.8625 86.54896Q67.51875 85.62708 68.90938 85.62708Q70.28438 85.62708 70.94063 86.51771Q71.59688 87.39271 71.6125 89.23646L71.6125 90.64271ZM70.51875 89.15833Q70.51875 87.78333 70.12813 87.15833Q69.75313 86.51771 68.90938 86.51771Q68.08125 86.51771 67.69063 87.15833Q67.31563 87.78333 67.31563 89.08021L67.31563 90.81458Q67.31563 92.18958 67.70625 92.86146Q68.1125 93.51771 68.925 93.51771Q69.72188 93.51771 70.1125 92.89271Q70.50313 92.26771 70.51875 90.93958L70.51875 89.15833ZM78.6125 90.64271Q78.6125 92.54896 77.95625 93.48646Q77.31563 94.40833 75.925 94.40833Q74.56563 94.40833 73.90938 93.50208Q73.25313 92.59583 73.22188 90.78333L73.22188 89.34583Q73.22188 87.45521 73.8625 86.54896Q74.51875 85.62708 75.90938 85.62708Q77.28438 85.62708 77.94063 86.51771Q78.59688 87.39271 78.6125 89.23646L78.6125 90.64271ZM77.51875 89.15833Q77.51875 87.78333 77.12813 87.15833Q76.75313 86.51771 75.90938 86.51771Q75.08125 86.51771 74.69063 87.15833Q74.31563 87.78333 74.31563 89.08021L74.31563 90.81458Q74.31563 92.18958 74.70625 92.86146Q75.1125 93.51771 75.925 93.51771Q76.72188 93.51771 77.1125 92.89271Q77.50313 92.26771 77.51875 90.93958L77.51875 89.15833ZM85.6125 90.64271Q85.6125 92.54896 84.95625 93.48646Q84.31563 94.40833 82.925 94.40833Q81.56563 94.40833 80.90938 93.50208Q80.25313 92.59583 80.22188 90.78333L80.22188 89.34583Q80.22188 87.45521 80.8625 86.54896Q81.51875 85.62708 82.90938 85.62708Q84.28438 85.62708 84.94063 86.51771Q85.59688 87.39271 85.6125 89.23646L85.6125 90.64271ZM84.51875 89.15833Q84.51875 87.78333 84.12813 87.15833Q83.75313 86.51771 82.90938 86.51771Q82.08125 86.51771 81.69063 87.15833Q81.31563 87.78333 81.31563 89.08021L81.31563 90.81458Q81.31563 92.18958 81.70625 92.86146Q82.1125 93.51771 82.925 93.51771Q83.72188 93.51771 84.1125 92.89271Q84.50313 92.26771 84.51875 90.93958L84.51875 89.15833Z" fill-rule="nonzero"/><path fill="#000000" d="M148.43677 312.16876L148.87427 307.91876L153.24927 307.91876L153.24927 308.91876L149.79614 308.91876L149.53052 311.2469Q150.17114 310.8719 150.96802 310.8719Q152.12427 310.8719 152.81177 311.65314Q153.49927 312.41876 153.49927 313.73126Q153.49927 315.04376 152.78052 315.8094Q152.0774 316.575 150.79614 316.575Q149.67114 316.575 148.9524 315.95Q148.23364 315.3094 148.1399 314.2L149.15552 314.2Q149.2649 314.9344 149.68677 315.3094Q150.10864 315.6844 150.79614 315.6844Q151.54614 315.6844 151.98364 315.16876Q152.42114 314.65314 152.42114 313.7469Q152.42114 312.8875 151.9524 312.3719Q151.48364 311.85626 150.7024 311.85626Q149.99927 311.85626 149.59302 312.15314L149.31177 312.3875L148.43677 312.16876ZM160.29614 312.8094Q160.29614 314.71564 159.6399 315.65314Q158.99927 316.575 157.60864 316.575Q156.24927 316.575 155.59302 315.66876Q154.93677 314.7625 154.90552 312.95L154.90552 311.5125Q154.90552 309.6219 155.54614 308.71564Q156.2024 307.79376 157.59302 307.79376Q158.96802 307.79376 159.62427 308.6844Q160.28052 309.5594 160.29614 311.40314L160.29614 312.8094ZM159.2024 311.325Q159.2024 309.95 158.81177 309.325Q158.43677 308.6844 157.59302 308.6844Q156.7649 308.6844 156.37427 309.325Q155.99927 309.95 155.99927 311.2469L155.99927 312.98126Q155.99927 314.35626 156.3899 315.02814Q156.79614 315.6844 157.60864 315.6844Q158.40552 315.6844 158.79614 315.0594Q159.18677 314.4344 159.2024 313.10626L159.2024 311.325Z" fill-rule="nonzero"/><path fill="#000000" d="M239.38245 316.45L238.30432 316.45L238.30432 309.23126L236.11682 310.02814L236.11682 309.04376L239.2262 307.8719L239.38245 307.8719L239.38245 316.45ZM248.17932 312.8094Q248.17932 314.71564 247.52307 315.65314Q246.88245 316.575 245.49182 316.575Q244.13245 316.575 243.4762 315.66876Q242.81995 314.7625 242.7887 312.95L242.7887 311.5125Q242.7887 309.6219 243.42932 308.71564Q244.08557 307.79376 245.4762 307.79376Q246.8512 307.79376 247.50745 308.6844Q248.1637 309.5594 248.17932 311.40314L248.17932 312.8094ZM247.08557 311.325Q247.08557 309.95 246.69495 309.325Q246.31995 308.6844 245.4762 308.6844Q244.64807 308.6844 244.25745 309.325Q243.88245 309.95 243.88245 311.2469L243.88245 312.98126Q243.88245 314.35626 244.27307 315.02814Q244.67932 315.6844 245.49182 315.6844Q246.2887 315.6844 246.67932 315.0594Q247.06995 314.4344 247.08557 313.10626L247.08557 311.325ZM255.17932 312.8094Q255.17932 314.71564 254.52307 315.65314Q253.88245 316.575 252.49182 316.575Q251.13245 316.575 250.4762 315.66876Q249.81995 314.7625 249.7887 312.95L249.7887 311.5125Q249.7887 309.6219 250.42932 308.71564Q251.08557 307.79376 252.4762 307.79376Q253.8512 307.79376 254.50745 308.6844Q255.1637 309.5594 255.17932 311.40314L255.17932 312.8094ZM254.08557 311.325Q254.08557 309.95 253.69495 309.325Q253.31995 308.6844 252.4762 308.6844Q251.64807 308.6844 251.25745 309.325Q250.88245 309.95 250.88245 311.2469L250.88245 312.98126Q250.88245 314.35626 251.27307 315.02814Q251.67932 315.6844 252.49182 315.6844Q253.2887 315.6844 253.67932 315.0594Q254.06995 314.4344 254.08557 313.10626L254.08557 311.325Z" fill-rule="nonzero"/><path fill="#000000" d="M330.76562 316.45L329.6875 316.45L329.6875 309.23126L327.5 310.02814L327.5 309.04376L330.60938 307.8719L330.76562 307.8719L330.76562 316.45ZM334.70312 312.16876L335.14062 307.91876L339.51562 307.91876L339.51562 308.91876L336.0625 308.91876L335.79688 311.2469Q336.4375 310.8719 337.23438 310.8719Q338.39062 310.8719 339.07812 311.65314Q339.76562 312.41876 339.76562 313.73126Q339.76562 315.04376 339.04688 315.8094Q338.34375 316.575 337.0625 316.575Q335.9375 316.575 335.21875 315.95Q334.5 315.3094 334.40625 314.2L335.42188 314.2Q335.53125 314.9344 335.95312 315.3094Q336.375 315.6844 337.0625 315.6844Q337.8125 315.6844 338.25 315.16876Q338.6875 314.65314 338.6875 313.7469Q338.6875 312.8875 338.21875 312.3719Q337.75 311.85626 336.96875 311.85626Q336.26562 311.85626 335.85938 312.15314L335.57812 312.3875L334.70312 312.16876ZM346.5625 312.8094Q346.5625 314.71564 345.90625 315.65314Q345.26562 316.575 343.875 316.575Q342.51562 316.575 341.85938 315.66876Q341.20312 314.7625 341.17188 312.95L341.17188 311.5125Q341.17188 309.6219 341.8125 308.71564Q342.46875 307.79376 343.85938 307.79376Q345.23438 307.79376 345.89062 308.6844Q346.54688 309.5594 346.5625 311.40314L346.5625 312.8094ZM345.46875 311.325Q345.46875 309.95 345.07812 309.325Q344.70312 308.6844 343.85938 308.6844Q343.03125 308.6844 342.64062 309.325Q342.26562 309.95 342.26562 311.2469L342.26562 312.98126Q342.26562 314.35626 342.65625 315.02814Q343.0625 315.6844 343.875 315.6844Q344.67188 315.6844 345.0625 315.0594Q345.45312 314.4344 345.46875 313.10626L345.46875 311.325Z" fill-rule="nonzero"/><path fill="#000000" d="M424.18005 316.45L418.5863 316.45L418.5863 315.66876L421.53943 312.3875Q422.19568 311.6375 422.44568 311.1844Q422.69568 310.71564 422.69568 310.21564Q422.69568 309.54376 422.28943 309.1219Q421.8988 308.6844 421.2113 308.6844Q420.41443 308.6844 419.9613 309.15314Q419.50818 309.60626 419.50818 310.4344L418.43005 310.4344Q418.43005 309.2469 419.18005 308.52814Q419.94568 307.79376 421.2113 307.79376Q422.41443 307.79376 423.10193 308.41876Q423.78943 309.04376 423.78943 310.09064Q423.78943 311.34064 422.18005 313.09064L419.8988 315.5594L424.18005 315.5594L424.18005 316.45ZM430.94568 312.8094Q430.94568 314.71564 430.28943 315.65314Q429.6488 316.575 428.25818 316.575Q426.8988 316.575 426.24255 315.66876Q425.5863 314.7625 425.55505 312.95L425.55505 311.5125Q425.55505 309.6219 426.19568 308.71564Q426.85193 307.79376 428.24255 307.79376Q429.61755 307.79376 430.2738 308.6844Q430.93005 309.5594 430.94568 311.40314L430.94568 312.8094ZM429.85193 311.325Q429.85193 309.95 429.4613 309.325Q429.0863 308.6844 428.24255 308.6844Q427.41443 308.6844 427.0238 309.325Q426.6488 309.95 426.6488 311.2469L426.6488 312.98126Q426.6488 314.35626 427.03943 315.02814Q427.44568 315.6844 428.25818 315.6844Q429.05505 315.6844 429.44568 315.0594Q429.8363 314.4344 429.85193 313.10626L429.85193 311.325ZM437.94568 312.8094Q437.94568 314.71564 437.28943 315.65314Q436.6488 316.575 435.25818 316.575Q433.8988 316.575 433.24255 315.66876Q432.5863 314.7625 432.55505 312.95L432.55505 311.5125Q432.55505 309.6219 433.19568 308.71564Q433.85193 307.79376 435.24255 307.79376Q436.61755 307.79376 437.2738 308.6844Q437.93005 309.5594 437.94568 311.40314L437.94568 312.8094ZM436.85193 311.325Q436.85193 309.95 436.4613 309.325Q436.0863 308.6844 435.24255 308.6844Q434.41443 308.6844 434.0238 309.325Q433.6488 309.95 433.6488 311.2469L433.6488 312.98126Q433.6488 314.35626 434.03943 315.02814Q434.44568 315.6844 435.25818 315.6844Q436.05505 315.6844 436.44568 315.0594Q436.8363 314.4344 436.85193 313.10626L436.85193 311.325Z" fill-rule="nonzero"/><path fill="#000000" d="M515.56323 316.45L509.96948 316.45L509.96948 315.66876L512.9226 312.3875Q513.57886 311.6375 513.82886 311.1844Q514.07886 310.71564 514.07886 310.21564Q514.07886 309.54376 513.6726 309.1219Q513.282 308.6844 512.5945 308.6844Q511.7976 308.6844 511.34448 309.15314Q510.89136 309.60626 510.89136 310.4344L509.81323 310.4344Q509.81323 309.2469 510.56323 308.52814Q511.32886 307.79376 512.5945 307.79376Q513.7976 307.79376 514.4851 308.41876Q515.1726 309.04376 515.1726 310.09064Q515.1726 311.34064 513.56323 313.09064L511.28198 315.5594L515.56323 315.5594L515.56323 316.45ZM517.4695 312.16876L517.907 307.91876L522.282 307.91876L522.282 308.91876L518.82886 308.91876L518.56323 311.2469Q519.20386 310.8719 520.00073 310.8719Q521.157 310.8719 521.8445 311.65314Q522.532 312.41876 522.532 313.73126Q522.532 315.04376 521.81323 315.8094Q521.1101 316.575 519.82886 316.575Q518.70386 316.575 517.9851 315.95Q517.26636 315.3094 517.1726 314.2L518.18823 314.2Q518.2976 314.9344 518.7195 315.3094Q519.14136 315.6844 519.82886 315.6844Q520.57886 315.6844 521.01636 315.16876Q521.45386 314.65314 521.45386 313.7469Q521.45386 312.8875 520.9851 312.3719Q520.51636 311.85626 519.7351 311.85626Q519.032 311.85626 518.62573 312.15314L518.3445 312.3875L517.4695 312.16876ZM529.32886 312.8094Q529.32886 314.71564 528.6726 315.65314Q528.032 316.575 526.64136 316.575Q525.282 316.575 524.62573 315.66876Q523.9695 314.7625 523.93823 312.95L523.93823 311.5125Q523.93823 309.6219 524.57886 308.71564Q525.2351 307.79376 526.62573 307.79376Q528.00073 307.79376 528.657 308.6844Q529.31323 309.5594 529.32886 311.40314L529.32886 312.8094ZM528.2351 311.325Q528.2351 309.95 527.8445 309.325Q527.4695 308.6844 526.62573 308.6844Q525.7976 308.6844 525.407 309.325Q525.032 309.95 525.032 311.2469L525.032 312.98126Q525.032 314.35626 525.4226 315.02814Q525.82886 315.6844 526.64136 315.6844Q527.43823 315.6844 527.82886 315.0594Q528.2195 314.4344 528.2351 313.10626L528.2351 311.325Z" fill-rule="nonzero"/><path fill="#34a853" d="M238.5 57.416668C238.5 56.864384 238.94771 56.416668 239.5 56.416668L249.5 56.416668C250.05229 56.416668 250.5 56.864384 250.5 57.416668L250.5 67.416664C250.5 67.96895 250.05229 68.416664 249.5 68.416664L239.5 68.416664C238.94771 68.416664 238.5 67.96895 238.5 67.416664Z" fill-rule="nonzero"/><path fill="#1a1a1a" d="M260.34375 60.572914L260.375 61.36979Q261.10938 60.46354 262.28125 60.46354Q264.29688 60.46354 264.3125 62.729164L264.3125 66.916664L263.21875 66.916664L263.21875 62.71354Q263.21875 62.041664 262.90625 61.71354Q262.60938 61.385414 261.95312 61.385414Q261.42188 61.385414 261.01562 61.666664Q260.625 61.947914 260.40625 62.40104L260.40625 66.916664L259.32812 66.916664L259.32812 60.572914L260.34375 60.572914ZM266.03125 63.68229Q266.03125 62.760414 266.39062 62.010414Q266.76562 61.260414 267.42188 60.86979Q268.07812 60.46354 268.90625 60.46354Q270.20312 60.46354 271.0 61.354164Q271.8125 62.24479 271.8125 63.74479L271.8125 63.822914Q271.8125 64.74479 271.45312 65.479164Q271.09375 66.21354 270.4375 66.635414Q269.78125 67.041664 268.92188 67.041664Q267.64062 67.041664 266.82812 66.15104Q266.03125 65.24479 266.03125 63.760414L266.03125 63.68229ZM267.125 63.822914Q267.125 64.86979 267.60938 65.510414Q268.10938 66.15104 268.92188 66.15104Q269.75 66.15104 270.23438 65.510414Q270.71875 64.854164 270.71875 63.68229Q270.71875 62.65104 270.21875 62.010414Q269.73438 61.354164 268.90625 61.354164Q268.10938 61.354164 267.60938 61.99479Q267.125 62.61979 267.125 63.822914ZM273.0625 63.697914Q273.0625 62.229164 273.75 61.354164Q274.4375 60.46354 275.5625 60.46354Q276.67188 60.46354 277.32812 61.21354L277.32812 57.916664L278.40625 57.916664L278.40625 66.916664L277.40625 66.916664L277.35938 66.229164Q276.70312 67.041664 275.54688 67.041664Q274.45312 67.041664 273.75 66.135414Q273.0625 65.229164 273.0625 63.77604L273.0625 63.697914ZM274.14062 63.822914Q274.14062 64.90104 274.57812 65.510414Q275.03125 66.11979 275.8125 66.11979Q276.84375 66.11979 277.32812 65.18229L277.32812 62.27604Q276.84375 61.385414 275.82812 61.385414Q275.03125 61.385414 274.57812 61.99479Q274.14062 62.604164 274.14062 63.822914ZM282.95312 67.041664Q281.65625 67.041664 280.84375 66.197914Q280.04688 65.33854 280.04688 63.916664L280.04688 63.729164Q280.04688 62.77604 280.40625 62.041664Q280.76562 61.291664 281.40625 60.885414Q282.0625 60.46354 282.8125 60.46354Q284.04688 60.46354 284.73438 61.27604Q285.42188 62.08854 285.42188 63.604164L285.42188 64.05729L281.125 64.05729Q281.15625 64.99479 281.67188 65.572914Q282.20312 66.15104 283.01562 66.15104Q283.57812 66.15104 283.96875 65.916664Q284.375 65.68229 284.6875 65.291664L285.34375 65.80729Q284.54688 67.041664 282.95312 67.041664ZM282.8125 61.354164Q282.15625 61.354164 281.70312 61.83854Q281.26562 62.30729 281.17188 63.166664L284.34375 63.166664L284.34375 63.08854Q284.29688 62.260414 283.89062 61.80729Q283.5 61.354164 282.8125 61.354164Z" fill-rule="nonzero"/><path fill="#4285f4" d="M301.5 57.416668C301.5 56.864384 301.94772 56.416668 302.5 56.416668L312.5 56.416668C313.05228 56.416668 313.5 56.864384 313.5 57.416668L313.5 67.416664C313.5 67.96895 313.05228 68.416664 312.5 68.416664L302.5 68.416664C301.94772 68.416664 301.5 67.96895 301.5 67.416664Z" fill-rule="nonzero"/><path fill="#1a1a1a" d="M326.23438 66.916664Q326.14062 66.729164 326.07812 66.24479Q325.32812 67.041664 324.28125 67.041664Q323.34375 67.041664 322.73438 66.510414Q322.14062 65.979164 322.14062 65.15104Q322.14062 64.166664 322.89062 63.61979Q323.64062 63.072914 325.01562 63.072914L326.0625 63.072914L326.0625 62.572914Q326.0625 62.010414 325.71875 61.68229Q325.39062 61.33854 324.71875 61.33854Q324.14062 61.33854 323.75 61.635414Q323.35938 61.916664 323.35938 62.33854L322.26562 62.33854Q322.26562 61.854164 322.59375 61.416664Q322.9375 60.979164 323.51562 60.729164Q324.09375 60.46354 324.78125 60.46354Q325.89062 60.46354 326.5 61.010414Q327.125 61.55729 327.15625 62.510414L327.15625 65.43229Q327.15625 66.30729 327.375 66.822914L327.375 66.916664L326.23438 66.916664ZM324.4375 66.08854Q324.95312 66.08854 325.40625 65.822914Q325.85938 65.55729 326.0625 65.135414L326.0625 63.83854L325.21875 63.83854Q323.21875 63.83854 323.21875 65.010414Q323.21875 65.510414 323.5625 65.80729Q323.90625 66.08854 324.4375 66.08854ZM334.67188 63.822914Q334.67188 65.260414 334.01562 66.15104Q333.35938 67.041664 332.21875 67.041664Q331.0625 67.041664 330.40625 66.30729L330.40625 69.354164L329.32812 69.354164L329.32812 60.572914L330.3125 60.572914L330.35938 61.27604Q331.03125 60.46354 332.20312 60.46354Q333.34375 60.46354 334.0 61.322914Q334.67188 62.18229 334.67188 63.71354L334.67188 63.822914ZM333.59375 63.697914Q333.59375 62.61979 333.125 62.010414Q332.67188 61.385414 331.875 61.385414Q330.89062 61.385414 330.40625 62.24479L330.40625 65.27604Q330.89062 66.15104 331.89062 66.15104Q332.67188 66.15104 333.125 65.541664Q333.59375 64.916664 333.59375 63.697914ZM340.23438 66.916664Q340.14062 66.729164 340.07812 66.24479Q339.32812 67.041664 338.28125 67.041664Q337.34375 67.041664 336.73438 66.510414Q336.14062 65.979164 336.14062 65.15104Q336.14062 64.166664 336.89062 63.61979Q337.64062 63.072914 339.01562 63.072914L340.0625 63.072914L340.0625 62.572914Q340.0625 62.010414 339.71875 61.68229Q339.39062 61.33854 338.71875 61.33854Q338.14062 61.33854 337.75 61.635414Q337.35938 61.916664 337.35938 62.33854L336.26562 62.33854Q336.26562 61.854164 336.59375 61.416664Q336.9375 60.979164 337.51562 60.729164Q338.09375 60.46354 338.78125 60.46354Q339.89062 60.46354 340.5 61.010414Q341.125 61.55729 341.15625 62.510414L341.15625 65.43229Q341.15625 66.30729 341.375 66.822914L341.375 66.916664L340.23438 66.916664ZM338.4375 66.08854Q338.95312 66.08854 339.40625 65.822914Q339.85938 65.55729 340.0625 65.135414L340.0625 63.83854L339.21875 63.83854Q337.21875 63.83854 337.21875 65.010414Q337.21875 65.510414 337.5625 65.80729Q337.90625 66.08854 338.4375 66.08854ZM345.85938 66.15104Q346.4375 66.15104 346.875 65.80729Q347.3125 65.447914 347.35938 64.916664L348.39062 64.916664Q348.35938 65.46354 348.0 65.96354Q347.65625 66.447914 347.07812 66.74479Q346.51562 67.041664 345.85938 67.041664Q344.5625 67.041664 343.79688 66.18229Q343.04688 65.30729 343.04688 63.80729L343.04688 63.61979Q343.04688 62.697914 343.375 61.979164Q343.71875 61.260414 344.34375 60.86979Q344.98438 60.46354 345.85938 60.46354Q346.92188 60.46354 347.625 61.104164Q348.34375 61.729164 348.39062 62.760414L347.35938 62.760414Q347.3125 62.135414 346.89062 61.74479Q346.46875 61.354164 345.85938 61.354164Q345.03125 61.354164 344.57812 61.947914Q344.125 62.541664 344.125 63.666664L344.125 63.86979Q344.125 64.96354 344.57812 65.55729Q345.03125 66.15104 345.85938 66.15104ZM350.40625 61.33854Q351.125 60.46354 352.28125 60.46354Q354.29688 60.46354 354.3125 62.729164L354.3125 66.916664L353.21875 66.916664L353.21875 62.71354Q353.21875 62.041664 352.90625 61.71354Q352.60938 61.385414 351.95312 61.385414Q351.42188 61.385414 351.01562 61.666664Q350.625 61.947914 350.40625 62.40104L350.40625 66.916664L349.32812 66.916664L349.32812 57.916664L350.40625 57.916664L350.40625 61.33854ZM358.95312 67.041664Q357.65625 67.041664 356.84375 66.197914Q356.04688 65.33854 356.04688 63.916664L356.04688 63.729164Q356.04688 62.77604 356.40625 62.041664Q356.76562 61.291664 357.40625 60.885414Q358.0625 60.46354 358.8125 60.46354Q360.04688 60.46354 360.73438 61.27604Q361.42188 62.08854 361.42188 63.604164L361.42188 64.05729L357.125 64.05729Q357.15625 64.99479 357.67188 65.572914Q358.20312 66.15104 359.01562 66.15104Q359.57812 66.15104 359.96875 65.916664Q360.375 65.68229 360.6875 65.291664L361.34375 65.80729Q360.54688 67.041664 358.95312 67.041664ZM358.8125 61.354164Q358.15625 61.354164 357.70312 61.83854Q357.26562 62.30729 357.17188 63.166664L360.34375 63.166664L360.34375 63.08854Q360.29688 62.260414 359.89062 61.80729Q359.5 61.354164 358.8125 61.354164Z" fill-rule="nonzero"/><path fill="#757575" d="M30.659374 33.034374Q30.39375 35.3 28.9875 36.534374Q27.596874 37.753124 25.26875 37.753124Q22.753124 37.753124 21.221874 35.940624Q19.70625 34.128124 19.70625 31.096874L19.70625 29.7375Q19.70625 27.753124 20.409374 26.253124Q21.128124 24.753124 22.425 23.940624Q23.721874 23.128124 25.440624 23.128124Q27.70625 23.128124 29.065624 24.39375Q30.440624 25.659374 30.659374 27.89375L28.76875 27.89375Q28.534374 26.20625 27.70625 25.440624Q26.89375 24.675 25.440624 24.675Q23.64375 24.675 22.6125 26.003124Q21.596874 27.33125 21.596874 29.784374L21.596874 31.159374Q21.596874 33.471874 22.565624 34.846874Q23.534374 36.20625 25.26875 36.20625Q26.83125 36.20625 27.659374 35.503124Q28.503124 34.8 28.76875 33.034374L30.659374 33.034374ZM35.08125 31.9875L35.08125 37.55L33.20625 37.55L33.20625 23.33125L38.440624 23.33125Q40.784374 23.33125 42.096874 24.51875Q43.425 25.70625 43.425 27.675Q43.425 29.753124 42.128124 30.878124Q40.83125 31.9875 38.425 31.9875L35.08125 31.9875ZM35.08125 30.45625L38.440624 30.45625Q39.95625 30.45625 40.753124 29.753124Q41.55 29.034374 41.55 27.690624Q41.55 26.425 40.753124 25.675Q39.95625 24.909374 38.55 24.878124L35.08125 24.878124L35.08125 30.45625ZM56.20625 23.33125L56.20625 33.003124Q56.20625 35.003124 54.940624 36.284374Q53.690624 37.565624 51.55 37.721874L51.05 37.753124Q48.70625 37.753124 47.315624 36.4875Q45.940624 35.221874 45.925 33.01875L45.925 23.33125L47.76875 23.33125L47.76875 32.95625Q47.76875 34.503124 48.6125 35.3625Q49.471874 36.20625 51.05 36.20625Q52.64375 36.20625 53.4875 35.3625Q54.33125 34.51875 54.33125 32.971874L54.33125 23.33125L56.20625 23.33125ZM65.87813 37.55L64.08125 37.55L64.08125 26.9875L65.87813 26.9875L65.87813 37.55ZM63.925 24.175Q63.925 23.7375 64.19063 23.440624Q64.47188 23.128124 64.9875 23.128124Q65.51875 23.128124 65.78438 23.440624Q66.06563 23.7375 66.06563 24.175Q66.06563 24.6125 65.78438 24.909374Q65.51875 25.20625 64.9875 25.20625Q64.47188 25.20625 64.19063 24.909374Q63.925 24.6125 63.925 24.175ZM70.62813 26.9875L70.69063 28.315624Q71.89375 26.784374 73.84688 26.784374Q77.20625 26.784374 77.22188 30.565624L77.22188 37.55L75.425 37.55L75.425 30.55Q75.40938 29.409374 74.89375 28.8625Q74.39375 28.315624 73.3 28.315624Q72.425 28.315624 71.75313 28.784374Q71.09688 29.253124 70.72188 30.01875L70.72188 37.55L68.925 37.55L68.925 26.9875L70.62813 26.9875ZM82.3625 24.425L82.3625 26.9875L84.34688 26.9875L84.34688 28.378124L82.3625 28.378124L82.3625 34.925Q82.3625 35.565624 82.62813 35.89375Q82.89375 36.20625 83.53438 36.20625Q83.84688 36.20625 84.39375 36.08125L84.39375 37.55Q83.675 37.753124 83.00313 37.753124Q81.8 37.753124 81.175 37.01875Q80.56563 36.284374 80.56563 34.925L80.56563 28.378124L78.64375 28.378124L78.64375 26.9875L80.56563 26.9875L80.56563 24.425L82.3625 24.425ZM91.3 37.753124Q89.15938 37.753124 87.8 36.346874Q86.45625 34.925 86.45625 32.565624L86.45625 32.221874Q86.45625 30.659374 87.05 29.425Q87.65938 28.190624 88.7375 27.4875Q89.81563 26.784374 91.08125 26.784374Q93.14375 26.784374 94.28438 28.14375Q95.425 29.503124 95.425 32.034374L95.425 32.784374L88.26875 32.784374Q88.3 34.346874 89.175 35.315624Q90.05 36.26875 91.39375 36.26875Q92.3625 36.26875 93.01875 35.878124Q93.69063 35.4875 94.19063 34.846874L95.28438 35.70625Q93.95625 37.753124 91.3 37.753124ZM91.08125 28.26875Q89.9875 28.26875 89.2375 29.065624Q88.50313 29.8625 88.33125 31.3L93.6125 31.3L93.6125 31.159374Q93.53438 29.784374 92.8625 29.034374Q92.20625 28.26875 91.08125 28.26875ZM99.62813 26.9875L99.69063 28.315624Q100.89375 26.784374 102.84688 26.784374Q106.20625 26.784374 106.22188 30.565624L106.22188 37.55L104.425 37.55L104.425 30.55Q104.40938 29.409374 103.89375 28.8625Q103.39375 28.315624 102.3 28.315624Q101.425 28.315624 100.75313 28.784374Q100.09688 29.253124 99.72188 30.01875L99.72188 37.55L97.925 37.55L97.925 26.9875L99.62813 26.9875ZM115.06563 34.753124Q115.06563 34.01875 114.51875 33.6125Q113.97188 33.20625 112.59688 32.909374Q111.22188 32.6125 110.40938 32.20625Q109.6125 31.8 109.22188 31.2375Q108.84688 30.659374 108.84688 29.878124Q108.84688 28.58125 109.94063 27.690624Q111.03438 26.784374 112.75313 26.784374Q114.55 26.784374 115.65938 27.721874Q116.78438 28.64375 116.78438 30.08125L114.95625 30.08125Q114.95625 29.346874 114.33125 28.815624Q113.70625 28.26875 112.75313 28.26875Q111.75313 28.26875 111.19063 28.70625Q110.64375 29.128124 110.64375 29.83125Q110.64375 30.471874 111.15938 30.815624Q111.675 31.14375 113.03438 31.45625Q114.39375 31.753124 115.22188 32.175Q116.06563 32.58125 116.47188 33.175Q116.87813 33.76875 116.87813 34.6125Q116.87813 36.034374 115.7375 36.89375Q114.6125 37.753124 112.8 37.753124Q111.53438 37.753124 110.55 37.3Q109.58125 36.846874 109.01875 36.05Q108.47188 35.2375 108.47188 34.3L110.28438 34.3Q110.33125 35.20625 111.00313 35.7375Q111.69063 36.26875 112.8 36.26875Q113.83125 36.26875 114.44063 35.8625Q115.06563 35.440624 115.06563 34.753124ZM120.87813 37.55L119.08125 37.55L119.08125 26.9875L120.87813 26.9875L120.87813 37.55ZM118.925 24.175Q118.925 23.7375 119.19063 23.440624Q119.47188 23.128124 119.9875 23.128124Q120.51875 23.128124 120.78438 23.440624Q121.06563 23.7375 121.06563 24.175Q121.06563 24.6125 120.78438 24.909374Q120.51875 25.20625 119.9875 25.20625Q119.47188 25.20625 119.19063 24.909374Q118.925 24.6125 118.925 24.175ZM127.40938 35.096874L130.01875 26.9875L131.8625 26.9875L128.08125 37.55L126.70625 37.55L122.87813 26.9875L124.72188 26.9875L127.40938 35.096874ZM138.3 37.753124Q136.15938 37.753124 134.8 36.346874Q133.45625 34.925 133.45625 32.565624L133.45625 32.221874Q133.45625 30.659374 134.05 29.425Q134.65938 28.190624 135.7375 27.4875Q136.81563 26.784374 138.08125 26.784374Q140.14375 26.784374 141.28438 28.14375Q142.425 29.503124 142.425 32.034374L142.425 32.784374L135.26875 32.784374Q135.3 34.346874 136.175 35.315624Q137.05 36.26875 138.39375 36.26875Q139.3625 36.26875 140.01875 35.878124Q140.69063 35.4875 141.19063 34.846874L142.28438 35.70625Q140.95625 37.753124 138.3 37.753124ZM138.08125 28.26875Q136.9875 28.26875 136.2375 29.065624Q135.50313 29.8625 135.33125 31.3L140.6125 31.3L140.6125 31.159374Q140.53438 29.784374 139.8625 29.034374Q139.20625 28.26875 138.08125 28.26875ZM151.87813 37.55L150.08125 37.55L150.08125 22.55L151.87813 22.55L151.87813 37.55ZM154.44063 32.175Q154.44063 30.6125 155.05 29.378124Q155.65938 28.128124 156.7375 27.45625Q157.83125 26.784374 159.2375 26.784374Q161.39375 26.784374 162.72188 28.284374Q164.06563 29.76875 164.06563 32.253124L164.06563 32.378124Q164.06563 33.925 163.47188 35.159374Q162.87813 36.378124 161.76875 37.065624Q160.675 37.753124 159.25313 37.753124Q157.1125 37.753124 155.76875 36.253124Q154.44063 34.753124 154.44063 32.3L154.44063 32.175ZM156.25313 32.378124Q156.25313 34.14375 157.06563 35.20625Q157.89375 36.26875 159.25313 36.26875Q160.62813 36.26875 161.44063 35.190624Q162.25313 34.1125 162.25313 32.175Q162.25313 30.425 161.425 29.346874Q160.59688 28.26875 159.2375 28.26875Q157.89375 28.26875 157.06563 29.33125Q156.25313 30.39375 156.25313 32.378124ZM167.62813 26.9875L167.69063 28.315624Q168.89375 26.784374 170.84688 26.784374Q174.20625 26.784374 174.22188 30.565624L174.22188 37.55L172.425 37.55L172.425 30.55Q172.40938 29.409374 171.89375 28.8625Q171.39375 28.315624 170.3 28.315624Q169.425 28.315624 168.75313 28.784374Q168.09688 29.253124 167.72188 30.01875L167.72188 37.55L165.925 37.55L165.925 26.9875L167.62813 26.9875ZM176.4875 32.175Q176.4875 29.70625 177.62813 28.253124Q178.76875 26.784374 180.65938 26.784374Q182.59688 26.784374 183.675 28.159374L183.76875 26.9875L185.40938 26.9875L185.40938 37.3Q185.40938 39.346874 184.19063 40.51875Q182.9875 41.70625 180.925 41.70625Q179.78438 41.70625 178.69063 41.221874Q177.59688 40.7375 177.01875 39.878124L177.95625 38.8Q179.12813 40.2375 180.8 40.2375Q182.12813 40.2375 182.8625 39.4875Q183.59688 38.753124 183.59688 37.409374L183.59688 36.4875Q182.51875 37.753124 180.64375 37.753124Q178.78438 37.753124 177.62813 36.253124Q176.4875 34.753124 176.4875 32.175ZM178.3 32.378124Q178.3 34.175 179.03438 35.190624Q179.76875 36.20625 181.08125 36.20625Q182.8 36.20625 183.59688 34.659374L183.59688 29.83125Q182.76875 28.315624 181.1125 28.315624Q179.78438 28.315624 179.03438 29.346874Q178.3 30.378124 178.3 32.378124ZM192.3 37.753124Q190.15938 37.753124 188.8 36.346874Q187.45625 34.925 187.45625 32.565624L187.45625 32.221874Q187.45625 30.659374 188.05 29.425Q188.65938 28.190624 189.7375 27.4875Q190.81563 26.784374 192.08125 26.784374Q194.14375 26.784374 195.28438 28.14375Q196.425 29.503124 196.425 32.034374L196.425 32.784374L189.26875 32.784374Q189.3 34.346874 190.175 35.315624Q191.05 36.26875 192.39375 36.26875Q193.3625 36.26875 194.01875 35.878124Q194.69063 35.4875 195.19063 34.846874L196.28438 35.70625Q194.95625 37.753124 192.3 37.753124ZM192.08125 28.26875Q190.9875 28.26875 190.2375 29.065624Q189.50313 29.8625 189.33125 31.3L194.6125 31.3L194.6125 31.159374Q194.53438 29.784374 193.8625 29.034374Q193.20625 28.26875 192.08125 28.26875ZM205.06563 34.753124Q205.06563 34.01875 204.51875 33.6125Q203.97188 33.20625 202.59688 32.909374Q201.22188 32.6125 200.40938 32.20625Q199.6125 31.8 199.22188 31.2375Q198.84688 30.659374 198.84688 29.878124Q198.84688 28.58125 199.94063 27.690624Q201.03438 26.784374 202.75313 26.784374Q204.55 26.784374 205.65938 27.721874Q206.78438 28.64375 206.78438 30.08125L204.95625 30.08125Q204.95625 29.346874 204.33125 28.815624Q203.70625 28.26875 202.75313 28.26875Q201.75313 28.26875 201.19063 28.70625Q200.64375 29.128124 200.64375 29.83125Q200.64375 30.471874 201.15938 30.815624Q201.675 31.14375 203.03438 31.45625Q204.39375 31.753124 205.22188 32.175Q206.06563 32.58125 206.47188 33.175Q206.87813 33.76875 206.87813 34.6125Q206.87813 36.034374 205.7375 36.89375Q204.6125 37.753124 202.8 37.753124Q201.53438 37.753124 200.55 37.3Q199.58125 36.846874 199.01875 36.05Q198.47188 35.2375 198.47188 34.3L200.28438 34.3Q200.33125 35.20625 201.00313 35.7375Q201.69063 36.26875 202.8 36.26875Q203.83125 36.26875 204.44063 35.8625Q205.06563 35.440624 205.06563 34.753124ZM211.3625 24.425L211.3625 26.9875L213.34688 26.9875L213.34688 28.378124L211.3625 28.378124L211.3625 34.925Q211.3625 35.565624 211.62813 35.89375Q211.89375 36.20625 212.53438 36.20625Q212.84688 36.20625 213.39375 36.08125L213.39375 37.55Q212.675 37.753124 212.00313 37.753124Q210.8 37.753124 210.175 37.01875Q209.56563 36.284374 209.56563 34.925L209.56563 28.378124L207.64375 28.378124L207.64375 26.9875L209.56563 26.9875L209.56563 24.425L211.3625 24.425ZM226.01875 28.596874Q225.6125 28.534374 225.14375 28.534374Q223.3625 28.534374 222.72188 30.05L222.72188 37.55L220.925 37.55L220.925 26.9875L222.675 26.9875L222.70625 28.20625Q223.59688 26.784374 225.22188 26.784374Q225.75313 26.784374 226.01875 26.925L226.01875 28.596874ZM232.3 37.753124Q230.15938 37.753124 228.8 36.346874Q227.45625 34.925 227.45625 32.565624L227.45625 32.221874Q227.45625 30.659374 228.05 29.425Q228.65938 28.190624 229.7375 27.4875Q230.81563 26.784374 232.08125 26.784374Q234.14375 26.784374 235.28438 28.14375Q236.425 29.503124 236.425 32.034374L236.425 32.784374L229.26875 32.784374Q229.3 34.346874 230.175 35.315624Q231.05 36.26875 232.39375 36.26875Q233.3625 36.26875 234.01875 35.878124Q234.69063 35.4875 235.19063 34.846874L236.28438 35.70625Q234.95625 37.753124 232.3 37.753124ZM232.08125 28.26875Q230.9875 28.26875 230.2375 29.065624Q229.50313 29.8625 229.33125 31.3L234.6125 31.3L234.6125 31.159374Q234.53438 29.784374 233.8625 29.034374Q233.20625 28.26875 232.08125 28.26875ZM238.47188 32.175Q238.47188 29.690624 239.6125 28.2375Q240.76875 26.784374 242.69063 26.784374Q244.56563 26.784374 245.64375 28.05L245.72188 26.9875L247.37813 26.9875L247.37813 41.6125L245.58125 41.6125L245.58125 36.565624Q244.4875 37.753124 242.675 37.753124Q240.75313 37.753124 239.6125 36.26875Q238.47188 34.76875 238.47188 32.3L238.47188 32.175ZM240.28438 32.378124Q240.28438 34.20625 241.05 35.2375Q241.81563 36.26875 243.1125 36.26875Q244.72188 36.26875 245.58125 34.846874L245.58125 29.675Q244.72188 28.26875 243.14375 28.26875Q241.83125 28.26875 241.05 29.315624Q240.28438 30.346874 240.28438 32.378124ZM256.4406 36.503124Q255.39375 37.753124 253.34688 37.753124Q251.65938 37.753124 250.76875 36.76875Q249.89375 35.784374 249.87813 33.8625L249.87813 26.9875L251.69063 26.9875L251.69063 33.815624Q251.69063 36.20625 253.64375 36.20625Q255.70625 36.20625 256.39374 34.675L256.39374 26.9875L258.20624 26.9875L258.20624 37.55L256.4875 37.55L256.4406 36.503124ZM265.3 37.753124Q263.15936 37.753124 261.8 36.346874Q260.45624 34.925 260.45624 32.565624L260.45624 32.221874Q260.45624 30.659374 261.05 29.425Q261.65936 28.190624 262.7375 27.4875Q263.8156 26.784374 265.08124 26.784374Q267.14374 26.784374 268.28436 28.14375Q269.425 29.503124 269.425 32.034374L269.425 32.784374L262.26874 32.784374Q262.3 34.346874 263.175 35.315624Q264.05 36.26875 265.39374 36.26875Q266.3625 36.26875 267.01874 35.878124Q267.6906 35.4875 268.1906 34.846874L269.28436 35.70625Q267.95624 37.753124 265.3 37.753124ZM265.08124 28.26875Q263.9875 28.26875 263.2375 29.065624Q262.5031 29.8625 262.33124 31.3L267.6125 31.3L267.6125 31.159374Q267.53436 29.784374 266.8625 29.034374Q266.20624 28.26875 265.08124 28.26875ZM278.0656 34.753124Q278.0656 34.01875 277.51874 33.6125Q276.97186 33.20625 275.59686 32.909374Q274.22186 32.6125 273.40936 32.20625Q272.6125 31.8 272.22186 31.2375Q271.84686 30.659374 271.84686 29.878124Q271.84686 28.58125 272.9406 27.690624Q274.03436 26.784374 275.7531 26.784374Q277.55 26.784374 278.65936 27.721874Q279.78436 28.64375 279.78436 30.08125L277.95624 30.08125Q277.95624 29.346874 277.33124 28.815624Q276.70624 28.26875 275.7531 28.26875Q274.7531 28.26875 274.1906 28.70625Q273.64374 29.128124 273.64374 29.83125Q273.64374 30.471874 274.15936 30.815624Q274.675 31.14375 276.03436 31.45625Q277.39374 31.753124 278.22186 32.175Q279.0656 32.58125 279.47186 33.175Q279.8781 33.76875 279.8781 34.6125Q279.8781 36.034374 278.7375 36.89375Q277.6125 37.753124 275.8 37.753124Q274.53436 37.753124 273.55 37.3Q272.58124 36.846874 272.01874 36.05Q271.47186 35.2375 271.47186 34.3L273.28436 34.3Q273.33124 35.20625 274.0031 35.7375Q274.6906 36.26875 275.8 36.26875Q276.83124 36.26875 277.4406 35.8625Q278.0656 35.440624 278.0656 34.753124ZM284.3625 24.425L284.3625 26.9875L286.34686 26.9875L286.34686 28.378124L284.3625 28.378124L284.3625 34.925Q284.3625 35.565624 284.6281 35.89375Q284.89374 36.20625 285.53436 36.20625Q285.84686 36.20625 286.39374 36.08125L286.39374 37.55Q285.675 37.753124 285.0031 37.753124Q283.8 37.753124 283.175 37.01875Q282.5656 36.284374 282.5656 34.925L282.5656 28.378124L280.64374 28.378124L280.64374 26.9875L282.5656 26.9875L282.5656 24.425L284.3625 24.425ZM296.3625 24.425L296.3625 26.9875L298.34686 26.9875L298.34686 28.378124L296.3625 28.378124L296.3625 34.925Q296.3625 35.565624 296.6281 35.89375Q296.89374 36.20625 297.53436 36.20625Q297.84686 36.20625 298.39374 36.08125L298.39374 37.55Q297.675 37.753124 297.0031 37.753124Q295.8 37.753124 295.175 37.01875Q294.5656 36.284374 294.5656 34.925L294.5656 28.378124L292.64374 28.378124L292.64374 26.9875L294.5656 26.9875L294.5656 24.425L296.3625 24.425ZM302.8781 37.55L301.08124 37.55L301.08124 26.9875L302.8781 26.9875L302.8781 37.55ZM300.925 24.175Q300.925 23.7375 301.1906 23.440624Q301.47186 23.128124 301.9875 23.128124Q302.51874 23.128124 302.78436 23.440624Q303.0656 23.7375 303.0656 24.175Q303.0656 24.6125 302.78436 24.909374Q302.51874 25.20625 301.9875 25.20625Q301.47186 25.20625 301.1906 24.909374Q300.925 24.6125 300.925 24.175ZM307.6125 26.9875L307.65936 28.159374Q308.83124 26.784374 310.8 26.784374Q313.01874 26.784374 313.8156 28.4875Q314.34686 27.721874 315.1906 27.253124Q316.03436 26.784374 317.1906 26.784374Q320.65936 26.784374 320.72186 30.471874L320.72186 37.55L318.90936 37.55L318.90936 30.58125Q318.90936 29.440624 318.39374 28.878124Q317.8781 28.315624 316.65936 28.315624Q315.65936 28.315624 314.9875 28.925Q314.33124 29.51875 314.22186 30.534374L314.22186 37.55L312.40936 37.55L312.40936 30.628124Q312.40936 28.315624 310.14374 28.315624Q308.3625 28.315624 307.72186 29.83125L307.72186 37.55L305.90936 37.55L305.90936 26.9875L307.6125 26.9875ZM328.3 37.753124Q326.15936 37.753124 324.8 36.346874Q323.45624 34.925 323.45624 32.565624L323.45624 32.221874Q323.45624 30.659374 324.05 29.425Q324.65936 28.190624 325.7375 27.4875Q326.8156 26.784374 328.08124 26.784374Q330.14374 26.784374 331.28436 28.14375Q332.425 29.503124 332.425 32.034374L332.425 32.784374L325.26874 32.784374Q325.3 34.346874 326.175 35.315624Q327.05 36.26875 328.39374 36.26875Q329.3625 36.26875 330.01874 35.878124Q330.6906 35.4875 331.1906 34.846874L332.28436 35.70625Q330.95624 37.753124 328.3 37.753124ZM328.08124 28.26875Q326.9875 28.26875 326.2375 29.065624Q325.5031 29.8625 325.33124 31.3L330.6125 31.3L330.6125 31.159374Q330.53436 29.784374 329.8625 29.034374Q329.20624 28.26875 328.08124 28.26875ZM339.84686 31.784374Q339.84686 29.565624 340.4406 27.534374Q341.03436 25.503124 342.20624 23.846874Q343.3781 22.190624 344.6281 21.503124L345.0031 22.690624Q343.58124 23.784374 342.65936 26.034374Q341.7531 28.284374 341.65936 31.065624L341.65936 31.89375Q341.65936 35.659374 343.03436 38.440624Q343.8625 40.096874 345.0031 41.034374L344.6281 42.14375Q343.33124 41.425 342.15936 39.721874Q339.84686 36.39375 339.84686 31.784374ZM356.26874 35.065624L358.3 26.9875L360.1125 26.9875L357.03436 37.55L355.5656 37.55L353.0031 29.534374L350.5031 37.55L349.03436 37.55L345.97186 26.9875L347.76874 26.9875L349.84686 34.89375L352.3156 26.9875L353.76874 26.9875L356.26874 35.065624ZM361.4406 32.175Q361.4406 30.6125 362.05 29.378124Q362.65936 28.128124 363.7375 27.45625Q364.83124 26.784374 366.2375 26.784374Q368.39374 26.784374 369.72186 28.284374Q371.0656 29.76875 371.0656 32.253124L371.0656 32.378124Q371.0656 33.925 370.47186 35.159374Q369.8781 36.378124 368.76874 37.065624Q367.675 37.753124 366.2531 37.753124Q364.1125 37.753124 362.76874 36.253124Q361.4406 34.753124 361.4406 32.3L361.4406 32.175ZM363.2531 32.378124Q363.2531 34.14375 364.0656 35.20625Q364.89374 36.26875 366.2531 36.26875Q367.6281 36.26875 368.4406 35.190624Q369.2531 34.1125 369.2531 32.175Q369.2531 30.425 368.425 29.346874Q367.59686 28.26875 366.2375 28.26875Q364.89374 28.26875 364.0656 29.33125Q363.2531 30.39375 363.2531 32.378124ZM378.01874 28.596874Q377.6125 28.534374 377.14374 28.534374Q375.3625 28.534374 374.72186 30.05L374.72186 37.55L372.925 37.55L372.925 26.9875L374.675 26.9875L374.70624 28.20625Q375.59686 26.784374 377.22186 26.784374Q377.7531 26.784374 378.01874 26.925L378.01874 28.596874ZM386.0656 34.753124Q386.0656 34.01875 385.51874 33.6125Q384.97186 33.20625 383.59686 32.909374Q382.22186 32.6125 381.40936 32.20625Q380.6125 31.8 380.22186 31.2375Q379.84686 30.659374 379.84686 29.878124Q379.84686 28.58125 380.9406 27.690624Q382.03436 26.784374 383.7531 26.784374Q385.55 26.784374 386.65936 27.721874Q387.78436 28.64375 387.78436 30.08125L385.95624 30.08125Q385.95624 29.346874 385.33124 28.815624Q384.70624 28.26875 383.7531 28.26875Q382.7531 28.26875 382.1906 28.70625Q381.64374 29.128124 381.64374 29.83125Q381.64374 30.471874 382.15936 30.815624Q382.675 31.14375 384.03436 31.45625Q385.39374 31.753124 386.22186 32.175Q387.0656 32.58125 387.47186 33.175Q387.8781 33.76875 387.8781 34.6125Q387.8781 36.034374 386.7375 36.89375Q385.6125 37.753124 383.8 37.753124Q382.53436 37.753124 381.55 37.3Q380.58124 36.846874 380.01874 36.05Q379.47186 35.2375 379.47186 34.3L381.28436 34.3Q381.33124 35.20625 382.0031 35.7375Q382.6906 36.26875 383.8 36.26875Q384.83124 36.26875 385.4406 35.8625Q386.0656 35.440624 386.0656 34.753124ZM392.3625 24.425L392.3625 26.9875L394.34686 26.9875L394.34686 28.378124L392.3625 28.378124L392.3625 34.925Q392.3625 35.565624 392.6281 35.89375Q392.89374 36.20625 393.53436 36.20625Q393.84686 36.20625 394.39374 36.08125L394.39374 37.55Q393.675 37.753124 393.0031 37.753124Q391.8 37.753124 391.175 37.01875Q390.5656 36.284374 390.5656 34.925L390.5656 28.378124L388.64374 28.378124L388.64374 26.9875L390.5656 26.9875L390.5656 24.425L392.3625 24.425ZM406.15936 36.26875Q407.1281 36.26875 407.84686 35.690624Q408.5656 35.096874 408.64374 34.221874L410.3625 34.221874Q410.3 35.128124 409.72186 35.95625Q409.15936 36.76875 408.1906 37.26875Q407.2375 37.753124 406.15936 37.753124Q404.0031 37.753124 402.72186 36.315624Q401.45624 34.8625 401.45624 32.3625L401.45624 32.065624Q401.45624 30.51875 402.01874 29.315624Q402.58124 28.1125 403.64374 27.45625Q404.70624 26.784374 406.14374 26.784374Q407.925 26.784374 409.09686 27.846874Q410.28436 28.909374 410.3625 30.6125L408.64374 30.6125Q408.5656 29.596874 407.8625 28.940624Q407.175 28.26875 406.14374 28.26875Q404.76874 28.26875 404.0031 29.26875Q403.2531 30.253124 403.2531 32.128124L403.2531 32.471874Q403.2531 34.3 404.0031 35.284374Q404.7531 36.26875 406.15936 36.26875ZM418.4406 37.55Q418.28436 37.2375 418.1906 36.440624Q416.925 37.753124 415.175 37.753124Q413.6125 37.753124 412.6125 36.8625Q411.6125 35.971874 411.6125 34.6125Q411.6125 32.971874 412.8625 32.065624Q414.1281 31.14375 416.39374 31.14375L418.15936 31.14375L418.15936 30.315624Q418.15936 29.3625 417.58124 28.8Q417.01874 28.2375 415.925 28.2375Q414.95624 28.2375 414.3 28.7375Q413.64374 29.221874 413.64374 29.909374L411.83124 29.909374Q411.83124 29.128124 412.39374 28.39375Q412.95624 27.64375 413.90936 27.221874Q414.8781 26.784374 416.03436 26.784374Q417.8625 26.784374 418.89374 27.70625Q419.925 28.6125 419.97186 30.221874L419.97186 35.08125Q419.97186 36.534374 420.33124 37.39375L420.33124 37.55L418.4406 37.55ZM415.4406 36.175Q416.3 36.175 417.05 35.7375Q417.8156 35.3 418.15936 34.596874L418.15936 32.425L416.7375 32.425Q413.425 32.425 413.425 34.3625Q413.425 35.221874 413.9875 35.70625Q414.55 36.175 415.4406 36.175ZM429.0656 34.753124Q429.0656 34.01875 428.51874 33.6125Q427.97186 33.20625 426.59686 32.909374Q425.22186 32.6125 424.40936 32.20625Q423.6125 31.8 423.22186 31.2375Q422.84686 30.659374 422.84686 29.878124Q422.84686 28.58125 423.9406 27.690624Q425.03436 26.784374 426.7531 26.784374Q428.55 26.784374 429.65936 27.721874Q430.78436 28.64375 430.78436 30.08125L428.95624 30.08125Q428.95624 29.346874 428.33124 28.815624Q427.70624 28.26875 426.7531 28.26875Q425.7531 28.26875 425.1906 28.70625Q424.64374 29.128124 424.64374 29.83125Q424.64374 30.471874 425.15936 30.815624Q425.675 31.14375 427.03436 31.45625Q428.39374 31.753124 429.22186 32.175Q430.0656 32.58125 430.47186 33.175Q430.8781 33.76875 430.8781 34.6125Q430.8781 36.034374 429.7375 36.89375Q428.6125 37.753124 426.8 37.753124Q425.53436 37.753124 424.55 37.3Q423.58124 36.846874 423.01874 36.05Q422.47186 35.2375 422.47186 34.3L424.28436 34.3Q424.33124 35.20625 425.0031 35.7375Q425.6906 36.26875 426.8 36.26875Q427.83124 36.26875 428.4406 35.8625Q429.0656 35.440624 429.0656 34.753124ZM437.3 37.753124Q435.15936 37.753124 433.8 36.346874Q432.45624 34.925 432.45624 32.565624L432.45624 32.221874Q432.45624 30.659374 433.05 29.425Q433.65936 28.190624 434.7375 27.4875Q435.8156 26.784374 437.08124 26.784374Q439.14374 26.784374 440.28436 28.14375Q441.425 29.503124 441.425 32.034374L441.425 32.784374L434.26874 32.784374Q434.3 34.346874 435.175 35.315624Q436.05 36.26875 437.39374 36.26875Q438.3625 36.26875 439.01874 35.878124Q439.6906 35.4875 440.1906 34.846874L441.28436 35.70625Q439.95624 37.753124 437.3 37.753124ZM437.08124 28.26875Q435.9875 28.26875 435.2375 29.065624Q434.5031 29.8625 434.33124 31.3L439.6125 31.3L439.6125 31.159374Q439.53436 29.784374 438.8625 29.034374Q438.20624 28.26875 437.08124 28.26875ZM448.08124 31.878124Q448.08124 34.05 447.5031 36.05Q446.9406 38.05 445.76874 39.7375Q444.59686 41.425 443.3 42.14375L442.925 41.034374Q444.425 39.878124 445.33124 37.45625Q446.2531 35.034374 446.26874 32.065624L446.26874 31.753124Q446.26874 29.70625 445.83124 27.940624Q445.40936 26.175 444.64374 24.784374Q443.8781 23.39375 442.925 22.6125L443.3 21.503124Q444.59686 22.221874 445.7531 23.89375Q446.925 25.55 447.5031 27.565624Q448.08124 29.58125 448.08124 31.878124Z" fill-rule="nonzero"/></svg>