<svg version="1.1" viewBox="0.0 0.0 600.0 371.0" fill="none" stroke="none" stroke-linecap="square" stroke-miterlimit="10" width="600" height="371" xmlns:xlink="http://www.w3.org/1999/xlink" xmlns="http://www.w3.org/2000/svg"><path fill="#ffffff" d="M0 0L600.0 0L600.0 371.0L0 371.0L0 0Z" fill-rule="nonzero"/><path stroke="#333333" stroke-width="1.0" stroke-linecap="butt" d="M78.5 298.5L581.5 298.5" fill-rule="nonzero"/><path stroke="#cccccc" stroke-width="1.0" stroke-linecap="butt" d="M78.5 246.5L581.5 246.5" fill-rule="nonzero"/><path stroke="#cccccc" stroke-width="1.0" stroke-linecap="butt" d="M78.5 194.5L581.5 194.5" fill-rule="nonzero"/><path stroke="#cccccc" stroke-width="1.0" stroke-linecap="butt" d="M78.5 141.5L581.5 141.5" fill-rule="nonzero"/><path stroke="#cccccc" stroke-width="1.0" stroke-linecap="butt" d="M78.5 89.5L581.5 89.5" fill-rule="nonzero"/><clipPath id="id_0"><path d="M78.55 89.78333L581.45 89.78333L581.45 298.45L78.55 298.45L78.55 89.78333Z" clip-rule="nonzero"/></clipPath><path stroke="#000000" stroke-width="0.0" stroke-linecap="butt" stroke-opacity="0.0" clip-path="url(#id_0)" d="M141.0 298.0L111.0 298.0L111.0 101.0C111.0 99.89543 111.89543 99.0 113.0 99.0L139.0 99.0C140.10457 99.0 141.0 99.89543 141.0 101.0Z" fill-rule="nonzero"/><path fill="#34a853" clip-path="url(#id_0)" d="M141.0 298.0L111.0 298.0L111.0 101.0C111.0 99.89543 111.89543 99.0 113.0 99.0L139.0 99.0C140.10457 99.0 141.0 99.89543 141.0 101.0Z" fill-rule="nonzero"/><path stroke="#000000" stroke-width="0.0" stroke-linecap="butt" stroke-opacity="0.0" clip-path="url(#id_0)" d="M235.0 298.0L205.0 298.0L205.0 99.0C205.0 97.89543 205.89543 97.0 207.0 97.0L233.0 97.0C234.10457 97.0 235.0 97.89543 235.0 99.0Z" fill-rule="nonzero"/><path fill="#34a853" clip-path="url(#id_0)" d="M235.0 298.0L205.0 298.0L205.0 99.0C205.0 97.89543 205.89543 97.0 207.0 97.0L233.0 97.0C234.10457 97.0 235.0 97.89543 235.0 99.0Z" fill-rule="nonzero"/><path stroke="#000000" stroke-width="0.0" stroke-linecap="butt" stroke-opacity="0.0" clip-path="url(#id_0)" d="M329.0 298.0L299.0 298.0L299.0 103.0C299.0 101.89543 299.89542 101.0 301.0 101.0L327.0 101.0C328.10458 101.0 329.0 101.89543 329.0 103.0Z" fill-rule="nonzero"/><path fill="#34a853" clip-path="url(#id_0)" d="M329.0 298.0L299.0 298.0L299.0 103.0C299.0 101.89543 299.89542 101.0 301.0 101.0L327.0 101.0C328.10458 101.0 329.0 101.89543 329.0 103.0Z" fill-rule="nonzero"/><path stroke="#000000" stroke-width="0.0" stroke-linecap="butt" stroke-opacity="0.0" clip-path="url(#id_0)" d="M423.0 298.0L393.0 298.0L393.0 98.0C393.0 96.89543 393.89542 96.0 395.0 96.0L421.0 96.0C422.10458 96.0 423.0 96.89543 423.0 98.0Z" fill-rule="nonzero"/><path fill="#34a853" clip-path="url(#id_0)" d="M423.0 298.0L393.0 298.0L393.0 98.0C393.0 96.89543 393.89542 96.0 395.0 96.0L421.0 96.0C422.10458 96.0 423.0 96.89543 423.0 98.0Z" fill-rule="nonzero"/><path stroke="#000000" stroke-width="0.0" stroke-linecap="butt" stroke-opacity="0.0" clip-path="url(#id_0)" d="M517.0 298.0L487.0 298.0L487.0 100.0C487.0 98.89543 487.89542 98.0 489.0 98.0L515.0 98.0C516.10455 98.0 517.0 98.89543 517.0 100.0Z" fill-rule="nonzero"/><path fill="#34a853" clip-path="url(#id_0)" d="M517.0 298.0L487.0 298.0L487.0 100.0C487.0 98.89543 487.89542 98.0 489.0 98.0L515.0 98.0C516.10455 98.0 517.0 98.89543 517.0 100.0Z" fill-rule="nonzero"/><path stroke="#000000" stroke-width="0.0" stroke-linecap="butt" stroke-opacity="0.0" clip-path="url(#id_0)" d="M172.0 298.0L142.0 298.0L142.0 249.0C142.0 247.89543 142.89543 247.0 144.0 247.0L170.0 247.0C171.10457 247.0 172.0 247.89543 172.0 249.0Z" fill-rule="nonzero"/><path fill="#4285f4" clip-path="url(#id_0)" d="M172.0 298.0L142.0 298.0L142.0 249.0C142.0 247.89543 142.89543 247.0 144.0 247.0L170.0 247.0C171.10457 247.0 172.0 247.89543 172.0 249.0Z" fill-rule="nonzero"/><path stroke="#000000" stroke-width="0.0" stroke-linecap="butt" stroke-opacity="0.0" clip-path="url(#id_0)" d="M266.0 298.0L236.0 298.0L236.0 249.0C236.0 247.89543 236.89543 247.0 238.0 247.0L264.0 247.0C265.10458 247.0 266.0 247.89543 266.0 249.0Z" fill-rule="nonzero"/><path fill="#4285f4" clip-path="url(#id_0)" d="M266.0 298.0L236.0 298.0L236.0 249.0C236.0 247.89543 236.89543 247.0 238.0 247.0L264.0 247.0C265.10458 247.0 266.0 247.89543 266.0 249.0Z" fill-rule="nonzero"/><path stroke="#000000" stroke-width="0.0" stroke-linecap="butt" stroke-opacity="0.0" clip-path="url(#id_0)" d="M360.0 298.0L330.0 298.0L330.0 252.0C330.0 250.89543 330.89542 250.0 332.0 250.0L358.0 250.0C359.10458 250.0 360.0 250.89543 360.0 252.0Z" fill-rule="nonzero"/><path fill="#4285f4" clip-path="url(#id_0)" d="M360.0 298.0L330.0 298.0L330.0 252.0C330.0 250.89543 330.89542 250.0 332.0 250.0L358.0 250.0C359.10458 250.0 360.0 250.89543 360.0 252.0Z" fill-rule="nonzero"/><path stroke="#000000" stroke-width="0.0" stroke-linecap="butt" stroke-opacity="0.0" clip-path="url(#id_0)" d="M454.0 298.0L424.0 298.0L424.0 249.0C424.0 247.89543 424.89542 247.0 426.0 247.0L452.0 247.0C453.10458 247.0 454.0 247.89543 454.0 249.0Z" fill-rule="nonzero"/><path fill="#4285f4" clip-path="url(#id_0)" d="M454.0 298.0L424.0 298.0L424.0 249.0C424.0 247.89543 424.89542 247.0 426.0 247.0L452.0 247.0C453.10458 247.0 454.0 247.89543 454.0 249.0Z" fill-rule="nonzero"/><path stroke="#000000" stroke-width="0.0" stroke-linecap="butt" stroke-opacity="0.0" clip-path="url(#id_0)" d="M548.0 298.0L518.0 298.0L518.0 248.0C518.0 246.89543 518.89545 246.0 520.0 246.0L546.0 246.0C547.10455 246.0 548.0 246.89543 548.0 248.0Z" fill-rule="nonzero"/><path fill="#4285f4" clip-path="url(#id_0)" d="M548.0 298.0L518.0 298.0L518.0 248.0C518.0 246.89543 518.89545 246.0 520.0 246.0L546.0 246.0C547.10455 246.0 548.0 246.89543 548.0 248.0Z" fill-rule="nonzero"/><path fill="#000000" d="M289.95312 346.60626Q289.85938 347.98126 288.9375 348.77814Q288.03125 349.575 286.53125 349.575Q284.89062 349.575 283.9375 348.46564Q283.0 347.35626 283.0 345.4344L283.0 344.90314Q283.0 343.6844 283.4375 342.7469Q283.875 341.8094 284.67188 341.3094Q285.48438 340.79376 286.54688 340.79376Q288.03125 340.79376 288.92188 341.59064Q289.82812 342.3875 289.96875 343.8094L288.21875 343.8094Q288.15625 342.98126 287.75 342.6219Q287.35938 342.2469 286.54688 342.2469Q285.67188 342.2469 285.23438 342.8719Q284.79688 343.4969 284.78125 344.825L284.78125 345.46564Q284.78125 346.85626 285.20312 347.4969Q285.625 348.1375 286.53125 348.1375Q287.34375 348.1375 287.73438 347.7625Q288.14062 347.3875 288.20312 346.60626L289.95312 346.60626ZM290.89062 346.21564Q290.89062 345.27814 291.25 344.54376Q291.60938 343.79376 292.29688 343.40314Q292.98438 342.9969 293.875 342.9969Q295.17188 342.9969 295.96875 343.77814Q296.78125 344.5594 296.875 345.90314L296.89062 346.34064Q296.89062 347.8094 296.07812 348.7Q295.26562 349.575 293.89062 349.575Q292.51562 349.575 291.70312 348.7Q290.89062 347.8094 290.89062 346.29376L290.89062 346.21564ZM292.57812 346.34064Q292.57812 347.2469 292.92188 347.73126Q293.26562 348.2 293.89062 348.2Q294.51562 348.2 294.85938 347.73126Q295.20312 347.2625 295.20312 346.21564Q295.20312 345.34064 294.85938 344.85626Q294.51562 344.35626 293.875 344.35626Q293.26562 344.35626 292.92188 344.84064Q292.57812 345.325 292.57812 346.34064ZM299.70312 343.10626L299.76562 343.84064Q300.4375 342.9969 301.57812 342.9969Q302.59375 342.9969 303.07812 343.59064Q303.57812 344.16876 303.59375 345.35626L303.59375 349.45L301.89062 349.45L301.89062 345.3875Q301.89062 344.85626 301.65625 344.6219Q301.42188 344.3719 300.875 344.3719Q300.17188 344.3719 299.8125 344.98126L299.8125 349.45L298.10938 349.45L298.10938 343.10626L299.70312 343.10626ZM307.78125 348.2Q308.25 348.2 308.54688 347.95Q308.84375 347.6844 308.85938 347.2625L310.4375 347.2625Q310.4375 347.90314 310.09375 348.45Q309.75 348.98126 309.14062 349.27814Q308.54688 349.575 307.8125 349.575Q306.45312 349.575 305.67188 348.71564Q304.89062 347.84064 304.89062 346.3094L304.89062 346.2Q304.89062 344.73126 305.67188 343.8719Q306.45312 342.9969 307.8125 342.9969Q309.0 342.9969 309.71875 343.66876Q310.4375 344.34064 310.4375 345.46564L308.85938 345.46564Q308.84375 344.98126 308.54688 344.66876Q308.25 344.35626 307.78125 344.35626Q307.1875 344.35626 306.875 344.79376Q306.57812 345.23126 306.57812 346.1844L306.57812 346.3719Q306.57812 347.34064 306.875 347.77814Q307.17188 348.2 307.78125 348.2ZM314.95312 348.8094Q314.32812 349.575 313.21875 349.575Q312.1875 349.575 311.65625 348.98126Q311.125 348.3875 311.10938 347.2625L311.10938 343.10626L312.79688 343.10626L312.79688 347.2Q312.79688 348.2 313.70312 348.2Q314.5625 348.2 314.89062 347.59064L314.89062 343.10626L316.59375 343.10626L316.59375 349.45L315.0 349.45L314.95312 348.8094ZM321.71875 344.7Q321.375 344.65314 321.10938 344.65314Q320.14062 344.65314 319.84375 345.29376L319.84375 349.45L318.15625 349.45L318.15625 343.10626L319.75 343.10626L319.79688 343.8719Q320.3125 342.9969 321.20312 342.9969Q321.48438 342.9969 321.73438 343.075L321.71875 344.7ZM325.71875 344.7Q325.375 344.65314 325.10938 344.65314Q324.14062 344.65314 323.84375 345.29376L323.84375 349.45L322.15625 349.45L322.15625 343.10626L323.75 343.10626L323.79688 343.8719Q324.3125 342.9969 325.20312 342.9969Q325.48438 342.9969 325.73438 343.075L325.71875 344.7ZM329.0625 349.575Q327.67188 349.575 326.79688 348.71564Q325.92188 347.85626 325.92188 346.4344L325.92188 346.2625Q325.92188 345.3094 326.28125 344.5594Q326.65625 343.8094 327.32812 343.40314Q328.01562 342.9969 328.875 342.9969Q330.1875 342.9969 330.92188 343.825Q331.67188 344.6375 331.67188 346.1375L331.67188 346.825L327.64062 346.825Q327.71875 347.45 328.125 347.825Q328.54688 348.2 329.1875 348.2Q330.15625 348.2 330.70312 347.4969L331.54688 348.41876Q331.15625 348.96564 330.5 349.27814Q329.85938 349.575 329.0625 349.575ZM328.875 344.35626Q328.375 344.35626 328.0625 344.7Q327.75 345.04376 327.65625 345.66876L330.01562 345.66876L330.01562 345.54376Q330.0 344.98126 329.70312 344.66876Q329.42188 344.35626 328.875 344.35626ZM333.70312 343.10626L333.76562 343.84064Q334.4375 342.9969 335.57812 342.9969Q336.59375 342.9969 337.07812 343.59064Q337.57812 344.16876 337.59375 345.35626L337.59375 349.45L335.89062 349.45L335.89062 345.3875Q335.89062 344.85626 335.65625 344.6219Q335.42188 344.3719 334.875 344.3719Q334.17188 344.3719 333.8125 344.98126L333.8125 349.45L332.10938 349.45L332.10938 343.10626L333.70312 343.10626ZM341.78125 348.2Q342.25 348.2 342.54688 347.95Q342.84375 347.6844 342.85938 347.2625L344.4375 347.2625Q344.4375 347.90314 344.09375 348.45Q343.75 348.98126 343.14062 349.27814Q342.54688 349.575 341.8125 349.575Q340.45312 349.575 339.67188 348.71564Q338.89062 347.84064 338.89062 346.3094L338.89062 346.2Q338.89062 344.73126 339.67188 343.8719Q340.45312 342.9969 341.8125 342.9969Q343.0 342.9969 343.71875 343.66876Q344.4375 344.34064 344.4375 345.46564L342.85938 345.46564Q342.84375 344.98126 342.54688 344.66876Q342.25 344.35626 341.78125 344.35626Q341.1875 344.35626 340.875 344.79376Q340.57812 345.23126 340.57812 346.1844L340.57812 346.3719Q340.57812 347.34064 340.875 347.77814Q341.17188 348.2 341.78125 348.2ZM347.51562 347.0594L348.6875 343.10626L350.5 343.10626L347.95312 350.4344L347.8125 350.7625Q347.25 352.0125 345.9375 352.0125Q345.57812 352.0125 345.1875 351.90314L345.1875 350.6219L345.45312 350.6219Q345.9375 350.6219 346.17188 350.46564Q346.40625 350.325 346.54688 349.9969L346.73438 349.46564L344.51562 343.10626L346.34375 343.10626L347.51562 347.0594ZM355.9375 349.45L354.23438 349.45L354.23438 340.45L355.9375 340.45L355.9375 349.45ZM360.0625 349.575Q358.67188 349.575 357.79688 348.71564Q356.92188 347.85626 356.92188 346.4344L356.92188 346.2625Q356.92188 345.3094 357.28125 344.5594Q357.65625 343.8094 358.32812 343.40314Q359.01562 342.9969 359.875 342.9969Q361.1875 342.9969 361.92188 343.825Q362.67188 344.6375 362.67188 346.1375L362.67188 346.825L358.64062 346.825Q358.71875 347.45 359.125 347.825Q359.54688 348.2 360.1875 348.2Q361.15625 348.2 361.70312 347.4969L362.54688 348.41876Q362.15625 348.96564 361.5 349.27814Q360.85938 349.575 360.0625 349.575ZM359.875 344.35626Q359.375 344.35626 359.0625 344.7Q358.75 345.04376 358.65625 345.66876L361.01562 345.66876L361.01562 345.54376Q361.0 344.98126 360.70312 344.66876Q360.42188 344.35626 359.875 344.35626ZM365.53125 347.3875L366.70312 343.10626L368.46875 343.10626L366.32812 349.45L364.71875 349.45L362.57812 343.10626L364.34375 343.10626L365.53125 347.3875ZM372.0625 349.575Q370.67188 349.575 369.79688 348.71564Q368.92188 347.85626 368.92188 346.4344L368.92188 346.2625Q368.92188 345.3094 369.28125 344.5594Q369.65625 343.8094 370.32812 343.40314Q371.01562 342.9969 371.875 342.9969Q373.1875 342.9969 373.92188 343.825Q374.67188 344.6375 374.67188 346.1375L374.67188 346.825L370.64062 346.825Q370.71875 347.45 371.125 347.825Q371.54688 348.2 372.1875 348.2Q373.15625 348.2 373.70312 347.4969L374.54688 348.41876Q374.15625 348.96564 373.5 349.27814Q372.85938 349.575 372.0625 349.575ZM371.875 344.35626Q371.375 344.35626 371.0625 344.7Q370.75 345.04376 370.65625 345.66876L373.01562 345.66876L373.01562 345.54376Q373.0 344.98126 372.70312 344.66876Q372.42188 344.35626 371.875 344.35626ZM376.9375 349.45L375.23438 349.45L375.23438 340.45L376.9375 340.45L376.9375 349.45Z" fill-rule="nonzero"/><path fill="#000000" d="M27.425013 252.9448L27.425013 254.35104L30.550013 254.35104L30.550013 256.10104L22.018763 256.10104L22.018763 252.92917Q22.018763 251.42917 22.690638 250.61667Q23.362513 249.78854 24.596888 249.78854Q25.471888 249.78854 26.050013 250.16354Q26.628138 250.53854 26.987513 251.30417L30.471888 249.46042L30.550013 249.46042L30.550013 251.35104L27.425013 252.9448ZM26.003138 254.35104L26.003138 252.92917Q26.003138 252.27292 25.675013 251.91354Q25.331263 251.53854 24.737513 251.53854Q24.128138 251.53854 23.784388 251.8823Q23.440638 252.22604 23.440638 252.92917L23.440638 254.35104L26.003138 254.35104ZM30.675013 245.30417Q30.675013 246.6948 29.815638 247.5698Q28.956263 248.4448 27.534388 248.4448L27.362513 248.4448Q26.409388 248.4448 25.659388 248.08542Q24.909388 247.71042 24.503138 247.03854Q24.096888 246.35104 24.096888 245.49167Q24.096888 244.17917 24.925013 243.4448Q25.737513 242.6948 27.237513 242.6948L27.925013 242.6948L27.925013 246.72604Q28.550013 246.64792 28.925013 246.24167Q29.300013 245.8198 29.300013 245.17917Q29.300013 244.21042 28.596888 243.66354L29.518763 242.8198Q30.065638 243.21042 30.378138 243.86667Q30.675013 244.5073 30.675013 245.30417ZM25.456263 245.49167Q25.456263 245.99167 25.800013 246.30417Q26.143763 246.61667 26.768763 246.71042L26.768763 244.35104L26.643763 244.35104Q26.081263 244.36667 25.768763 244.66354Q25.456263 244.9448 25.456263 245.49167ZM27.315638 242.47604Q25.831263 242.47604 24.971888 241.8198Q24.096888 241.14792 24.096888 239.99167Q24.096888 238.97604 24.878138 238.36667L24.206263 238.2573L24.206263 236.77292L32.98751 236.77292L32.98751 238.46042L30.003138 238.46042Q30.675013 239.05417 30.675013 240.0073Q30.675013 241.1323 29.800013 241.80417Q28.909388 242.47604 27.315638 242.47604ZM27.440638 240.78854Q28.346888 240.78854 28.831263 240.47604Q29.300013 240.14792 29.300013 239.5698Q29.300013 238.78854 28.675013 238.46042L26.065638 238.46042Q25.456263 238.78854 25.456263 239.55417Q25.456263 240.14792 25.940638 240.47604Q26.409388 240.78854 27.440638 240.78854ZM29.909388 231.41354Q30.675013 232.03854 30.675013 233.14792Q30.675013 234.17917 30.081263 234.71042Q29.487513 235.24167 28.362513 235.2573L24.206263 235.2573L24.206263 233.5698L28.300013 233.5698Q29.300013 233.5698 29.300013 232.66354Q29.300013 231.80417 28.690638 231.47604L24.206263 231.47604L24.206263 229.77292L30.550013 229.77292L30.550013 231.36667L29.909388 231.41354ZM30.675013 225.30417Q30.675013 226.6948 29.815638 227.5698Q28.956263 228.4448 27.534388 228.4448L27.362513 228.4448Q26.409388 228.4448 25.659388 228.08542Q24.909388 227.71042 24.503138 227.03854Q24.096888 226.35104 24.096888 225.49167Q24.096888 224.17917 24.925013 223.4448Q25.737513 222.6948 27.237513 222.6948L27.925013 222.6948L27.925013 226.72604Q28.550013 226.64792 28.925013 226.24167Q29.300013 225.8198 29.300013 225.17917Q29.300013 224.21042 28.596888 223.66354L29.518763 222.8198Q30.065638 223.21042 30.378138 223.86667Q30.675013 224.5073 30.675013 225.30417ZM25.456263 225.49167Q25.456263 225.99167 25.800013 226.30417Q26.143763 226.61667 26.768763 226.71042L26.768763 224.35104L26.643763 224.35104Q26.081263 224.36667 25.768763 224.66354Q25.456263 224.9448 25.456263 225.49167ZM28.800013 218.78854Q28.487513 218.78854 28.315638 219.10104Q28.128138 219.39792 27.987513 220.0698Q27.518763 222.33542 26.065638 222.33542Q25.221888 222.33542 24.659388 221.64792Q24.096888 220.9448 24.096888 219.80417Q24.096888 218.60104 24.659388 217.8823Q25.221888 217.14792 26.143763 217.14792L26.143763 218.85104Q25.768763 218.85104 25.534388 219.08542Q25.300013 219.3198 25.300013 219.8198Q25.300013 220.24167 25.503138 220.47604Q25.690638 220.71042 25.987513 220.71042Q26.268763 220.71042 26.440638 220.4448Q26.612513 220.17917 26.737513 219.55417Q26.862513 218.91354 27.018763 218.47604Q27.518763 217.1323 28.721888 217.1323Q29.596888 217.1323 30.143763 217.8823Q30.675013 218.61667 30.675013 219.80417Q30.675013 220.60104 30.393763 221.22604Q30.096888 221.83542 29.612513 222.1948Q29.112513 222.53854 28.534388 222.53854L28.534388 220.92917Q28.987513 220.91354 29.237513 220.60104Q29.471888 220.28854 29.471888 219.77292Q29.471888 219.27292 29.284388 219.03854Q29.096888 218.78854 28.800013 218.78854ZM22.643763 214.1948L24.206263 214.1948L24.206263 213.10104L25.456263 213.10104L25.456263 214.1948L28.612513 214.1948Q28.971888 214.1948 29.128138 214.05417Q29.268763 213.91354 29.268763 213.53854Q29.268763 213.2573 29.237513 213.03854L30.518763 213.03854Q30.675013 213.53854 30.675013 214.0698Q30.675013 215.85104 28.862513 215.8823L25.456263 215.8823L25.456263 216.80417L24.206263 216.80417L24.206263 215.8823L22.643763 215.8823L22.643763 214.1948ZM28.800013 208.78854Q28.487513 208.78854 28.315638 209.10104Q28.128138 209.39792 27.987513 210.0698Q27.518763 212.33542 26.065638 212.33542Q25.221888 212.33542 24.659388 211.64792Q24.096888 210.9448 24.096888 209.80417Q24.096888 208.60104 24.659388 207.8823Q25.221888 207.14792 26.143763 207.14792L26.143763 208.85104Q25.768763 208.85104 25.534388 209.08542Q25.300013 209.3198 25.300013 209.8198Q25.300013 210.24167 25.503138 210.47604Q25.690638 210.71042 25.987513 210.71042Q26.268763 210.71042 26.440638 210.4448Q26.612513 210.17917 26.737513 209.55417Q26.862513 208.91354 27.018763 208.47604Q27.518763 207.1323 28.721888 207.1323Q29.596888 207.1323 30.143763 207.8823Q30.675013 208.61667 30.675013 209.80417Q30.675013 210.60104 30.393763 211.22604Q30.096888 211.83542 29.612513 212.1948Q29.112513 212.53854 28.534388 212.53854L28.534388 210.92917Q28.987513 210.91354 29.237513 210.60104Q29.471888 210.28854 29.471888 209.77292Q29.471888 209.27292 29.284388 209.03854Q29.096888 208.78854 28.800013 208.78854ZM27.440638 197.5073Q28.909388 197.5073 29.800013 198.17917Q30.675013 198.83542 30.675013 199.97604Q30.675013 200.92917 30.003138 201.52292L32.98751 201.52292L32.98751 203.21042L24.206263 203.21042L24.206263 201.64792L24.831263 201.58542Q24.096888 200.97604 24.096888 199.97604Q24.096888 198.80417 24.971888 198.16354Q25.831263 197.5073 27.346888 197.5073L27.440638 197.5073ZM27.315638 199.1948Q26.425013 199.1948 25.956263 199.52292Q25.471888 199.83542 25.471888 200.42917Q25.471888 201.22604 26.081263 201.52292L28.675013 201.52292Q29.300013 201.21042 29.300013 200.41354Q29.300013 199.1948 27.315638 199.1948ZM30.675013 193.30417Q30.675013 194.6948 29.815638 195.5698Q28.956263 196.4448 27.534388 196.4448L27.362513 196.4448Q26.409388 196.4448 25.659388 196.08542Q24.909388 195.71042 24.503138 195.03854Q24.096888 194.35104 24.096888 193.49167Q24.096888 192.17917 24.925013 191.4448Q25.737513 190.6948 27.237513 190.6948L27.925013 190.6948L27.925013 194.72604Q28.550013 194.64792 28.925013 194.24167Q29.300013 193.8198 29.300013 193.17917Q29.300013 192.21042 28.596888 191.66354L29.518763 190.8198Q30.065638 191.21042 30.378138 191.86667Q30.675013 192.5073 30.675013 193.30417ZM25.456263 193.49167Q25.456263 193.99167 25.800013 194.30417Q26.143763 194.61667 26.768763 194.71042L26.768763 192.35104L26.643763 192.35104Q26.081263 192.36667 25.768763 192.66354Q25.456263 192.9448 25.456263 193.49167ZM25.800013 186.64792Q25.753138 186.99167 25.753138 187.2573Q25.753138 188.22604 26.393763 188.52292L30.550013 188.52292L30.550013 190.21042L24.206263 190.21042L24.206263 188.61667L24.971888 188.5698Q24.096888 188.05417 24.096888 187.16354Q24.096888 186.8823 24.175013 186.6323L25.800013 186.64792ZM28.800013 179.78854Q28.487513 179.78854 28.315638 180.10104Q28.128138 180.39792 27.987513 181.0698Q27.518763 183.33542 26.065638 183.33542Q25.221888 183.33542 24.659388 182.64792Q24.096888 181.9448 24.096888 180.80417Q24.096888 179.60104 24.659388 178.8823Q25.221888 178.14792 26.143763 178.14792L26.143763 179.85104Q25.768763 179.85104 25.534388 180.08542Q25.300013 180.3198 25.300013 180.8198Q25.300013 181.24167 25.503138 181.47604Q25.690638 181.71042 25.987513 181.71042Q26.268763 181.71042 26.440638 181.4448Q26.612513 181.17917 26.737513 180.55417Q26.862513 179.91354 27.018763 179.47604Q27.518763 178.1323 28.721888 178.1323Q29.596888 178.1323 30.143763 178.8823Q30.675013 179.61667 30.675013 180.80417Q30.675013 181.60104 30.393763 182.22604Q30.096888 182.83542 29.612513 183.1948Q29.112513 183.53854 28.534388 183.53854L28.534388 181.92917Q28.987513 181.91354 29.237513 181.60104Q29.471888 181.28854 29.471888 180.77292Q29.471888 180.27292 29.284388 180.03854Q29.096888 179.78854 28.800013 179.78854ZM30.675013 174.30417Q30.675013 175.6948 29.815638 176.5698Q28.956263 177.4448 27.534388 177.4448L27.362513 177.4448Q26.409388 177.4448 25.659388 177.08542Q24.909388 176.71042 24.503138 176.03854Q24.096888 175.35104 24.096888 174.49167Q24.096888 173.17917 24.925013 172.4448Q25.737513 171.6948 27.237513 171.6948L27.925013 171.6948L27.925013 175.72604Q28.550013 175.64792 28.925013 175.24167Q29.300013 174.8198 29.300013 174.17917Q29.300013 173.21042 28.596888 172.66354L29.518763 171.8198Q30.065638 172.21042 30.378138 172.86667Q30.675013 173.5073 30.675013 174.30417ZM25.456263 174.49167Q25.456263 174.99167 25.800013 175.30417Q26.143763 175.61667 26.768763 175.71042L26.768763 173.35104L26.643763 173.35104Q26.081263 173.36667 25.768763 173.66354Q25.456263 173.9448 25.456263 174.49167ZM29.300013 168.58542Q29.300013 168.11667 29.050013 167.8198Q28.784388 167.52292 28.362513 167.5073L28.362513 165.92917Q29.003138 165.92917 29.550013 166.27292Q30.081263 166.61667 30.378138 167.22604Q30.675013 167.8198 30.675013 168.55417Q30.675013 169.91354 29.815638 170.6948Q28.940638 171.47604 27.409388 171.47604L27.300013 171.47604Q25.831263 171.47604 24.971888 170.6948Q24.096888 169.91354 24.096888 168.55417Q24.096888 167.36667 24.768763 166.64792Q25.440638 165.92917 26.565638 165.92917L26.565638 167.5073Q26.081263 167.52292 25.768763 167.8198Q25.456263 168.11667 25.456263 168.58542Q25.456263 169.17917 25.893763 169.49167Q26.331263 169.78854 27.284388 169.78854L27.471888 169.78854Q28.440638 169.78854 28.878138 169.49167Q29.300013 169.1948 29.300013 168.58542ZM27.315638 165.47604Q26.378138 165.47604 25.643763 165.11667Q24.893763 164.7573 24.503138 164.0698Q24.096888 163.3823 24.096888 162.49167Q24.096888 161.1948 24.878138 160.39792Q25.659388 159.58542 27.003138 159.49167L27.440638 159.47604Q28.909388 159.47604 29.800013 160.28854Q30.675013 161.10104 30.675013 162.47604Q30.675013 163.85104 29.800013 164.66354Q28.909388 165.47604 27.393763 165.47604L27.315638 165.47604ZM27.440638 163.78854Q28.346888 163.78854 28.831263 163.4448Q29.300013 163.10104 29.300013 162.47604Q29.300013 161.85104 28.831263 161.5073Q28.362513 161.16354 27.315638 161.16354Q26.440638 161.16354 25.956263 161.5073Q25.456263 161.85104 25.456263 162.49167Q25.456263 163.10104 25.940638 163.4448Q26.425013 163.78854 27.440638 163.78854ZM24.206263 156.66354L24.940638 156.60104Q24.096888 155.92917 24.096888 154.78854Q24.096888 153.77292 24.690638 153.28854Q25.268763 152.78854 26.456263 152.77292L30.550013 152.77292L30.550013 154.47604L26.487513 154.47604Q25.956263 154.47604 25.721888 154.71042Q25.471888 154.9448 25.471888 155.49167Q25.471888 156.1948 26.081263 156.55417L30.550013 156.55417L30.550013 158.2573L24.206263 158.2573L24.206263 156.66354ZM27.331263 151.47604Q25.846888 151.47604 24.971888 150.8198Q24.096888 150.14792 24.096888 148.99167Q24.096888 148.0698 24.784388 147.46042L21.550013 147.46042L21.550013 145.77292L30.550013 145.77292L30.550013 147.28854L29.878138 147.3823Q30.675013 148.0073 30.675013 149.0073Q30.675013 150.1323 29.800013 150.80417Q28.909388 151.47604 27.331263 151.47604ZM27.456263 149.78854Q28.346888 149.78854 28.831263 149.47604Q29.300013 149.16354 29.300013 148.5698Q29.300013 147.78854 28.628138 147.46042L26.128138 147.46042Q25.471888 147.78854 25.471888 148.55417Q25.471888 149.78854 27.456263 149.78854Z" fill-rule="nonzero"/><path fill="#000000" d="M71.6125 299.3094Q71.6125 301.21564 70.95625 302.15314Q70.31563 303.075 68.925 303.075Q67.56563 303.075 66.90938 302.16876Q66.25313 301.2625 66.22188 299.45L66.22188 298.0125Q66.22188 296.1219 66.8625 295.21564Q67.51875 294.29376 68.90938 294.29376Q70.28438 294.29376 70.94063 295.1844Q71.59688 296.0594 71.6125 297.90314L71.6125 299.3094ZM70.51875 297.825Q70.51875 296.45 70.12813 295.825Q69.75313 295.1844 68.90938 295.1844Q68.08125 295.1844 67.69063 295.825Q67.31563 296.45 67.31563 297.7469L67.31563 299.48126Q67.31563 300.85626 67.70625 301.52814Q68.1125 302.1844 68.925 302.1844Q69.72188 302.1844 70.1125 301.5594Q70.50313 300.9344 70.51875 299.60626L70.51875 297.825Z" fill-rule="nonzero"/><path fill="#000000" d="M59.753124 246.50209L60.190624 242.25209L64.56563 242.25209L64.56563 243.25209L61.1125 243.25209L60.846874 245.58022Q61.4875 245.20522 62.284374 245.20522Q63.440624 245.20522 64.12813 245.98647Q64.81563 246.75209 64.81563 248.06459Q64.81563 249.37709 64.09688 250.14272Q63.39375 250.90834 62.1125 250.90834Q60.9875 250.90834 60.26875 250.28334Q59.55 249.64272 59.45625 248.53334L60.471874 248.53334Q60.58125 249.26772 61.003124 249.64272Q61.425 250.01772 62.1125 250.01772Q62.8625 250.01772 63.3 249.50209Q63.7375 248.98647 63.7375 248.08022Q63.7375 247.22084 63.26875 246.70522Q62.8 246.18959 62.01875 246.18959Q61.315624 246.18959 60.909374 246.48647L60.628124 246.72084L59.753124 246.50209ZM71.6125 247.14272Q71.6125 249.04897 70.95625 249.98647Q70.31563 250.90834 68.925 250.90834Q67.56563 250.90834 66.90938 250.00209Q66.25313 249.09584 66.22188 247.28334L66.22188 245.84584Q66.22188 243.95522 66.8625 243.04897Q67.51875 242.12709 68.90938 242.12709Q70.28438 242.12709 70.94063 243.01772Q71.59688 243.89272 71.6125 245.73647L71.6125 247.14272ZM70.51875 245.65834Q70.51875 244.28334 70.12813 243.65834Q69.75313 243.01772 68.90938 243.01772Q68.08125 243.01772 67.69063 243.65834Q67.31563 244.28334 67.31563 245.58022L67.31563 247.31459Q67.31563 248.68959 67.70625 249.36147Q68.1125 250.01772 68.925 250.01772Q69.72188 250.01772 70.1125 249.39272Q70.50313 248.76772 70.51875 247.43959L70.51875 245.65834Z" fill-rule="nonzero"/><path fill="#000000" d="M55.815624 198.61667L54.7375 198.61667L54.7375 191.39792L52.55 192.1948L52.55 191.21042L55.659374 190.03854L55.815624 190.03854L55.815624 198.61667ZM64.6125 194.97604Q64.6125 196.8823 63.95625 197.8198Q63.315624 198.74167 61.925 198.74167Q60.565624 198.74167 59.909374 197.83542Q59.253124 196.92917 59.221874 195.11667L59.221874 193.67917Q59.221874 191.78854 59.8625 190.8823Q60.51875 189.96042 61.909374 189.96042Q63.284374 189.96042 63.940624 190.85104Q64.59688 191.72604 64.6125 193.5698L64.6125 194.97604ZM63.51875 193.49167Q63.51875 192.11667 63.128124 191.49167Q62.753124 190.85104 61.909374 190.85104Q61.08125 190.85104 60.690624 191.49167Q60.315624 192.11667 60.315624 193.41354L60.315624 195.14792Q60.315624 196.52292 60.70625 197.1948Q61.1125 197.85104 61.925 197.85104Q62.721874 197.85104 63.1125 197.22604Q63.503124 196.60104 63.51875 195.27292L63.51875 193.49167ZM71.6125 194.97604Q71.6125 196.8823 70.95625 197.8198Q70.31563 198.74167 68.925 198.74167Q67.56563 198.74167 66.90938 197.83542Q66.25313 196.92917 66.22188 195.11667L66.22188 193.67917Q66.22188 191.78854 66.8625 190.8823Q67.51875 189.96042 68.90938 189.96042Q70.28438 189.96042 70.94063 190.85104Q71.59688 191.72604 71.6125 193.5698L71.6125 194.97604ZM70.51875 193.49167Q70.51875 192.11667 70.12813 191.49167Q69.75313 190.85104 68.90938 190.85104Q68.08125 190.85104 67.69063 191.49167Q67.31563 192.11667 67.31563 193.41354L67.31563 195.14792Q67.31563 196.52292 67.70625 197.1948Q68.1125 197.85104 68.925 197.85104Q69.72188 197.85104 70.1125 197.22604Q70.50313 196.60104 70.51875 195.27292L70.51875 193.49167Z" fill-rule="nonzero"/><path fill="#000000" d="M55.815624 146.45L54.7375 146.45L54.7375 139.23125L52.55 140.02812L52.55 139.04375L55.659374 137.87187L55.815624 137.87187L55.815624 146.45ZM59.753124 142.16875L60.190624 137.91875L64.56563 137.91875L64.56563 138.91875L61.1125 138.91875L60.846874 141.24687Q61.4875 140.87187 62.284374 140.87187Q63.440624 140.87187 64.12813 141.65312Q64.81563 142.41875 64.81563 143.73125Q64.81563 145.04375 64.09688 145.80937Q63.39375 146.575 62.1125 146.575Q60.9875 146.575 60.26875 145.95Q59.55 145.30937 59.45625 144.2L60.471874 144.2Q60.58125 144.93437 61.003124 145.30937Q61.425 145.68437 62.1125 145.68437Q62.8625 145.68437 63.3 145.16875Q63.7375 144.65312 63.7375 143.74687Q63.7375 142.8875 63.26875 142.37187Q62.8 141.85625 62.01875 141.85625Q61.315624 141.85625 60.909374 142.15312L60.628124 142.3875L59.753124 142.16875ZM71.6125 142.80937Q71.6125 144.71562 70.95625 145.65312Q70.31563 146.575 68.925 146.575Q67.56563 146.575 66.90938 145.66875Q66.25313 144.7625 66.22188 142.95L66.22188 141.5125Q66.22188 139.62187 66.8625 138.71562Q67.51875 137.79375 68.90938 137.79375Q70.28438 137.79375 70.94063 138.68437Q71.59688 139.55937 71.6125 141.40312L71.6125 142.80937ZM70.51875 141.325Q70.51875 139.95 70.12813 139.325Q69.75313 138.68437 68.90938 138.68437Q68.08125 138.68437 67.69063 139.325Q67.31563 139.95 67.31563 141.24687L67.31563 142.98125Q67.31563 144.35625 67.70625 145.02812Q68.1125 145.68437 68.925 145.68437Q69.72188 145.68437 70.1125 145.05937Q70.50313 144.43437 70.51875 143.10625L70.51875 141.325Z" fill-rule="nonzero"/><path fill="#000000" d="M57.846874 94.28333L52.253124 94.28333L52.253124 93.50208L55.20625 90.22083Q55.8625 89.47083 56.1125 89.01771Q56.3625 88.54896 56.3625 88.04896Q56.3625 87.37708 55.95625 86.95521Q55.565624 86.51771 54.878124 86.51771Q54.08125 86.51771 53.628124 86.98646Q53.175 87.43958 53.175 88.26771L52.096874 88.26771Q52.096874 87.08021 52.846874 86.36146Q53.6125 85.62708 54.878124 85.62708Q56.08125 85.62708 56.76875 86.25208Q57.45625 86.87708 57.45625 87.92396Q57.45625 89.17396 55.846874 90.92396L53.565624 93.39271L57.846874 93.39271L57.846874 94.28333ZM64.6125 90.64271Q64.6125 92.54896 63.95625 93.48646Q63.315624 94.40833 61.925 94.40833Q60.565624 94.40833 59.909374 93.50208Q59.253124 92.59583 59.221874 90.78333L59.221874 89.34583Q59.221874 87.45521 59.8625 86.54896Q60.51875 85.62708 61.909374 85.62708Q63.284374 85.62708 63.940624 86.51771Q64.59688 87.39271 64.6125 89.23646L64.6125 90.64271ZM63.51875 89.15833Q63.51875 87.78333 63.128124 87.15833Q62.753124 86.51771 61.909374 86.51771Q61.08125 86.51771 60.690624 87.15833Q60.315624 87.78333 60.315624 89.08021L60.315624 90.81458Q60.315624 92.18958 60.70625 92.86146Q61.1125 93.51771 61.925 93.51771Q62.721874 93.51771 63.1125 92.89271Q63.503124 92.26771 63.51875 90.93958L63.51875 89.15833ZM71.6125 90.64271Q71.6125 92.54896 70.95625 93.48646Q70.31563 94.40833 68.925 94.40833Q67.56563 94.40833 66.90938 93.50208Q66.25313 92.59583 66.22188 90.78333L66.22188 89.34583Q66.22188 87.45521 66.8625 86.54896Q67.51875 85.62708 68.90938 85.62708Q70.28438 85.62708 70.94063 86.51771Q71.59688 87.39271 71.6125 89.23646L71.6125 90.64271ZM70.51875 89.15833Q70.51875 87.78333 70.12813 87.15833Q69.75313 86.51771 68.90938 86.51771Q68.08125 86.51771 67.69063 87.15833Q67.31563 87.78333 67.31563 89.08021L67.31563 90.81458Q67.31563 92.18958 67.70625 92.86146Q68.1125 93.51771 68.925 93.51771Q69.72188 93.51771 70.1125 92.89271Q70.50313 92.26771 70.51875 90.93958L70.51875 89.15833Z" fill-rule="nonzero"/><path fill="#000000" d="M136.20312 312.16876L136.64062 307.91876L141.01562 307.91876L141.01562 308.91876L137.5625 308.91876L137.29688 311.2469Q137.9375 310.8719 138.73438 310.8719Q139.89062 310.8719 140.57812 311.65314Q141.26562 312.41876 141.26562 313.73126Q141.26562 315.04376 140.54688 315.8094Q139.84375 316.575 138.5625 316.575Q137.4375 316.575 136.71875 315.95Q136.0 315.3094 135.90625 314.2L136.92188 314.2Q137.03125 314.9344 137.45312 315.3094Q137.875 315.6844 138.5625 315.6844Q139.3125 315.6844 139.75 315.16876Q140.1875 314.65314 140.1875 313.7469Q140.1875 312.8875 139.71875 312.3719Q139.25 311.85626 138.46875 311.85626Q137.76562 311.85626 137.35938 312.15314L137.07812 312.3875L136.20312 312.16876ZM148.0625 312.8094Q148.0625 314.71564 147.40625 315.65314Q146.76562 316.575 145.375 316.575Q144.01562 316.575 143.35938 315.66876Q142.70312 314.7625 142.67188 312.95L142.67188 311.5125Q142.67188 309.6219 143.3125 308.71564Q143.96875 307.79376 145.35938 307.79376Q146.73438 307.79376 147.39062 308.6844Q148.04688 309.5594 148.0625 311.40314L148.0625 312.8094ZM146.96875 311.325Q146.96875 309.95 146.57812 309.325Q146.20312 308.6844 145.35938 308.6844Q144.53125 308.6844 144.14062 309.325Q143.76562 309.95 143.76562 311.2469L143.76562 312.98126Q143.76562 314.35626 144.15625 315.02814Q144.5625 315.6844 145.375 315.6844Q146.17188 315.6844 146.5625 315.0594Q146.95312 314.4344 146.96875 313.10626L146.96875 311.325Z" fill-rule="nonzero"/><path fill="#000000" d="M229.76562 316.45L228.6875 316.45L228.6875 309.23126L226.5 310.02814L226.5 309.04376L229.60938 307.8719L229.76562 307.8719L229.76562 316.45ZM238.5625 312.8094Q238.5625 314.71564 237.90625 315.65314Q237.26562 316.575 235.875 316.575Q234.51562 316.575 233.85938 315.66876Q233.20312 314.7625 233.17188 312.95L233.17188 311.5125Q233.17188 309.6219 233.8125 308.71564Q234.46875 307.79376 235.85938 307.79376Q237.23438 307.79376 237.89062 308.6844Q238.54688 309.5594 238.5625 311.40314L238.5625 312.8094ZM237.46875 311.325Q237.46875 309.95 237.07812 309.325Q236.70312 308.6844 235.85938 308.6844Q235.03125 308.6844 234.64062 309.325Q234.26562 309.95 234.26562 311.2469L234.26562 312.98126Q234.26562 314.35626 234.65625 315.02814Q235.0625 315.6844 235.875 315.6844Q236.67188 315.6844 237.0625 315.0594Q237.45312 314.4344 237.46875 313.10626L237.46875 311.325ZM245.5625 312.8094Q245.5625 314.71564 244.90625 315.65314Q244.26562 316.575 242.875 316.575Q241.51562 316.575 240.85938 315.66876Q240.20312 314.7625 240.17188 312.95L240.17188 311.5125Q240.17188 309.6219 240.8125 308.71564Q241.46875 307.79376 242.85938 307.79376Q244.23438 307.79376 244.89062 308.6844Q245.54688 309.5594 245.5625 311.40314L245.5625 312.8094ZM244.46875 311.325Q244.46875 309.95 244.07812 309.325Q243.70312 308.6844 242.85938 308.6844Q242.03125 308.6844 241.64062 309.325Q241.26562 309.95 241.26562 311.2469L241.26562 312.98126Q241.26562 314.35626 241.65625 315.02814Q242.0625 315.6844 242.875 315.6844Q243.67188 315.6844 244.0625 315.0594Q244.45312 314.4344 244.46875 313.10626L244.46875 311.325Z" fill-rule="nonzero"/><path fill="#000000" d="M323.76562 316.45L322.6875 316.45L322.6875 309.23126L320.5 310.02814L320.5 309.04376L323.60938 307.8719L323.76562 307.8719L323.76562 316.45ZM327.70312 312.16876L328.14062 307.91876L332.51562 307.91876L332.51562 308.91876L329.0625 308.91876L328.79688 311.2469Q329.4375 310.8719 330.23438 310.8719Q331.39062 310.8719 332.07812 311.65314Q332.76562 312.41876 332.76562 313.73126Q332.76562 315.04376 332.04688 315.8094Q331.34375 316.575 330.0625 316.575Q328.9375 316.575 328.21875 315.95Q327.5 315.3094 327.40625 314.2L328.42188 314.2Q328.53125 314.9344 328.95312 315.3094Q329.375 315.6844 330.0625 315.6844Q330.8125 315.6844 331.25 315.16876Q331.6875 314.65314 331.6875 313.7469Q331.6875 312.8875 331.21875 312.3719Q330.75 311.85626 329.96875 311.85626Q329.26562 311.85626 328.85938 312.15314L328.57812 312.3875L327.70312 312.16876ZM339.5625 312.8094Q339.5625 314.71564 338.90625 315.65314Q338.26562 316.575 336.875 316.575Q335.51562 316.575 334.85938 315.66876Q334.20312 314.7625 334.17188 312.95L334.17188 311.5125Q334.17188 309.6219 334.8125 308.71564Q335.46875 307.79376 336.85938 307.79376Q338.23438 307.79376 338.89062 308.6844Q339.54688 309.5594 339.5625 311.40314L339.5625 312.8094ZM338.46875 311.325Q338.46875 309.95 338.07812 309.325Q337.70312 308.6844 336.85938 308.6844Q336.03125 308.6844 335.64062 309.325Q335.26562 309.95 335.26562 311.2469L335.26562 312.98126Q335.26562 314.35626 335.65625 315.02814Q336.0625 315.6844 336.875 315.6844Q337.67188 315.6844 338.0625 315.0594Q338.45312 314.4344 338.46875 313.10626L338.46875 311.325Z" fill-rule="nonzero"/><path fill="#000000" d="M419.79688 316.45L414.20312 316.45L414.20312 315.66876L417.15625 312.3875Q417.8125 311.6375 418.0625 311.1844Q418.3125 310.71564 418.3125 310.21564Q418.3125 309.54376 417.90625 309.1219Q417.51562 308.6844 416.82812 308.6844Q416.03125 308.6844 415.57812 309.15314Q415.125 309.60626 415.125 310.4344L414.04688 310.4344Q414.04688 309.2469 414.79688 308.52814Q415.5625 307.79376 416.82812 307.79376Q418.03125 307.79376 418.71875 308.41876Q419.40625 309.04376 419.40625 310.09064Q419.40625 311.34064 417.79688 313.09064L415.51562 315.5594L419.79688 315.5594L419.79688 316.45ZM426.5625 312.8094Q426.5625 314.71564 425.90625 315.65314Q425.26562 316.575 423.875 316.575Q422.51562 316.575 421.85938 315.66876Q421.20312 314.7625 421.17188 312.95L421.17188 311.5125Q421.17188 309.6219 421.8125 308.71564Q422.46875 307.79376 423.85938 307.79376Q425.23438 307.79376 425.89062 308.6844Q426.54688 309.5594 426.5625 311.40314L426.5625 312.8094ZM425.46875 311.325Q425.46875 309.95 425.07812 309.325Q424.70312 308.6844 423.85938 308.6844Q423.03125 308.6844 422.64062 309.325Q422.26562 309.95 422.26562 311.2469L422.26562 312.98126Q422.26562 314.35626 422.65625 315.02814Q423.0625 315.6844 423.875 315.6844Q424.67188 315.6844 425.0625 315.0594Q425.45312 314.4344 425.46875 313.10626L425.46875 311.325ZM433.5625 312.8094Q433.5625 314.71564 432.90625 315.65314Q432.26562 316.575 430.875 316.575Q429.51562 316.575 428.85938 315.66876Q428.20312 314.7625 428.17188 312.95L428.17188 311.5125Q428.17188 309.6219 428.8125 308.71564Q429.46875 307.79376 430.85938 307.79376Q432.23438 307.79376 432.89062 308.6844Q433.54688 309.5594 433.5625 311.40314L433.5625 312.8094ZM432.46875 311.325Q432.46875 309.95 432.07812 309.325Q431.70312 308.6844 430.85938 308.6844Q430.03125 308.6844 429.64062 309.325Q429.26562 309.95 429.26562 311.2469L429.26562 312.98126Q429.26562 314.35626 429.65625 315.02814Q430.0625 315.6844 430.875 315.6844Q431.67188 315.6844 432.0625 315.0594Q432.45312 314.4344 432.46875 313.10626L432.46875 311.325Z" fill-rule="nonzero"/><path fill="#000000" d="M513.7969 316.45L508.20312 316.45L508.20312 315.66876L511.15625 312.3875Q511.8125 311.6375 512.0625 311.1844Q512.3125 310.71564 512.3125 310.21564Q512.3125 309.54376 511.90625 309.1219Q511.51562 308.6844 510.82812 308.6844Q510.03125 308.6844 509.57812 309.15314Q509.125 309.60626 509.125 310.4344L508.04688 310.4344Q508.04688 309.2469 508.79688 308.52814Q509.5625 307.79376 510.82812 307.79376Q512.03125 307.79376 512.71875 308.41876Q513.40625 309.04376 513.40625 310.09064Q513.40625 311.34064 511.79688 313.09064L509.51562 315.5594L513.7969 315.5594L513.7969 316.45ZM515.7031 312.16876L516.1406 307.91876L520.5156 307.91876L520.5156 308.91876L517.0625 308.91876L516.7969 311.2469Q517.4375 310.8719 518.2344 310.8719Q519.3906 310.8719 520.0781 311.65314Q520.7656 312.41876 520.7656 313.73126Q520.7656 315.04376 520.0469 315.8094Q519.34375 316.575 518.0625 316.575Q516.9375 316.575 516.21875 315.95Q515.5 315.3094 515.40625 314.2L516.4219 314.2Q516.53125 314.9344 516.9531 315.3094Q517.375 315.6844 518.0625 315.6844Q518.8125 315.6844 519.25 315.16876Q519.6875 314.65314 519.6875 313.7469Q519.6875 312.8875 519.21875 312.3719Q518.75 311.85626 517.96875 311.85626Q517.2656 311.85626 516.8594 312.15314L516.5781 312.3875L515.7031 312.16876ZM527.5625 312.8094Q527.5625 314.71564 526.90625 315.65314Q526.2656 316.575 524.875 316.575Q523.5156 316.575 522.8594 315.66876Q522.2031 314.7625 522.1719 312.95L522.1719 311.5125Q522.1719 309.6219 522.8125 308.71564Q523.46875 307.79376 524.8594 307.79376Q526.2344 307.79376 526.8906 308.6844Q527.5469 309.5594 527.5625 311.40314L527.5625 312.8094ZM526.46875 311.325Q526.46875 309.95 526.0781 309.325Q525.7031 308.6844 524.8594 308.6844Q524.03125 308.6844 523.6406 309.325Q523.2656 309.95 523.2656 311.2469L523.2656 312.98126Q523.2656 314.35626 523.65625 315.02814Q524.0625 315.6844 524.875 315.6844Q525.6719 315.6844 526.0625 315.0594Q526.4531 314.4344 526.46875 313.10626L526.46875 311.325Z" fill-rule="nonzero"/><path fill="#34a853" d="M238.5 57.416668C238.5 56.864384 238.94771 56.416668 239.5 56.416668L249.5 56.416668C250.05229 56.416668 250.5 56.864384 250.5 57.416668L250.5 67.416664C250.5 67.96895 250.05229 68.416664 249.5 68.416664L239.5 68.416664C238.94771 68.416664 238.5 67.96895 238.5 67.416664Z" fill-rule="nonzero"/><path fill="#1a1a1a" d="M260.34375 60.572914L260.375 61.36979Q261.10938 60.46354 262.28125 60.46354Q264.29688 60.46354 264.3125 62.729164L264.3125 66.916664L263.21875 66.916664L263.21875 62.71354Q263.21875 62.041664 262.90625 61.71354Q262.60938 61.385414 261.95312 61.385414Q261.42188 61.385414 261.01562 61.666664Q260.625 61.947914 260.40625 62.40104L260.40625 66.916664L259.32812 66.916664L259.32812 60.572914L260.34375 60.572914ZM266.03125 63.68229Q266.03125 62.760414 266.39062 62.010414Q266.76562 61.260414 267.42188 60.86979Q268.07812 60.46354 268.90625 60.46354Q270.20312 60.46354 271.0 61.354164Q271.8125 62.24479 271.8125 63.74479L271.8125 63.822914Q271.8125 64.74479 271.45312 65.479164Q271.09375 66.21354 270.4375 66.635414Q269.78125 67.041664 268.92188 67.041664Q267.64062 67.041664 266.82812 66.15104Q266.03125 65.24479 266.03125 63.760414L266.03125 63.68229ZM267.125 63.822914Q267.125 64.86979 267.60938 65.510414Q268.10938 66.15104 268.92188 66.15104Q269.75 66.15104 270.23438 65.510414Q270.71875 64.854164 270.71875 63.68229Q270.71875 62.65104 270.21875 62.010414Q269.73438 61.354164 268.90625 61.354164Q268.10938 61.354164 267.60938 61.99479Q267.125 62.61979 267.125 63.822914ZM273.0625 63.697914Q273.0625 62.229164 273.75 61.354164Q274.4375 60.46354 275.5625 60.46354Q276.67188 60.46354 277.32812 61.21354L277.32812 57.916664L278.40625 57.916664L278.40625 66.916664L277.40625 66.916664L277.35938 66.229164Q276.70312 67.041664 275.54688 67.041664Q274.45312 67.041664 273.75 66.135414Q273.0625 65.229164 273.0625 63.77604L273.0625 63.697914ZM274.14062 63.822914Q274.14062 64.90104 274.57812 65.510414Q275.03125 66.11979 275.8125 66.11979Q276.84375 66.11979 277.32812 65.18229L277.32812 62.27604Q276.84375 61.385414 275.82812 61.385414Q275.03125 61.385414 274.57812 61.99479Q274.14062 62.604164 274.14062 63.822914ZM282.95312 67.041664Q281.65625 67.041664 280.84375 66.197914Q280.04688 65.33854 280.04688 63.916664L280.04688 63.729164Q280.04688 62.77604 280.40625 62.041664Q280.76562 61.291664 281.40625 60.885414Q282.0625 60.46354 282.8125 60.46354Q284.04688 60.46354 284.73438 61.27604Q285.42188 62.08854 285.42188 63.604164L285.42188 64.05729L281.125 64.05729Q281.15625 64.99479 281.67188 65.572914Q282.20312 66.15104 283.01562 66.15104Q283.57812 66.15104 283.96875 65.916664Q284.375 65.68229 284.6875 65.291664L285.34375 65.80729Q284.54688 67.041664 282.95312 67.041664ZM282.8125 61.354164Q282.15625 61.354164 281.70312 61.83854Q281.26562 62.30729 281.17188 63.166664L284.34375 63.166664L284.34375 63.08854Q284.29688 62.260414 283.89062 61.80729Q283.5 61.354164 282.8125 61.354164Z" fill-rule="nonzero"/><path fill="#4285f4" d="M301.5 57.416668C301.5 56.864384 301.94772 56.416668 302.5 56.416668L312.5 56.416668C313.05228 56.416668 313.5 56.864384 313.5 57.416668L313.5 67.416664C313.5 67.96895 313.05228 68.416664 312.5 68.416664L302.5 68.416664C301.94772 68.416664 301.5 67.96895 301.5 67.416664Z" fill-rule="nonzero"/><path fill="#1a1a1a" d="M326.23438 66.916664Q326.14062 66.729164 326.07812 66.24479Q325.32812 67.041664 324.28125 67.041664Q323.34375 67.041664 322.73438 66.510414Q322.14062 65.979164 322.14062 65.15104Q322.14062 64.166664 322.89062 63.61979Q323.64062 63.072914 325.01562 63.072914L326.0625 63.072914L326.0625 62.572914Q326.0625 62.010414 325.71875 61.68229Q325.39062 61.33854 324.71875 61.33854Q324.14062 61.33854 323.75 61.635414Q323.35938 61.916664 323.35938 62.33854L322.26562 62.33854Q322.26562 61.854164 322.59375 61.416664Q322.9375 60.979164 323.51562 60.729164Q324.09375 60.46354 324.78125 60.46354Q325.89062 60.46354 326.5 61.010414Q327.125 61.55729 327.15625 62.510414L327.15625 65.43229Q327.15625 66.30729 327.375 66.822914L327.375 66.916664L326.23438 66.916664ZM324.4375 66.08854Q324.95312 66.08854 325.40625 65.822914Q325.85938 65.55729 326.0625 65.135414L326.0625 63.83854L325.21875 63.83854Q323.21875 63.83854 323.21875 65.010414Q323.21875 65.510414 323.5625 65.80729Q323.90625 66.08854 324.4375 66.08854ZM334.67188 63.822914Q334.67188 65.260414 334.01562 66.15104Q333.35938 67.041664 332.21875 67.041664Q331.0625 67.041664 330.40625 66.30729L330.40625 69.354164L329.32812 69.354164L329.32812 60.572914L330.3125 60.572914L330.35938 61.27604Q331.03125 60.46354 332.20312 60.46354Q333.34375 60.46354 334.0 61.322914Q334.67188 62.18229 334.67188 63.71354L334.67188 63.822914ZM333.59375 63.697914Q333.59375 62.61979 333.125 62.010414Q332.67188 61.385414 331.875 61.385414Q330.89062 61.385414 330.40625 62.24479L330.40625 65.27604Q330.89062 66.15104 331.89062 66.15104Q332.67188 66.15104 333.125 65.541664Q333.59375 64.916664 333.59375 63.697914ZM340.23438 66.916664Q340.14062 66.729164 340.07812 66.24479Q339.32812 67.041664 338.28125 67.041664Q337.34375 67.041664 336.73438 66.510414Q336.14062 65.979164 336.14062 65.15104Q336.14062 64.166664 336.89062 63.61979Q337.64062 63.072914 339.01562 63.072914L340.0625 63.072914L340.0625 62.572914Q340.0625 62.010414 339.71875 61.68229Q339.39062 61.33854 338.71875 61.33854Q338.14062 61.33854 337.75 61.635414Q337.35938 61.916664 337.35938 62.33854L336.26562 62.33854Q336.26562 61.854164 336.59375 61.416664Q336.9375 60.979164 337.51562 60.729164Q338.09375 60.46354 338.78125 60.46354Q339.89062 60.46354 340.5 61.010414Q341.125 61.55729 341.15625 62.510414L341.15625 65.43229Q341.15625 66.30729 341.375 66.822914L341.375 66.916664L340.23438 66.916664ZM338.4375 66.08854Q338.95312 66.08854 339.40625 65.822914Q339.85938 65.55729 340.0625 65.135414L340.0625 63.83854L339.21875 63.83854Q337.21875 63.83854 337.21875 65.010414Q337.21875 65.510414 337.5625 65.80729Q337.90625 66.08854 338.4375 66.08854ZM345.85938 66.15104Q346.4375 66.15104 346.875 65.80729Q347.3125 65.447914 347.35938 64.916664L348.39062 64.916664Q348.35938 65.46354 348.0 65.96354Q347.65625 66.447914 347.07812 66.74479Q346.51562 67.041664 345.85938 67.041664Q344.5625 67.041664 343.79688 66.18229Q343.04688 65.30729 343.04688 63.80729L343.04688 63.61979Q343.04688 62.697914 343.375 61.979164Q343.71875 61.260414 344.34375 60.86979Q344.98438 60.46354 345.85938 60.46354Q346.92188 60.46354 347.625 61.104164Q348.34375 61.729164 348.39062 62.760414L347.35938 62.760414Q347.3125 62.135414 346.89062 61.74479Q346.46875 61.354164 345.85938 61.354164Q345.03125 61.354164 344.57812 61.947914Q344.125 62.541664 344.125 63.666664L344.125 63.86979Q344.125 64.96354 344.57812 65.55729Q345.03125 66.15104 345.85938 66.15104ZM350.40625 61.33854Q351.125 60.46354 352.28125 60.46354Q354.29688 60.46354 354.3125 62.729164L354.3125 66.916664L353.21875 66.916664L353.21875 62.71354Q353.21875 62.041664 352.90625 61.71354Q352.60938 61.385414 351.95312 61.385414Q351.42188 61.385414 351.01562 61.666664Q350.625 61.947914 350.40625 62.40104L350.40625 66.916664L349.32812 66.916664L349.32812 57.916664L350.40625 57.916664L350.40625 61.33854ZM358.95312 67.041664Q357.65625 67.041664 356.84375 66.197914Q356.04688 65.33854 356.04688 63.916664L356.04688 63.729164Q356.04688 62.77604 356.40625 62.041664Q356.76562 61.291664 357.40625 60.885414Q358.0625 60.46354 358.8125 60.46354Q360.04688 60.46354 360.73438 61.27604Q361.42188 62.08854 361.42188 63.604164L361.42188 64.05729L357.125 64.05729Q357.15625 64.99479 357.67188 65.572914Q358.20312 66.15104 359.01562 66.15104Q359.57812 66.15104 359.96875 65.916664Q360.375 65.68229 360.6875 65.291664L361.34375 65.80729Q360.54688 67.041664 358.95312 67.041664ZM358.8125 61.354164Q358.15625 61.354164 357.70312 61.83854Q357.26562 62.30729 357.17188 63.166664L360.34375 63.166664L360.34375 63.08854Q360.29688 62.260414 359.89062 61.80729Q359.5 61.354164 358.8125 61.354164Z" fill-rule="nonzero"/><path fill="#757575" d="M30.659374 33.034374Q30.39375 35.3 28.9875 36.534374Q27.596874 37.753124 25.26875 37.753124Q22.753124 37.753124 21.221874 35.940624Q19.70625 34.128124 19.70625 31.096874L19.70625 29.7375Q19.70625 27.753124 20.409374 26.253124Q21.128124 24.753124 22.425 23.940624Q23.721874 23.128124 25.440624 23.128124Q27.70625 23.128124 29.065624 24.39375Q30.440624 25.659374 30.659374 27.89375L28.76875 27.89375Q28.534374 26.20625 27.70625 25.440624Q26.89375 24.675 25.440624 24.675Q23.64375 24.675 22.6125 26.003124Q21.596874 27.33125 21.596874 29.784374L21.596874 31.159374Q21.596874 33.471874 22.565624 34.846874Q23.534374 36.20625 25.26875 36.20625Q26.83125 36.20625 27.659374 35.503124Q28.503124 34.8 28.76875 33.034374L30.659374 33.034374ZM35.08125 31.9875L35.08125 37.55L33.20625 37.55L33.20625 23.33125L38.440624 23.33125Q40.784374 23.33125 42.096874 24.51875Q43.425 25.70625 43.425 27.675Q43.425 29.753124 42.128124 30.878124Q40.83125 31.9875 38.425 31.9875L35.08125 31.9875ZM35.08125 30.45625L38.440624 30.45625Q39.95625 30.45625 40.753124 29.753124Q41.55 29.034374 41.55 27.690624Q41.55 26.425 40.753124 25.675Q39.95625 24.909374 38.55 24.878124L35.08125 24.878124L35.08125 30.45625ZM56.20625 23.33125L56.20625 33.003124Q56.20625 35.003124 54.940624 36.284374Q53.690624 37.565624 51.55 37.721874L51.05 37.753124Q48.70625 37.753124 47.315624 36.4875Q45.940624 35.221874 45.925 33.01875L45.925 23.33125L47.76875 23.33125L47.76875 32.95625Q47.76875 34.503124 48.6125 35.3625Q49.471874 36.20625 51.05 36.20625Q52.64375 36.20625 53.4875 35.3625Q54.33125 34.51875 54.33125 32.971874L54.33125 23.33125L56.20625 23.33125ZM65.87813 37.55L64.08125 37.55L64.08125 26.9875L65.87813 26.9875L65.87813 37.55ZM63.925 24.175Q63.925 23.7375 64.19063 23.440624Q64.47188 23.128124 64.9875 23.128124Q65.51875 23.128124 65.78438 23.440624Q66.06563 23.7375 66.06563 24.175Q66.06563 24.6125 65.78438 24.909374Q65.51875 25.20625 64.9875 25.20625Q64.47188 25.20625 64.19063 24.909374Q63.925 24.6125 63.925 24.175ZM70.62813 26.9875L70.69063 28.315624Q71.89375 26.784374 73.84688 26.784374Q77.20625 26.784374 77.22188 30.565624L77.22188 37.55L75.425 37.55L75.425 30.55Q75.40938 29.409374 74.89375 28.8625Q74.39375 28.315624 73.3 28.315624Q72.425 28.315624 71.75313 28.784374Q71.09688 29.253124 70.72188 30.01875L70.72188 37.55L68.925 37.55L68.925 26.9875L70.62813 26.9875ZM82.3625 24.425L82.3625 26.9875L84.34688 26.9875L84.34688 28.378124L82.3625 28.378124L82.3625 34.925Q82.3625 35.565624 82.62813 35.89375Q82.89375 36.20625 83.53438 36.20625Q83.84688 36.20625 84.39375 36.08125L84.39375 37.55Q83.675 37.753124 83.00313 37.753124Q81.8 37.753124 81.175 37.01875Q80.56563 36.284374 80.56563 34.925L80.56563 28.378124L78.64375 28.378124L78.64375 26.9875L80.56563 26.9875L80.56563 24.425L82.3625 24.425ZM91.3 37.753124Q89.15938 37.753124 87.8 36.346874Q86.45625 34.925 86.45625 32.565624L86.45625 32.221874Q86.45625 30.659374 87.05 29.425Q87.65938 28.190624 88.7375 27.4875Q89.81563 26.784374 91.08125 26.784374Q93.14375 26.784374 94.28438 28.14375Q95.425 29.503124 95.425 32.034374L95.425 32.784374L88.26875 32.784374Q88.3 34.346874 89.175 35.315624Q90.05 36.26875 91.39375 36.26875Q92.3625 36.26875 93.01875 35.878124Q93.69063 35.4875 94.19063 34.846874L95.28438 35.70625Q93.95625 37.753124 91.3 37.753124ZM91.08125 28.26875Q89.9875 28.26875 89.2375 29.065624Q88.50313 29.8625 88.33125 31.3L93.6125 31.3L93.6125 31.159374Q93.53438 29.784374 92.8625 29.034374Q92.20625 28.26875 91.08125 28.26875ZM99.62813 26.9875L99.69063 28.315624Q100.89375 26.784374 102.84688 26.784374Q106.20625 26.784374 106.22188 30.565624L106.22188 37.55L104.425 37.55L104.425 30.55Q104.40938 29.409374 103.89375 28.8625Q103.39375 28.315624 102.3 28.315624Q101.425 28.315624 100.75313 28.784374Q100.09688 29.253124 99.72188 30.01875L99.72188 37.55L97.925 37.55L97.925 26.9875L99.62813 26.9875ZM115.06563 34.753124Q115.06563 34.01875 114.51875 33.6125Q113.97188 33.20625 112.59688 32.909374Q111.22188 32.6125 110.40938 32.20625Q109.6125 31.8 109.22188 31.2375Q108.84688 30.659374 108.84688 29.878124Q108.84688 28.58125 109.94063 27.690624Q111.03438 26.784374 112.75313 26.784374Q114.55 26.784374 115.65938 27.721874Q116.78438 28.64375 116.78438 30.08125L114.95625 30.08125Q114.95625 29.346874 114.33125 28.815624Q113.70625 28.26875 112.75313 28.26875Q111.75313 28.26875 111.19063 28.70625Q110.64375 29.128124 110.64375 29.83125Q110.64375 30.471874 111.15938 30.815624Q111.675 31.14375 113.03438 31.45625Q114.39375 31.753124 115.22188 32.175Q116.06563 32.58125 116.47188 33.175Q116.87813 33.76875 116.87813 34.6125Q116.87813 36.034374 115.7375 36.89375Q114.6125 37.753124 112.8 37.753124Q111.53438 37.753124 110.55 37.3Q109.58125 36.846874 109.01875 36.05Q108.47188 35.2375 108.47188 34.3L110.28438 34.3Q110.33125 35.20625 111.00313 35.7375Q111.69063 36.26875 112.8 36.26875Q113.83125 36.26875 114.44063 35.8625Q115.06563 35.440624 115.06563 34.753124ZM120.87813 37.55L119.08125 37.55L119.08125 26.9875L120.87813 26.9875L120.87813 37.55ZM118.925 24.175Q118.925 23.7375 119.19063 23.440624Q119.47188 23.128124 119.9875 23.128124Q120.51875 23.128124 120.78438 23.440624Q121.06563 23.7375 121.06563 24.175Q121.06563 24.6125 120.78438 24.909374Q120.51875 25.20625 119.9875 25.20625Q119.47188 25.20625 119.19063 24.909374Q118.925 24.6125 118.925 24.175ZM127.40938 35.096874L130.01875 26.9875L131.8625 26.9875L128.08125 37.55L126.70625 37.55L122.87813 26.9875L124.72188 26.9875L127.40938 35.096874ZM138.3 37.753124Q136.15938 37.753124 134.8 36.346874Q133.45625 34.925 133.45625 32.565624L133.45625 32.221874Q133.45625 30.659374 134.05 29.425Q134.65938 28.190624 135.7375 27.4875Q136.81563 26.784374 138.08125 26.784374Q140.14375 26.784374 141.28438 28.14375Q142.425 29.503124 142.425 32.034374L142.425 32.784374L135.26875 32.784374Q135.3 34.346874 136.175 35.315624Q137.05 36.26875 138.39375 36.26875Q139.3625 36.26875 140.01875 35.878124Q140.69063 35.4875 141.19063 34.846874L142.28438 35.70625Q140.95625 37.753124 138.3 37.753124ZM138.08125 28.26875Q136.9875 28.26875 136.2375 29.065624Q135.50313 29.8625 135.33125 31.3L140.6125 31.3L140.6125 31.159374Q140.53438 29.784374 139.8625 29.034374Q139.20625 28.26875 138.08125 28.26875ZM155.01875 28.596874Q154.6125 28.534374 154.14375 28.534374Q152.3625 28.534374 151.72188 30.05L151.72188 37.55L149.925 37.55L149.925 26.9875L151.675 26.9875L151.70625 28.20625Q152.59688 26.784374 154.22188 26.784374Q154.75313 26.784374 155.01875 26.925L155.01875 28.596874ZM161.3 37.753124Q159.15938 37.753124 157.8 36.346874Q156.45625 34.925 156.45625 32.565624L156.45625 32.221874Q156.45625 30.659374 157.05 29.425Q157.65938 28.190624 158.7375 27.4875Q159.81563 26.784374 161.08125 26.784374Q163.14375 26.784374 164.28438 28.14375Q165.425 29.503124 165.425 32.034374L165.425 32.784374L158.26875 32.784374Q158.3 34.346874 159.175 35.315624Q160.05 36.26875 161.39375 36.26875Q162.3625 36.26875 163.01875 35.878124Q163.69063 35.4875 164.19063 34.846874L165.28438 35.70625Q163.95625 37.753124 161.3 37.753124ZM161.08125 28.26875Q159.9875 28.26875 159.2375 29.065624Q158.50313 29.8625 158.33125 31.3L163.6125 31.3L163.6125 31.159374Q163.53438 29.784374 162.8625 29.034374Q162.20625 28.26875 161.08125 28.26875ZM167.47188 32.175Q167.47188 29.690624 168.6125 28.2375Q169.76875 26.784374 171.69063 26.784374Q173.56563 26.784374 174.64375 28.05L174.72188 26.9875L176.37813 26.9875L176.37813 41.6125L174.58125 41.6125L174.58125 36.565624Q173.4875 37.753124 171.675 37.753124Q169.75313 37.753124 168.6125 36.26875Q167.47188 34.76875 167.47188 32.3L167.47188 32.175ZM169.28438 32.378124Q169.28438 34.20625 170.05 35.2375Q170.81563 36.26875 172.1125 36.26875Q173.72188 36.26875 174.58125 34.846874L174.58125 29.675Q173.72188 28.26875 172.14375 28.26875Q170.83125 28.26875 170.05 29.315624Q169.28438 30.346874 169.28438 32.378124ZM185.44063 36.503124Q184.39375 37.753124 182.34688 37.753124Q180.65938 37.753124 179.76875 36.76875Q178.89375 35.784374 178.87813 33.8625L178.87813 26.9875L180.69063 26.9875L180.69063 33.815624Q180.69063 36.20625 182.64375 36.20625Q184.70625 36.20625 185.39375 34.675L185.39375 26.9875L187.20625 26.9875L187.20625 37.55L185.4875 37.55L185.44063 36.503124ZM194.3 37.753124Q192.15938 37.753124 190.8 36.346874Q189.45625 34.925 189.45625 32.565624L189.45625 32.221874Q189.45625 30.659374 190.05 29.425Q190.65938 28.190624 191.7375 27.4875Q192.81563 26.784374 194.08125 26.784374Q196.14375 26.784374 197.28438 28.14375Q198.425 29.503124 198.425 32.034374L198.425 32.784374L191.26875 32.784374Q191.3 34.346874 192.175 35.315624Q193.05 36.26875 194.39375 36.26875Q195.3625 36.26875 196.01875 35.878124Q196.69063 35.4875 197.19063 34.846874L198.28438 35.70625Q196.95625 37.753124 194.3 37.753124ZM194.08125 28.26875Q192.9875 28.26875 192.2375 29.065624Q191.50313 29.8625 191.33125 31.3L196.6125 31.3L196.6125 31.159374Q196.53438 29.784374 195.8625 29.034374Q195.20625 28.26875 194.08125 28.26875ZM207.06563 34.753124Q207.06563 34.01875 206.51875 33.6125Q205.97188 33.20625 204.59688 32.909374Q203.22188 32.6125 202.40938 32.20625Q201.6125 31.8 201.22188 31.2375Q200.84688 30.659374 200.84688 29.878124Q200.84688 28.58125 201.94063 27.690624Q203.03438 26.784374 204.75313 26.784374Q206.55 26.784374 207.65938 27.721874Q208.78438 28.64375 208.78438 30.08125L206.95625 30.08125Q206.95625 29.346874 206.33125 28.815624Q205.70625 28.26875 204.75313 28.26875Q203.75313 28.26875 203.19063 28.70625Q202.64375 29.128124 202.64375 29.83125Q202.64375 30.471874 203.15938 30.815624Q203.675 31.14375 205.03438 31.45625Q206.39375 31.753124 207.22188 32.175Q208.06563 32.58125 208.47188 33.175Q208.87813 33.76875 208.87813 34.6125Q208.87813 36.034374 207.7375 36.89375Q206.6125 37.753124 204.8 37.753124Q203.53438 37.753124 202.55 37.3Q201.58125 36.846874 201.01875 36.05Q200.47188 35.2375 200.47188 34.3L202.28438 34.3Q202.33125 35.20625 203.00313 35.7375Q203.69063 36.26875 204.8 36.26875Q205.83125 36.26875 206.44063 35.8625Q207.06563 35.440624 207.06563 34.753124ZM213.3625 24.425L213.3625 26.9875L215.34688 26.9875L215.34688 28.378124L213.3625 28.378124L213.3625 34.925Q213.3625 35.565624 213.62813 35.89375Q213.89375 36.20625 214.53438 36.20625Q214.84688 36.20625 215.39375 36.08125L215.39375 37.55Q214.675 37.753124 214.00313 37.753124Q212.8 37.753124 212.175 37.01875Q211.56563 36.284374 211.56563 34.925L211.56563 28.378124L209.64375 28.378124L209.64375 26.9875L211.56563 26.9875L211.56563 24.425L213.3625 24.425ZM224.06563 34.753124Q224.06563 34.01875 223.51875 33.6125Q222.97188 33.20625 221.59688 32.909374Q220.22188 32.6125 219.40938 32.20625Q218.6125 31.8 218.22188 31.2375Q217.84688 30.659374 217.84688 29.878124Q217.84688 28.58125 218.94063 27.690624Q220.03438 26.784374 221.75313 26.784374Q223.55 26.784374 224.65938 27.721874Q225.78438 28.64375 225.78438 30.08125L223.95625 30.08125Q223.95625 29.346874 223.33125 28.815624Q222.70625 28.26875 221.75313 28.26875Q220.75313 28.26875 220.19063 28.70625Q219.64375 29.128124 219.64375 29.83125Q219.64375 30.471874 220.15938 30.815624Q220.675 31.14375 222.03438 31.45625Q223.39375 31.753124 224.22188 32.175Q225.06563 32.58125 225.47188 33.175Q225.87813 33.76875 225.87813 34.6125Q225.87813 36.034374 224.7375 36.89375Q223.6125 37.753124 221.8 37.753124Q220.53438 37.753124 219.55 37.3Q218.58125 36.846874 218.01875 36.05Q217.47188 35.2375 217.47188 34.3L219.28438 34.3Q219.33125 35.20625 220.00313 35.7375Q220.69063 36.26875 221.8 36.26875Q222.83125 36.26875 223.44063 35.8625Q224.06563 35.440624 224.06563 34.753124ZM241.84688 32.378124Q241.84688 34.8 240.7375 36.284374Q239.64375 37.753124 237.75313 37.753124Q235.83125 37.753124 234.72188 36.51875L234.72188 41.6125L232.925 41.6125L232.925 26.9875L234.56563 26.9875L234.65938 28.159374Q235.75313 26.784374 237.72188 26.784374Q239.62813 26.784374 240.7375 28.221874Q241.84688 29.659374 241.84688 32.221874L241.84688 32.378124ZM240.03438 32.175Q240.03438 30.39375 239.26875 29.3625Q238.51875 28.315624 237.19063 28.315624Q235.55 28.315624 234.72188 29.76875L234.72188 34.83125Q235.53438 36.26875 237.20625 36.26875Q238.50313 36.26875 239.26875 35.2375Q240.03438 34.20625 240.03438 32.175ZM248.3 37.753124Q246.15938 37.753124 244.8 36.346874Q243.45625 34.925 243.45625 32.565624L243.45625 32.221874Q243.45625 30.659374 244.05 29.425Q244.65938 28.190624 245.7375 27.4875Q246.81563 26.784374 248.08125 26.784374Q250.14375 26.784374 251.28438 28.14375Q252.425 29.503124 252.425 32.034374L252.425 32.784374L245.26875 32.784374Q245.3 34.346874 246.175 35.315624Q247.05 36.26875 248.39375 36.26875Q249.3625 36.26875 250.01875 35.878124Q250.69063 35.4875 251.19063 34.846874L252.28438 35.70625Q250.95625 37.753124 248.3 37.753124ZM248.08125 28.26875Q246.9875 28.26875 246.2375 29.065624Q245.50313 29.8625 245.33125 31.3L250.6125 31.3L250.6125 31.159374Q250.53438 29.784374 249.8625 29.034374Q249.20625 28.26875 248.08125 28.26875ZM260.01874 28.596874Q259.6125 28.534374 259.14374 28.534374Q257.3625 28.534374 256.72186 30.05L256.72186 37.55L254.925 37.55L254.925 26.9875L256.675 26.9875L256.70624 28.20625Q257.59686 26.784374 259.22186 26.784374Q259.7531 26.784374 260.01874 26.925L260.01874 28.596874ZM273.0656 34.753124Q273.0656 34.01875 272.51874 33.6125Q271.97186 33.20625 270.59686 32.909374Q269.22186 32.6125 268.40936 32.20625Q267.6125 31.8 267.22186 31.2375Q266.84686 30.659374 266.84686 29.878124Q266.84686 28.58125 267.9406 27.690624Q269.03436 26.784374 270.7531 26.784374Q272.55 26.784374 273.65936 27.721874Q274.78436 28.64375 274.78436 30.08125L272.95624 30.08125Q272.95624 29.346874 272.33124 28.815624Q271.70624 28.26875 270.7531 28.26875Q269.7531 28.26875 269.1906 28.70625Q268.64374 29.128124 268.64374 29.83125Q268.64374 30.471874 269.15936 30.815624Q269.675 31.14375 271.03436 31.45625Q272.39374 31.753124 273.22186 32.175Q274.0656 32.58125 274.47186 33.175Q274.8781 33.76875 274.8781 34.6125Q274.8781 36.034374 273.7375 36.89375Q272.6125 37.753124 270.8 37.753124Q269.53436 37.753124 268.55 37.3Q267.58124 36.846874 267.01874 36.05Q266.47186 35.2375 266.47186 34.3L268.28436 34.3Q268.33124 35.20625 269.0031 35.7375Q269.6906 36.26875 270.8 36.26875Q271.83124 36.26875 272.4406 35.8625Q273.0656 35.440624 273.0656 34.753124ZM281.3 37.753124Q279.15936 37.753124 277.8 36.346874Q276.45624 34.925 276.45624 32.565624L276.45624 32.221874Q276.45624 30.659374 277.05 29.425Q277.65936 28.190624 278.7375 27.4875Q279.8156 26.784374 281.08124 26.784374Q283.14374 26.784374 284.28436 28.14375Q285.425 29.503124 285.425 32.034374L285.425 32.784374L278.26874 32.784374Q278.3 34.346874 279.175 35.315624Q280.05 36.26875 281.39374 36.26875Q282.3625 36.26875 283.01874 35.878124Q283.6906 35.4875 284.1906 34.846874L285.28436 35.70625Q283.95624 37.753124 281.3 37.753124ZM281.08124 28.26875Q279.9875 28.26875 279.2375 29.065624Q278.5031 29.8625 278.33124 31.3L283.6125 31.3L283.6125 31.159374Q283.53436 29.784374 282.8625 29.034374Q282.20624 28.26875 281.08124 28.26875ZM292.15936 36.26875Q293.1281 36.26875 293.84686 35.690624Q294.5656 35.096874 294.64374 34.221874L296.3625 34.221874Q296.3 35.128124 295.72186 35.95625Q295.15936 36.76875 294.1906 37.26875Q293.2375 37.753124 292.15936 37.753124Q290.0031 37.753124 288.72186 36.315624Q287.45624 34.8625 287.45624 32.3625L287.45624 32.065624Q287.45624 30.51875 288.01874 29.315624Q288.58124 28.1125 289.64374 27.45625Q290.70624 26.784374 292.14374 26.784374Q293.925 26.784374 295.09686 27.846874Q296.28436 28.909374 296.3625 30.6125L294.64374 30.6125Q294.5656 29.596874 293.8625 28.940624Q293.175 28.26875 292.14374 28.26875Q290.76874 28.26875 290.0031 29.26875Q289.2531 30.253124 289.2531 32.128124L289.2531 32.471874Q289.2531 34.3 290.0031 35.284374Q290.7531 36.26875 292.15936 36.26875ZM297.4406 32.175Q297.4406 30.6125 298.05 29.378124Q298.65936 28.128124 299.7375 27.45625Q300.83124 26.784374 302.2375 26.784374Q304.39374 26.784374 305.72186 28.284374Q307.0656 29.76875 307.0656 32.253124L307.0656 32.378124Q307.0656 33.925 306.47186 35.159374Q305.8781 36.378124 304.76874 37.065624Q303.675 37.753124 302.2531 37.753124Q300.1125 37.753124 298.76874 36.253124Q297.4406 34.753124 297.4406 32.3L297.4406 32.175ZM299.2531 32.378124Q299.2531 34.14375 300.0656 35.20625Q300.89374 36.26875 302.2531 36.26875Q303.6281 36.26875 304.4406 35.190624Q305.2531 34.1125 305.2531 32.175Q305.2531 30.425 304.425 29.346874Q303.59686 28.26875 302.2375 28.26875Q300.89374 28.26875 300.0656 29.33125Q299.2531 30.39375 299.2531 32.378124ZM310.6281 26.9875L310.6906 28.315624Q311.89374 26.784374 313.84686 26.784374Q317.20624 26.784374 317.22186 30.565624L317.22186 37.55L315.425 37.55L315.425 30.55Q315.40936 29.409374 314.89374 28.8625Q314.39374 28.315624 313.3 28.315624Q312.425 28.315624 311.7531 28.784374Q311.09686 29.253124 310.72186 30.01875L310.72186 37.55L308.925 37.55L308.925 26.9875L310.6281 26.9875ZM319.47186 32.175Q319.47186 29.753124 320.6281 28.26875Q321.78436 26.784374 323.64374 26.784374Q325.5031 26.784374 326.58124 28.05L326.58124 22.55L328.39374 22.55L328.39374 37.55L326.7375 37.55L326.64374 36.409374Q325.5656 37.753124 323.6281 37.753124Q321.8 37.753124 320.6281 36.253124Q319.47186 34.7375 319.47186 32.315624L319.47186 32.175ZM321.28436 32.378124Q321.28436 34.175 322.01874 35.190624Q322.76874 36.20625 324.08124 36.20625Q325.8 36.20625 326.58124 34.675L326.58124 29.815624Q325.78436 28.315624 324.09686 28.315624Q322.76874 28.315624 322.01874 29.346874Q321.28436 30.378124 321.28436 32.378124Z" fill-rule="nonzero"/></svg>