<svg version="1.1" viewBox="0.0 0.0 600.0 371.0" fill="none" stroke="none" stroke-linecap="square" stroke-miterlimit="10" width="600" height="371" xmlns:xlink="http://www.w3.org/1999/xlink" xmlns="http://www.w3.org/2000/svg"><path fill="#ffffff" d="M0 0L600.0 0L600.0 371.0L0 371.0L0 0Z" fill-rule="nonzero"/><path stroke="#333333" stroke-width="1.0" stroke-linecap="butt" d="M85.5 298.5L581.5 298.5" fill-rule="nonzero"/><path stroke="#cccccc" stroke-width="1.0" stroke-linecap="butt" d="M85.5 256.5L581.5 256.5" fill-rule="nonzero"/><path stroke="#cccccc" stroke-width="1.0" stroke-linecap="butt" d="M85.5 214.5L581.5 214.5" fill-rule="nonzero"/><path stroke="#cccccc" stroke-width="1.0" stroke-linecap="butt" d="M85.5 173.5L581.5 173.5" fill-rule="nonzero"/><path stroke="#cccccc" stroke-width="1.0" stroke-linecap="butt" d="M85.5 131.5L581.5 131.5" fill-rule="nonzero"/><path stroke="#cccccc" stroke-width="1.0" stroke-linecap="butt" d="M85.5 89.5L581.5 89.5" fill-rule="nonzero"/><clipPath id="id_0"><path d="M85.55 89.78333L581.45 89.78333L581.45 298.45L85.55 298.45L85.55 89.78333Z" clip-rule="nonzero"/></clipPath><path stroke="#000000" stroke-width="0.0" stroke-linecap="butt" stroke-opacity="0.0" clip-path="url(#id_0)" d="M147.0 298.0L118.0 298.0L118.0 290.0C118.0 288.89542 118.89543 288.0 120.0 288.0L145.0 288.0C146.10457 288.0 147.0 288.89542 147.0 290.0Z" fill-rule="nonzero"/><path fill="#34a853" clip-path="url(#id_0)" d="M147.0 298.0L118.0 298.0L118.0 290.0C118.0 288.89542 118.89543 288.0 120.0 288.0L145.0 288.0C146.10457 288.0 147.0 288.89542 147.0 290.0Z" fill-rule="nonzero"/><path stroke="#000000" stroke-width="0.0" stroke-linecap="butt" stroke-opacity="0.0" clip-path="url(#id_0)" d="M240.0 298.0L211.0 298.0L211.0 279.0C211.0 277.89542 211.89543 277.0 213.0 277.0L238.0 277.0C239.10457 277.0 240.0 277.89542 240.0 279.0Z" fill-rule="nonzero"/><path fill="#34a853" clip-path="url(#id_0)" d="M240.0 298.0L211.0 298.0L211.0 279.0C211.0 277.89542 211.89543 277.0 213.0 277.0L238.0 277.0C239.10457 277.0 240.0 277.89542 240.0 279.0Z" fill-rule="nonzero"/><path stroke="#000000" stroke-width="0.0" stroke-linecap="butt" stroke-opacity="0.0" clip-path="url(#id_0)" d="M333.0 298.0L304.0 298.0L304.0 267.0C304.0 265.89542 304.89542 265.0 306.0 265.0L331.0 265.0C332.10458 265.0 333.0 265.89542 333.0 267.0Z" fill-rule="nonzero"/><path fill="#34a853" clip-path="url(#id_0)" d="M333.0 298.0L304.0 298.0L304.0 267.0C304.0 265.89542 304.89542 265.0 306.0 265.0L331.0 265.0C332.10458 265.0 333.0 265.89542 333.0 267.0Z" fill-rule="nonzero"/><path stroke="#000000" stroke-width="0.0" stroke-linecap="butt" stroke-opacity="0.0" clip-path="url(#id_0)" d="M425.0 298.0L396.0 298.0L396.0 257.0C396.0 255.89543 396.89542 255.0 398.0 255.0L423.0 255.0C424.10458 255.0 425.0 255.89543 425.0 257.0Z" fill-rule="nonzero"/><path fill="#34a853" clip-path="url(#id_0)" d="M425.0 298.0L396.0 298.0L396.0 257.0C396.0 255.89543 396.89542 255.0 398.0 255.0L423.0 255.0C424.10458 255.0 425.0 255.89543 425.0 257.0Z" fill-rule="nonzero"/><path stroke="#000000" stroke-width="0.0" stroke-linecap="butt" stroke-opacity="0.0" clip-path="url(#id_0)" d="M518.0 298.0L489.0 298.0L489.0 246.0C489.0 244.89543 489.89542 244.0 491.0 244.0L516.0 244.0C517.10455 244.0 518.0 244.89543 518.0 246.0Z" fill-rule="nonzero"/><path fill="#34a853" clip-path="url(#id_0)" d="M518.0 298.0L489.0 298.0L489.0 246.0C489.0 244.89543 489.89542 244.0 491.0 244.0L516.0 244.0C517.10455 244.0 518.0 244.89543 518.0 246.0Z" fill-rule="nonzero"/><path stroke="#000000" stroke-width="0.0" stroke-linecap="butt" stroke-opacity="0.0" clip-path="url(#id_0)" d="M177.0 298.0L148.0 298.0L148.0 258.0C148.0 256.89542 148.89543 256.0 150.0 256.0L175.0 256.0C176.10457 256.0 177.0 256.89542 177.0 258.0Z" fill-rule="nonzero"/><path fill="#4285f4" clip-path="url(#id_0)" d="M177.0 298.0L148.0 298.0L148.0 258.0C148.0 256.89542 148.89543 256.0 150.0 256.0L175.0 256.0C176.10457 256.0 177.0 256.89542 177.0 258.0Z" fill-rule="nonzero"/><path stroke="#000000" stroke-width="0.0" stroke-linecap="butt" stroke-opacity="0.0" clip-path="url(#id_0)" d="M270.0 298.0L241.0 298.0L241.0 217.0C241.0 215.89543 241.89543 215.0 243.0 215.0L268.0 215.0C269.10458 215.0 270.0 215.89543 270.0 217.0Z" fill-rule="nonzero"/><path fill="#4285f4" clip-path="url(#id_0)" d="M270.0 298.0L241.0 298.0L241.0 217.0C241.0 215.89543 241.89543 215.0 243.0 215.0L268.0 215.0C269.10458 215.0 270.0 215.89543 270.0 217.0Z" fill-rule="nonzero"/><path stroke="#000000" stroke-width="0.0" stroke-linecap="butt" stroke-opacity="0.0" clip-path="url(#id_0)" d="M363.0 298.0L334.0 298.0L334.0 165.0C334.0 163.89543 334.89542 163.0 336.0 163.0L361.0 163.0C362.10458 163.0 363.0 163.89543 363.0 165.0Z" fill-rule="nonzero"/><path fill="#4285f4" clip-path="url(#id_0)" d="M363.0 298.0L334.0 298.0L334.0 165.0C334.0 163.89543 334.89542 163.0 336.0 163.0L361.0 163.0C362.10458 163.0 363.0 163.89543 363.0 165.0Z" fill-rule="nonzero"/><path stroke="#000000" stroke-width="0.0" stroke-linecap="butt" stroke-opacity="0.0" clip-path="url(#id_0)" d="M455.0 298.0L426.0 298.0L426.0 130.0C426.0 128.89543 426.89542 128.0 428.0 128.0L453.0 128.0C454.10458 128.0 455.0 128.89543 455.0 130.0Z" fill-rule="nonzero"/><path fill="#4285f4" clip-path="url(#id_0)" d="M455.0 298.0L426.0 298.0L426.0 130.0C426.0 128.89543 426.89542 128.0 428.0 128.0L453.0 128.0C454.10458 128.0 455.0 128.89543 455.0 130.0Z" fill-rule="nonzero"/><path stroke="#000000" stroke-width="0.0" stroke-linecap="butt" stroke-opacity="0.0" clip-path="url(#id_0)" d="M548.0 298.0L519.0 298.0L519.0 92.0C519.0 90.89543 519.89545 90.0 521.0 90.0L546.0 90.0C547.10455 90.0 548.0 90.89543 548.0 92.0Z" fill-rule="nonzero"/><path fill="#4285f4" clip-path="url(#id_0)" d="M548.0 298.0L519.0 298.0L519.0 92.0C519.0 90.89543 519.89545 90.0 521.0 90.0L546.0 90.0C547.10455 90.0 548.0 90.89543 548.0 92.0Z" fill-rule="nonzero"/><path fill="#000000" d="M293.45312 346.60626Q293.35938 347.98126 292.4375 348.77814Q291.53125 349.575 290.03125 349.575Q288.39062 349.575 287.4375 348.46564Q286.5 347.35626 286.5 345.4344L286.5 344.90314Q286.5 343.6844 286.9375 342.7469Q287.375 341.8094 288.17188 341.3094Q288.98438 340.79376 290.04688 340.79376Q291.53125 340.79376 292.42188 341.59064Q293.32812 342.3875 293.46875 343.8094L291.71875 343.8094Q291.65625 342.98126 291.25 342.6219Q290.85938 342.2469 290.04688 342.2469Q289.17188 342.2469 288.73438 342.8719Q288.29688 343.4969 288.28125 344.825L288.28125 345.46564Q288.28125 346.85626 288.70312 347.4969Q289.125 348.1375 290.03125 348.1375Q290.84375 348.1375 291.23438 347.7625Q291.64062 347.3875 291.70312 346.60626L293.45312 346.60626ZM294.39062 346.21564Q294.39062 345.27814 294.75 344.54376Q295.10938 343.79376 295.79688 343.40314Q296.48438 342.9969 297.375 342.9969Q298.67188 342.9969 299.46875 343.77814Q300.28125 344.5594 300.375 345.90314L300.39062 346.34064Q300.39062 347.8094 299.57812 348.7Q298.76562 349.575 297.39062 349.575Q296.01562 349.575 295.20312 348.7Q294.39062 347.8094 294.39062 346.29376L294.39062 346.21564ZM296.07812 346.34064Q296.07812 347.2469 296.42188 347.73126Q296.76562 348.2 297.39062 348.2Q298.01562 348.2 298.35938 347.73126Q298.70312 347.2625 298.70312 346.21564Q298.70312 345.34064 298.35938 344.85626Q298.01562 344.35626 297.375 344.35626Q296.76562 344.35626 296.42188 344.84064Q296.07812 345.325 296.07812 346.34064ZM303.20312 343.10626L303.26562 343.84064Q303.9375 342.9969 305.07812 342.9969Q306.09375 342.9969 306.57812 343.59064Q307.07812 344.16876 307.09375 345.35626L307.09375 349.45L305.39062 349.45L305.39062 345.3875Q305.39062 344.85626 305.15625 344.6219Q304.92188 344.3719 304.375 344.3719Q303.67188 344.3719 303.3125 344.98126L303.3125 349.45L301.60938 349.45L301.60938 343.10626L303.20312 343.10626ZM311.28125 348.2Q311.75 348.2 312.04688 347.95Q312.34375 347.6844 312.35938 347.2625L313.9375 347.2625Q313.9375 347.90314 313.59375 348.45Q313.25 348.98126 312.64062 349.27814Q312.04688 349.575 311.3125 349.575Q309.95312 349.575 309.17188 348.71564Q308.39062 347.84064 308.39062 346.3094L308.39062 346.2Q308.39062 344.73126 309.17188 343.8719Q309.95312 342.9969 311.3125 342.9969Q312.5 342.9969 313.21875 343.66876Q313.9375 344.34064 313.9375 345.46564L312.35938 345.46564Q312.34375 344.98126 312.04688 344.66876Q311.75 344.35626 311.28125 344.35626Q310.6875 344.35626 310.375 344.79376Q310.07812 345.23126 310.07812 346.1844L310.07812 346.3719Q310.07812 347.34064 310.375 347.77814Q310.67188 348.2 311.28125 348.2ZM318.45312 348.8094Q317.82812 349.575 316.71875 349.575Q315.6875 349.575 315.15625 348.98126Q314.625 348.3875 314.60938 347.2625L314.60938 343.10626L316.29688 343.10626L316.29688 347.2Q316.29688 348.2 317.20312 348.2Q318.0625 348.2 318.39062 347.59064L318.39062 343.10626L320.09375 343.10626L320.09375 349.45L318.5 349.45L318.45312 348.8094ZM325.21875 344.7Q324.875 344.65314 324.60938 344.65314Q323.64062 344.65314 323.34375 345.29376L323.34375 349.45L321.65625 349.45L321.65625 343.10626L323.25 343.10626L323.29688 343.8719Q323.8125 342.9969 324.70312 342.9969Q324.98438 342.9969 325.23438 343.075L325.21875 344.7ZM329.21875 344.7Q328.875 344.65314 328.60938 344.65314Q327.64062 344.65314 327.34375 345.29376L327.34375 349.45L325.65625 349.45L325.65625 343.10626L327.25 343.10626L327.29688 343.8719Q327.8125 342.9969 328.70312 342.9969Q328.98438 342.9969 329.23438 343.075L329.21875 344.7ZM332.5625 349.575Q331.17188 349.575 330.29688 348.71564Q329.42188 347.85626 329.42188 346.4344L329.42188 346.2625Q329.42188 345.3094 329.78125 344.5594Q330.15625 343.8094 330.82812 343.40314Q331.51562 342.9969 332.375 342.9969Q333.6875 342.9969 334.42188 343.825Q335.17188 344.6375 335.17188 346.1375L335.17188 346.825L331.14062 346.825Q331.21875 347.45 331.625 347.825Q332.04688 348.2 332.6875 348.2Q333.65625 348.2 334.20312 347.4969L335.04688 348.41876Q334.65625 348.96564 334.0 349.27814Q333.35938 349.575 332.5625 349.575ZM332.375 344.35626Q331.875 344.35626 331.5625 344.7Q331.25 345.04376 331.15625 345.66876L333.51562 345.66876L333.51562 345.54376Q333.5 344.98126 333.20312 344.66876Q332.92188 344.35626 332.375 344.35626ZM337.20312 343.10626L337.26562 343.84064Q337.9375 342.9969 339.07812 342.9969Q340.09375 342.9969 340.57812 343.59064Q341.07812 344.16876 341.09375 345.35626L341.09375 349.45L339.39062 349.45L339.39062 345.3875Q339.39062 344.85626 339.15625 344.6219Q338.92188 344.3719 338.375 344.3719Q337.67188 344.3719 337.3125 344.98126L337.3125 349.45L335.60938 349.45L335.60938 343.10626L337.20312 343.10626ZM345.28125 348.2Q345.75 348.2 346.04688 347.95Q346.34375 347.6844 346.35938 347.2625L347.9375 347.2625Q347.9375 347.90314 347.59375 348.45Q347.25 348.98126 346.64062 349.27814Q346.04688 349.575 345.3125 349.575Q343.95312 349.575 343.17188 348.71564Q342.39062 347.84064 342.39062 346.3094L342.39062 346.2Q342.39062 344.73126 343.17188 343.8719Q343.95312 342.9969 345.3125 342.9969Q346.5 342.9969 347.21875 343.66876Q347.9375 344.34064 347.9375 345.46564L346.35938 345.46564Q346.34375 344.98126 346.04688 344.66876Q345.75 344.35626 345.28125 344.35626Q344.6875 344.35626 344.375 344.79376Q344.07812 345.23126 344.07812 346.1844L344.07812 346.3719Q344.07812 347.34064 344.375 347.77814Q344.67188 348.2 345.28125 348.2ZM351.01562 347.0594L352.1875 343.10626L354.0 343.10626L351.45312 350.4344L351.3125 350.7625Q350.75 352.0125 349.4375 352.0125Q349.07812 352.0125 348.6875 351.90314L348.6875 350.6219L348.95312 350.6219Q349.4375 350.6219 349.67188 350.46564Q349.90625 350.325 350.04688 349.9969L350.23438 349.46564L348.01562 343.10626L349.84375 343.10626L351.01562 347.0594ZM359.4375 349.45L357.73438 349.45L357.73438 340.45L359.4375 340.45L359.4375 349.45ZM363.5625 349.575Q362.17188 349.575 361.29688 348.71564Q360.42188 347.85626 360.42188 346.4344L360.42188 346.2625Q360.42188 345.3094 360.78125 344.5594Q361.15625 343.8094 361.82812 343.40314Q362.51562 342.9969 363.375 342.9969Q364.6875 342.9969 365.42188 343.825Q366.17188 344.6375 366.17188 346.1375L366.17188 346.825L362.14062 346.825Q362.21875 347.45 362.625 347.825Q363.04688 348.2 363.6875 348.2Q364.65625 348.2 365.20312 347.4969L366.04688 348.41876Q365.65625 348.96564 365.0 349.27814Q364.35938 349.575 363.5625 349.575ZM363.375 344.35626Q362.875 344.35626 362.5625 344.7Q362.25 345.04376 362.15625 345.66876L364.51562 345.66876L364.51562 345.54376Q364.5 344.98126 364.20312 344.66876Q363.92188 344.35626 363.375 344.35626ZM369.03125 347.3875L370.20312 343.10626L371.96875 343.10626L369.82812 349.45L368.21875 349.45L366.07812 343.10626L367.84375 343.10626L369.03125 347.3875ZM375.5625 349.575Q374.17188 349.575 373.29688 348.71564Q372.42188 347.85626 372.42188 346.4344L372.42188 346.2625Q372.42188 345.3094 372.78125 344.5594Q373.15625 343.8094 373.82812 343.40314Q374.51562 342.9969 375.375 342.9969Q376.6875 342.9969 377.42188 343.825Q378.17188 344.6375 378.17188 346.1375L378.17188 346.825L374.14062 346.825Q374.21875 347.45 374.625 347.825Q375.04688 348.2 375.6875 348.2Q376.65625 348.2 377.20312 347.4969L378.04688 348.41876Q377.65625 348.96564 377.0 349.27814Q376.35938 349.575 375.5625 349.575ZM375.375 344.35626Q374.875 344.35626 374.5625 344.7Q374.25 345.04376 374.15625 345.66876L376.51562 345.66876L376.51562 345.54376Q376.5 344.98126 376.20312 344.66876Q375.92188 344.35626 375.375 344.35626ZM380.4375 349.45L378.73438 349.45L378.73438 340.45L380.4375 340.45L380.4375 349.45Z" fill-rule="nonzero"/><path fill="#000000" d="M23.440638 251.67917L23.440638 254.28854L30.550013 254.28854L30.550013 256.05417L23.440638 256.05417L23.440638 258.6323L22.018763 258.6323L22.018763 251.67917L23.440638 251.67917ZM30.550013 249.42917L30.550013 251.1323L24.206263 251.1323L24.206263 249.42917L30.550013 249.42917ZM22.565638 251.22604Q22.190638 251.22604 21.940638 250.97604Q21.690638 250.71042 21.690638 250.27292Q21.690638 249.85104 21.940638 249.60104Q22.190638 249.33542 22.565638 249.33542Q22.956263 249.33542 23.206263 249.60104Q23.440638 249.85104 23.440638 250.28854Q23.440638 250.71042 23.206263 250.97604Q22.956263 251.22604 22.565638 251.22604ZM24.206263 246.6323L24.925013 246.5698Q24.096888 245.89792 24.096888 244.7573Q24.096888 243.52292 25.065638 243.0698Q24.096888 242.39792 24.096888 241.16354Q24.096888 240.1323 24.706263 239.6323Q25.300013 239.1323 26.503138 239.1323L30.550013 239.1323L30.550013 240.8198L26.503138 240.8198Q25.971888 240.8198 25.721888 241.03854Q25.471888 241.24167 25.471888 241.78854Q25.471888 242.53854 26.190638 242.83542L30.550013 242.83542L30.550013 244.52292L26.518763 244.52292Q25.956263 244.52292 25.721888 244.74167Q25.471888 244.96042 25.471888 245.47604Q25.471888 246.1948 26.065638 246.52292L30.550013 246.52292L30.550013 248.21042L24.206263 248.21042L24.206263 246.6323ZM30.675013 235.30417Q30.675013 236.6948 29.815638 237.5698Q28.956263 238.4448 27.534388 238.4448L27.362513 238.4448Q26.409388 238.4448 25.659388 238.08542Q24.909388 237.71042 24.503138 237.03854Q24.096888 236.35104 24.096888 235.49167Q24.096888 234.17917 24.925013 233.4448Q25.737513 232.6948 27.237513 232.6948L27.925013 232.6948L27.925013 236.72604Q28.550013 236.64792 28.925013 236.24167Q29.300013 235.8198 29.300013 235.17917Q29.300013 234.21042 28.596888 233.66354L29.518763 232.8198Q30.065638 233.21042 30.378138 233.86667Q30.675013 234.5073 30.675013 235.30417ZM25.456263 235.49167Q25.456263 235.99167 25.800013 236.30417Q26.143763 236.61667 26.768763 236.71042L26.768763 234.35104L26.643763 234.35104Q26.081263 234.36667 25.768763 234.66354Q25.456263 234.9448 25.456263 235.49167ZM27.440638 223.5073Q28.909388 223.5073 29.800013 224.17917Q30.675013 224.83542 30.675013 225.97604Q30.675013 226.92917 30.003138 227.52292L32.98751 227.52292L32.98751 229.21042L24.206263 229.21042L24.206263 227.64792L24.831263 227.58542Q24.096888 226.97604 24.096888 225.97604Q24.096888 224.80417 24.971888 224.16354Q25.831263 223.5073 27.346888 223.5073L27.440638 223.5073ZM27.315638 225.1948Q26.425013 225.1948 25.956263 225.52292Q25.471888 225.83542 25.471888 226.42917Q25.471888 227.22604 26.081263 227.52292L28.675013 227.52292Q29.300013 227.21042 29.300013 226.41354Q29.300013 225.1948 27.315638 225.1948ZM30.675013 219.30417Q30.675013 220.6948 29.815638 221.5698Q28.956263 222.4448 27.534388 222.4448L27.362513 222.4448Q26.409388 222.4448 25.659388 222.08542Q24.909388 221.71042 24.503138 221.03854Q24.096888 220.35104 24.096888 219.49167Q24.096888 218.17917 24.925013 217.4448Q25.737513 216.6948 27.237513 216.6948L27.925013 216.6948L27.925013 220.72604Q28.550013 220.64792 28.925013 220.24167Q29.300013 219.8198 29.300013 219.17917Q29.300013 218.21042 28.596888 217.66354L29.518763 216.8198Q30.065638 217.21042 30.378138 217.86667Q30.675013 218.5073 30.675013 219.30417ZM25.456263 219.49167Q25.456263 219.99167 25.800013 220.30417Q26.143763 220.61667 26.768763 220.71042L26.768763 218.35104L26.643763 218.35104Q26.081263 218.36667 25.768763 218.66354Q25.456263 218.9448 25.456263 219.49167ZM25.800013 212.64792Q25.753138 212.99167 25.753138 213.2573Q25.753138 214.22604 26.393763 214.52292L30.550013 214.52292L30.550013 216.21042L24.206263 216.21042L24.206263 214.61667L24.971888 214.5698Q24.096888 214.05417 24.096888 213.16354Q24.096888 212.8823 24.175013 212.6323L25.800013 212.64792ZM25.800013 205.64792Q25.753138 205.99167 25.753138 206.2573Q25.753138 207.22604 26.393763 207.52292L30.550013 207.52292L30.550013 209.21042L24.206263 209.21042L24.206263 207.61667L24.971888 207.5698Q24.096888 207.05417 24.096888 206.16354Q24.096888 205.8823 24.175013 205.6323L25.800013 205.64792ZM30.675013 202.30417Q30.675013 203.6948 29.815638 204.5698Q28.956263 205.4448 27.534388 205.4448L27.362513 205.4448Q26.409388 205.4448 25.659388 205.08542Q24.909388 204.71042 24.503138 204.03854Q24.096888 203.35104 24.096888 202.49167Q24.096888 201.17917 24.925013 200.4448Q25.737513 199.6948 27.237513 199.6948L27.925013 199.6948L27.925013 203.72604Q28.550013 203.64792 28.925013 203.24167Q29.300013 202.8198 29.300013 202.17917Q29.300013 201.21042 28.596888 200.66354L29.518763 199.8198Q30.065638 200.21042 30.378138 200.86667Q30.675013 201.5073 30.675013 202.30417ZM25.456263 202.49167Q25.456263 202.99167 25.800013 203.30417Q26.143763 203.61667 26.768763 203.71042L26.768763 201.35104L26.643763 201.35104Q26.081263 201.36667 25.768763 201.66354Q25.456263 201.9448 25.456263 202.49167ZM27.315638 199.47604Q25.831263 199.47604 24.971888 198.8198Q24.096888 198.14792 24.096888 196.99167Q24.096888 195.97604 24.878138 195.36667L24.206263 195.2573L24.206263 193.77292L32.98751 193.77292L32.98751 195.46042L30.003138 195.46042Q30.675013 196.05417 30.675013 197.0073Q30.675013 198.1323 29.800013 198.80417Q28.909388 199.47604 27.315638 199.47604ZM27.440638 197.78854Q28.346888 197.78854 28.831263 197.47604Q29.300013 197.14792 29.300013 196.5698Q29.300013 195.78854 28.675013 195.46042L26.065638 195.46042Q25.456263 195.78854 25.456263 196.55417Q25.456263 197.14792 25.940638 197.47604Q26.409388 197.78854 27.440638 197.78854ZM29.909388 188.41354Q30.675013 189.03854 30.675013 190.14792Q30.675013 191.17917 30.081263 191.71042Q29.487513 192.24167 28.362513 192.2573L24.206263 192.2573L24.206263 190.5698L28.300013 190.5698Q29.300013 190.5698 29.300013 189.66354Q29.300013 188.80417 28.690638 188.47604L24.206263 188.47604L24.206263 186.77292L30.550013 186.77292L30.550013 188.36667L29.909388 188.41354ZM30.675013 182.30417Q30.675013 183.6948 29.815638 184.5698Q28.956263 185.4448 27.534388 185.4448L27.362513 185.4448Q26.409388 185.4448 25.659388 185.08542Q24.909388 184.71042 24.503138 184.03854Q24.096888 183.35104 24.096888 182.49167Q24.096888 181.17917 24.925013 180.4448Q25.737513 179.6948 27.237513 179.6948L27.925013 179.6948L27.925013 183.72604Q28.550013 183.64792 28.925013 183.24167Q29.300013 182.8198 29.300013 182.17917Q29.300013 181.21042 28.596888 180.66354L29.518763 179.8198Q30.065638 180.21042 30.378138 180.86667Q30.675013 181.5073 30.675013 182.30417ZM25.456263 182.49167Q25.456263 182.99167 25.800013 183.30417Q26.143763 183.61667 26.768763 183.71042L26.768763 181.35104L26.643763 181.35104Q26.081263 181.36667 25.768763 181.66354Q25.456263 181.9448 25.456263 182.49167ZM28.800013 175.78854Q28.487513 175.78854 28.315638 176.10104Q28.128138 176.39792 27.987513 177.0698Q27.518763 179.33542 26.065638 179.33542Q25.221888 179.33542 24.659388 178.64792Q24.096888 177.9448 24.096888 176.80417Q24.096888 175.60104 24.659388 174.8823Q25.221888 174.14792 26.143763 174.14792L26.143763 175.85104Q25.768763 175.85104 25.534388 176.08542Q25.300013 176.3198 25.300013 176.8198Q25.300013 177.24167 25.503138 177.47604Q25.690638 177.71042 25.987513 177.71042Q26.268763 177.71042 26.440638 177.4448Q26.612513 177.17917 26.737513 176.55417Q26.862513 175.91354 27.018763 175.47604Q27.518763 174.1323 28.721888 174.1323Q29.596888 174.1323 30.143763 174.8823Q30.675013 175.61667 30.675013 176.80417Q30.675013 177.60104 30.393763 178.22604Q30.096888 178.83542 29.612513 179.1948Q29.112513 179.53854 28.534388 179.53854L28.534388 177.92917Q28.987513 177.91354 29.237513 177.60104Q29.471888 177.28854 29.471888 176.77292Q29.471888 176.27292 29.284388 176.03854Q29.096888 175.78854 28.800013 175.78854ZM22.643763 171.1948L24.206263 171.1948L24.206263 170.10104L25.456263 170.10104L25.456263 171.1948L28.612513 171.1948Q28.971888 171.1948 29.128138 171.05417Q29.268763 170.91354 29.268763 170.53854Q29.268763 170.2573 29.237513 170.03854L30.518763 170.03854Q30.675013 170.53854 30.675013 171.0698Q30.675013 172.85104 28.862513 172.8823L25.456263 172.8823L25.456263 173.80417L24.206263 173.80417L24.206263 172.8823L22.643763 172.8823L22.643763 171.1948ZM27.081263 166.1323Q25.737513 166.1323 24.534388 165.78854Q23.315638 165.42917 22.378138 164.72604Q21.440638 164.02292 21.081263 163.21042L21.987513 162.8823Q22.628138 163.74167 23.956263 164.22604Q25.268763 164.71042 27.050013 164.71042L27.221888 164.71042Q29.003138 164.71042 30.331263 164.24167Q31.659388 163.7573 32.315636 162.8823L33.221886 163.21042Q32.86251 164.0073 31.956263 164.6948Q31.050013 165.3823 29.862513 165.7573Q28.675013 166.11667 27.393763 166.1323L27.081263 166.1323ZM24.206263 160.6323L24.925013 160.5698Q24.096888 159.89792 24.096888 158.7573Q24.096888 157.52292 25.065638 157.0698Q24.096888 156.39792 24.096888 155.16354Q24.096888 154.1323 24.706263 153.6323Q25.300013 153.1323 26.503138 153.1323L30.550013 153.1323L30.550013 154.8198L26.503138 154.8198Q25.971888 154.8198 25.721888 155.03854Q25.471888 155.24167 25.471888 155.78854Q25.471888 156.53854 26.190638 156.83542L30.550013 156.83542L30.550013 158.52292L26.518763 158.52292Q25.956263 158.52292 25.721888 158.74167Q25.471888 158.96042 25.471888 159.47604Q25.471888 160.1948 26.065638 160.52292L30.550013 160.52292L30.550013 162.21042L24.206263 162.21042L24.206263 160.6323ZM28.800013 148.78854Q28.487513 148.78854 28.315638 149.10104Q28.128138 149.39792 27.987513 150.0698Q27.518763 152.33542 26.065638 152.33542Q25.221888 152.33542 24.659388 151.64792Q24.096888 150.9448 24.096888 149.80417Q24.096888 148.60104 24.659388 147.8823Q25.221888 147.14792 26.143763 147.14792L26.143763 148.85104Q25.768763 148.85104 25.534388 149.08542Q25.300013 149.3198 25.300013 149.8198Q25.300013 150.24167 25.503138 150.47604Q25.690638 150.71042 25.987513 150.71042Q26.268763 150.71042 26.440638 150.4448Q26.612513 150.17917 26.737513 149.55417Q26.862513 148.91354 27.018763 148.47604Q27.518763 147.1323 28.721888 147.1323Q29.596888 147.1323 30.143763 147.8823Q30.675013 148.61667 30.675013 149.80417Q30.675013 150.60104 30.393763 151.22604Q30.096888 151.83542 29.612513 152.1948Q29.112513 152.53854 28.534388 152.53854L28.534388 150.92917Q28.987513 150.91354 29.237513 150.60104Q29.471888 150.28854 29.471888 149.77292Q29.471888 149.27292 29.284388 149.03854Q29.096888 148.78854 28.800013 148.78854ZM27.221888 143.30417Q28.534388 143.30417 29.768763 143.67917Q30.987513 144.05417 31.925013 144.77292Q32.86251 145.49167 33.221886 146.30417L32.315636 146.6323Q31.690638 145.80417 30.393763 145.3198Q29.081263 144.83542 27.378138 144.8198L27.065638 144.8198Q25.315638 144.8198 23.987513 145.30417Q22.643763 145.77292 21.971888 146.6323L21.081263 146.30417Q21.425013 145.5073 22.331263 144.80417Q23.237513 144.10104 24.456263 143.71042Q25.659388 143.3198 26.956263 143.30417L27.221888 143.30417Z" fill-rule="nonzero"/><path fill="#000000" d="M78.6125 299.3094Q78.6125 301.21564 77.95625 302.15314Q77.31563 303.075 75.925 303.075Q74.56563 303.075 73.90938 302.16876Q73.25313 301.2625 73.22188 299.45L73.22188 298.0125Q73.22188 296.1219 73.8625 295.21564Q74.51875 294.29376 75.90938 294.29376Q77.28438 294.29376 77.94063 295.1844Q78.59688 296.0594 78.6125 297.90314L78.6125 299.3094ZM77.51875 297.825Q77.51875 296.45 77.12813 295.825Q76.75313 295.1844 75.90938 295.1844Q75.08125 295.1844 74.69063 295.825Q74.31563 296.45 74.31563 297.7469L74.31563 299.48126Q74.31563 300.85626 74.70625 301.52814Q75.1125 302.1844 75.925 302.1844Q76.72188 302.1844 77.1125 301.5594Q77.50313 300.9344 77.51875 299.60626L77.51875 297.825Z" fill-rule="nonzero"/><path fill="#000000" d="M55.815624 261.21667L54.7375 261.21667L54.7375 253.99792L52.55 254.7948L52.55 253.81042L55.659374 252.63855L55.815624 252.63855L55.815624 261.21667ZM64.6125 257.57605Q64.6125 259.4823 63.95625 260.4198Q63.315624 261.34167 61.925 261.34167Q60.565624 261.34167 59.909374 260.43542Q59.253124 259.52917 59.221874 257.71667L59.221874 256.27917Q59.221874 254.38855 59.8625 253.4823Q60.51875 252.56042 61.909374 252.56042Q63.284374 252.56042 63.940624 253.45105Q64.59688 254.32605 64.6125 256.1698L64.6125 257.57605ZM63.51875 256.09167Q63.51875 254.71667 63.128124 254.09167Q62.753124 253.45105 61.909374 253.45105Q61.08125 253.45105 60.690624 254.09167Q60.315624 254.71667 60.315624 256.01355L60.315624 257.74792Q60.315624 259.12292 60.70625 259.7948Q61.1125 260.45105 61.925 260.45105Q62.721874 260.45105 63.1125 259.82605Q63.503124 259.20105 63.51875 257.87292L63.51875 256.09167ZM71.6125 257.57605Q71.6125 259.4823 70.95625 260.4198Q70.31563 261.34167 68.925 261.34167Q67.56563 261.34167 66.90938 260.43542Q66.25313 259.52917 66.22188 257.71667L66.22188 256.27917Q66.22188 254.38855 66.8625 253.4823Q67.51875 252.56042 68.90938 252.56042Q70.28438 252.56042 70.94063 253.45105Q71.59688 254.32605 71.6125 256.1698L71.6125 257.57605ZM70.51875 256.09167Q70.51875 254.71667 70.12813 254.09167Q69.75313 253.45105 68.90938 253.45105Q68.08125 253.45105 67.69063 254.09167Q67.31563 254.71667 67.31563 256.01355L67.31563 257.74792Q67.31563 259.12292 67.70625 259.7948Q68.1125 260.45105 68.925 260.45105Q69.72188 260.45105 70.1125 259.82605Q70.50313 259.20105 70.51875 257.87292L70.51875 256.09167ZM78.6125 257.57605Q78.6125 259.4823 77.95625 260.4198Q77.31563 261.34167 75.925 261.34167Q74.56563 261.34167 73.90938 260.43542Q73.25313 259.52917 73.22188 257.71667L73.22188 256.27917Q73.22188 254.38855 73.8625 253.4823Q74.51875 252.56042 75.90938 252.56042Q77.28438 252.56042 77.94063 253.45105Q78.59688 254.32605 78.6125 256.1698L78.6125 257.57605ZM77.51875 256.09167Q77.51875 254.71667 77.12813 254.09167Q76.75313 253.45105 75.90938 253.45105Q75.08125 253.45105 74.69063 254.09167Q74.31563 254.71667 74.31563 256.01355L74.31563 257.74792Q74.31563 259.12292 74.70625 259.7948Q75.1125 260.45105 75.925 260.45105Q76.72188 260.45105 77.1125 259.82605Q77.50313 259.20105 77.51875 257.87292L77.51875 256.09167Z" fill-rule="nonzero"/><path fill="#000000" d="M57.846874 219.48334L52.253124 219.48334L52.253124 218.70209L55.20625 215.42084Q55.8625 214.67084 56.1125 214.21771Q56.3625 213.74896 56.3625 213.24896Q56.3625 212.57709 55.95625 212.15521Q55.565624 211.71771 54.878124 211.71771Q54.08125 211.71771 53.628124 212.18646Q53.175 212.63959 53.175 213.46771L52.096874 213.46771Q52.096874 212.28021 52.846874 211.56146Q53.6125 210.82709 54.878124 210.82709Q56.08125 210.82709 56.76875 211.45209Q57.45625 212.07709 57.45625 213.12396Q57.45625 214.37396 55.846874 216.12396L53.565624 218.59271L57.846874 218.59271L57.846874 219.48334ZM64.6125 215.84271Q64.6125 217.74896 63.95625 218.68646Q63.315624 219.60834 61.925 219.60834Q60.565624 219.60834 59.909374 218.70209Q59.253124 217.79584 59.221874 215.98334L59.221874 214.54584Q59.221874 212.65521 59.8625 211.74896Q60.51875 210.82709 61.909374 210.82709Q63.284374 210.82709 63.940624 211.71771Q64.59688 212.59271 64.6125 214.43646L64.6125 215.84271ZM63.51875 214.35834Q63.51875 212.98334 63.128124 212.35834Q62.753124 211.71771 61.909374 211.71771Q61.08125 211.71771 60.690624 212.35834Q60.315624 212.98334 60.315624 214.28021L60.315624 216.01459Q60.315624 217.38959 60.70625 218.06146Q61.1125 218.71771 61.925 218.71771Q62.721874 218.71771 63.1125 218.09271Q63.503124 217.46771 63.51875 216.13959L63.51875 214.35834ZM71.6125 215.84271Q71.6125 217.74896 70.95625 218.68646Q70.31563 219.60834 68.925 219.60834Q67.56563 219.60834 66.90938 218.70209Q66.25313 217.79584 66.22188 215.98334L66.22188 214.54584Q66.22188 212.65521 66.8625 211.74896Q67.51875 210.82709 68.90938 210.82709Q70.28438 210.82709 70.94063 211.71771Q71.59688 212.59271 71.6125 214.43646L71.6125 215.84271ZM70.51875 214.35834Q70.51875 212.98334 70.12813 212.35834Q69.75313 211.71771 68.90938 211.71771Q68.08125 211.71771 67.69063 212.35834Q67.31563 212.98334 67.31563 214.28021L67.31563 216.01459Q67.31563 217.38959 67.70625 218.06146Q68.1125 218.71771 68.925 218.71771Q69.72188 218.71771 70.1125 218.09271Q70.50313 217.46771 70.51875 216.13959L70.51875 214.35834ZM78.6125 215.84271Q78.6125 217.74896 77.95625 218.68646Q77.31563 219.60834 75.925 219.60834Q74.56563 219.60834 73.90938 218.70209Q73.25313 217.79584 73.22188 215.98334L73.22188 214.54584Q73.22188 212.65521 73.8625 211.74896Q74.51875 210.82709 75.90938 210.82709Q77.28438 210.82709 77.94063 211.71771Q78.59688 212.59271 78.6125 214.43646L78.6125 215.84271ZM77.51875 214.35834Q77.51875 212.98334 77.12813 212.35834Q76.75313 211.71771 75.90938 211.71771Q75.08125 211.71771 74.69063 212.35834Q74.31563 212.98334 74.31563 214.28021L74.31563 216.01459Q74.31563 217.38959 74.70625 218.06146Q75.1125 218.71771 75.925 218.71771Q76.72188 218.71771 77.1125 218.09271Q77.50313 217.46771 77.51875 216.13959L77.51875 214.35834Z" fill-rule="nonzero"/><path fill="#000000" d="M53.83125 172.95312L54.64375 172.95312Q55.425 172.9375 55.8625 172.54688Q56.3 172.15625 56.3 171.48438Q56.3 169.98438 54.8 169.98438Q54.096874 169.98438 53.675 170.39062Q53.26875 170.79688 53.26875 171.45312L52.175 171.45312Q52.175 170.4375 52.909374 169.76562Q53.659374 169.09375 54.8 169.09375Q56.003124 169.09375 56.690624 169.73438Q57.378124 170.375 57.378124 171.51562Q57.378124 172.07812 57.01875 172.59375Q56.659374 173.10938 56.034374 173.375Q56.7375 173.59375 57.1125 174.10938Q57.503124 174.625 57.503124 175.375Q57.503124 176.51562 56.753124 177.20312Q56.003124 177.875 54.8 177.875Q53.6125 177.875 52.846874 177.21875Q52.096874 176.5625 52.096874 175.5L53.190624 175.5Q53.190624 176.17188 53.628124 176.57812Q54.065624 176.98438 54.815624 176.98438Q55.596874 176.98438 56.003124 176.57812Q56.425 176.15625 56.425 175.39062Q56.425 174.65625 55.971874 174.26562Q55.51875 173.85938 54.64375 173.84375L53.83125 173.84375L53.83125 172.95312ZM64.6125 174.10938Q64.6125 176.01562 63.95625 176.95312Q63.315624 177.875 61.925 177.875Q60.565624 177.875 59.909374 176.96875Q59.253124 176.0625 59.221874 174.25L59.221874 172.8125Q59.221874 170.92188 59.8625 170.01562Q60.51875 169.09375 61.909374 169.09375Q63.284374 169.09375 63.940624 169.98438Q64.59688 170.85938 64.6125 172.70312L64.6125 174.10938ZM63.51875 172.625Q63.51875 171.25 63.128124 170.625Q62.753124 169.98438 61.909374 169.98438Q61.08125 169.98438 60.690624 170.625Q60.315624 171.25 60.315624 172.54688L60.315624 174.28125Q60.315624 175.65625 60.70625 176.32812Q61.1125 176.98438 61.925 176.98438Q62.721874 176.98438 63.1125 176.35938Q63.503124 175.73438 63.51875 174.40625L63.51875 172.625ZM71.6125 174.10938Q71.6125 176.01562 70.95625 176.95312Q70.31563 177.875 68.925 177.875Q67.56563 177.875 66.90938 176.96875Q66.25313 176.0625 66.22188 174.25L66.22188 172.8125Q66.22188 170.92188 66.8625 170.01562Q67.51875 169.09375 68.90938 169.09375Q70.28438 169.09375 70.94063 169.98438Q71.59688 170.85938 71.6125 172.70312L71.6125 174.10938ZM70.51875 172.625Q70.51875 171.25 70.12813 170.625Q69.75313 169.98438 68.90938 169.98438Q68.08125 169.98438 67.69063 170.625Q67.31563 171.25 67.31563 172.54688L67.31563 174.28125Q67.31563 175.65625 67.70625 176.32812Q68.1125 176.98438 68.925 176.98438Q69.72188 176.98438 70.1125 176.35938Q70.50313 175.73438 70.51875 174.40625L70.51875 172.625ZM78.6125 174.10938Q78.6125 176.01562 77.95625 176.95312Q77.31563 177.875 75.925 177.875Q74.56563 177.875 73.90938 176.96875Q73.25313 176.0625 73.22188 174.25L73.22188 172.8125Q73.22188 170.92188 73.8625 170.01562Q74.51875 169.09375 75.90938 169.09375Q77.28438 169.09375 77.94063 169.98438Q78.59688 170.85938 78.6125 172.70312L78.6125 174.10938ZM77.51875 172.625Q77.51875 171.25 77.12813 170.625Q76.75313 169.98438 75.90938 169.98438Q75.08125 169.98438 74.69063 170.625Q74.31563 171.25 74.31563 172.54688L74.31563 174.28125Q74.31563 175.65625 74.70625 176.32812Q75.1125 176.98438 75.925 176.98438Q76.72188 176.98438 77.1125 176.35938Q77.50313 175.73438 77.51875 174.40625L77.51875 172.625Z" fill-rule="nonzero"/><path fill="#000000" d="M56.83125 133.15729L58.01875 133.15729L58.01875 134.03229L56.83125 134.03229L56.83125 136.01666L55.753124 136.01666L55.753124 134.03229L51.8625 134.03229L51.8625 133.39166L55.675 127.48541L56.83125 127.48541L56.83125 133.15729ZM53.096874 133.15729L55.753124 133.15729L55.753124 128.96979L55.6125 129.20416L53.096874 133.15729ZM64.6125 132.37604Q64.6125 134.28229 63.95625 135.21979Q63.315624 136.14166 61.925 136.14166Q60.565624 136.14166 59.909374 135.23541Q59.253124 134.32916 59.221874 132.51666L59.221874 131.07916Q59.221874 129.18854 59.8625 128.28229Q60.51875 127.36041 61.909374 127.36041Q63.284374 127.36041 63.940624 128.25104Q64.59688 129.12604 64.6125 130.96979L64.6125 132.37604ZM63.51875 130.89166Q63.51875 129.51666 63.128124 128.89166Q62.753124 128.25104 61.909374 128.25104Q61.08125 128.25104 60.690624 128.89166Q60.315624 129.51666 60.315624 130.81354L60.315624 132.54791Q60.315624 133.92291 60.70625 134.59479Q61.1125 135.25104 61.925 135.25104Q62.721874 135.25104 63.1125 134.62604Q63.503124 134.00104 63.51875 132.67291L63.51875 130.89166ZM71.6125 132.37604Q71.6125 134.28229 70.95625 135.21979Q70.31563 136.14166 68.925 136.14166Q67.56563 136.14166 66.90938 135.23541Q66.25313 134.32916 66.22188 132.51666L66.22188 131.07916Q66.22188 129.18854 66.8625 128.28229Q67.51875 127.36041 68.90938 127.36041Q70.28438 127.36041 70.94063 128.25104Q71.59688 129.12604 71.6125 130.96979L71.6125 132.37604ZM70.51875 130.89166Q70.51875 129.51666 70.12813 128.89166Q69.75313 128.25104 68.90938 128.25104Q68.08125 128.25104 67.69063 128.89166Q67.31563 129.51666 67.31563 130.81354L67.31563 132.54791Q67.31563 133.92291 67.70625 134.59479Q68.1125 135.25104 68.925 135.25104Q69.72188 135.25104 70.1125 134.62604Q70.50313 134.00104 70.51875 132.67291L70.51875 130.89166ZM78.6125 132.37604Q78.6125 134.28229 77.95625 135.21979Q77.31563 136.14166 75.925 136.14166Q74.56563 136.14166 73.90938 135.23541Q73.25313 134.32916 73.22188 132.51666L73.22188 131.07916Q73.22188 129.18854 73.8625 128.28229Q74.51875 127.36041 75.90938 127.36041Q77.28438 127.36041 77.94063 128.25104Q78.59688 129.12604 78.6125 130.96979L78.6125 132.37604ZM77.51875 130.89166Q77.51875 129.51666 77.12813 128.89166Q76.75313 128.25104 75.90938 128.25104Q75.08125 128.25104 74.69063 128.89166Q74.31563 129.51666 74.31563 130.81354L74.31563 132.54791Q74.31563 133.92291 74.70625 134.59479Q75.1125 135.25104 75.925 135.25104Q76.72188 135.25104 77.1125 134.62604Q77.50313 134.00104 77.51875 132.67291L77.51875 130.89166Z" fill-rule="nonzero"/><path fill="#000000" d="M52.753124 90.00208L53.190624 85.75208L57.565624 85.75208L57.565624 86.75208L54.1125 86.75208L53.846874 89.08021Q54.4875 88.70521 55.284374 88.70521Q56.440624 88.70521 57.128124 89.48646Q57.815624 90.25208 57.815624 91.56458Q57.815624 92.87708 57.096874 93.64271Q56.39375 94.40833 55.1125 94.40833Q53.9875 94.40833 53.26875 93.78333Q52.55 93.14271 52.45625 92.03333L53.471874 92.03333Q53.58125 92.76771 54.003124 93.14271Q54.425 93.51771 55.1125 93.51771Q55.8625 93.51771 56.3 93.00208Q56.7375 92.48646 56.7375 91.58021Q56.7375 90.72083 56.26875 90.20521Q55.8 89.68958 55.01875 89.68958Q54.315624 89.68958 53.909374 89.98646L53.628124 90.22083L52.753124 90.00208ZM64.6125 90.64271Q64.6125 92.54896 63.95625 93.48646Q63.315624 94.40833 61.925 94.40833Q60.565624 94.40833 59.909374 93.50208Q59.253124 92.59583 59.221874 90.78333L59.221874 89.34583Q59.221874 87.45521 59.8625 86.54896Q60.51875 85.62708 61.909374 85.62708Q63.284374 85.62708 63.940624 86.51771Q64.59688 87.39271 64.6125 89.23646L64.6125 90.64271ZM63.51875 89.15833Q63.51875 87.78333 63.128124 87.15833Q62.753124 86.51771 61.909374 86.51771Q61.08125 86.51771 60.690624 87.15833Q60.315624 87.78333 60.315624 89.08021L60.315624 90.81458Q60.315624 92.18958 60.70625 92.86146Q61.1125 93.51771 61.925 93.51771Q62.721874 93.51771 63.1125 92.89271Q63.503124 92.26771 63.51875 90.93958L63.51875 89.15833ZM71.6125 90.64271Q71.6125 92.54896 70.95625 93.48646Q70.31563 94.40833 68.925 94.40833Q67.56563 94.40833 66.90938 93.50208Q66.25313 92.59583 66.22188 90.78333L66.22188 89.34583Q66.22188 87.45521 66.8625 86.54896Q67.51875 85.62708 68.90938 85.62708Q70.28438 85.62708 70.94063 86.51771Q71.59688 87.39271 71.6125 89.23646L71.6125 90.64271ZM70.51875 89.15833Q70.51875 87.78333 70.12813 87.15833Q69.75313 86.51771 68.90938 86.51771Q68.08125 86.51771 67.69063 87.15833Q67.31563 87.78333 67.31563 89.08021L67.31563 90.81458Q67.31563 92.18958 67.70625 92.86146Q68.1125 93.51771 68.925 93.51771Q69.72188 93.51771 70.1125 92.89271Q70.50313 92.26771 70.51875 90.93958L70.51875 89.15833ZM78.6125 90.64271Q78.6125 92.54896 77.95625 93.48646Q77.31563 94.40833 75.925 94.40833Q74.56563 94.40833 73.90938 93.50208Q73.25313 92.59583 73.22188 90.78333L73.22188 89.34583Q73.22188 87.45521 73.8625 86.54896Q74.51875 85.62708 75.90938 85.62708Q77.28438 85.62708 77.94063 86.51771Q78.59688 87.39271 78.6125 89.23646L78.6125 90.64271ZM77.51875 89.15833Q77.51875 87.78333 77.12813 87.15833Q76.75313 86.51771 75.90938 86.51771Q75.08125 86.51771 74.69063 87.15833Q74.31563 87.78333 74.31563 89.08021L74.31563 90.81458Q74.31563 92.18958 74.70625 92.86146Q75.1125 93.51771 75.925 93.51771Q76.72188 93.51771 77.1125 92.89271Q77.50313 92.26771 77.51875 90.93958L77.51875 89.15833Z" fill-rule="nonzero"/><path fill="#000000" d="M142.31995 312.16876L142.75745 307.91876L147.13245 307.91876L147.13245 308.91876L143.67932 308.91876L143.4137 311.2469Q144.05432 310.8719 144.8512 310.8719Q146.00745 310.8719 146.69495 311.65314Q147.38245 312.41876 147.38245 313.73126Q147.38245 315.04376 146.6637 315.8094Q145.96057 316.575 144.67932 316.575Q143.55432 316.575 142.83557 315.95Q142.11682 315.3094 142.02307 314.2L143.0387 314.2Q143.14807 314.9344 143.56995 315.3094Q143.99182 315.6844 144.67932 315.6844Q145.42932 315.6844 145.86682 315.16876Q146.30432 314.65314 146.30432 313.7469Q146.30432 312.8875 145.83557 312.3719Q145.36682 311.85626 144.58557 311.85626Q143.88245 311.85626 143.4762 312.15314L143.19495 312.3875L142.31995 312.16876ZM154.17932 312.8094Q154.17932 314.71564 153.52307 315.65314Q152.88245 316.575 151.49182 316.575Q150.13245 316.575 149.4762 315.66876Q148.81995 314.7625 148.7887 312.95L148.7887 311.5125Q148.7887 309.6219 149.42932 308.71564Q150.08557 307.79376 151.4762 307.79376Q152.8512 307.79376 153.50745 308.6844Q154.1637 309.5594 154.17932 311.40314L154.17932 312.8094ZM153.08557 311.325Q153.08557 309.95 152.69495 309.325Q152.31995 308.6844 151.4762 308.6844Q150.64807 308.6844 150.25745 309.325Q149.88245 309.95 149.88245 311.2469L149.88245 312.98126Q149.88245 314.35626 150.27307 315.02814Q150.67932 315.6844 151.49182 315.6844Q152.2887 315.6844 152.67932 315.0594Q153.06995 314.4344 153.08557 313.10626L153.08557 311.325Z" fill-rule="nonzero"/><path fill="#000000" d="M234.57404 316.45L233.49591 316.45L233.49591 309.23126L231.30841 310.02814L231.30841 309.04376L234.41779 307.8719L234.57404 307.8719L234.57404 316.45ZM243.37091 312.8094Q243.37091 314.71564 242.71466 315.65314Q242.07404 316.575 240.68341 316.575Q239.32404 316.575 238.66779 315.66876Q238.01154 314.7625 237.98029 312.95L237.98029 311.5125Q237.98029 309.6219 238.62091 308.71564Q239.27716 307.79376 240.66779 307.79376Q242.04279 307.79376 242.69904 308.6844Q243.35529 309.5594 243.37091 311.40314L243.37091 312.8094ZM242.27716 311.325Q242.27716 309.95 241.88654 309.325Q241.51154 308.6844 240.66779 308.6844Q239.83966 308.6844 239.44904 309.325Q239.07404 309.95 239.07404 311.2469L239.07404 312.98126Q239.07404 314.35626 239.46466 315.02814Q239.87091 315.6844 240.68341 315.6844Q241.48029 315.6844 241.87091 315.0594Q242.26154 314.4344 242.27716 313.10626L242.27716 311.325ZM250.37091 312.8094Q250.37091 314.71564 249.71466 315.65314Q249.07404 316.575 247.68341 316.575Q246.32404 316.575 245.66779 315.66876Q245.01154 314.7625 244.98029 312.95L244.98029 311.5125Q244.98029 309.6219 245.62091 308.71564Q246.27716 307.79376 247.66779 307.79376Q249.04279 307.79376 249.69904 308.6844Q250.35529 309.5594 250.37091 311.40314L250.37091 312.8094ZM249.27716 311.325Q249.27716 309.95 248.88654 309.325Q248.51154 308.6844 247.66779 308.6844Q246.83966 308.6844 246.44904 309.325Q246.07404 309.95 246.07404 311.2469L246.07404 312.98126Q246.07404 314.35626 246.46466 315.02814Q246.87091 315.6844 247.68341 315.6844Q248.48029 315.6844 248.87091 315.0594Q249.26154 314.4344 249.27716 313.10626L249.27716 311.325Z" fill-rule="nonzero"/><path fill="#000000" d="M327.26562 316.45L326.1875 316.45L326.1875 309.23126L324.0 310.02814L324.0 309.04376L327.10938 307.8719L327.26562 307.8719L327.26562 316.45ZM331.20312 312.16876L331.64062 307.91876L336.01562 307.91876L336.01562 308.91876L332.5625 308.91876L332.29688 311.2469Q332.9375 310.8719 333.73438 310.8719Q334.89062 310.8719 335.57812 311.65314Q336.26562 312.41876 336.26562 313.73126Q336.26562 315.04376 335.54688 315.8094Q334.84375 316.575 333.5625 316.575Q332.4375 316.575 331.71875 315.95Q331.0 315.3094 330.90625 314.2L331.92188 314.2Q332.03125 314.9344 332.45312 315.3094Q332.875 315.6844 333.5625 315.6844Q334.3125 315.6844 334.75 315.16876Q335.1875 314.65314 335.1875 313.7469Q335.1875 312.8875 334.71875 312.3719Q334.25 311.85626 333.46875 311.85626Q332.76562 311.85626 332.35938 312.15314L332.07812 312.3875L331.20312 312.16876ZM343.0625 312.8094Q343.0625 314.71564 342.40625 315.65314Q341.76562 316.575 340.375 316.575Q339.01562 316.575 338.35938 315.66876Q337.70312 314.7625 337.67188 312.95L337.67188 311.5125Q337.67188 309.6219 338.3125 308.71564Q338.96875 307.79376 340.35938 307.79376Q341.73438 307.79376 342.39062 308.6844Q343.04688 309.5594 343.0625 311.40314L343.0625 312.8094ZM341.96875 311.325Q341.96875 309.95 341.57812 309.325Q341.20312 308.6844 340.35938 308.6844Q339.53125 308.6844 339.14062 309.325Q338.76562 309.95 338.76562 311.2469L338.76562 312.98126Q338.76562 314.35626 339.15625 315.02814Q339.5625 315.6844 340.375 315.6844Q341.17188 315.6844 341.5625 315.0594Q341.95312 314.4344 341.96875 313.10626L341.96875 311.325Z" fill-rule="nonzero"/><path fill="#000000" d="M421.98846 316.45L416.3947 316.45L416.3947 315.66876L419.34784 312.3875Q420.0041 311.6375 420.2541 311.1844Q420.5041 310.71564 420.5041 310.21564Q420.5041 309.54376 420.09784 309.1219Q419.7072 308.6844 419.0197 308.6844Q418.22284 308.6844 417.7697 309.15314Q417.3166 309.60626 417.3166 310.4344L416.23846 310.4344Q416.23846 309.2469 416.98846 308.52814Q417.7541 307.79376 419.0197 307.79376Q420.22284 307.79376 420.91034 308.41876Q421.59784 309.04376 421.59784 310.09064Q421.59784 311.34064 419.98846 313.09064L417.7072 315.5594L421.98846 315.5594L421.98846 316.45ZM428.7541 312.8094Q428.7541 314.71564 428.09784 315.65314Q427.4572 316.575 426.0666 316.575Q424.7072 316.575 424.05096 315.66876Q423.3947 314.7625 423.36346 312.95L423.36346 311.5125Q423.36346 309.6219 424.0041 308.71564Q424.66034 307.79376 426.05096 307.79376Q427.42596 307.79376 428.0822 308.6844Q428.73846 309.5594 428.7541 311.40314L428.7541 312.8094ZM427.66034 311.325Q427.66034 309.95 427.2697 309.325Q426.8947 308.6844 426.05096 308.6844Q425.22284 308.6844 424.8322 309.325Q424.4572 309.95 424.4572 311.2469L424.4572 312.98126Q424.4572 314.35626 424.84784 315.02814Q425.2541 315.6844 426.0666 315.6844Q426.86346 315.6844 427.2541 315.0594Q427.6447 314.4344 427.66034 313.10626L427.66034 311.325ZM435.7541 312.8094Q435.7541 314.71564 435.09784 315.65314Q434.4572 316.575 433.0666 316.575Q431.7072 316.575 431.05096 315.66876Q430.3947 314.7625 430.36346 312.95L430.36346 311.5125Q430.36346 309.6219 431.0041 308.71564Q431.66034 307.79376 433.05096 307.79376Q434.42596 307.79376 435.0822 308.6844Q435.73846 309.5594 435.7541 311.40314L435.7541 312.8094ZM434.66034 311.325Q434.66034 309.95 434.2697 309.325Q433.8947 308.6844 433.05096 308.6844Q432.22284 308.6844 431.8322 309.325Q431.4572 309.95 431.4572 311.2469L431.4572 312.98126Q431.4572 314.35626 431.84784 315.02814Q432.2541 315.6844 433.0666 315.6844Q433.86346 315.6844 434.2541 315.0594Q434.6447 314.4344 434.66034 313.10626L434.66034 311.325Z" fill-rule="nonzero"/><path fill="#000000" d="M514.68005 316.45L509.0863 316.45L509.0863 315.66876L512.0394 312.3875Q512.6957 311.6375 512.9457 311.1844Q513.1957 310.71564 513.1957 310.21564Q513.1957 309.54376 512.7894 309.1219Q512.3988 308.6844 511.7113 308.6844Q510.91443 308.6844 510.4613 309.15314Q510.00818 309.60626 510.00818 310.4344L508.93005 310.4344Q508.93005 309.2469 509.68005 308.52814Q510.44568 307.79376 511.7113 307.79376Q512.9144 307.79376 513.6019 308.41876Q514.2894 309.04376 514.2894 310.09064Q514.2894 311.34064 512.68005 313.09064L510.3988 315.5594L514.68005 315.5594L514.68005 316.45ZM516.5863 312.16876L517.0238 307.91876L521.3988 307.91876L521.3988 308.91876L517.9457 308.91876L517.68005 311.2469Q518.3207 310.8719 519.11755 310.8719Q520.2738 310.8719 520.9613 311.65314Q521.6488 312.41876 521.6488 313.73126Q521.6488 315.04376 520.93005 315.8094Q520.2269 316.575 518.9457 316.575Q517.8207 316.575 517.1019 315.95Q516.3832 315.3094 516.2894 314.2L517.30505 314.2Q517.4144 314.9344 517.8363 315.3094Q518.2582 315.6844 518.9457 315.6844Q519.6957 315.6844 520.1332 315.16876Q520.5707 314.65314 520.5707 313.7469Q520.5707 312.8875 520.1019 312.3719Q519.6332 311.85626 518.8519 311.85626Q518.1488 311.85626 517.74255 312.15314L517.4613 312.3875L516.5863 312.16876ZM528.4457 312.8094Q528.4457 314.71564 527.7894 315.65314Q527.1488 316.575 525.7582 316.575Q524.3988 316.575 523.74255 315.66876Q523.0863 314.7625 523.05505 312.95L523.05505 311.5125Q523.05505 309.6219 523.6957 308.71564Q524.3519 307.79376 525.74255 307.79376Q527.11755 307.79376 527.7738 308.6844Q528.43005 309.5594 528.4457 311.40314L528.4457 312.8094ZM527.3519 311.325Q527.3519 309.95 526.9613 309.325Q526.5863 308.6844 525.74255 308.6844Q524.9144 308.6844 524.5238 309.325Q524.1488 309.95 524.1488 311.2469L524.1488 312.98126Q524.1488 314.35626 524.5394 315.02814Q524.9457 315.6844 525.7582 315.6844Q526.55505 315.6844 526.9457 315.0594Q527.3363 314.4344 527.3519 313.10626L527.3519 311.325Z" fill-rule="nonzero"/><path fill="#34a853" d="M238.5 57.416668C238.5 56.864384 238.94771 56.416668 239.5 56.416668L249.5 56.416668C250.05229 56.416668 250.5 56.864384 250.5 57.416668L250.5 67.416664C250.5 67.96895 250.05229 68.416664 249.5 68.416664L239.5 68.416664C238.94771 68.416664 238.5 67.96895 238.5 67.416664Z" fill-rule="nonzero"/><path fill="#1a1a1a" d="M260.34375 60.572914L260.375 61.36979Q261.10938 60.46354 262.28125 60.46354Q264.29688 60.46354 264.3125 62.729164L264.3125 66.916664L263.21875 66.916664L263.21875 62.71354Q263.21875 62.041664 262.90625 61.71354Q262.60938 61.385414 261.95312 61.385414Q261.42188 61.385414 261.01562 61.666664Q260.625 61.947914 260.40625 62.40104L260.40625 66.916664L259.32812 66.916664L259.32812 60.572914L260.34375 60.572914ZM266.03125 63.68229Q266.03125 62.760414 266.39062 62.010414Q266.76562 61.260414 267.42188 60.86979Q268.07812 60.46354 268.90625 60.46354Q270.20312 60.46354 271.0 61.354164Q271.8125 62.24479 271.8125 63.74479L271.8125 63.822914Q271.8125 64.74479 271.45312 65.479164Q271.09375 66.21354 270.4375 66.635414Q269.78125 67.041664 268.92188 67.041664Q267.64062 67.041664 266.82812 66.15104Q266.03125 65.24479 266.03125 63.760414L266.03125 63.68229ZM267.125 63.822914Q267.125 64.86979 267.60938 65.510414Q268.10938 66.15104 268.92188 66.15104Q269.75 66.15104 270.23438 65.510414Q270.71875 64.854164 270.71875 63.68229Q270.71875 62.65104 270.21875 62.010414Q269.73438 61.354164 268.90625 61.354164Q268.10938 61.354164 267.60938 61.99479Q267.125 62.61979 267.125 63.822914ZM273.0625 63.697914Q273.0625 62.229164 273.75 61.354164Q274.4375 60.46354 275.5625 60.46354Q276.67188 60.46354 277.32812 61.21354L277.32812 57.916664L278.40625 57.916664L278.40625 66.916664L277.40625 66.916664L277.35938 66.229164Q276.70312 67.041664 275.54688 67.041664Q274.45312 67.041664 273.75 66.135414Q273.0625 65.229164 273.0625 63.77604L273.0625 63.697914ZM274.14062 63.822914Q274.14062 64.90104 274.57812 65.510414Q275.03125 66.11979 275.8125 66.11979Q276.84375 66.11979 277.32812 65.18229L277.32812 62.27604Q276.84375 61.385414 275.82812 61.385414Q275.03125 61.385414 274.57812 61.99479Q274.14062 62.604164 274.14062 63.822914ZM282.95312 67.041664Q281.65625 67.041664 280.84375 66.197914Q280.04688 65.33854 280.04688 63.916664L280.04688 63.729164Q280.04688 62.77604 280.40625 62.041664Q280.76562 61.291664 281.40625 60.885414Q282.0625 60.46354 282.8125 60.46354Q284.04688 60.46354 284.73438 61.27604Q285.42188 62.08854 285.42188 63.604164L285.42188 64.05729L281.125 64.05729Q281.15625 64.99479 281.67188 65.572914Q282.20312 66.15104 283.01562 66.15104Q283.57812 66.15104 283.96875 65.916664Q284.375 65.68229 284.6875 65.291664L285.34375 65.80729Q284.54688 67.041664 282.95312 67.041664ZM282.8125 61.354164Q282.15625 61.354164 281.70312 61.83854Q281.26562 62.30729 281.17188 63.166664L284.34375 63.166664L284.34375 63.08854Q284.29688 62.260414 283.89062 61.80729Q283.5 61.354164 282.8125 61.354164Z" fill-rule="nonzero"/><path fill="#4285f4" d="M301.5 57.416668C301.5 56.864384 301.94772 56.416668 302.5 56.416668L312.5 56.416668C313.05228 56.416668 313.5 56.864384 313.5 57.416668L313.5 67.416664C313.5 67.96895 313.05228 68.416664 312.5 68.416664L302.5 68.416664C301.94772 68.416664 301.5 67.96895 301.5 67.416664Z" fill-rule="nonzero"/><path fill="#1a1a1a" d="M326.23438 66.916664Q326.14062 66.729164 326.07812 66.24479Q325.32812 67.041664 324.28125 67.041664Q323.34375 67.041664 322.73438 66.510414Q322.14062 65.979164 322.14062 65.15104Q322.14062 64.166664 322.89062 63.61979Q323.64062 63.072914 325.01562 63.072914L326.0625 63.072914L326.0625 62.572914Q326.0625 62.010414 325.71875 61.68229Q325.39062 61.33854 324.71875 61.33854Q324.14062 61.33854 323.75 61.635414Q323.35938 61.916664 323.35938 62.33854L322.26562 62.33854Q322.26562 61.854164 322.59375 61.416664Q322.9375 60.979164 323.51562 60.729164Q324.09375 60.46354 324.78125 60.46354Q325.89062 60.46354 326.5 61.010414Q327.125 61.55729 327.15625 62.510414L327.15625 65.43229Q327.15625 66.30729 327.375 66.822914L327.375 66.916664L326.23438 66.916664ZM324.4375 66.08854Q324.95312 66.08854 325.40625 65.822914Q325.85938 65.55729 326.0625 65.135414L326.0625 63.83854L325.21875 63.83854Q323.21875 63.83854 323.21875 65.010414Q323.21875 65.510414 323.5625 65.80729Q323.90625 66.08854 324.4375 66.08854ZM334.67188 63.822914Q334.67188 65.260414 334.01562 66.15104Q333.35938 67.041664 332.21875 67.041664Q331.0625 67.041664 330.40625 66.30729L330.40625 69.354164L329.32812 69.354164L329.32812 60.572914L330.3125 60.572914L330.35938 61.27604Q331.03125 60.46354 332.20312 60.46354Q333.34375 60.46354 334.0 61.322914Q334.67188 62.18229 334.67188 63.71354L334.67188 63.822914ZM333.59375 63.697914Q333.59375 62.61979 333.125 62.010414Q332.67188 61.385414 331.875 61.385414Q330.89062 61.385414 330.40625 62.24479L330.40625 65.27604Q330.89062 66.15104 331.89062 66.15104Q332.67188 66.15104 333.125 65.541664Q333.59375 64.916664 333.59375 63.697914ZM340.23438 66.916664Q340.14062 66.729164 340.07812 66.24479Q339.32812 67.041664 338.28125 67.041664Q337.34375 67.041664 336.73438 66.510414Q336.14062 65.979164 336.14062 65.15104Q336.14062 64.166664 336.89062 63.61979Q337.64062 63.072914 339.01562 63.072914L340.0625 63.072914L340.0625 62.572914Q340.0625 62.010414 339.71875 61.68229Q339.39062 61.33854 338.71875 61.33854Q338.14062 61.33854 337.75 61.635414Q337.35938 61.916664 337.35938 62.33854L336.26562 62.33854Q336.26562 61.854164 336.59375 61.416664Q336.9375 60.979164 337.51562 60.729164Q338.09375 60.46354 338.78125 60.46354Q339.89062 60.46354 340.5 61.010414Q341.125 61.55729 341.15625 62.510414L341.15625 65.43229Q341.15625 66.30729 341.375 66.822914L341.375 66.916664L340.23438 66.916664ZM338.4375 66.08854Q338.95312 66.08854 339.40625 65.822914Q339.85938 65.55729 340.0625 65.135414L340.0625 63.83854L339.21875 63.83854Q337.21875 63.83854 337.21875 65.010414Q337.21875 65.510414 337.5625 65.80729Q337.90625 66.08854 338.4375 66.08854ZM345.85938 66.15104Q346.4375 66.15104 346.875 65.80729Q347.3125 65.447914 347.35938 64.916664L348.39062 64.916664Q348.35938 65.46354 348.0 65.96354Q347.65625 66.447914 347.07812 66.74479Q346.51562 67.041664 345.85938 67.041664Q344.5625 67.041664 343.79688 66.18229Q343.04688 65.30729 343.04688 63.80729L343.04688 63.61979Q343.04688 62.697914 343.375 61.979164Q343.71875 61.260414 344.34375 60.86979Q344.98438 60.46354 345.85938 60.46354Q346.92188 60.46354 347.625 61.104164Q348.34375 61.729164 348.39062 62.760414L347.35938 62.760414Q347.3125 62.135414 346.89062 61.74479Q346.46875 61.354164 345.85938 61.354164Q345.03125 61.354164 344.57812 61.947914Q344.125 62.541664 344.125 63.666664L344.125 63.86979Q344.125 64.96354 344.57812 65.55729Q345.03125 66.15104 345.85938 66.15104ZM350.40625 61.33854Q351.125 60.46354 352.28125 60.46354Q354.29688 60.46354 354.3125 62.729164L354.3125 66.916664L353.21875 66.916664L353.21875 62.71354Q353.21875 62.041664 352.90625 61.71354Q352.60938 61.385414 351.95312 61.385414Q351.42188 61.385414 351.01562 61.666664Q350.625 61.947914 350.40625 62.40104L350.40625 66.916664L349.32812 66.916664L349.32812 57.916664L350.40625 57.916664L350.40625 61.33854ZM358.95312 67.041664Q357.65625 67.041664 356.84375 66.197914Q356.04688 65.33854 356.04688 63.916664L356.04688 63.729164Q356.04688 62.77604 356.40625 62.041664Q356.76562 61.291664 357.40625 60.885414Q358.0625 60.46354 358.8125 60.46354Q360.04688 60.46354 360.73438 61.27604Q361.42188 62.08854 361.42188 63.604164L361.42188 64.05729L357.125 64.05729Q357.15625 64.99479 357.67188 65.572914Q358.20312 66.15104 359.01562 66.15104Q359.57812 66.15104 359.96875 65.916664Q360.375 65.68229 360.6875 65.291664L361.34375 65.80729Q360.54688 67.041664 358.95312 67.041664ZM358.8125 61.354164Q358.15625 61.354164 357.70312 61.83854Q357.26562 62.30729 357.17188 63.166664L360.34375 63.166664L360.34375 63.08854Q360.29688 62.260414 359.89062 61.80729Q359.5 61.354164 358.8125 61.354164Z" fill-rule="nonzero"/><path fill="#757575" d="M30.659374 33.034374Q30.39375 35.3 28.9875 36.534374Q27.596874 37.753124 25.26875 37.753124Q22.753124 37.753124 21.221874 35.940624Q19.70625 34.128124 19.70625 31.096874L19.70625 29.7375Q19.70625 27.753124 20.409374 26.253124Q21.128124 24.753124 22.425 23.940624Q23.721874 23.128124 25.440624 23.128124Q27.70625 23.128124 29.065624 24.39375Q30.440624 25.659374 30.659374 27.89375L28.76875 27.89375Q28.534374 26.20625 27.70625 25.440624Q26.89375 24.675 25.440624 24.675Q23.64375 24.675 22.6125 26.003124Q21.596874 27.33125 21.596874 29.784374L21.596874 31.159374Q21.596874 33.471874 22.565624 34.846874Q23.534374 36.20625 25.26875 36.20625Q26.83125 36.20625 27.659374 35.503124Q28.503124 34.8 28.76875 33.034374L30.659374 33.034374ZM35.08125 31.9875L35.08125 37.55L33.20625 37.55L33.20625 23.33125L38.440624 23.33125Q40.784374 23.33125 42.096874 24.51875Q43.425 25.70625 43.425 27.675Q43.425 29.753124 42.128124 30.878124Q40.83125 31.9875 38.425 31.9875L35.08125 31.9875ZM35.08125 30.45625L38.440624 30.45625Q39.95625 30.45625 40.753124 29.753124Q41.55 29.034374 41.55 27.690624Q41.55 26.425 40.753124 25.675Q39.95625 24.909374 38.55 24.878124L35.08125 24.878124L35.08125 30.45625ZM56.20625 23.33125L56.20625 33.003124Q56.20625 35.003124 54.940624 36.284374Q53.690624 37.565624 51.55 37.721874L51.05 37.753124Q48.70625 37.753124 47.315624 36.4875Q45.940624 35.221874 45.925 33.01875L45.925 23.33125L47.76875 23.33125L47.76875 32.95625Q47.76875 34.503124 48.6125 35.3625Q49.471874 36.20625 51.05 36.20625Q52.64375 36.20625 53.4875 35.3625Q54.33125 34.51875 54.33125 32.971874L54.33125 23.33125L56.20625 23.33125ZM65.87813 37.55L64.08125 37.55L64.08125 26.9875L65.87813 26.9875L65.87813 37.55ZM63.925 24.175Q63.925 23.7375 64.19063 23.440624Q64.47188 23.128124 64.9875 23.128124Q65.51875 23.128124 65.78438 23.440624Q66.06563 23.7375 66.06563 24.175Q66.06563 24.6125 65.78438 24.909374Q65.51875 25.20625 64.9875 25.20625Q64.47188 25.20625 64.19063 24.909374Q63.925 24.6125 63.925 24.175ZM70.62813 26.9875L70.69063 28.315624Q71.89375 26.784374 73.84688 26.784374Q77.20625 26.784374 77.22188 30.565624L77.22188 37.55L75.425 37.55L75.425 30.55Q75.40938 29.409374 74.89375 28.8625Q74.39375 28.315624 73.3 28.315624Q72.425 28.315624 71.75313 28.784374Q71.09688 29.253124 70.72188 30.01875L70.72188 37.55L68.925 37.55L68.925 26.9875L70.62813 26.9875ZM82.3625 24.425L82.3625 26.9875L84.34688 26.9875L84.34688 28.378124L82.3625 28.378124L82.3625 34.925Q82.3625 35.565624 82.62813 35.89375Q82.89375 36.20625 83.53438 36.20625Q83.84688 36.20625 84.39375 36.08125L84.39375 37.55Q83.675 37.753124 83.00313 37.753124Q81.8 37.753124 81.175 37.01875Q80.56563 36.284374 80.56563 34.925L80.56563 28.378124L78.64375 28.378124L78.64375 26.9875L80.56563 26.9875L80.56563 24.425L82.3625 24.425ZM91.3 37.753124Q89.15938 37.753124 87.8 36.346874Q86.45625 34.925 86.45625 32.565624L86.45625 32.221874Q86.45625 30.659374 87.05 29.425Q87.65938 28.190624 88.7375 27.4875Q89.81563 26.784374 91.08125 26.784374Q93.14375 26.784374 94.28438 28.14375Q95.425 29.503124 95.425 32.034374L95.425 32.784374L88.26875 32.784374Q88.3 34.346874 89.175 35.315624Q90.05 36.26875 91.39375 36.26875Q92.3625 36.26875 93.01875 35.878124Q93.69063 35.4875 94.19063 34.846874L95.28438 35.70625Q93.95625 37.753124 91.3 37.753124ZM91.08125 28.26875Q89.9875 28.26875 89.2375 29.065624Q88.50313 29.8625 88.33125 31.3L93.6125 31.3L93.6125 31.159374Q93.53438 29.784374 92.8625 29.034374Q92.20625 28.26875 91.08125 28.26875ZM99.62813 26.9875L99.69063 28.315624Q100.89375 26.784374 102.84688 26.784374Q106.20625 26.784374 106.22188 30.565624L106.22188 37.55L104.425 37.55L104.425 30.55Q104.40938 29.409374 103.89375 28.8625Q103.39375 28.315624 102.3 28.315624Q101.425 28.315624 100.75313 28.784374Q100.09688 29.253124 99.72188 30.01875L99.72188 37.55L97.925 37.55L97.925 26.9875L99.62813 26.9875ZM115.06563 34.753124Q115.06563 34.01875 114.51875 33.6125Q113.97188 33.20625 112.59688 32.909374Q111.22188 32.6125 110.40938 32.20625Q109.6125 31.8 109.22188 31.2375Q108.84688 30.659374 108.84688 29.878124Q108.84688 28.58125 109.94063 27.690624Q111.03438 26.784374 112.75313 26.784374Q114.55 26.784374 115.65938 27.721874Q116.78438 28.64375 116.78438 30.08125L114.95625 30.08125Q114.95625 29.346874 114.33125 28.815624Q113.70625 28.26875 112.75313 28.26875Q111.75313 28.26875 111.19063 28.70625Q110.64375 29.128124 110.64375 29.83125Q110.64375 30.471874 111.15938 30.815624Q111.675 31.14375 113.03438 31.45625Q114.39375 31.753124 115.22188 32.175Q116.06563 32.58125 116.47188 33.175Q116.87813 33.76875 116.87813 34.6125Q116.87813 36.034374 115.7375 36.89375Q114.6125 37.753124 112.8 37.753124Q111.53438 37.753124 110.55 37.3Q109.58125 36.846874 109.01875 36.05Q108.47188 35.2375 108.47188 34.3L110.28438 34.3Q110.33125 35.20625 111.00313 35.7375Q111.69063 36.26875 112.8 36.26875Q113.83125 36.26875 114.44063 35.8625Q115.06563 35.440624 115.06563 34.753124ZM120.87813 37.55L119.08125 37.55L119.08125 26.9875L120.87813 26.9875L120.87813 37.55ZM118.925 24.175Q118.925 23.7375 119.19063 23.440624Q119.47188 23.128124 119.9875 23.128124Q120.51875 23.128124 120.78438 23.440624Q121.06563 23.7375 121.06563 24.175Q121.06563 24.6125 120.78438 24.909374Q120.51875 25.20625 119.9875 25.20625Q119.47188 25.20625 119.19063 24.909374Q118.925 24.6125 118.925 24.175ZM127.40938 35.096874L130.01875 26.9875L131.8625 26.9875L128.08125 37.55L126.70625 37.55L122.87813 26.9875L124.72188 26.9875L127.40938 35.096874ZM138.3 37.753124Q136.15938 37.753124 134.8 36.346874Q133.45625 34.925 133.45625 32.565624L133.45625 32.221874Q133.45625 30.659374 134.05 29.425Q134.65938 28.190624 135.7375 27.4875Q136.81563 26.784374 138.08125 26.784374Q140.14375 26.784374 141.28438 28.14375Q142.425 29.503124 142.425 32.034374L142.425 32.784374L135.26875 32.784374Q135.3 34.346874 136.175 35.315624Q137.05 36.26875 138.39375 36.26875Q139.3625 36.26875 140.01875 35.878124Q140.69063 35.4875 141.19063 34.846874L142.28438 35.70625Q140.95625 37.753124 138.3 37.753124ZM138.08125 28.26875Q136.9875 28.26875 136.2375 29.065624Q135.50313 29.8625 135.33125 31.3L140.6125 31.3L140.6125 31.159374Q140.53438 29.784374 139.8625 29.034374Q139.20625 28.26875 138.08125 28.26875ZM152.3625 24.425L152.3625 26.9875L154.34688 26.9875L154.34688 28.378124L152.3625 28.378124L152.3625 34.925Q152.3625 35.565624 152.62813 35.89375Q152.89375 36.20625 153.53438 36.20625Q153.84688 36.20625 154.39375 36.08125L154.39375 37.55Q153.675 37.753124 153.00313 37.753124Q151.8 37.753124 151.175 37.01875Q150.56563 36.284374 150.56563 34.925L150.56563 28.378124L148.64375 28.378124L148.64375 26.9875L150.56563 26.9875L150.56563 24.425L152.3625 24.425ZM158.87813 37.55L157.08125 37.55L157.08125 26.9875L158.87813 26.9875L158.87813 37.55ZM156.925 24.175Q156.925 23.7375 157.19063 23.440624Q157.47188 23.128124 157.9875 23.128124Q158.51875 23.128124 158.78438 23.440624Q159.06563 23.7375 159.06563 24.175Q159.06563 24.6125 158.78438 24.909374Q158.51875 25.20625 157.9875 25.20625Q157.47188 25.20625 157.19063 24.909374Q156.925 24.6125 156.925 24.175ZM163.6125 26.9875L163.65938 28.159374Q164.83125 26.784374 166.8 26.784374Q169.01875 26.784374 169.81563 28.4875Q170.34688 27.721874 171.19063 27.253124Q172.03438 26.784374 173.19063 26.784374Q176.65938 26.784374 176.72188 30.471874L176.72188 37.55L174.90938 37.55L174.90938 30.58125Q174.90938 29.440624 174.39375 28.878124Q173.87813 28.315624 172.65938 28.315624Q171.65938 28.315624 170.9875 28.925Q170.33125 29.51875 170.22188 30.534374L170.22188 37.55L168.40938 37.55L168.40938 30.628124Q168.40938 28.315624 166.14375 28.315624Q164.3625 28.315624 163.72188 29.83125L163.72188 37.55L161.90938 37.55L161.90938 26.9875L163.6125 26.9875ZM184.3 37.753124Q182.15938 37.753124 180.8 36.346874Q179.45625 34.925 179.45625 32.565624L179.45625 32.221874Q179.45625 30.659374 180.05 29.425Q180.65938 28.190624 181.7375 27.4875Q182.81563 26.784374 184.08125 26.784374Q186.14375 26.784374 187.28438 28.14375Q188.425 29.503124 188.425 32.034374L188.425 32.784374L181.26875 32.784374Q181.3 34.346874 182.175 35.315624Q183.05 36.26875 184.39375 36.26875Q185.3625 36.26875 186.01875 35.878124Q186.69063 35.4875 187.19063 34.846874L188.28438 35.70625Q186.95625 37.753124 184.3 37.753124ZM184.08125 28.26875Q182.9875 28.26875 182.2375 29.065624Q181.50313 29.8625 181.33125 31.3L186.6125 31.3L186.6125 31.159374Q186.53438 29.784374 185.8625 29.034374Q185.20625 28.26875 184.08125 28.26875ZM204.84688 32.378124Q204.84688 34.8 203.7375 36.284374Q202.64375 37.753124 200.75313 37.753124Q198.83125 37.753124 197.72188 36.51875L197.72188 41.6125L195.925 41.6125L195.925 26.9875L197.56563 26.9875L197.65938 28.159374Q198.75313 26.784374 200.72188 26.784374Q202.62813 26.784374 203.7375 28.221874Q204.84688 29.659374 204.84688 32.221874L204.84688 32.378124ZM203.03438 32.175Q203.03438 30.39375 202.26875 29.3625Q201.51875 28.315624 200.19063 28.315624Q198.55 28.315624 197.72188 29.76875L197.72188 34.83125Q198.53438 36.26875 200.20625 36.26875Q201.50313 36.26875 202.26875 35.2375Q203.03438 34.20625 203.03438 32.175ZM211.3 37.753124Q209.15938 37.753124 207.8 36.346874Q206.45625 34.925 206.45625 32.565624L206.45625 32.221874Q206.45625 30.659374 207.05 29.425Q207.65938 28.190624 208.7375 27.4875Q209.81563 26.784374 211.08125 26.784374Q213.14375 26.784374 214.28438 28.14375Q215.425 29.503124 215.425 32.034374L215.425 32.784374L208.26875 32.784374Q208.3 34.346874 209.175 35.315624Q210.05 36.26875 211.39375 36.26875Q212.3625 36.26875 213.01875 35.878124Q213.69063 35.4875 214.19063 34.846874L215.28438 35.70625Q213.95625 37.753124 211.3 37.753124ZM211.08125 28.26875Q209.9875 28.26875 209.2375 29.065624Q208.50313 29.8625 208.33125 31.3L213.6125 31.3L213.6125 31.159374Q213.53438 29.784374 212.8625 29.034374Q212.20625 28.26875 211.08125 28.26875ZM223.01875 28.596874Q222.6125 28.534374 222.14375 28.534374Q220.3625 28.534374 219.72188 30.05L219.72188 37.55L217.925 37.55L217.925 26.9875L219.675 26.9875L219.70625 28.20625Q220.59688 26.784374 222.22188 26.784374Q222.75313 26.784374 223.01875 26.925L223.01875 28.596874ZM235.01875 28.596874Q234.6125 28.534374 234.14375 28.534374Q232.3625 28.534374 231.72188 30.05L231.72188 37.55L229.925 37.55L229.925 26.9875L231.675 26.9875L231.70625 28.20625Q232.59688 26.784374 234.22188 26.784374Q234.75313 26.784374 235.01875 26.925L235.01875 28.596874ZM241.3 37.753124Q239.15938 37.753124 237.8 36.346874Q236.45625 34.925 236.45625 32.565624L236.45625 32.221874Q236.45625 30.659374 237.05 29.425Q237.65938 28.190624 238.7375 27.4875Q239.81563 26.784374 241.08125 26.784374Q243.14375 26.784374 244.28438 28.14375Q245.425 29.503124 245.425 32.034374L245.425 32.784374L238.26875 32.784374Q238.3 34.346874 239.175 35.315624Q240.05 36.26875 241.39375 36.26875Q242.3625 36.26875 243.01875 35.878124Q243.69063 35.4875 244.19063 34.846874L245.28438 35.70625Q243.95625 37.753124 241.3 37.753124ZM241.08125 28.26875Q239.9875 28.26875 239.2375 29.065624Q238.50313 29.8625 238.33125 31.3L243.6125 31.3L243.6125 31.159374Q243.53438 29.784374 242.8625 29.034374Q242.20625 28.26875 241.08125 28.26875ZM247.47188 32.175Q247.47188 29.690624 248.6125 28.2375Q249.76875 26.784374 251.69063 26.784374Q253.56563 26.784374 254.64375 28.05L254.72188 26.9875L256.3781 26.9875L256.3781 41.6125L254.58125 41.6125L254.58125 36.565624Q253.4875 37.753124 251.675 37.753124Q249.75313 37.753124 248.6125 36.26875Q247.47188 34.76875 247.47188 32.3L247.47188 32.175ZM249.28438 32.378124Q249.28438 34.20625 250.05 35.2375Q250.81563 36.26875 252.1125 36.26875Q253.72188 36.26875 254.58125 34.846874L254.58125 29.675Q253.72188 28.26875 252.14375 28.26875Q250.83125 28.26875 250.05 29.315624Q249.28438 30.346874 249.28438 32.378124ZM265.4406 36.503124Q264.39374 37.753124 262.34686 37.753124Q260.65936 37.753124 259.76874 36.76875Q258.89374 35.784374 258.8781 33.8625L258.8781 26.9875L260.6906 26.9875L260.6906 33.815624Q260.6906 36.20625 262.64374 36.20625Q264.70624 36.20625 265.39374 34.675L265.39374 26.9875L267.20624 26.9875L267.20624 37.55L265.4875 37.55L265.4406 36.503124ZM274.3 37.753124Q272.15936 37.753124 270.8 36.346874Q269.45624 34.925 269.45624 32.565624L269.45624 32.221874Q269.45624 30.659374 270.05 29.425Q270.65936 28.190624 271.7375 27.4875Q272.8156 26.784374 274.08124 26.784374Q276.14374 26.784374 277.28436 28.14375Q278.425 29.503124 278.425 32.034374L278.425 32.784374L271.26874 32.784374Q271.3 34.346874 272.175 35.315624Q273.05 36.26875 274.39374 36.26875Q275.3625 36.26875 276.01874 35.878124Q276.6906 35.4875 277.1906 34.846874L278.28436 35.70625Q276.95624 37.753124 274.3 37.753124ZM274.08124 28.26875Q272.9875 28.26875 272.2375 29.065624Q271.5031 29.8625 271.33124 31.3L276.6125 31.3L276.6125 31.159374Q276.53436 29.784374 275.8625 29.034374Q275.20624 28.26875 274.08124 28.26875ZM287.0656 34.753124Q287.0656 34.01875 286.51874 33.6125Q285.97186 33.20625 284.59686 32.909374Q283.22186 32.6125 282.40936 32.20625Q281.6125 31.8 281.22186 31.2375Q280.84686 30.659374 280.84686 29.878124Q280.84686 28.58125 281.9406 27.690624Q283.03436 26.784374 284.7531 26.784374Q286.55 26.784374 287.65936 27.721874Q288.78436 28.64375 288.78436 30.08125L286.95624 30.08125Q286.95624 29.346874 286.33124 28.815624Q285.70624 28.26875 284.7531 28.26875Q283.7531 28.26875 283.1906 28.70625Q282.64374 29.128124 282.64374 29.83125Q282.64374 30.471874 283.15936 30.815624Q283.675 31.14375 285.03436 31.45625Q286.39374 31.753124 287.22186 32.175Q288.0656 32.58125 288.47186 33.175Q288.8781 33.76875 288.8781 34.6125Q288.8781 36.034374 287.7375 36.89375Q286.6125 37.753124 284.8 37.753124Q283.53436 37.753124 282.55 37.3Q281.58124 36.846874 281.01874 36.05Q280.47186 35.2375 280.47186 34.3L282.28436 34.3Q282.33124 35.20625 283.0031 35.7375Q283.6906 36.26875 284.8 36.26875Q285.83124 36.26875 286.4406 35.8625Q287.0656 35.440624 287.0656 34.753124ZM293.3625 24.425L293.3625 26.9875L295.34686 26.9875L295.34686 28.378124L293.3625 28.378124L293.3625 34.925Q293.3625 35.565624 293.6281 35.89375Q293.89374 36.20625 294.53436 36.20625Q294.84686 36.20625 295.39374 36.08125L295.39374 37.55Q294.675 37.753124 294.0031 37.753124Q292.8 37.753124 292.175 37.01875Q291.5656 36.284374 291.5656 34.925L291.5656 28.378124L289.64374 28.378124L289.64374 26.9875L291.5656 26.9875L291.5656 24.425L293.3625 24.425Z" fill-rule="nonzero"/></svg>