<svg version="1.1" viewBox="0.0 0.0 600.0 371.0" fill="none" stroke="none" stroke-linecap="square" stroke-miterlimit="10" width="600" height="371" xmlns:xlink="http://www.w3.org/1999/xlink" xmlns="http://www.w3.org/2000/svg"><path fill="#ffffff" d="M0 0L600.0 0L600.0 371.0L0 371.0L0 0Z" fill-rule="nonzero"/><path stroke="#333333" stroke-width="1.0" stroke-linecap="butt" d="M85.5 298.5L581.5 298.5" fill-rule="nonzero"/><path stroke="#cccccc" stroke-width="1.0" stroke-linecap="butt" d="M85.5 246.5L581.5 246.5" fill-rule="nonzero"/><path stroke="#cccccc" stroke-width="1.0" stroke-linecap="butt" d="M85.5 194.5L581.5 194.5" fill-rule="nonzero"/><path stroke="#cccccc" stroke-width="1.0" stroke-linecap="butt" d="M85.5 141.5L581.5 141.5" fill-rule="nonzero"/><path stroke="#cccccc" stroke-width="1.0" stroke-linecap="butt" d="M85.5 89.5L581.5 89.5" fill-rule="nonzero"/><clipPath id="id_0"><path d="M85.55 89.78333L581.45 89.78333L581.45 298.45L85.55 298.45L85.55 89.78333Z" clip-rule="nonzero"/></clipPath><path stroke="#000000" stroke-width="0.0" stroke-linecap="butt" stroke-opacity="0.0" clip-path="url(#id_0)" d="M147.0 298.0L118.0 298.0L118.0 294.0C118.0 292.89542 118.89543 292.0 120.0 292.0L145.0 292.0C146.10457 292.0 147.0 292.89542 147.0 294.0Z" fill-rule="nonzero"/><path fill="#34a853" clip-path="url(#id_0)" d="M147.0 298.0L118.0 298.0L118.0 294.0C118.0 292.89542 118.89543 292.0 120.0 292.0L145.0 292.0C146.10457 292.0 147.0 292.89542 147.0 294.0Z" fill-rule="nonzero"/><path stroke="#000000" stroke-width="0.0" stroke-linecap="butt" stroke-opacity="0.0" clip-path="url(#id_0)" d="M240.0 298.0L211.0 298.0L211.0 294.0C211.0 292.89542 211.89543 292.0 213.0 292.0L238.0 292.0C239.10457 292.0 240.0 292.89542 240.0 294.0Z" fill-rule="nonzero"/><path fill="#34a853" clip-path="url(#id_0)" d="M240.0 298.0L211.0 298.0L211.0 294.0C211.0 292.89542 211.89543 292.0 213.0 292.0L238.0 292.0C239.10457 292.0 240.0 292.89542 240.0 294.0Z" fill-rule="nonzero"/><path stroke="#000000" stroke-width="0.0" stroke-linecap="butt" stroke-opacity="0.0" clip-path="url(#id_0)" d="M333.0 298.0L304.0 298.0L304.0 294.0C304.0 292.89542 304.89542 292.0 306.0 292.0L331.0 292.0C332.10458 292.0 333.0 292.89542 333.0 294.0Z" fill-rule="nonzero"/><path fill="#34a853" clip-path="url(#id_0)" d="M333.0 298.0L304.0 298.0L304.0 294.0C304.0 292.89542 304.89542 292.0 306.0 292.0L331.0 292.0C332.10458 292.0 333.0 292.89542 333.0 294.0Z" fill-rule="nonzero"/><path stroke="#000000" stroke-width="0.0" stroke-linecap="butt" stroke-opacity="0.0" clip-path="url(#id_0)" d="M425.0 298.0L396.0 298.0L396.0 268.0C396.0 266.89542 396.89542 266.0 398.0 266.0L423.0 266.0C424.10458 266.0 425.0 266.89542 425.0 268.0Z" fill-rule="nonzero"/><path fill="#34a853" clip-path="url(#id_0)" d="M425.0 298.0L396.0 298.0L396.0 268.0C396.0 266.89542 396.89542 266.0 398.0 266.0L423.0 266.0C424.10458 266.0 425.0 266.89542 425.0 268.0Z" fill-rule="nonzero"/><path stroke="#000000" stroke-width="0.0" stroke-linecap="butt" stroke-opacity="0.0" clip-path="url(#id_0)" d="M518.0 298.0L489.0 298.0L489.0 267.0C489.0 265.89542 489.89542 265.0 491.0 265.0L516.0 265.0C517.10455 265.0 518.0 265.89542 518.0 267.0Z" fill-rule="nonzero"/><path fill="#34a853" clip-path="url(#id_0)" d="M518.0 298.0L489.0 298.0L489.0 267.0C489.0 265.89542 489.89542 265.0 491.0 265.0L516.0 265.0C517.10455 265.0 518.0 265.89542 518.0 267.0Z" fill-rule="nonzero"/><path stroke="#000000" stroke-width="0.0" stroke-linecap="butt" stroke-opacity="0.0" clip-path="url(#id_0)" d="M177.0 298.0L148.0 298.0L148.0 275.0C148.0 273.89542 148.89543 273.0 150.0 273.0L175.0 273.0C176.10457 273.0 177.0 273.89542 177.0 275.0Z" fill-rule="nonzero"/><path fill="#4285f4" clip-path="url(#id_0)" d="M177.0 298.0L148.0 298.0L148.0 275.0C148.0 273.89542 148.89543 273.0 150.0 273.0L175.0 273.0C176.10457 273.0 177.0 273.89542 177.0 275.0Z" fill-rule="nonzero"/><path stroke="#000000" stroke-width="0.0" stroke-linecap="butt" stroke-opacity="0.0" clip-path="url(#id_0)" d="M270.0 298.0L241.0 298.0L241.0 254.0C241.0 252.89543 241.89543 252.0 243.0 252.0L268.0 252.0C269.10458 252.0 270.0 252.89543 270.0 254.0Z" fill-rule="nonzero"/><path fill="#4285f4" clip-path="url(#id_0)" d="M270.0 298.0L241.0 298.0L241.0 254.0C241.0 252.89543 241.89543 252.0 243.0 252.0L268.0 252.0C269.10458 252.0 270.0 252.89543 270.0 254.0Z" fill-rule="nonzero"/><path stroke="#000000" stroke-width="0.0" stroke-linecap="butt" stroke-opacity="0.0" clip-path="url(#id_0)" d="M363.0 298.0L334.0 298.0L334.0 168.0C334.0 166.89543 334.89542 166.0 336.0 166.0L361.0 166.0C362.10458 166.0 363.0 166.89543 363.0 168.0Z" fill-rule="nonzero"/><path fill="#4285f4" clip-path="url(#id_0)" d="M363.0 298.0L334.0 298.0L334.0 168.0C334.0 166.89543 334.89542 166.0 336.0 166.0L361.0 166.0C362.10458 166.0 363.0 166.89543 363.0 168.0Z" fill-rule="nonzero"/><path stroke="#000000" stroke-width="0.0" stroke-linecap="butt" stroke-opacity="0.0" clip-path="url(#id_0)" d="M455.0 298.0L426.0 298.0L426.0 95.0C426.0 93.89543 426.89542 93.0 428.0 93.0L453.0 93.0C454.10458 93.0 455.0 93.89543 455.0 95.0Z" fill-rule="nonzero"/><path fill="#4285f4" clip-path="url(#id_0)" d="M455.0 298.0L426.0 298.0L426.0 95.0C426.0 93.89543 426.89542 93.0 428.0 93.0L453.0 93.0C454.10458 93.0 455.0 93.89543 455.0 95.0Z" fill-rule="nonzero"/><path stroke="#000000" stroke-width="0.0" stroke-linecap="butt" stroke-opacity="0.0" clip-path="url(#id_0)" d="M548.0 298.0L519.0 298.0L519.0 95.0C519.0 93.89543 519.89545 93.0 521.0 93.0L546.0 93.0C547.10455 93.0 548.0 93.89543 548.0 95.0Z" fill-rule="nonzero"/><path fill="#4285f4" clip-path="url(#id_0)" d="M548.0 298.0L519.0 298.0L519.0 95.0C519.0 93.89543 519.89545 93.0 521.0 93.0L546.0 93.0C547.10455 93.0 548.0 93.89543 548.0 95.0Z" fill-rule="nonzero"/><path fill="#000000" d="M293.45312 346.60626Q293.35938 347.98126 292.4375 348.77814Q291.53125 349.575 290.03125 349.575Q288.39062 349.575 287.4375 348.46564Q286.5 347.35626 286.5 345.4344L286.5 344.90314Q286.5 343.6844 286.9375 342.7469Q287.375 341.8094 288.17188 341.3094Q288.98438 340.79376 290.04688 340.79376Q291.53125 340.79376 292.42188 341.59064Q293.32812 342.3875 293.46875 343.8094L291.71875 343.8094Q291.65625 342.98126 291.25 342.6219Q290.85938 342.2469 290.04688 342.2469Q289.17188 342.2469 288.73438 342.8719Q288.29688 343.4969 288.28125 344.825L288.28125 345.46564Q288.28125 346.85626 288.70312 347.4969Q289.125 348.1375 290.03125 348.1375Q290.84375 348.1375 291.23438 347.7625Q291.64062 347.3875 291.70312 346.60626L293.45312 346.60626ZM294.39062 346.21564Q294.39062 345.27814 294.75 344.54376Q295.10938 343.79376 295.79688 343.40314Q296.48438 342.9969 297.375 342.9969Q298.67188 342.9969 299.46875 343.77814Q300.28125 344.5594 300.375 345.90314L300.39062 346.34064Q300.39062 347.8094 299.57812 348.7Q298.76562 349.575 297.39062 349.575Q296.01562 349.575 295.20312 348.7Q294.39062 347.8094 294.39062 346.29376L294.39062 346.21564ZM296.07812 346.34064Q296.07812 347.2469 296.42188 347.73126Q296.76562 348.2 297.39062 348.2Q298.01562 348.2 298.35938 347.73126Q298.70312 347.2625 298.70312 346.21564Q298.70312 345.34064 298.35938 344.85626Q298.01562 344.35626 297.375 344.35626Q296.76562 344.35626 296.42188 344.84064Q296.07812 345.325 296.07812 346.34064ZM303.20312 343.10626L303.26562 343.84064Q303.9375 342.9969 305.07812 342.9969Q306.09375 342.9969 306.57812 343.59064Q307.07812 344.16876 307.09375 345.35626L307.09375 349.45L305.39062 349.45L305.39062 345.3875Q305.39062 344.85626 305.15625 344.6219Q304.92188 344.3719 304.375 344.3719Q303.67188 344.3719 303.3125 344.98126L303.3125 349.45L301.60938 349.45L301.60938 343.10626L303.20312 343.10626ZM311.28125 348.2Q311.75 348.2 312.04688 347.95Q312.34375 347.6844 312.35938 347.2625L313.9375 347.2625Q313.9375 347.90314 313.59375 348.45Q313.25 348.98126 312.64062 349.27814Q312.04688 349.575 311.3125 349.575Q309.95312 349.575 309.17188 348.71564Q308.39062 347.84064 308.39062 346.3094L308.39062 346.2Q308.39062 344.73126 309.17188 343.8719Q309.95312 342.9969 311.3125 342.9969Q312.5 342.9969 313.21875 343.66876Q313.9375 344.34064 313.9375 345.46564L312.35938 345.46564Q312.34375 344.98126 312.04688 344.66876Q311.75 344.35626 311.28125 344.35626Q310.6875 344.35626 310.375 344.79376Q310.07812 345.23126 310.07812 346.1844L310.07812 346.3719Q310.07812 347.34064 310.375 347.77814Q310.67188 348.2 311.28125 348.2ZM318.45312 348.8094Q317.82812 349.575 316.71875 349.575Q315.6875 349.575 315.15625 348.98126Q314.625 348.3875 314.60938 347.2625L314.60938 343.10626L316.29688 343.10626L316.29688 347.2Q316.29688 348.2 317.20312 348.2Q318.0625 348.2 318.39062 347.59064L318.39062 343.10626L320.09375 343.10626L320.09375 349.45L318.5 349.45L318.45312 348.8094ZM325.21875 344.7Q324.875 344.65314 324.60938 344.65314Q323.64062 344.65314 323.34375 345.29376L323.34375 349.45L321.65625 349.45L321.65625 343.10626L323.25 343.10626L323.29688 343.8719Q323.8125 342.9969 324.70312 342.9969Q324.98438 342.9969 325.23438 343.075L325.21875 344.7ZM329.21875 344.7Q328.875 344.65314 328.60938 344.65314Q327.64062 344.65314 327.34375 345.29376L327.34375 349.45L325.65625 349.45L325.65625 343.10626L327.25 343.10626L327.29688 343.8719Q327.8125 342.9969 328.70312 342.9969Q328.98438 342.9969 329.23438 343.075L329.21875 344.7ZM332.5625 349.575Q331.17188 349.575 330.29688 348.71564Q329.42188 347.85626 329.42188 346.4344L329.42188 346.2625Q329.42188 345.3094 329.78125 344.5594Q330.15625 343.8094 330.82812 343.40314Q331.51562 342.9969 332.375 342.9969Q333.6875 342.9969 334.42188 343.825Q335.17188 344.6375 335.17188 346.1375L335.17188 346.825L331.14062 346.825Q331.21875 347.45 331.625 347.825Q332.04688 348.2 332.6875 348.2Q333.65625 348.2 334.20312 347.4969L335.04688 348.41876Q334.65625 348.96564 334.0 349.27814Q333.35938 349.575 332.5625 349.575ZM332.375 344.35626Q331.875 344.35626 331.5625 344.7Q331.25 345.04376 331.15625 345.66876L333.51562 345.66876L333.51562 345.54376Q333.5 344.98126 333.20312 344.66876Q332.92188 344.35626 332.375 344.35626ZM337.20312 343.10626L337.26562 343.84064Q337.9375 342.9969 339.07812 342.9969Q340.09375 342.9969 340.57812 343.59064Q341.07812 344.16876 341.09375 345.35626L341.09375 349.45L339.39062 349.45L339.39062 345.3875Q339.39062 344.85626 339.15625 344.6219Q338.92188 344.3719 338.375 344.3719Q337.67188 344.3719 337.3125 344.98126L337.3125 349.45L335.60938 349.45L335.60938 343.10626L337.20312 343.10626ZM345.28125 348.2Q345.75 348.2 346.04688 347.95Q346.34375 347.6844 346.35938 347.2625L347.9375 347.2625Q347.9375 347.90314 347.59375 348.45Q347.25 348.98126 346.64062 349.27814Q346.04688 349.575 345.3125 349.575Q343.95312 349.575 343.17188 348.71564Q342.39062 347.84064 342.39062 346.3094L342.39062 346.2Q342.39062 344.73126 343.17188 343.8719Q343.95312 342.9969 345.3125 342.9969Q346.5 342.9969 347.21875 343.66876Q347.9375 344.34064 347.9375 345.46564L346.35938 345.46564Q346.34375 344.98126 346.04688 344.66876Q345.75 344.35626 345.28125 344.35626Q344.6875 344.35626 344.375 344.79376Q344.07812 345.23126 344.07812 346.1844L344.07812 346.3719Q344.07812 347.34064 344.375 347.77814Q344.67188 348.2 345.28125 348.2ZM351.01562 347.0594L352.1875 343.10626L354.0 343.10626L351.45312 350.4344L351.3125 350.7625Q350.75 352.0125 349.4375 352.0125Q349.07812 352.0125 348.6875 351.90314L348.6875 350.6219L348.95312 350.6219Q349.4375 350.6219 349.67188 350.46564Q349.90625 350.325 350.04688 349.9969L350.23438 349.46564L348.01562 343.10626L349.84375 343.10626L351.01562 347.0594ZM359.4375 349.45L357.73438 349.45L357.73438 340.45L359.4375 340.45L359.4375 349.45ZM363.5625 349.575Q362.17188 349.575 361.29688 348.71564Q360.42188 347.85626 360.42188 346.4344L360.42188 346.2625Q360.42188 345.3094 360.78125 344.5594Q361.15625 343.8094 361.82812 343.40314Q362.51562 342.9969 363.375 342.9969Q364.6875 342.9969 365.42188 343.825Q366.17188 344.6375 366.17188 346.1375L366.17188 346.825L362.14062 346.825Q362.21875 347.45 362.625 347.825Q363.04688 348.2 363.6875 348.2Q364.65625 348.2 365.20312 347.4969L366.04688 348.41876Q365.65625 348.96564 365.0 349.27814Q364.35938 349.575 363.5625 349.575ZM363.375 344.35626Q362.875 344.35626 362.5625 344.7Q362.25 345.04376 362.15625 345.66876L364.51562 345.66876L364.51562 345.54376Q364.5 344.98126 364.20312 344.66876Q363.92188 344.35626 363.375 344.35626ZM369.03125 347.3875L370.20312 343.10626L371.96875 343.10626L369.82812 349.45L368.21875 349.45L366.07812 343.10626L367.84375 343.10626L369.03125 347.3875ZM375.5625 349.575Q374.17188 349.575 373.29688 348.71564Q372.42188 347.85626 372.42188 346.4344L372.42188 346.2625Q372.42188 345.3094 372.78125 344.5594Q373.15625 343.8094 373.82812 343.40314Q374.51562 342.9969 375.375 342.9969Q376.6875 342.9969 377.42188 343.825Q378.17188 344.6375 378.17188 346.1375L378.17188 346.825L374.14062 346.825Q374.21875 347.45 374.625 347.825Q375.04688 348.2 375.6875 348.2Q376.65625 348.2 377.20312 347.4969L378.04688 348.41876Q377.65625 348.96564 377.0 349.27814Q376.35938 349.575 375.5625 349.575ZM375.375 344.35626Q374.875 344.35626 374.5625 344.7Q374.25 345.04376 374.15625 345.66876L376.51562 345.66876L376.51562 345.54376Q376.5 344.98126 376.20312 344.66876Q375.92188 344.35626 375.375 344.35626ZM380.4375 349.45L378.73438 349.45L378.73438 340.45L380.4375 340.45L380.4375 349.45Z" fill-rule="nonzero"/><path fill="#000000" d="M29.143763 268.35104L29.143763 264.61667L30.550013 264.61667L30.550013 270.10104L22.018763 270.10104L22.018763 268.35104L29.143763 268.35104ZM27.315638 263.47604Q26.378138 263.47604 25.643763 263.11667Q24.893763 262.7573 24.503138 262.0698Q24.096888 261.3823 24.096888 260.49167Q24.096888 259.1948 24.878138 258.39792Q25.659388 257.58542 27.003138 257.49167L27.440638 257.47604Q28.909388 257.47604 29.800013 258.28854Q30.675013 259.10104 30.675013 260.47604Q30.675013 261.85104 29.800013 262.66354Q28.909388 263.47604 27.393763 263.47604L27.315638 263.47604ZM27.440638 261.78854Q28.346888 261.78854 28.831263 261.4448Q29.300013 261.10104 29.300013 260.47604Q29.300013 259.85104 28.831263 259.5073Q28.362513 259.16354 27.315638 259.16354Q26.440638 259.16354 25.956263 259.5073Q25.456263 259.85104 25.456263 260.49167Q25.456263 261.10104 25.940638 261.4448Q26.425013 261.78854 27.440638 261.78854ZM24.206263 254.66354L24.940638 254.60104Q24.096888 253.92917 24.096888 252.78854Q24.096888 251.77292 24.690638 251.28854Q25.268763 250.78854 26.456263 250.77292L30.550013 250.77292L30.550013 252.47604L26.487513 252.47604Q25.956263 252.47604 25.721888 252.71042Q25.471888 252.9448 25.471888 253.49167Q25.471888 254.1948 26.081263 254.55417L30.550013 254.55417L30.550013 256.2573L24.206263 256.2573L24.206263 254.66354ZM27.331263 249.46042Q25.878138 249.46042 24.987513 248.77292Q24.096888 248.0698 24.096888 246.89792Q24.096888 245.85104 24.800013 245.27292L24.206263 245.1948L24.206263 243.66354L30.331263 243.66354Q31.175013 243.66354 31.784388 244.05417Q32.409386 244.42917 32.721886 245.11667Q33.05001 245.78854 33.05001 246.71042Q33.05001 247.41354 32.76876 248.08542Q32.48751 248.74167 32.05001 249.0698L31.018763 248.3198Q31.721888 247.6948 31.721888 246.78854Q31.721888 246.11667 31.362513 245.74167Q31.003138 245.36667 30.346888 245.36667L30.003138 245.36667Q30.675013 245.9448 30.675013 246.91354Q30.675013 248.05417 29.784388 248.7573Q28.878138 249.46042 27.409388 249.46042L27.331263 249.46042ZM27.456263 247.77292Q28.315638 247.77292 28.815638 247.42917Q29.300013 247.0698 29.300013 246.47604Q29.300013 245.6948 28.721888 245.36667L26.050013 245.36667Q25.471888 245.71042 25.471888 246.46042Q25.471888 247.0698 25.971888 247.42917Q26.471888 247.77292 27.456263 247.77292ZM30.675013 239.30417Q30.675013 240.6948 29.815638 241.5698Q28.956263 242.4448 27.534388 242.4448L27.362513 242.4448Q26.409388 242.4448 25.659388 242.08542Q24.909388 241.71042 24.503138 241.03854Q24.096888 240.35104 24.096888 239.49167Q24.096888 238.17917 24.925013 237.4448Q25.737513 236.6948 27.237513 236.6948L27.925013 236.6948L27.925013 240.72604Q28.550013 240.64792 28.925013 240.24167Q29.300013 239.8198 29.300013 239.17917Q29.300013 238.21042 28.596888 237.66354L29.518763 236.8198Q30.065638 237.21042 30.378138 237.86667Q30.675013 238.5073 30.675013 239.30417ZM25.456263 239.49167Q25.456263 239.99167 25.800013 240.30417Q26.143763 240.61667 26.768763 240.71042L26.768763 238.35104L26.643763 238.35104Q26.081263 238.36667 25.768763 238.66354Q25.456263 238.9448 25.456263 239.49167ZM28.800013 232.78854Q28.487513 232.78854 28.315638 233.10104Q28.128138 233.39792 27.987513 234.0698Q27.518763 236.33542 26.065638 236.33542Q25.221888 236.33542 24.659388 235.64792Q24.096888 234.9448 24.096888 233.80417Q24.096888 232.60104 24.659388 231.8823Q25.221888 231.14792 26.143763 231.14792L26.143763 232.85104Q25.768763 232.85104 25.534388 233.08542Q25.300013 233.3198 25.300013 233.8198Q25.300013 234.24167 25.503138 234.47604Q25.690638 234.71042 25.987513 234.71042Q26.268763 234.71042 26.440638 234.4448Q26.612513 234.17917 26.737513 233.55417Q26.862513 232.91354 27.018763 232.47604Q27.518763 231.1323 28.721888 231.1323Q29.596888 231.1323 30.143763 231.8823Q30.675013 232.61667 30.675013 233.80417Q30.675013 234.60104 30.393763 235.22604Q30.096888 235.83542 29.612513 236.1948Q29.112513 236.53854 28.534388 236.53854L28.534388 234.92917Q28.987513 234.91354 29.237513 234.60104Q29.471888 234.28854 29.471888 233.77292Q29.471888 233.27292 29.284388 233.03854Q29.096888 232.78854 28.800013 232.78854ZM22.643763 228.1948L24.206263 228.1948L24.206263 227.10104L25.456263 227.10104L25.456263 228.1948L28.612513 228.1948Q28.971888 228.1948 29.128138 228.05417Q29.268763 227.91354 29.268763 227.53854Q29.268763 227.2573 29.237513 227.03854L30.518763 227.03854Q30.675013 227.53854 30.675013 228.0698Q30.675013 229.85104 28.862513 229.8823L25.456263 229.8823L25.456263 230.80417L24.206263 230.80417L24.206263 229.8823L22.643763 229.8823L22.643763 228.1948ZM25.800013 219.64792Q25.753138 219.99167 25.753138 220.2573Q25.753138 221.22604 26.393763 221.52292L30.550013 221.52292L30.550013 223.21042L24.206263 223.21042L24.206263 221.61667L24.971888 221.5698Q24.096888 221.05417 24.096888 220.16354Q24.096888 219.8823 24.175013 219.6323L25.800013 219.64792ZM30.675013 216.30417Q30.675013 217.6948 29.815638 218.5698Q28.956263 219.4448 27.534388 219.4448L27.362513 219.4448Q26.409388 219.4448 25.659388 219.08542Q24.909388 218.71042 24.503138 218.03854Q24.096888 217.35104 24.096888 216.49167Q24.096888 215.17917 24.925013 214.4448Q25.737513 213.6948 27.237513 213.6948L27.925013 213.6948L27.925013 217.72604Q28.550013 217.64792 28.925013 217.24167Q29.300013 216.8198 29.300013 216.17917Q29.300013 215.21042 28.596888 214.66354L29.518763 213.8198Q30.065638 214.21042 30.378138 214.86667Q30.675013 215.5073 30.675013 216.30417ZM25.456263 216.49167Q25.456263 216.99167 25.800013 217.30417Q26.143763 217.61667 26.768763 217.71042L26.768763 215.35104L26.643763 215.35104Q26.081263 215.36667 25.768763 215.66354Q25.456263 215.9448 25.456263 216.49167ZM27.315638 213.47604Q25.831263 213.47604 24.971888 212.8198Q24.096888 212.14792 24.096888 210.99167Q24.096888 209.97604 24.878138 209.36667L24.206263 209.2573L24.206263 207.77292L32.98751 207.77292L32.98751 209.46042L30.003138 209.46042Q30.675013 210.05417 30.675013 211.0073Q30.675013 212.1323 29.800013 212.80417Q28.909388 213.47604 27.315638 213.47604ZM27.440638 211.78854Q28.346888 211.78854 28.831263 211.47604Q29.300013 211.14792 29.300013 210.5698Q29.300013 209.78854 28.675013 209.46042L26.065638 209.46042Q25.456263 209.78854 25.456263 210.55417Q25.456263 211.14792 25.940638 211.47604Q26.409388 211.78854 27.440638 211.78854ZM29.909388 202.41354Q30.675013 203.03854 30.675013 204.14792Q30.675013 205.17917 30.081263 205.71042Q29.487513 206.24167 28.362513 206.2573L24.206263 206.2573L24.206263 204.5698L28.300013 204.5698Q29.300013 204.5698 29.300013 203.66354Q29.300013 202.80417 28.690638 202.47604L24.206263 202.47604L24.206263 200.77292L30.550013 200.77292L30.550013 202.36667L29.909388 202.41354ZM30.675013 196.30417Q30.675013 197.6948 29.815638 198.5698Q28.956263 199.4448 27.534388 199.4448L27.362513 199.4448Q26.409388 199.4448 25.659388 199.08542Q24.909388 198.71042 24.503138 198.03854Q24.096888 197.35104 24.096888 196.49167Q24.096888 195.17917 24.925013 194.4448Q25.737513 193.6948 27.237513 193.6948L27.925013 193.6948L27.925013 197.72604Q28.550013 197.64792 28.925013 197.24167Q29.300013 196.8198 29.300013 196.17917Q29.300013 195.21042 28.596888 194.66354L29.518763 193.8198Q30.065638 194.21042 30.378138 194.86667Q30.675013 195.5073 30.675013 196.30417ZM25.456263 196.49167Q25.456263 196.99167 25.800013 197.30417Q26.143763 197.61667 26.768763 197.71042L26.768763 195.35104L26.643763 195.35104Q26.081263 195.36667 25.768763 195.66354Q25.456263 195.9448 25.456263 196.49167ZM28.800013 189.78854Q28.487513 189.78854 28.315638 190.10104Q28.128138 190.39792 27.987513 191.0698Q27.518763 193.33542 26.065638 193.33542Q25.221888 193.33542 24.659388 192.64792Q24.096888 191.9448 24.096888 190.80417Q24.096888 189.60104 24.659388 188.8823Q25.221888 188.14792 26.143763 188.14792L26.143763 189.85104Q25.768763 189.85104 25.534388 190.08542Q25.300013 190.3198 25.300013 190.8198Q25.300013 191.24167 25.503138 191.47604Q25.690638 191.71042 25.987513 191.71042Q26.268763 191.71042 26.440638 191.4448Q26.612513 191.17917 26.737513 190.55417Q26.862513 189.91354 27.018763 189.47604Q27.518763 188.1323 28.721888 188.1323Q29.596888 188.1323 30.143763 188.8823Q30.675013 189.61667 30.675013 190.80417Q30.675013 191.60104 30.393763 192.22604Q30.096888 192.83542 29.612513 193.1948Q29.112513 193.53854 28.534388 193.53854L28.534388 191.92917Q28.987513 191.91354 29.237513 191.60104Q29.471888 191.28854 29.471888 190.77292Q29.471888 190.27292 29.284388 190.03854Q29.096888 189.78854 28.800013 189.78854ZM22.643763 185.1948L24.206263 185.1948L24.206263 184.10104L25.456263 184.10104L25.456263 185.1948L28.612513 185.1948Q28.971888 185.1948 29.128138 185.05417Q29.268763 184.91354 29.268763 184.53854Q29.268763 184.2573 29.237513 184.03854L30.518763 184.03854Q30.675013 184.53854 30.675013 185.0698Q30.675013 186.85104 28.862513 186.8823L25.456263 186.8823L25.456263 187.80417L24.206263 187.80417L24.206263 186.8823L22.643763 186.8823L22.643763 185.1948ZM22.643763 178.1948L24.206263 178.1948L24.206263 177.10104L25.456263 177.10104L25.456263 178.1948L28.612513 178.1948Q28.971888 178.1948 29.128138 178.05417Q29.268763 177.91354 29.268763 177.53854Q29.268763 177.2573 29.237513 177.03854L30.518763 177.03854Q30.675013 177.53854 30.675013 178.0698Q30.675013 179.85104 28.862513 179.8823L25.456263 179.8823L25.456263 180.80417L24.206263 180.80417L24.206263 179.8823L22.643763 179.8823L22.643763 178.1948ZM30.550013 174.42917L30.550013 176.1323L24.206263 176.1323L24.206263 174.42917L30.550013 174.42917ZM22.565638 176.22604Q22.190638 176.22604 21.940638 175.97604Q21.690638 175.71042 21.690638 175.27292Q21.690638 174.85104 21.940638 174.60104Q22.190638 174.33542 22.565638 174.33542Q22.956263 174.33542 23.206263 174.60104Q23.440638 174.85104 23.440638 175.28854Q23.440638 175.71042 23.206263 175.97604Q22.956263 176.22604 22.565638 176.22604ZM24.206263 171.6323L24.925013 171.5698Q24.096888 170.89792 24.096888 169.7573Q24.096888 168.52292 25.065638 168.0698Q24.096888 167.39792 24.096888 166.16354Q24.096888 165.1323 24.706263 164.6323Q25.300013 164.1323 26.503138 164.1323L30.550013 164.1323L30.550013 165.8198L26.503138 165.8198Q25.971888 165.8198 25.721888 166.03854Q25.471888 166.24167 25.471888 166.78854Q25.471888 167.53854 26.190638 167.83542L30.550013 167.83542L30.550013 169.52292L26.518763 169.52292Q25.956263 169.52292 25.721888 169.74167Q25.471888 169.96042 25.471888 170.47604Q25.471888 171.1948 26.065638 171.52292L30.550013 171.52292L30.550013 173.21042L24.206263 173.21042L24.206263 171.6323ZM30.675013 160.30417Q30.675013 161.6948 29.815638 162.5698Q28.956263 163.4448 27.534388 163.4448L27.362513 163.4448Q26.409388 163.4448 25.659388 163.08542Q24.909388 162.71042 24.503138 162.03854Q24.096888 161.35104 24.096888 160.49167Q24.096888 159.17917 24.925013 158.4448Q25.737513 157.6948 27.237513 157.6948L27.925013 157.6948L27.925013 161.72604Q28.550013 161.64792 28.925013 161.24167Q29.300013 160.8198 29.300013 160.17917Q29.300013 159.21042 28.596888 158.66354L29.518763 157.8198Q30.065638 158.21042 30.378138 158.86667Q30.675013 159.5073 30.675013 160.30417ZM25.456263 160.49167Q25.456263 160.99167 25.800013 161.30417Q26.143763 161.61667 26.768763 161.71042L26.768763 159.35104L26.643763 159.35104Q26.081263 159.36667 25.768763 159.66354Q25.456263 159.9448 25.456263 160.49167ZM27.081263 154.1323Q25.737513 154.1323 24.534388 153.78854Q23.315638 153.42917 22.378138 152.72604Q21.440638 152.02292 21.081263 151.21042L21.987513 150.8823Q22.628138 151.74167 23.956263 152.22604Q25.268763 152.71042 27.050013 152.71042L27.221888 152.71042Q29.003138 152.71042 30.331263 152.24167Q31.659388 151.7573 32.315636 150.8823L33.221886 151.21042Q32.86251 152.0073 31.956263 152.6948Q31.050013 153.3823 29.862513 153.7573Q28.675013 154.11667 27.393763 154.1323L27.081263 154.1323ZM24.206263 148.6323L24.925013 148.5698Q24.096888 147.89792 24.096888 146.7573Q24.096888 145.52292 25.065638 145.0698Q24.096888 144.39792 24.096888 143.16354Q24.096888 142.1323 24.706263 141.6323Q25.300013 141.1323 26.503138 141.1323L30.550013 141.1323L30.550013 142.8198L26.503138 142.8198Q25.971888 142.8198 25.721888 143.03854Q25.471888 143.24167 25.471888 143.78854Q25.471888 144.53854 26.190638 144.83542L30.550013 144.83542L30.550013 146.52292L26.518763 146.52292Q25.956263 146.52292 25.721888 146.74167Q25.471888 146.96042 25.471888 147.47604Q25.471888 148.1948 26.065638 148.52292L30.550013 148.52292L30.550013 150.21042L24.206263 150.21042L24.206263 148.6323ZM28.800013 136.78854Q28.487513 136.78854 28.315638 137.10104Q28.128138 137.39792 27.987513 138.0698Q27.518763 140.33542 26.065638 140.33542Q25.221888 140.33542 24.659388 139.64792Q24.096888 138.9448 24.096888 137.80417Q24.096888 136.60104 24.659388 135.8823Q25.221888 135.14792 26.143763 135.14792L26.143763 136.85104Q25.768763 136.85104 25.534388 137.08542Q25.300013 137.3198 25.300013 137.8198Q25.300013 138.24167 25.503138 138.47604Q25.690638 138.71042 25.987513 138.71042Q26.268763 138.71042 26.440638 138.4448Q26.612513 138.17917 26.737513 137.55417Q26.862513 136.91354 27.018763 136.47604Q27.518763 135.1323 28.721888 135.1323Q29.596888 135.1323 30.143763 135.8823Q30.675013 136.61667 30.675013 137.80417Q30.675013 138.60104 30.393763 139.22604Q30.096888 139.83542 29.612513 140.1948Q29.112513 140.53854 28.534388 140.53854L28.534388 138.92917Q28.987513 138.91354 29.237513 138.60104Q29.471888 138.28854 29.471888 137.77292Q29.471888 137.27292 29.284388 137.03854Q29.096888 136.78854 28.800013 136.78854ZM27.221888 131.30417Q28.534388 131.30417 29.768763 131.67917Q30.987513 132.05417 31.925013 132.77292Q32.86251 133.49167 33.221886 134.30417L32.315636 134.6323Q31.690638 133.80417 30.393763 133.3198Q29.081263 132.83542 27.378138 132.8198L27.065638 132.8198Q25.315638 132.8198 23.987513 133.30417Q22.643763 133.77292 21.971888 134.6323L21.081263 134.30417Q21.425013 133.5073 22.331263 132.80417Q23.237513 132.10104 24.456263 131.71042Q25.659388 131.3198 26.956263 131.30417L27.221888 131.30417Z" fill-rule="nonzero"/><path fill="#000000" d="M78.6125 299.3094Q78.6125 301.21564 77.95625 302.15314Q77.31563 303.075 75.925 303.075Q74.56563 303.075 73.90938 302.16876Q73.25313 301.2625 73.22188 299.45L73.22188 298.0125Q73.22188 296.1219 73.8625 295.21564Q74.51875 294.29376 75.90938 294.29376Q77.28438 294.29376 77.94063 295.1844Q78.59688 296.0594 78.6125 297.90314L78.6125 299.3094ZM77.51875 297.825Q77.51875 296.45 77.12813 295.825Q76.75313 295.1844 75.90938 295.1844Q75.08125 295.1844 74.69063 295.825Q74.31563 296.45 74.31563 297.7469L74.31563 299.48126Q74.31563 300.85626 74.70625 301.52814Q75.1125 302.1844 75.925 302.1844Q76.72188 302.1844 77.1125 301.5594Q77.50313 300.9344 77.51875 299.60626L77.51875 297.825Z" fill-rule="nonzero"/><path fill="#000000" d="M57.846874 250.78334L52.253124 250.78334L52.253124 250.00209L55.20625 246.72084Q55.8625 245.97084 56.1125 245.51772Q56.3625 245.04897 56.3625 244.54897Q56.3625 243.87709 55.95625 243.45522Q55.565624 243.01772 54.878124 243.01772Q54.08125 243.01772 53.628124 243.48647Q53.175 243.93959 53.175 244.76772L52.096874 244.76772Q52.096874 243.58022 52.846874 242.86147Q53.6125 242.12709 54.878124 242.12709Q56.08125 242.12709 56.76875 242.75209Q57.45625 243.37709 57.45625 244.42397Q57.45625 245.67397 55.846874 247.42397L53.565624 249.89272L57.846874 249.89272L57.846874 250.78334ZM64.6125 247.14272Q64.6125 249.04897 63.95625 249.98647Q63.315624 250.90834 61.925 250.90834Q60.565624 250.90834 59.909374 250.00209Q59.253124 249.09584 59.221874 247.28334L59.221874 245.84584Q59.221874 243.95522 59.8625 243.04897Q60.51875 242.12709 61.909374 242.12709Q63.284374 242.12709 63.940624 243.01772Q64.59688 243.89272 64.6125 245.73647L64.6125 247.14272ZM63.51875 245.65834Q63.51875 244.28334 63.128124 243.65834Q62.753124 243.01772 61.909374 243.01772Q61.08125 243.01772 60.690624 243.65834Q60.315624 244.28334 60.315624 245.58022L60.315624 247.31459Q60.315624 248.68959 60.70625 249.36147Q61.1125 250.01772 61.925 250.01772Q62.721874 250.01772 63.1125 249.39272Q63.503124 248.76772 63.51875 247.43959L63.51875 245.65834ZM71.6125 247.14272Q71.6125 249.04897 70.95625 249.98647Q70.31563 250.90834 68.925 250.90834Q67.56563 250.90834 66.90938 250.00209Q66.25313 249.09584 66.22188 247.28334L66.22188 245.84584Q66.22188 243.95522 66.8625 243.04897Q67.51875 242.12709 68.90938 242.12709Q70.28438 242.12709 70.94063 243.01772Q71.59688 243.89272 71.6125 245.73647L71.6125 247.14272ZM70.51875 245.65834Q70.51875 244.28334 70.12813 243.65834Q69.75313 243.01772 68.90938 243.01772Q68.08125 243.01772 67.69063 243.65834Q67.31563 244.28334 67.31563 245.58022L67.31563 247.31459Q67.31563 248.68959 67.70625 249.36147Q68.1125 250.01772 68.925 250.01772Q69.72188 250.01772 70.1125 249.39272Q70.50313 248.76772 70.51875 247.43959L70.51875 245.65834ZM78.6125 247.14272Q78.6125 249.04897 77.95625 249.98647Q77.31563 250.90834 75.925 250.90834Q74.56563 250.90834 73.90938 250.00209Q73.25313 249.09584 73.22188 247.28334L73.22188 245.84584Q73.22188 243.95522 73.8625 243.04897Q74.51875 242.12709 75.90938 242.12709Q77.28438 242.12709 77.94063 243.01772Q78.59688 243.89272 78.6125 245.73647L78.6125 247.14272ZM77.51875 245.65834Q77.51875 244.28334 77.12813 243.65834Q76.75313 243.01772 75.90938 243.01772Q75.08125 243.01772 74.69063 243.65834Q74.31563 244.28334 74.31563 245.58022L74.31563 247.31459Q74.31563 248.68959 74.70625 249.36147Q75.1125 250.01772 75.925 250.01772Q76.72188 250.01772 77.1125 249.39272Q77.50313 248.76772 77.51875 247.43959L77.51875 245.65834Z" fill-rule="nonzero"/><path fill="#000000" d="M56.83125 195.7573L58.01875 195.7573L58.01875 196.6323L56.83125 196.6323L56.83125 198.61667L55.753124 198.61667L55.753124 196.6323L51.8625 196.6323L51.8625 195.99167L55.675 190.08542L56.83125 190.08542L56.83125 195.7573ZM53.096874 195.7573L55.753124 195.7573L55.753124 191.5698L55.6125 191.80417L53.096874 195.7573ZM64.6125 194.97604Q64.6125 196.8823 63.95625 197.8198Q63.315624 198.74167 61.925 198.74167Q60.565624 198.74167 59.909374 197.83542Q59.253124 196.92917 59.221874 195.11667L59.221874 193.67917Q59.221874 191.78854 59.8625 190.8823Q60.51875 189.96042 61.909374 189.96042Q63.284374 189.96042 63.940624 190.85104Q64.59688 191.72604 64.6125 193.5698L64.6125 194.97604ZM63.51875 193.49167Q63.51875 192.11667 63.128124 191.49167Q62.753124 190.85104 61.909374 190.85104Q61.08125 190.85104 60.690624 191.49167Q60.315624 192.11667 60.315624 193.41354L60.315624 195.14792Q60.315624 196.52292 60.70625 197.1948Q61.1125 197.85104 61.925 197.85104Q62.721874 197.85104 63.1125 197.22604Q63.503124 196.60104 63.51875 195.27292L63.51875 193.49167ZM71.6125 194.97604Q71.6125 196.8823 70.95625 197.8198Q70.31563 198.74167 68.925 198.74167Q67.56563 198.74167 66.90938 197.83542Q66.25313 196.92917 66.22188 195.11667L66.22188 193.67917Q66.22188 191.78854 66.8625 190.8823Q67.51875 189.96042 68.90938 189.96042Q70.28438 189.96042 70.94063 190.85104Q71.59688 191.72604 71.6125 193.5698L71.6125 194.97604ZM70.51875 193.49167Q70.51875 192.11667 70.12813 191.49167Q69.75313 190.85104 68.90938 190.85104Q68.08125 190.85104 67.69063 191.49167Q67.31563 192.11667 67.31563 193.41354L67.31563 195.14792Q67.31563 196.52292 67.70625 197.1948Q68.1125 197.85104 68.925 197.85104Q69.72188 197.85104 70.1125 197.22604Q70.50313 196.60104 70.51875 195.27292L70.51875 193.49167ZM78.6125 194.97604Q78.6125 196.8823 77.95625 197.8198Q77.31563 198.74167 75.925 198.74167Q74.56563 198.74167 73.90938 197.83542Q73.25313 196.92917 73.22188 195.11667L73.22188 193.67917Q73.22188 191.78854 73.8625 190.8823Q74.51875 189.96042 75.90938 189.96042Q77.28438 189.96042 77.94063 190.85104Q78.59688 191.72604 78.6125 193.5698L78.6125 194.97604ZM77.51875 193.49167Q77.51875 192.11667 77.12813 191.49167Q76.75313 190.85104 75.90938 190.85104Q75.08125 190.85104 74.69063 191.49167Q74.31563 192.11667 74.31563 193.41354L74.31563 195.14792Q74.31563 196.52292 74.70625 197.1948Q75.1125 197.85104 75.925 197.85104Q76.72188 197.85104 77.1125 197.22604Q77.50313 196.60104 77.51875 195.27292L77.51875 193.49167Z" fill-rule="nonzero"/><path fill="#000000" d="M56.51875 137.91875L56.51875 138.825L56.315624 138.825Q55.05 138.85625 54.3 139.59062Q53.55 140.30937 53.425 141.62187Q54.1125 140.85625 55.26875 140.85625Q56.378124 140.85625 57.05 141.6375Q57.721874 142.41875 57.721874 143.66875Q57.721874 144.98125 57.003124 145.77812Q56.284374 146.575 55.065624 146.575Q53.846874 146.575 53.08125 145.6375Q52.33125 144.68437 52.33125 143.2L52.33125 142.79375Q52.33125 140.43437 53.33125 139.18437Q54.33125 137.93437 56.315624 137.91875L56.51875 137.91875ZM55.096874 141.7625Q54.534374 141.7625 54.065624 142.09062Q53.596874 142.41875 53.409374 142.93437L53.409374 143.325Q53.409374 144.3875 53.878124 145.02812Q54.3625 145.66875 55.065624 145.66875Q55.8 145.66875 56.221874 145.1375Q56.64375 144.59062 56.64375 143.71562Q56.64375 142.84062 56.221874 142.30937Q55.8 141.7625 55.096874 141.7625ZM64.6125 142.80937Q64.6125 144.71562 63.95625 145.65312Q63.315624 146.575 61.925 146.575Q60.565624 146.575 59.909374 145.66875Q59.253124 144.7625 59.221874 142.95L59.221874 141.5125Q59.221874 139.62187 59.8625 138.71562Q60.51875 137.79375 61.909374 137.79375Q63.284374 137.79375 63.940624 138.68437Q64.59688 139.55937 64.6125 141.40312L64.6125 142.80937ZM63.51875 141.325Q63.51875 139.95 63.128124 139.325Q62.753124 138.68437 61.909374 138.68437Q61.08125 138.68437 60.690624 139.325Q60.315624 139.95 60.315624 141.24687L60.315624 142.98125Q60.315624 144.35625 60.70625 145.02812Q61.1125 145.68437 61.925 145.68437Q62.721874 145.68437 63.1125 145.05937Q63.503124 144.43437 63.51875 143.10625L63.51875 141.325ZM71.6125 142.80937Q71.6125 144.71562 70.95625 145.65312Q70.31563 146.575 68.925 146.575Q67.56563 146.575 66.90938 145.66875Q66.25313 144.7625 66.22188 142.95L66.22188 141.5125Q66.22188 139.62187 66.8625 138.71562Q67.51875 137.79375 68.90938 137.79375Q70.28438 137.79375 70.94063 138.68437Q71.59688 139.55937 71.6125 141.40312L71.6125 142.80937ZM70.51875 141.325Q70.51875 139.95 70.12813 139.325Q69.75313 138.68437 68.90938 138.68437Q68.08125 138.68437 67.69063 139.325Q67.31563 139.95 67.31563 141.24687L67.31563 142.98125Q67.31563 144.35625 67.70625 145.02812Q68.1125 145.68437 68.925 145.68437Q69.72188 145.68437 70.1125 145.05937Q70.50313 144.43437 70.51875 143.10625L70.51875 141.325ZM78.6125 142.80937Q78.6125 144.71562 77.95625 145.65312Q77.31563 146.575 75.925 146.575Q74.56563 146.575 73.90938 145.66875Q73.25313 144.7625 73.22188 142.95L73.22188 141.5125Q73.22188 139.62187 73.8625 138.71562Q74.51875 137.79375 75.90938 137.79375Q77.28438 137.79375 77.94063 138.68437Q78.59688 139.55937 78.6125 141.40312L78.6125 142.80937ZM77.51875 141.325Q77.51875 139.95 77.12813 139.325Q76.75313 138.68437 75.90938 138.68437Q75.08125 138.68437 74.69063 139.325Q74.31563 139.95 74.31563 141.24687L74.31563 142.98125Q74.31563 144.35625 74.70625 145.02812Q75.1125 145.68437 75.925 145.68437Q76.72188 145.68437 77.1125 145.05937Q77.50313 144.43437 77.51875 143.10625L77.51875 141.325Z" fill-rule="nonzero"/><path fill="#000000" d="M57.440624 87.97083Q57.440624 88.61146 57.096874 89.11146Q56.753124 89.61146 56.190624 89.89271Q56.846874 90.17396 57.2375 90.73646Q57.628124 91.28333 57.628124 91.98646Q57.628124 93.08021 56.878124 93.75208Q56.14375 94.40833 54.925 94.40833Q53.690624 94.40833 52.940624 93.75208Q52.20625 93.08021 52.20625 91.98646Q52.20625 91.28333 52.58125 90.73646Q52.95625 90.17396 53.628124 89.89271Q53.065624 89.61146 52.7375 89.11146Q52.409374 88.61146 52.409374 87.97083Q52.409374 86.89271 53.096874 86.26771Q53.784374 85.62708 54.925 85.62708Q56.05 85.62708 56.7375 86.26771Q57.440624 86.89271 57.440624 87.97083ZM56.55 91.95521Q56.55 91.23646 56.096874 90.79896Q55.64375 90.34583 54.909374 90.34583Q54.175 90.34583 53.721874 90.79896Q53.284374 91.23646 53.284374 91.97083Q53.284374 92.68958 53.721874 93.11146Q54.159374 93.51771 54.925 93.51771Q55.675 93.51771 56.1125 93.09583Q56.55 92.67396 56.55 91.95521ZM54.925 86.51771Q54.284374 86.51771 53.878124 86.92396Q53.4875 87.31458 53.4875 88.00208Q53.4875 88.64271 53.878124 89.04896Q54.26875 89.45521 54.909374 89.45521Q55.565624 89.45521 55.95625 89.04896Q56.346874 88.64271 56.346874 88.00208Q56.346874 87.34583 55.940624 86.93958Q55.534374 86.51771 54.925 86.51771ZM64.6125 90.64271Q64.6125 92.54896 63.95625 93.48646Q63.315624 94.40833 61.925 94.40833Q60.565624 94.40833 59.909374 93.50208Q59.253124 92.59583 59.221874 90.78333L59.221874 89.34583Q59.221874 87.45521 59.8625 86.54896Q60.51875 85.62708 61.909374 85.62708Q63.284374 85.62708 63.940624 86.51771Q64.59688 87.39271 64.6125 89.23646L64.6125 90.64271ZM63.51875 89.15833Q63.51875 87.78333 63.128124 87.15833Q62.753124 86.51771 61.909374 86.51771Q61.08125 86.51771 60.690624 87.15833Q60.315624 87.78333 60.315624 89.08021L60.315624 90.81458Q60.315624 92.18958 60.70625 92.86146Q61.1125 93.51771 61.925 93.51771Q62.721874 93.51771 63.1125 92.89271Q63.503124 92.26771 63.51875 90.93958L63.51875 89.15833ZM71.6125 90.64271Q71.6125 92.54896 70.95625 93.48646Q70.31563 94.40833 68.925 94.40833Q67.56563 94.40833 66.90938 93.50208Q66.25313 92.59583 66.22188 90.78333L66.22188 89.34583Q66.22188 87.45521 66.8625 86.54896Q67.51875 85.62708 68.90938 85.62708Q70.28438 85.62708 70.94063 86.51771Q71.59688 87.39271 71.6125 89.23646L71.6125 90.64271ZM70.51875 89.15833Q70.51875 87.78333 70.12813 87.15833Q69.75313 86.51771 68.90938 86.51771Q68.08125 86.51771 67.69063 87.15833Q67.31563 87.78333 67.31563 89.08021L67.31563 90.81458Q67.31563 92.18958 67.70625 92.86146Q68.1125 93.51771 68.925 93.51771Q69.72188 93.51771 70.1125 92.89271Q70.50313 92.26771 70.51875 90.93958L70.51875 89.15833ZM78.6125 90.64271Q78.6125 92.54896 77.95625 93.48646Q77.31563 94.40833 75.925 94.40833Q74.56563 94.40833 73.90938 93.50208Q73.25313 92.59583 73.22188 90.78333L73.22188 89.34583Q73.22188 87.45521 73.8625 86.54896Q74.51875 85.62708 75.90938 85.62708Q77.28438 85.62708 77.94063 86.51771Q78.59688 87.39271 78.6125 89.23646L78.6125 90.64271ZM77.51875 89.15833Q77.51875 87.78333 77.12813 87.15833Q76.75313 86.51771 75.90938 86.51771Q75.08125 86.51771 74.69063 87.15833Q74.31563 87.78333 74.31563 89.08021L74.31563 90.81458Q74.31563 92.18958 74.70625 92.86146Q75.1125 93.51771 75.925 93.51771Q76.72188 93.51771 77.1125 92.89271Q77.50313 92.26771 77.51875 90.93958L77.51875 89.15833Z" fill-rule="nonzero"/><path fill="#000000" d="M142.31995 312.16876L142.75745 307.91876L147.13245 307.91876L147.13245 308.91876L143.67932 308.91876L143.4137 311.2469Q144.05432 310.8719 144.8512 310.8719Q146.00745 310.8719 146.69495 311.65314Q147.38245 312.41876 147.38245 313.73126Q147.38245 315.04376 146.6637 315.8094Q145.96057 316.575 144.67932 316.575Q143.55432 316.575 142.83557 315.95Q142.11682 315.3094 142.02307 314.2L143.0387 314.2Q143.14807 314.9344 143.56995 315.3094Q143.99182 315.6844 144.67932 315.6844Q145.42932 315.6844 145.86682 315.16876Q146.30432 314.65314 146.30432 313.7469Q146.30432 312.8875 145.83557 312.3719Q145.36682 311.85626 144.58557 311.85626Q143.88245 311.85626 143.4762 312.15314L143.19495 312.3875L142.31995 312.16876ZM154.17932 312.8094Q154.17932 314.71564 153.52307 315.65314Q152.88245 316.575 151.49182 316.575Q150.13245 316.575 149.4762 315.66876Q148.81995 314.7625 148.7887 312.95L148.7887 311.5125Q148.7887 309.6219 149.42932 308.71564Q150.08557 307.79376 151.4762 307.79376Q152.8512 307.79376 153.50745 308.6844Q154.1637 309.5594 154.17932 311.40314L154.17932 312.8094ZM153.08557 311.325Q153.08557 309.95 152.69495 309.325Q152.31995 308.6844 151.4762 308.6844Q150.64807 308.6844 150.25745 309.325Q149.88245 309.95 149.88245 311.2469L149.88245 312.98126Q149.88245 314.35626 150.27307 315.02814Q150.67932 315.6844 151.49182 315.6844Q152.2887 315.6844 152.67932 315.0594Q153.06995 314.4344 153.08557 313.10626L153.08557 311.325Z" fill-rule="nonzero"/><path fill="#000000" d="M234.57404 316.45L233.49591 316.45L233.49591 309.23126L231.30841 310.02814L231.30841 309.04376L234.41779 307.8719L234.57404 307.8719L234.57404 316.45ZM243.37091 312.8094Q243.37091 314.71564 242.71466 315.65314Q242.07404 316.575 240.68341 316.575Q239.32404 316.575 238.66779 315.66876Q238.01154 314.7625 237.98029 312.95L237.98029 311.5125Q237.98029 309.6219 238.62091 308.71564Q239.27716 307.79376 240.66779 307.79376Q242.04279 307.79376 242.69904 308.6844Q243.35529 309.5594 243.37091 311.40314L243.37091 312.8094ZM242.27716 311.325Q242.27716 309.95 241.88654 309.325Q241.51154 308.6844 240.66779 308.6844Q239.83966 308.6844 239.44904 309.325Q239.07404 309.95 239.07404 311.2469L239.07404 312.98126Q239.07404 314.35626 239.46466 315.02814Q239.87091 315.6844 240.68341 315.6844Q241.48029 315.6844 241.87091 315.0594Q242.26154 314.4344 242.27716 313.10626L242.27716 311.325ZM250.37091 312.8094Q250.37091 314.71564 249.71466 315.65314Q249.07404 316.575 247.68341 316.575Q246.32404 316.575 245.66779 315.66876Q245.01154 314.7625 244.98029 312.95L244.98029 311.5125Q244.98029 309.6219 245.62091 308.71564Q246.27716 307.79376 247.66779 307.79376Q249.04279 307.79376 249.69904 308.6844Q250.35529 309.5594 250.37091 311.40314L250.37091 312.8094ZM249.27716 311.325Q249.27716 309.95 248.88654 309.325Q248.51154 308.6844 247.66779 308.6844Q246.83966 308.6844 246.44904 309.325Q246.07404 309.95 246.07404 311.2469L246.07404 312.98126Q246.07404 314.35626 246.46466 315.02814Q246.87091 315.6844 247.68341 315.6844Q248.48029 315.6844 248.87091 315.0594Q249.26154 314.4344 249.27716 313.10626L249.27716 311.325Z" fill-rule="nonzero"/><path fill="#000000" d="M327.26562 316.45L326.1875 316.45L326.1875 309.23126L324.0 310.02814L324.0 309.04376L327.10938 307.8719L327.26562 307.8719L327.26562 316.45ZM331.20312 312.16876L331.64062 307.91876L336.01562 307.91876L336.01562 308.91876L332.5625 308.91876L332.29688 311.2469Q332.9375 310.8719 333.73438 310.8719Q334.89062 310.8719 335.57812 311.65314Q336.26562 312.41876 336.26562 313.73126Q336.26562 315.04376 335.54688 315.8094Q334.84375 316.575 333.5625 316.575Q332.4375 316.575 331.71875 315.95Q331.0 315.3094 330.90625 314.2L331.92188 314.2Q332.03125 314.9344 332.45312 315.3094Q332.875 315.6844 333.5625 315.6844Q334.3125 315.6844 334.75 315.16876Q335.1875 314.65314 335.1875 313.7469Q335.1875 312.8875 334.71875 312.3719Q334.25 311.85626 333.46875 311.85626Q332.76562 311.85626 332.35938 312.15314L332.07812 312.3875L331.20312 312.16876ZM343.0625 312.8094Q343.0625 314.71564 342.40625 315.65314Q341.76562 316.575 340.375 316.575Q339.01562 316.575 338.35938 315.66876Q337.70312 314.7625 337.67188 312.95L337.67188 311.5125Q337.67188 309.6219 338.3125 308.71564Q338.96875 307.79376 340.35938 307.79376Q341.73438 307.79376 342.39062 308.6844Q343.04688 309.5594 343.0625 311.40314L343.0625 312.8094ZM341.96875 311.325Q341.96875 309.95 341.57812 309.325Q341.20312 308.6844 340.35938 308.6844Q339.53125 308.6844 339.14062 309.325Q338.76562 309.95 338.76562 311.2469L338.76562 312.98126Q338.76562 314.35626 339.15625 315.02814Q339.5625 315.6844 340.375 315.6844Q341.17188 315.6844 341.5625 315.0594Q341.95312 314.4344 341.96875 313.10626L341.96875 311.325Z" fill-rule="nonzero"/><path fill="#000000" d="M421.98846 316.45L416.3947 316.45L416.3947 315.66876L419.34784 312.3875Q420.0041 311.6375 420.2541 311.1844Q420.5041 310.71564 420.5041 310.21564Q420.5041 309.54376 420.09784 309.1219Q419.7072 308.6844 419.0197 308.6844Q418.22284 308.6844 417.7697 309.15314Q417.3166 309.60626 417.3166 310.4344L416.23846 310.4344Q416.23846 309.2469 416.98846 308.52814Q417.7541 307.79376 419.0197 307.79376Q420.22284 307.79376 420.91034 308.41876Q421.59784 309.04376 421.59784 310.09064Q421.59784 311.34064 419.98846 313.09064L417.7072 315.5594L421.98846 315.5594L421.98846 316.45ZM428.7541 312.8094Q428.7541 314.71564 428.09784 315.65314Q427.4572 316.575 426.0666 316.575Q424.7072 316.575 424.05096 315.66876Q423.3947 314.7625 423.36346 312.95L423.36346 311.5125Q423.36346 309.6219 424.0041 308.71564Q424.66034 307.79376 426.05096 307.79376Q427.42596 307.79376 428.0822 308.6844Q428.73846 309.5594 428.7541 311.40314L428.7541 312.8094ZM427.66034 311.325Q427.66034 309.95 427.2697 309.325Q426.8947 308.6844 426.05096 308.6844Q425.22284 308.6844 424.8322 309.325Q424.4572 309.95 424.4572 311.2469L424.4572 312.98126Q424.4572 314.35626 424.84784 315.02814Q425.2541 315.6844 426.0666 315.6844Q426.86346 315.6844 427.2541 315.0594Q427.6447 314.4344 427.66034 313.10626L427.66034 311.325ZM435.7541 312.8094Q435.7541 314.71564 435.09784 315.65314Q434.4572 316.575 433.0666 316.575Q431.7072 316.575 431.05096 315.66876Q430.3947 314.7625 430.36346 312.95L430.36346 311.5125Q430.36346 309.6219 431.0041 308.71564Q431.66034 307.79376 433.05096 307.79376Q434.42596 307.79376 435.0822 308.6844Q435.73846 309.5594 435.7541 311.40314L435.7541 312.8094ZM434.66034 311.325Q434.66034 309.95 434.2697 309.325Q433.8947 308.6844 433.05096 308.6844Q432.22284 308.6844 431.8322 309.325Q431.4572 309.95 431.4572 311.2469L431.4572 312.98126Q431.4572 314.35626 431.84784 315.02814Q432.2541 315.6844 433.0666 315.6844Q433.86346 315.6844 434.2541 315.0594Q434.6447 314.4344 434.66034 313.10626L434.66034 311.325Z" fill-rule="nonzero"/><path fill="#000000" d="M514.68005 316.45L509.0863 316.45L509.0863 315.66876L512.0394 312.3875Q512.6957 311.6375 512.9457 311.1844Q513.1957 310.71564 513.1957 310.21564Q513.1957 309.54376 512.7894 309.1219Q512.3988 308.6844 511.7113 308.6844Q510.91443 308.6844 510.4613 309.15314Q510.00818 309.60626 510.00818 310.4344L508.93005 310.4344Q508.93005 309.2469 509.68005 308.52814Q510.44568 307.79376 511.7113 307.79376Q512.9144 307.79376 513.6019 308.41876Q514.2894 309.04376 514.2894 310.09064Q514.2894 311.34064 512.68005 313.09064L510.3988 315.5594L514.68005 315.5594L514.68005 316.45ZM516.5863 312.16876L517.0238 307.91876L521.3988 307.91876L521.3988 308.91876L517.9457 308.91876L517.68005 311.2469Q518.3207 310.8719 519.11755 310.8719Q520.2738 310.8719 520.9613 311.65314Q521.6488 312.41876 521.6488 313.73126Q521.6488 315.04376 520.93005 315.8094Q520.2269 316.575 518.9457 316.575Q517.8207 316.575 517.1019 315.95Q516.3832 315.3094 516.2894 314.2L517.30505 314.2Q517.4144 314.9344 517.8363 315.3094Q518.2582 315.6844 518.9457 315.6844Q519.6957 315.6844 520.1332 315.16876Q520.5707 314.65314 520.5707 313.7469Q520.5707 312.8875 520.1019 312.3719Q519.6332 311.85626 518.8519 311.85626Q518.1488 311.85626 517.74255 312.15314L517.4613 312.3875L516.5863 312.16876ZM528.4457 312.8094Q528.4457 314.71564 527.7894 315.65314Q527.1488 316.575 525.7582 316.575Q524.3988 316.575 523.74255 315.66876Q523.0863 314.7625 523.05505 312.95L523.05505 311.5125Q523.05505 309.6219 523.6957 308.71564Q524.3519 307.79376 525.74255 307.79376Q527.11755 307.79376 527.7738 308.6844Q528.43005 309.5594 528.4457 311.40314L528.4457 312.8094ZM527.3519 311.325Q527.3519 309.95 526.9613 309.325Q526.5863 308.6844 525.74255 308.6844Q524.9144 308.6844 524.5238 309.325Q524.1488 309.95 524.1488 311.2469L524.1488 312.98126Q524.1488 314.35626 524.5394 315.02814Q524.9457 315.6844 525.7582 315.6844Q526.55505 315.6844 526.9457 315.0594Q527.3363 314.4344 527.3519 313.10626L527.3519 311.325Z" fill-rule="nonzero"/><path fill="#34a853" d="M238.5 57.416668C238.5 56.864384 238.94771 56.416668 239.5 56.416668L249.5 56.416668C250.05229 56.416668 250.5 56.864384 250.5 57.416668L250.5 67.416664C250.5 67.96895 250.05229 68.416664 249.5 68.416664L239.5 68.416664C238.94771 68.416664 238.5 67.96895 238.5 67.416664Z" fill-rule="nonzero"/><path fill="#1a1a1a" d="M260.34375 60.572914L260.375 61.36979Q261.10938 60.46354 262.28125 60.46354Q264.29688 60.46354 264.3125 62.729164L264.3125 66.916664L263.21875 66.916664L263.21875 62.71354Q263.21875 62.041664 262.90625 61.71354Q262.60938 61.385414 261.95312 61.385414Q261.42188 61.385414 261.01562 61.666664Q260.625 61.947914 260.40625 62.40104L260.40625 66.916664L259.32812 66.916664L259.32812 60.572914L260.34375 60.572914ZM266.03125 63.68229Q266.03125 62.760414 266.39062 62.010414Q266.76562 61.260414 267.42188 60.86979Q268.07812 60.46354 268.90625 60.46354Q270.20312 60.46354 271.0 61.354164Q271.8125 62.24479 271.8125 63.74479L271.8125 63.822914Q271.8125 64.74479 271.45312 65.479164Q271.09375 66.21354 270.4375 66.635414Q269.78125 67.041664 268.92188 67.041664Q267.64062 67.041664 266.82812 66.15104Q266.03125 65.24479 266.03125 63.760414L266.03125 63.68229ZM267.125 63.822914Q267.125 64.86979 267.60938 65.510414Q268.10938 66.15104 268.92188 66.15104Q269.75 66.15104 270.23438 65.510414Q270.71875 64.854164 270.71875 63.68229Q270.71875 62.65104 270.21875 62.010414Q269.73438 61.354164 268.90625 61.354164Q268.10938 61.354164 267.60938 61.99479Q267.125 62.61979 267.125 63.822914ZM273.0625 63.697914Q273.0625 62.229164 273.75 61.354164Q274.4375 60.46354 275.5625 60.46354Q276.67188 60.46354 277.32812 61.21354L277.32812 57.916664L278.40625 57.916664L278.40625 66.916664L277.40625 66.916664L277.35938 66.229164Q276.70312 67.041664 275.54688 67.041664Q274.45312 67.041664 273.75 66.135414Q273.0625 65.229164 273.0625 63.77604L273.0625 63.697914ZM274.14062 63.822914Q274.14062 64.90104 274.57812 65.510414Q275.03125 66.11979 275.8125 66.11979Q276.84375 66.11979 277.32812 65.18229L277.32812 62.27604Q276.84375 61.385414 275.82812 61.385414Q275.03125 61.385414 274.57812 61.99479Q274.14062 62.604164 274.14062 63.822914ZM282.95312 67.041664Q281.65625 67.041664 280.84375 66.197914Q280.04688 65.33854 280.04688 63.916664L280.04688 63.729164Q280.04688 62.77604 280.40625 62.041664Q280.76562 61.291664 281.40625 60.885414Q282.0625 60.46354 282.8125 60.46354Q284.04688 60.46354 284.73438 61.27604Q285.42188 62.08854 285.42188 63.604164L285.42188 64.05729L281.125 64.05729Q281.15625 64.99479 281.67188 65.572914Q282.20312 66.15104 283.01562 66.15104Q283.57812 66.15104 283.96875 65.916664Q284.375 65.68229 284.6875 65.291664L285.34375 65.80729Q284.54688 67.041664 282.95312 67.041664ZM282.8125 61.354164Q282.15625 61.354164 281.70312 61.83854Q281.26562 62.30729 281.17188 63.166664L284.34375 63.166664L284.34375 63.08854Q284.29688 62.260414 283.89062 61.80729Q283.5 61.354164 282.8125 61.354164Z" fill-rule="nonzero"/><path fill="#4285f4" d="M301.5 57.416668C301.5 56.864384 301.94772 56.416668 302.5 56.416668L312.5 56.416668C313.05228 56.416668 313.5 56.864384 313.5 57.416668L313.5 67.416664C313.5 67.96895 313.05228 68.416664 312.5 68.416664L302.5 68.416664C301.94772 68.416664 301.5 67.96895 301.5 67.416664Z" fill-rule="nonzero"/><path fill="#1a1a1a" d="M326.23438 66.916664Q326.14062 66.729164 326.07812 66.24479Q325.32812 67.041664 324.28125 67.041664Q323.34375 67.041664 322.73438 66.510414Q322.14062 65.979164 322.14062 65.15104Q322.14062 64.166664 322.89062 63.61979Q323.64062 63.072914 325.01562 63.072914L326.0625 63.072914L326.0625 62.572914Q326.0625 62.010414 325.71875 61.68229Q325.39062 61.33854 324.71875 61.33854Q324.14062 61.33854 323.75 61.635414Q323.35938 61.916664 323.35938 62.33854L322.26562 62.33854Q322.26562 61.854164 322.59375 61.416664Q322.9375 60.979164 323.51562 60.729164Q324.09375 60.46354 324.78125 60.46354Q325.89062 60.46354 326.5 61.010414Q327.125 61.55729 327.15625 62.510414L327.15625 65.43229Q327.15625 66.30729 327.375 66.822914L327.375 66.916664L326.23438 66.916664ZM324.4375 66.08854Q324.95312 66.08854 325.40625 65.822914Q325.85938 65.55729 326.0625 65.135414L326.0625 63.83854L325.21875 63.83854Q323.21875 63.83854 323.21875 65.010414Q323.21875 65.510414 323.5625 65.80729Q323.90625 66.08854 324.4375 66.08854ZM334.67188 63.822914Q334.67188 65.260414 334.01562 66.15104Q333.35938 67.041664 332.21875 67.041664Q331.0625 67.041664 330.40625 66.30729L330.40625 69.354164L329.32812 69.354164L329.32812 60.572914L330.3125 60.572914L330.35938 61.27604Q331.03125 60.46354 332.20312 60.46354Q333.34375 60.46354 334.0 61.322914Q334.67188 62.18229 334.67188 63.71354L334.67188 63.822914ZM333.59375 63.697914Q333.59375 62.61979 333.125 62.010414Q332.67188 61.385414 331.875 61.385414Q330.89062 61.385414 330.40625 62.24479L330.40625 65.27604Q330.89062 66.15104 331.89062 66.15104Q332.67188 66.15104 333.125 65.541664Q333.59375 64.916664 333.59375 63.697914ZM340.23438 66.916664Q340.14062 66.729164 340.07812 66.24479Q339.32812 67.041664 338.28125 67.041664Q337.34375 67.041664 336.73438 66.510414Q336.14062 65.979164 336.14062 65.15104Q336.14062 64.166664 336.89062 63.61979Q337.64062 63.072914 339.01562 63.072914L340.0625 63.072914L340.0625 62.572914Q340.0625 62.010414 339.71875 61.68229Q339.39062 61.33854 338.71875 61.33854Q338.14062 61.33854 337.75 61.635414Q337.35938 61.916664 337.35938 62.33854L336.26562 62.33854Q336.26562 61.854164 336.59375 61.416664Q336.9375 60.979164 337.51562 60.729164Q338.09375 60.46354 338.78125 60.46354Q339.89062 60.46354 340.5 61.010414Q341.125 61.55729 341.15625 62.510414L341.15625 65.43229Q341.15625 66.30729 341.375 66.822914L341.375 66.916664L340.23438 66.916664ZM338.4375 66.08854Q338.95312 66.08854 339.40625 65.822914Q339.85938 65.55729 340.0625 65.135414L340.0625 63.83854L339.21875 63.83854Q337.21875 63.83854 337.21875 65.010414Q337.21875 65.510414 337.5625 65.80729Q337.90625 66.08854 338.4375 66.08854ZM345.85938 66.15104Q346.4375 66.15104 346.875 65.80729Q347.3125 65.447914 347.35938 64.916664L348.39062 64.916664Q348.35938 65.46354 348.0 65.96354Q347.65625 66.447914 347.07812 66.74479Q346.51562 67.041664 345.85938 67.041664Q344.5625 67.041664 343.79688 66.18229Q343.04688 65.30729 343.04688 63.80729L343.04688 63.61979Q343.04688 62.697914 343.375 61.979164Q343.71875 61.260414 344.34375 60.86979Q344.98438 60.46354 345.85938 60.46354Q346.92188 60.46354 347.625 61.104164Q348.34375 61.729164 348.39062 62.760414L347.35938 62.760414Q347.3125 62.135414 346.89062 61.74479Q346.46875 61.354164 345.85938 61.354164Q345.03125 61.354164 344.57812 61.947914Q344.125 62.541664 344.125 63.666664L344.125 63.86979Q344.125 64.96354 344.57812 65.55729Q345.03125 66.15104 345.85938 66.15104ZM350.40625 61.33854Q351.125 60.46354 352.28125 60.46354Q354.29688 60.46354 354.3125 62.729164L354.3125 66.916664L353.21875 66.916664L353.21875 62.71354Q353.21875 62.041664 352.90625 61.71354Q352.60938 61.385414 351.95312 61.385414Q351.42188 61.385414 351.01562 61.666664Q350.625 61.947914 350.40625 62.40104L350.40625 66.916664L349.32812 66.916664L349.32812 57.916664L350.40625 57.916664L350.40625 61.33854ZM358.95312 67.041664Q357.65625 67.041664 356.84375 66.197914Q356.04688 65.33854 356.04688 63.916664L356.04688 63.729164Q356.04688 62.77604 356.40625 62.041664Q356.76562 61.291664 357.40625 60.885414Q358.0625 60.46354 358.8125 60.46354Q360.04688 60.46354 360.73438 61.27604Q361.42188 62.08854 361.42188 63.604164L361.42188 64.05729L357.125 64.05729Q357.15625 64.99479 357.67188 65.572914Q358.20312 66.15104 359.01562 66.15104Q359.57812 66.15104 359.96875 65.916664Q360.375 65.68229 360.6875 65.291664L361.34375 65.80729Q360.54688 67.041664 358.95312 67.041664ZM358.8125 61.354164Q358.15625 61.354164 357.70312 61.83854Q357.26562 62.30729 357.17188 63.166664L360.34375 63.166664L360.34375 63.08854Q360.29688 62.260414 359.89062 61.80729Q359.5 61.354164 358.8125 61.354164Z" fill-rule="nonzero"/><path fill="#757575" d="M24.39375 31.20625Q21.971874 30.51875 20.878124 29.51875Q19.784374 28.503124 19.784374 27.01875Q19.784374 25.33125 21.128124 24.2375Q22.471874 23.128124 24.6125 23.128124Q26.08125 23.128124 27.221874 23.70625Q28.378124 24.26875 29.003124 25.26875Q29.628124 26.253124 29.628124 27.440624L27.753124 27.440624Q27.753124 26.159374 26.925 25.425Q26.1125 24.675 24.6125 24.675Q23.221874 24.675 22.440624 25.284374Q21.675 25.89375 21.675 26.9875Q21.675 27.846874 22.409374 28.45625Q23.14375 29.05 24.909374 29.55Q26.690624 30.05 27.690624 30.659374Q28.690624 31.253124 29.175 32.05Q29.659374 32.846874 29.659374 33.940624Q29.659374 35.659374 28.315624 36.70625Q26.971874 37.753124 24.70625 37.753124Q23.253124 37.753124 21.971874 37.190624Q20.70625 36.628124 20.01875 35.659374Q19.33125 34.675 19.33125 33.425L21.221874 33.425Q21.221874 34.721874 22.175 35.471874Q23.128124 36.20625 24.70625 36.20625Q26.190624 36.20625 26.9875 35.6125Q27.784374 35.003124 27.784374 33.95625Q27.784374 32.909374 27.05 32.346874Q26.315624 31.76875 24.39375 31.20625ZM33.878124 37.55L32.08125 37.55L32.08125 26.9875L33.878124 26.9875L33.878124 37.55ZM31.925 24.175Q31.925 23.7375 32.190624 23.440624Q32.471874 23.128124 32.9875 23.128124Q33.51875 23.128124 33.784374 23.440624Q34.065624 23.7375 34.065624 24.175Q34.065624 24.6125 33.784374 24.909374Q33.51875 25.20625 32.9875 25.20625Q32.471874 25.20625 32.190624 24.909374Q31.925 24.6125 31.925 24.175ZM38.6125 26.9875L38.659374 28.159374Q39.83125 26.784374 41.8 26.784374Q44.01875 26.784374 44.815624 28.4875Q45.346874 27.721874 46.190624 27.253124Q47.034374 26.784374 48.190624 26.784374Q51.659374 26.784374 51.721874 30.471874L51.721874 37.55L49.909374 37.55L49.909374 30.58125Q49.909374 29.440624 49.39375 28.878124Q48.878124 28.315624 47.659374 28.315624Q46.659374 28.315624 45.9875 28.925Q45.33125 29.51875 45.221874 30.534374L45.221874 37.55L43.409374 37.55L43.409374 30.628124Q43.409374 28.315624 41.14375 28.315624Q39.3625 28.315624 38.721874 29.83125L38.721874 37.55L36.909374 37.55L36.909374 26.9875L38.6125 26.9875ZM61.440624 36.503124Q60.39375 37.753124 58.346874 37.753124Q56.659374 37.753124 55.76875 36.76875Q54.89375 35.784374 54.878124 33.8625L54.878124 26.9875L56.690624 26.9875L56.690624 33.815624Q56.690624 36.20625 58.64375 36.20625Q60.70625 36.20625 61.39375 34.675L61.39375 26.9875L63.20625 26.9875L63.20625 37.55L61.4875 37.55L61.440624 36.503124ZM67.87813 37.55L66.08125 37.55L66.08125 22.55L67.87813 22.55L67.87813 37.55ZM77.44063 37.55Q77.28438 37.2375 77.19063 36.440624Q75.925 37.753124 74.175 37.753124Q72.6125 37.753124 71.6125 36.8625Q70.6125 35.971874 70.6125 34.6125Q70.6125 32.971874 71.8625 32.065624Q73.12813 31.14375 75.39375 31.14375L77.15938 31.14375L77.15938 30.315624Q77.15938 29.3625 76.58125 28.8Q76.01875 28.2375 74.925 28.2375Q73.95625 28.2375 73.3 28.7375Q72.64375 29.221874 72.64375 29.909374L70.83125 29.909374Q70.83125 29.128124 71.39375 28.39375Q71.95625 27.64375 72.90938 27.221874Q73.87813 26.784374 75.03438 26.784374Q76.8625 26.784374 77.89375 27.70625Q78.925 28.6125 78.97188 30.221874L78.97188 35.08125Q78.97188 36.534374 79.33125 37.39375L79.33125 37.55L77.44063 37.55ZM74.44063 36.175Q75.3 36.175 76.05 35.7375Q76.81563 35.3 77.15938 34.596874L77.15938 32.425L75.7375 32.425Q72.425 32.425 72.425 34.3625Q72.425 35.221874 72.9875 35.70625Q73.55 36.175 74.44063 36.175ZM84.3625 24.425L84.3625 26.9875L86.34688 26.9875L86.34688 28.378124L84.3625 28.378124L84.3625 34.925Q84.3625 35.565624 84.62813 35.89375Q84.89375 36.20625 85.53438 36.20625Q85.84688 36.20625 86.39375 36.08125L86.39375 37.55Q85.675 37.753124 85.00313 37.753124Q83.8 37.753124 83.175 37.01875Q82.56563 36.284374 82.56563 34.925L82.56563 28.378124L80.64375 28.378124L80.64375 26.9875L82.56563 26.9875L82.56563 24.425L84.3625 24.425ZM93.3 37.753124Q91.15938 37.753124 89.8 36.346874Q88.45625 34.925 88.45625 32.565624L88.45625 32.221874Q88.45625 30.659374 89.05 29.425Q89.65938 28.190624 90.7375 27.4875Q91.81563 26.784374 93.08125 26.784374Q95.14375 26.784374 96.28438 28.14375Q97.425 29.503124 97.425 32.034374L97.425 32.784374L90.26875 32.784374Q90.3 34.346874 91.175 35.315624Q92.05 36.26875 93.39375 36.26875Q94.3625 36.26875 95.01875 35.878124Q95.69063 35.4875 96.19063 34.846874L97.28438 35.70625Q95.95625 37.753124 93.3 37.753124ZM93.08125 28.26875Q91.9875 28.26875 91.2375 29.065624Q90.50313 29.8625 90.33125 31.3L95.6125 31.3L95.6125 31.159374Q95.53438 29.784374 94.8625 29.034374Q94.20625 28.26875 93.08125 28.26875ZM99.47188 32.175Q99.47188 29.753124 100.62813 28.26875Q101.78438 26.784374 103.64375 26.784374Q105.50313 26.784374 106.58125 28.05L106.58125 22.55L108.39375 22.55L108.39375 37.55L106.7375 37.55L106.64375 36.409374Q105.56563 37.753124 103.62813 37.753124Q101.8 37.753124 100.62813 36.253124Q99.47188 34.7375 99.47188 32.315624L99.47188 32.175ZM101.28438 32.378124Q101.28438 34.175 102.01875 35.190624Q102.76875 36.20625 104.08125 36.20625Q105.8 36.20625 106.58125 34.675L106.58125 29.815624Q105.78438 28.315624 104.09688 28.315624Q102.76875 28.315624 102.01875 29.346874Q101.28438 30.378124 101.28438 32.378124ZM118.20625 37.55L116.33125 37.55L116.33125 23.33125L118.20625 23.33125L118.20625 37.55ZM132.14375 30.89375Q132.14375 32.9875 131.44063 34.55Q130.7375 36.096874 129.44063 36.925Q128.15938 37.753124 126.44063 37.753124Q124.75313 37.753124 123.45625 36.925Q122.15938 36.096874 121.44063 34.565624Q120.72188 33.034374 120.70625 31.01875L120.70625 30.003124Q120.70625 27.95625 121.40938 26.378124Q122.12813 24.8 123.425 23.971874Q124.7375 23.128124 126.40938 23.128124Q128.12813 23.128124 129.425 23.95625Q130.7375 24.784374 131.44063 26.3625Q132.14375 27.925 132.14375 30.003124L132.14375 30.89375ZM130.26875 29.9875Q130.26875 27.45625 129.25313 26.1125Q128.2375 24.753124 126.40938 24.753124Q124.64375 24.753124 123.6125 26.1125Q122.59688 27.45625 122.56563 29.846874L122.56563 30.89375Q122.56563 33.346874 123.59688 34.753124Q124.62813 36.159374 126.44063 36.159374Q128.25313 36.159374 129.2375 34.83125Q130.2375 33.503124 130.26875 31.034374L130.26875 29.9875ZM141.87813 37.55L140.08125 37.55L140.08125 22.55L141.87813 22.55L141.87813 37.55ZM144.44063 32.175Q144.44063 30.6125 145.05 29.378124Q145.65938 28.128124 146.7375 27.45625Q147.83125 26.784374 149.2375 26.784374Q151.39375 26.784374 152.72188 28.284374Q154.06563 29.76875 154.06563 32.253124L154.06563 32.378124Q154.06563 33.925 153.47188 35.159374Q152.87813 36.378124 151.76875 37.065624Q150.675 37.753124 149.25313 37.753124Q147.1125 37.753124 145.76875 36.253124Q144.44063 34.753124 144.44063 32.3L144.44063 32.175ZM146.25313 32.378124Q146.25313 34.14375 147.06563 35.20625Q147.89375 36.26875 149.25313 36.26875Q150.62813 36.26875 151.44063 35.190624Q152.25313 34.1125 152.25313 32.175Q152.25313 30.425 151.425 29.346874Q150.59688 28.26875 149.2375 28.26875Q147.89375 28.26875 147.06563 29.33125Q146.25313 30.39375 146.25313 32.378124ZM157.62813 26.9875L157.69063 28.315624Q158.89375 26.784374 160.84688 26.784374Q164.20625 26.784374 164.22188 30.565624L164.22188 37.55L162.425 37.55L162.425 30.55Q162.40938 29.409374 161.89375 28.8625Q161.39375 28.315624 160.3 28.315624Q159.425 28.315624 158.75313 28.784374Q158.09688 29.253124 157.72188 30.01875L157.72188 37.55L155.925 37.55L155.925 26.9875L157.62813 26.9875ZM166.4875 32.175Q166.4875 29.70625 167.62813 28.253124Q168.76875 26.784374 170.65938 26.784374Q172.59688 26.784374 173.675 28.159374L173.76875 26.9875L175.40938 26.9875L175.40938 37.3Q175.40938 39.346874 174.19063 40.51875Q172.9875 41.70625 170.925 41.70625Q169.78438 41.70625 168.69063 41.221874Q167.59688 40.7375 167.01875 39.878124L167.95625 38.8Q169.12813 40.2375 170.8 40.2375Q172.12813 40.2375 172.8625 39.4875Q173.59688 38.753124 173.59688 37.409374L173.59688 36.4875Q172.51875 37.753124 170.64375 37.753124Q168.78438 37.753124 167.62813 36.253124Q166.4875 34.753124 166.4875 32.175ZM168.3 32.378124Q168.3 34.175 169.03438 35.190624Q169.76875 36.20625 171.08125 36.20625Q172.8 36.20625 173.59688 34.659374L173.59688 29.83125Q172.76875 28.315624 171.1125 28.315624Q169.78438 28.315624 169.03438 29.346874Q168.3 30.378124 168.3 32.378124ZM182.3 37.753124Q180.15938 37.753124 178.8 36.346874Q177.45625 34.925 177.45625 32.565624L177.45625 32.221874Q177.45625 30.659374 178.05 29.425Q178.65938 28.190624 179.7375 27.4875Q180.81563 26.784374 182.08125 26.784374Q184.14375 26.784374 185.28438 28.14375Q186.425 29.503124 186.425 32.034374L186.425 32.784374L179.26875 32.784374Q179.3 34.346874 180.175 35.315624Q181.05 36.26875 182.39375 36.26875Q183.3625 36.26875 184.01875 35.878124Q184.69063 35.4875 185.19063 34.846874L186.28438 35.70625Q184.95625 37.753124 182.3 37.753124ZM182.08125 28.26875Q180.9875 28.26875 180.2375 29.065624Q179.50313 29.8625 179.33125 31.3L184.6125 31.3L184.6125 31.159374Q184.53438 29.784374 183.8625 29.034374Q183.20625 28.26875 182.08125 28.26875ZM195.06563 34.753124Q195.06563 34.01875 194.51875 33.6125Q193.97188 33.20625 192.59688 32.909374Q191.22188 32.6125 190.40938 32.20625Q189.6125 31.8 189.22188 31.2375Q188.84688 30.659374 188.84688 29.878124Q188.84688 28.58125 189.94063 27.690624Q191.03438 26.784374 192.75313 26.784374Q194.55 26.784374 195.65938 27.721874Q196.78438 28.64375 196.78438 30.08125L194.95625 30.08125Q194.95625 29.346874 194.33125 28.815624Q193.70625 28.26875 192.75313 28.26875Q191.75313 28.26875 191.19063 28.70625Q190.64375 29.128124 190.64375 29.83125Q190.64375 30.471874 191.15938 30.815624Q191.675 31.14375 193.03438 31.45625Q194.39375 31.753124 195.22188 32.175Q196.06563 32.58125 196.47188 33.175Q196.87813 33.76875 196.87813 34.6125Q196.87813 36.034374 195.7375 36.89375Q194.6125 37.753124 192.8 37.753124Q191.53438 37.753124 190.55 37.3Q189.58125 36.846874 189.01875 36.05Q188.47188 35.2375 188.47188 34.3L190.28438 34.3Q190.33125 35.20625 191.00313 35.7375Q191.69063 36.26875 192.8 36.26875Q193.83125 36.26875 194.44063 35.8625Q195.06563 35.440624 195.06563 34.753124ZM201.3625 24.425L201.3625 26.9875L203.34688 26.9875L203.34688 28.378124L201.3625 28.378124L201.3625 34.925Q201.3625 35.565624 201.62813 35.89375Q201.89375 36.20625 202.53438 36.20625Q202.84688 36.20625 203.39375 36.08125L203.39375 37.55Q202.675 37.753124 202.00313 37.753124Q200.8 37.753124 200.175 37.01875Q199.56563 36.284374 199.56563 34.925L199.56563 28.378124L197.64375 28.378124L197.64375 26.9875L199.56563 26.9875L199.56563 24.425L201.3625 24.425ZM216.01875 28.596874Q215.6125 28.534374 215.14375 28.534374Q213.3625 28.534374 212.72188 30.05L212.72188 37.55L210.925 37.55L210.925 26.9875L212.675 26.9875L212.70625 28.20625Q213.59688 26.784374 215.22188 26.784374Q215.75313 26.784374 216.01875 26.925L216.01875 28.596874ZM222.3 37.753124Q220.15938 37.753124 218.8 36.346874Q217.45625 34.925 217.45625 32.565624L217.45625 32.221874Q217.45625 30.659374 218.05 29.425Q218.65938 28.190624 219.7375 27.4875Q220.81563 26.784374 222.08125 26.784374Q224.14375 26.784374 225.28438 28.14375Q226.425 29.503124 226.425 32.034374L226.425 32.784374L219.26875 32.784374Q219.3 34.346874 220.175 35.315624Q221.05 36.26875 222.39375 36.26875Q223.3625 36.26875 224.01875 35.878124Q224.69063 35.4875 225.19063 34.846874L226.28438 35.70625Q224.95625 37.753124 222.3 37.753124ZM222.08125 28.26875Q220.9875 28.26875 220.2375 29.065624Q219.50313 29.8625 219.33125 31.3L224.6125 31.3L224.6125 31.159374Q224.53438 29.784374 223.8625 29.034374Q223.20625 28.26875 222.08125 28.26875ZM228.47188 32.175Q228.47188 29.690624 229.6125 28.2375Q230.76875 26.784374 232.69063 26.784374Q234.56563 26.784374 235.64375 28.05L235.72188 26.9875L237.37813 26.9875L237.37813 41.6125L235.58125 41.6125L235.58125 36.565624Q234.4875 37.753124 232.675 37.753124Q230.75313 37.753124 229.6125 36.26875Q228.47188 34.76875 228.47188 32.3L228.47188 32.175ZM230.28438 32.378124Q230.28438 34.20625 231.05 35.2375Q231.81563 36.26875 233.1125 36.26875Q234.72188 36.26875 235.58125 34.846874L235.58125 29.675Q234.72188 28.26875 233.14375 28.26875Q231.83125 28.26875 231.05 29.315624Q230.28438 30.346874 230.28438 32.378124ZM246.44063 36.503124Q245.39375 37.753124 243.34688 37.753124Q241.65938 37.753124 240.76875 36.76875Q239.89375 35.784374 239.87813 33.8625L239.87813 26.9875L241.69063 26.9875L241.69063 33.815624Q241.69063 36.20625 243.64375 36.20625Q245.70625 36.20625 246.39375 34.675L246.39375 26.9875L248.20625 26.9875L248.20625 37.55L246.4875 37.55L246.44063 36.503124ZM255.3 37.753124Q253.15938 37.753124 251.8 36.346874Q250.45625 34.925 250.45625 32.565624L250.45625 32.221874Q250.45625 30.659374 251.05 29.425Q251.65938 28.190624 252.7375 27.4875Q253.81563 26.784374 255.08125 26.784374Q257.14374 26.784374 258.28436 28.14375Q259.425 29.503124 259.425 32.034374L259.425 32.784374L252.26875 32.784374Q252.3 34.346874 253.175 35.315624Q254.05 36.26875 255.39375 36.26875Q256.3625 36.26875 257.01874 35.878124Q257.6906 35.4875 258.1906 34.846874L259.28436 35.70625Q257.95624 37.753124 255.3 37.753124ZM255.08125 28.26875Q253.9875 28.26875 253.2375 29.065624Q252.50313 29.8625 252.33125 31.3L257.6125 31.3L257.6125 31.159374Q257.53436 29.784374 256.8625 29.034374Q256.20624 28.26875 255.08125 28.26875ZM268.0656 34.753124Q268.0656 34.01875 267.51874 33.6125Q266.97186 33.20625 265.59686 32.909374Q264.22186 32.6125 263.40936 32.20625Q262.6125 31.8 262.22186 31.2375Q261.84686 30.659374 261.84686 29.878124Q261.84686 28.58125 262.9406 27.690624Q264.03436 26.784374 265.7531 26.784374Q267.55 26.784374 268.65936 27.721874Q269.78436 28.64375 269.78436 30.08125L267.95624 30.08125Q267.95624 29.346874 267.33124 28.815624Q266.70624 28.26875 265.7531 28.26875Q264.7531 28.26875 264.1906 28.70625Q263.64374 29.128124 263.64374 29.83125Q263.64374 30.471874 264.15936 30.815624Q264.675 31.14375 266.03436 31.45625Q267.39374 31.753124 268.22186 32.175Q269.0656 32.58125 269.47186 33.175Q269.8781 33.76875 269.8781 34.6125Q269.8781 36.034374 268.7375 36.89375Q267.6125 37.753124 265.8 37.753124Q264.53436 37.753124 263.55 37.3Q262.58124 36.846874 262.01874 36.05Q261.47186 35.2375 261.47186 34.3L263.28436 34.3Q263.33124 35.20625 264.0031 35.7375Q264.6906 36.26875 265.8 36.26875Q266.83124 36.26875 267.4406 35.8625Q268.0656 35.440624 268.0656 34.753124ZM274.3625 24.425L274.3625 26.9875L276.34686 26.9875L276.34686 28.378124L274.3625 28.378124L274.3625 34.925Q274.3625 35.565624 274.6281 35.89375Q274.89374 36.20625 275.53436 36.20625Q275.84686 36.20625 276.39374 36.08125L276.39374 37.55Q275.675 37.753124 275.0031 37.753124Q273.8 37.753124 273.175 37.01875Q272.5656 36.284374 272.5656 34.925L272.5656 28.378124L270.64374 28.378124L270.64374 26.9875L272.5656 26.9875L272.5656 24.425L274.3625 24.425ZM286.3625 24.425L286.3625 26.9875L288.34686 26.9875L288.34686 28.378124L286.3625 28.378124L286.3625 34.925Q286.3625 35.565624 286.6281 35.89375Q286.89374 36.20625 287.53436 36.20625Q287.84686 36.20625 288.39374 36.08125L288.39374 37.55Q287.675 37.753124 287.0031 37.753124Q285.8 37.753124 285.175 37.01875Q284.5656 36.284374 284.5656 34.925L284.5656 28.378124L282.64374 28.378124L282.64374 26.9875L284.5656 26.9875L284.5656 24.425L286.3625 24.425ZM292.8781 37.55L291.08124 37.55L291.08124 26.9875L292.8781 26.9875L292.8781 37.55ZM290.925 24.175Q290.925 23.7375 291.1906 23.440624Q291.47186 23.128124 291.9875 23.128124Q292.51874 23.128124 292.78436 23.440624Q293.0656 23.7375 293.0656 24.175Q293.0656 24.6125 292.78436 24.909374Q292.51874 25.20625 291.9875 25.20625Q291.47186 25.20625 291.1906 24.909374Q290.925 24.6125 290.925 24.175ZM297.6125 26.9875L297.65936 28.159374Q298.83124 26.784374 300.8 26.784374Q303.01874 26.784374 303.8156 28.4875Q304.34686 27.721874 305.1906 27.253124Q306.03436 26.784374 307.1906 26.784374Q310.65936 26.784374 310.72186 30.471874L310.72186 37.55L308.90936 37.55L308.90936 30.58125Q308.90936 29.440624 308.39374 28.878124Q307.8781 28.315624 306.65936 28.315624Q305.65936 28.315624 304.9875 28.925Q304.33124 29.51875 304.22186 30.534374L304.22186 37.55L302.40936 37.55L302.40936 30.628124Q302.40936 28.315624 300.14374 28.315624Q298.3625 28.315624 297.72186 29.83125L297.72186 37.55L295.90936 37.55L295.90936 26.9875L297.6125 26.9875ZM318.3 37.753124Q316.15936 37.753124 314.8 36.346874Q313.45624 34.925 313.45624 32.565624L313.45624 32.221874Q313.45624 30.659374 314.05 29.425Q314.65936 28.190624 315.7375 27.4875Q316.8156 26.784374 318.08124 26.784374Q320.14374 26.784374 321.28436 28.14375Q322.425 29.503124 322.425 32.034374L322.425 32.784374L315.26874 32.784374Q315.3 34.346874 316.175 35.315624Q317.05 36.26875 318.39374 36.26875Q319.3625 36.26875 320.01874 35.878124Q320.6906 35.4875 321.1906 34.846874L322.28436 35.70625Q320.95624 37.753124 318.3 37.753124ZM318.08124 28.26875Q316.9875 28.26875 316.2375 29.065624Q315.5031 29.8625 315.33124 31.3L320.6125 31.3L320.6125 31.159374Q320.53436 29.784374 319.8625 29.034374Q319.20624 28.26875 318.08124 28.26875ZM329.84686 31.784374Q329.84686 29.565624 330.4406 27.534374Q331.03436 25.503124 332.20624 23.846874Q333.3781 22.190624 334.6281 21.503124L335.0031 22.690624Q333.58124 23.784374 332.65936 26.034374Q331.7531 28.284374 331.65936 31.065624L331.65936 31.89375Q331.65936 35.659374 333.03436 38.440624Q333.8625 40.096874 335.0031 41.034374L334.6281 42.14375Q333.33124 41.425 332.15936 39.721874Q329.84686 36.39375 329.84686 31.784374ZM346.26874 35.065624L348.3 26.9875L350.1125 26.9875L347.03436 37.55L345.5656 37.55L343.0031 29.534374L340.5031 37.55L339.03436 37.55L335.97186 26.9875L337.76874 26.9875L339.84686 34.89375L342.3156 26.9875L343.76874 26.9875L346.26874 35.065624ZM351.4406 32.175Q351.4406 30.6125 352.05 29.378124Q352.65936 28.128124 353.7375 27.45625Q354.83124 26.784374 356.2375 26.784374Q358.39374 26.784374 359.72186 28.284374Q361.0656 29.76875 361.0656 32.253124L361.0656 32.378124Q361.0656 33.925 360.47186 35.159374Q359.8781 36.378124 358.76874 37.065624Q357.675 37.753124 356.2531 37.753124Q354.1125 37.753124 352.76874 36.253124Q351.4406 34.753124 351.4406 32.3L351.4406 32.175ZM353.2531 32.378124Q353.2531 34.14375 354.0656 35.20625Q354.89374 36.26875 356.2531 36.26875Q357.6281 36.26875 358.4406 35.190624Q359.2531 34.1125 359.2531 32.175Q359.2531 30.425 358.425 29.346874Q357.59686 28.26875 356.2375 28.26875Q354.89374 28.26875 354.0656 29.33125Q353.2531 30.39375 353.2531 32.378124ZM368.01874 28.596874Q367.6125 28.534374 367.14374 28.534374Q365.3625 28.534374 364.72186 30.05L364.72186 37.55L362.925 37.55L362.925 26.9875L364.675 26.9875L364.70624 28.20625Q365.59686 26.784374 367.22186 26.784374Q367.7531 26.784374 368.01874 26.925L368.01874 28.596874ZM376.0656 34.753124Q376.0656 34.01875 375.51874 33.6125Q374.97186 33.20625 373.59686 32.909374Q372.22186 32.6125 371.40936 32.20625Q370.6125 31.8 370.22186 31.2375Q369.84686 30.659374 369.84686 29.878124Q369.84686 28.58125 370.9406 27.690624Q372.03436 26.784374 373.7531 26.784374Q375.55 26.784374 376.65936 27.721874Q377.78436 28.64375 377.78436 30.08125L375.95624 30.08125Q375.95624 29.346874 375.33124 28.815624Q374.70624 28.26875 373.7531 28.26875Q372.7531 28.26875 372.1906 28.70625Q371.64374 29.128124 371.64374 29.83125Q371.64374 30.471874 372.15936 30.815624Q372.675 31.14375 374.03436 31.45625Q375.39374 31.753124 376.22186 32.175Q377.0656 32.58125 377.47186 33.175Q377.8781 33.76875 377.8781 34.6125Q377.8781 36.034374 376.7375 36.89375Q375.6125 37.753124 373.8 37.753124Q372.53436 37.753124 371.55 37.3Q370.58124 36.846874 370.01874 36.05Q369.47186 35.2375 369.47186 34.3L371.28436 34.3Q371.33124 35.20625 372.0031 35.7375Q372.6906 36.26875 373.8 36.26875Q374.83124 36.26875 375.4406 35.8625Q376.0656 35.440624 376.0656 34.753124ZM382.3625 24.425L382.3625 26.9875L384.34686 26.9875L384.34686 28.378124L382.3625 28.378124L382.3625 34.925Q382.3625 35.565624 382.6281 35.89375Q382.89374 36.20625 383.53436 36.20625Q383.84686 36.20625 384.39374 36.08125L384.39374 37.55Q383.675 37.753124 383.0031 37.753124Q381.8 37.753124 381.175 37.01875Q380.5656 36.284374 380.5656 34.925L380.5656 28.378124L378.64374 28.378124L378.64374 26.9875L380.5656 26.9875L380.5656 24.425L382.3625 24.425ZM396.15936 36.26875Q397.1281 36.26875 397.84686 35.690624Q398.5656 35.096874 398.64374 34.221874L400.3625 34.221874Q400.3 35.128124 399.72186 35.95625Q399.15936 36.76875 398.1906 37.26875Q397.2375 37.753124 396.15936 37.753124Q394.0031 37.753124 392.72186 36.315624Q391.45624 34.8625 391.45624 32.3625L391.45624 32.065624Q391.45624 30.51875 392.01874 29.315624Q392.58124 28.1125 393.64374 27.45625Q394.70624 26.784374 396.14374 26.784374Q397.925 26.784374 399.09686 27.846874Q400.28436 28.909374 400.3625 30.6125L398.64374 30.6125Q398.5656 29.596874 397.8625 28.940624Q397.175 28.26875 396.14374 28.26875Q394.76874 28.26875 394.0031 29.26875Q393.2531 30.253124 393.2531 32.128124L393.2531 32.471874Q393.2531 34.3 394.0031 35.284374Q394.7531 36.26875 396.15936 36.26875ZM408.4406 37.55Q408.28436 37.2375 408.1906 36.440624Q406.925 37.753124 405.175 37.753124Q403.6125 37.753124 402.6125 36.8625Q401.6125 35.971874 401.6125 34.6125Q401.6125 32.971874 402.8625 32.065624Q404.1281 31.14375 406.39374 31.14375L408.15936 31.14375L408.15936 30.315624Q408.15936 29.3625 407.58124 28.8Q407.01874 28.2375 405.925 28.2375Q404.95624 28.2375 404.3 28.7375Q403.64374 29.221874 403.64374 29.909374L401.83124 29.909374Q401.83124 29.128124 402.39374 28.39375Q402.95624 27.64375 403.90936 27.221874Q404.8781 26.784374 406.03436 26.784374Q407.8625 26.784374 408.89374 27.70625Q409.925 28.6125 409.97186 30.221874L409.97186 35.08125Q409.97186 36.534374 410.33124 37.39375L410.33124 37.55L408.4406 37.55ZM405.4406 36.175Q406.3 36.175 407.05 35.7375Q407.8156 35.3 408.15936 34.596874L408.15936 32.425L406.7375 32.425Q403.425 32.425 403.425 34.3625Q403.425 35.221874 403.9875 35.70625Q404.55 36.175 405.4406 36.175ZM419.0656 34.753124Q419.0656 34.01875 418.51874 33.6125Q417.97186 33.20625 416.59686 32.909374Q415.22186 32.6125 414.40936 32.20625Q413.6125 31.8 413.22186 31.2375Q412.84686 30.659374 412.84686 29.878124Q412.84686 28.58125 413.9406 27.690624Q415.03436 26.784374 416.7531 26.784374Q418.55 26.784374 419.65936 27.721874Q420.78436 28.64375 420.78436 30.08125L418.95624 30.08125Q418.95624 29.346874 418.33124 28.815624Q417.70624 28.26875 416.7531 28.26875Q415.7531 28.26875 415.1906 28.70625Q414.64374 29.128124 414.64374 29.83125Q414.64374 30.471874 415.15936 30.815624Q415.675 31.14375 417.03436 31.45625Q418.39374 31.753124 419.22186 32.175Q420.0656 32.58125 420.47186 33.175Q420.8781 33.76875 420.8781 34.6125Q420.8781 36.034374 419.7375 36.89375Q418.6125 37.753124 416.8 37.753124Q415.53436 37.753124 414.55 37.3Q413.58124 36.846874 413.01874 36.05Q412.47186 35.2375 412.47186 34.3L414.28436 34.3Q414.33124 35.20625 415.0031 35.7375Q415.6906 36.26875 416.8 36.26875Q417.83124 36.26875 418.4406 35.8625Q419.0656 35.440624 419.0656 34.753124ZM427.3 37.753124Q425.15936 37.753124 423.8 36.346874Q422.45624 34.925 422.45624 32.565624L422.45624 32.221874Q422.45624 30.659374 423.05 29.425Q423.65936 28.190624 424.7375 27.4875Q425.8156 26.784374 427.08124 26.784374Q429.14374 26.784374 430.28436 28.14375Q431.425 29.503124 431.425 32.034374L431.425 32.784374L424.26874 32.784374Q424.3 34.346874 425.175 35.315624Q426.05 36.26875 427.39374 36.26875Q428.3625 36.26875 429.01874 35.878124Q429.6906 35.4875 430.1906 34.846874L431.28436 35.70625Q429.95624 37.753124 427.3 37.753124ZM427.08124 28.26875Q425.9875 28.26875 425.2375 29.065624Q424.5031 29.8625 424.33124 31.3L429.6125 31.3L429.6125 31.159374Q429.53436 29.784374 428.8625 29.034374Q428.20624 28.26875 427.08124 28.26875ZM438.08124 31.878124Q438.08124 34.05 437.5031 36.05Q436.9406 38.05 435.76874 39.7375Q434.59686 41.425 433.3 42.14375L432.925 41.034374Q434.425 39.878124 435.33124 37.45625Q436.2531 35.034374 436.26874 32.065624L436.26874 31.753124Q436.26874 29.70625 435.83124 27.940624Q435.40936 26.175 434.64374 24.784374Q433.8781 23.39375 432.925 22.6125L433.3 21.503124Q434.59686 22.221874 435.7531 23.89375Q436.925 25.55 437.5031 27.565624Q438.08124 29.58125 438.08124 31.878124Z" fill-rule="nonzero"/></svg>