<svg version="1.1" viewBox="0.0 0.0 600.0 371.0" fill="none" stroke="none" stroke-linecap="square" stroke-miterlimit="10" width="600" height="371" xmlns:xlink="http://www.w3.org/1999/xlink" xmlns="http://www.w3.org/2000/svg"><path fill="#ffffff" d="M0 0L600.0 0L600.0 371.0L0 371.0L0 0Z" fill-rule="nonzero"/><path stroke="#333333" stroke-width="1.0" stroke-linecap="butt" d="M78.5 298.5L581.5 298.5" fill-rule="nonzero"/><path stroke="#cccccc" stroke-width="1.0" stroke-linecap="butt" d="M78.5 256.5L581.5 256.5" fill-rule="nonzero"/><path stroke="#cccccc" stroke-width="1.0" stroke-linecap="butt" d="M78.5 214.5L581.5 214.5" fill-rule="nonzero"/><path stroke="#cccccc" stroke-width="1.0" stroke-linecap="butt" d="M78.5 173.5L581.5 173.5" fill-rule="nonzero"/><path stroke="#cccccc" stroke-width="1.0" stroke-linecap="butt" d="M78.5 131.5L581.5 131.5" fill-rule="nonzero"/><path stroke="#cccccc" stroke-width="1.0" stroke-linecap="butt" d="M78.5 89.5L581.5 89.5" fill-rule="nonzero"/><clipPath id="id_0"><path d="M78.55 89.78333L581.45 89.78333L581.45 298.45L78.55 298.45L78.55 89.78333Z" clip-rule="nonzero"/></clipPath><path stroke="#000000" stroke-width="0.0" stroke-linecap="butt" stroke-opacity="0.0" clip-path="url(#id_0)" d="M141.0 298.0L111.0 298.0L111.0 250.0C111.0 248.89543 111.89543 248.0 113.0 248.0L139.0 248.0C140.10457 248.0 141.0 248.89543 141.0 250.0Z" fill-rule="nonzero"/><path fill="#34a853" clip-path="url(#id_0)" d="M141.0 298.0L111.0 298.0L111.0 250.0C111.0 248.89543 111.89543 248.0 113.0 248.0L139.0 248.0C140.10457 248.0 141.0 248.89543 141.0 250.0Z" fill-rule="nonzero"/><path stroke="#000000" stroke-width="0.0" stroke-linecap="butt" stroke-opacity="0.0" clip-path="url(#id_0)" d="M235.0 298.0L205.0 298.0L205.0 245.0C205.0 243.89543 205.89543 243.0 207.0 243.0L233.0 243.0C234.10457 243.0 235.0 243.89543 235.0 245.0Z" fill-rule="nonzero"/><path fill="#34a853" clip-path="url(#id_0)" d="M235.0 298.0L205.0 298.0L205.0 245.0C205.0 243.89543 205.89543 243.0 207.0 243.0L233.0 243.0C234.10457 243.0 235.0 243.89543 235.0 245.0Z" fill-rule="nonzero"/><path stroke="#000000" stroke-width="0.0" stroke-linecap="butt" stroke-opacity="0.0" clip-path="url(#id_0)" d="M329.0 298.0L299.0 298.0L299.0 240.0C299.0 238.89543 299.89542 238.0 301.0 238.0L327.0 238.0C328.10458 238.0 329.0 238.89543 329.0 240.0Z" fill-rule="nonzero"/><path fill="#34a853" clip-path="url(#id_0)" d="M329.0 298.0L299.0 298.0L299.0 240.0C299.0 238.89543 299.89542 238.0 301.0 238.0L327.0 238.0C328.10458 238.0 329.0 238.89543 329.0 240.0Z" fill-rule="nonzero"/><path stroke="#000000" stroke-width="0.0" stroke-linecap="butt" stroke-opacity="0.0" clip-path="url(#id_0)" d="M423.0 298.0L393.0 298.0L393.0 234.0C393.0 232.89543 393.89542 232.0 395.0 232.0L421.0 232.0C422.10458 232.0 423.0 232.89543 423.0 234.0Z" fill-rule="nonzero"/><path fill="#34a853" clip-path="url(#id_0)" d="M423.0 298.0L393.0 298.0L393.0 234.0C393.0 232.89543 393.89542 232.0 395.0 232.0L421.0 232.0C422.10458 232.0 423.0 232.89543 423.0 234.0Z" fill-rule="nonzero"/><path stroke="#000000" stroke-width="0.0" stroke-linecap="butt" stroke-opacity="0.0" clip-path="url(#id_0)" d="M517.0 298.0L487.0 298.0L487.0 225.0C487.0 223.89543 487.89542 223.0 489.0 223.0L515.0 223.0C516.10455 223.0 517.0 223.89543 517.0 225.0Z" fill-rule="nonzero"/><path fill="#34a853" clip-path="url(#id_0)" d="M517.0 298.0L487.0 298.0L487.0 225.0C487.0 223.89543 487.89542 223.0 489.0 223.0L515.0 223.0C516.10455 223.0 517.0 223.89543 517.0 225.0Z" fill-rule="nonzero"/><path stroke="#000000" stroke-width="0.0" stroke-linecap="butt" stroke-opacity="0.0" clip-path="url(#id_0)" d="M172.0 298.0L142.0 298.0L142.0 241.0C142.0 239.89543 142.89543 239.0 144.0 239.0L170.0 239.0C171.10457 239.0 172.0 239.89543 172.0 241.0Z" fill-rule="nonzero"/><path fill="#4285f4" clip-path="url(#id_0)" d="M172.0 298.0L142.0 298.0L142.0 241.0C142.0 239.89543 142.89543 239.0 144.0 239.0L170.0 239.0C171.10457 239.0 172.0 239.89543 172.0 241.0Z" fill-rule="nonzero"/><path stroke="#000000" stroke-width="0.0" stroke-linecap="butt" stroke-opacity="0.0" clip-path="url(#id_0)" d="M266.0 298.0L236.0 298.0L236.0 212.0C236.0 210.89543 236.89543 210.0 238.0 210.0L264.0 210.0C265.10458 210.0 266.0 210.89543 266.0 212.0Z" fill-rule="nonzero"/><path fill="#4285f4" clip-path="url(#id_0)" d="M266.0 298.0L236.0 298.0L236.0 212.0C236.0 210.89543 236.89543 210.0 238.0 210.0L264.0 210.0C265.10458 210.0 266.0 210.89543 266.0 212.0Z" fill-rule="nonzero"/><path stroke="#000000" stroke-width="0.0" stroke-linecap="butt" stroke-opacity="0.0" clip-path="url(#id_0)" d="M360.0 298.0L330.0 298.0L330.0 175.0C330.0 173.89543 330.89542 173.0 332.0 173.0L358.0 173.0C359.10458 173.0 360.0 173.89543 360.0 175.0Z" fill-rule="nonzero"/><path fill="#4285f4" clip-path="url(#id_0)" d="M360.0 298.0L330.0 298.0L330.0 175.0C330.0 173.89543 330.89542 173.0 332.0 173.0L358.0 173.0C359.10458 173.0 360.0 173.89543 360.0 175.0Z" fill-rule="nonzero"/><path stroke="#000000" stroke-width="0.0" stroke-linecap="butt" stroke-opacity="0.0" clip-path="url(#id_0)" d="M454.0 298.0L424.0 298.0L424.0 133.0C424.0 131.89543 424.89542 131.0 426.0 131.0L452.0 131.0C453.10458 131.0 454.0 131.89543 454.0 133.0Z" fill-rule="nonzero"/><path fill="#4285f4" clip-path="url(#id_0)" d="M454.0 298.0L424.0 298.0L424.0 133.0C424.0 131.89543 424.89542 131.0 426.0 131.0L452.0 131.0C453.10458 131.0 454.0 131.89543 454.0 133.0Z" fill-rule="nonzero"/><path stroke="#000000" stroke-width="0.0" stroke-linecap="butt" stroke-opacity="0.0" clip-path="url(#id_0)" d="M548.0 298.0L518.0 298.0L518.0 105.0C518.0 103.89543 518.89545 103.0 520.0 103.0L546.0 103.0C547.10455 103.0 548.0 103.89543 548.0 105.0Z" fill-rule="nonzero"/><path fill="#4285f4" clip-path="url(#id_0)" d="M548.0 298.0L518.0 298.0L518.0 105.0C518.0 103.89543 518.89545 103.0 520.0 103.0L546.0 103.0C547.10455 103.0 548.0 103.89543 548.0 105.0Z" fill-rule="nonzero"/><path fill="#000000" d="M289.95312 346.60626Q289.85938 347.98126 288.9375 348.77814Q288.03125 349.575 286.53125 349.575Q284.89062 349.575 283.9375 348.46564Q283.0 347.35626 283.0 345.4344L283.0 344.90314Q283.0 343.6844 283.4375 342.7469Q283.875 341.8094 284.67188 341.3094Q285.48438 340.79376 286.54688 340.79376Q288.03125 340.79376 288.92188 341.59064Q289.82812 342.3875 289.96875 343.8094L288.21875 343.8094Q288.15625 342.98126 287.75 342.6219Q287.35938 342.2469 286.54688 342.2469Q285.67188 342.2469 285.23438 342.8719Q284.79688 343.4969 284.78125 344.825L284.78125 345.46564Q284.78125 346.85626 285.20312 347.4969Q285.625 348.1375 286.53125 348.1375Q287.34375 348.1375 287.73438 347.7625Q288.14062 347.3875 288.20312 346.60626L289.95312 346.60626ZM290.89062 346.21564Q290.89062 345.27814 291.25 344.54376Q291.60938 343.79376 292.29688 343.40314Q292.98438 342.9969 293.875 342.9969Q295.17188 342.9969 295.96875 343.77814Q296.78125 344.5594 296.875 345.90314L296.89062 346.34064Q296.89062 347.8094 296.07812 348.7Q295.26562 349.575 293.89062 349.575Q292.51562 349.575 291.70312 348.7Q290.89062 347.8094 290.89062 346.29376L290.89062 346.21564ZM292.57812 346.34064Q292.57812 347.2469 292.92188 347.73126Q293.26562 348.2 293.89062 348.2Q294.51562 348.2 294.85938 347.73126Q295.20312 347.2625 295.20312 346.21564Q295.20312 345.34064 294.85938 344.85626Q294.51562 344.35626 293.875 344.35626Q293.26562 344.35626 292.92188 344.84064Q292.57812 345.325 292.57812 346.34064ZM299.70312 343.10626L299.76562 343.84064Q300.4375 342.9969 301.57812 342.9969Q302.59375 342.9969 303.07812 343.59064Q303.57812 344.16876 303.59375 345.35626L303.59375 349.45L301.89062 349.45L301.89062 345.3875Q301.89062 344.85626 301.65625 344.6219Q301.42188 344.3719 300.875 344.3719Q300.17188 344.3719 299.8125 344.98126L299.8125 349.45L298.10938 349.45L298.10938 343.10626L299.70312 343.10626ZM307.78125 348.2Q308.25 348.2 308.54688 347.95Q308.84375 347.6844 308.85938 347.2625L310.4375 347.2625Q310.4375 347.90314 310.09375 348.45Q309.75 348.98126 309.14062 349.27814Q308.54688 349.575 307.8125 349.575Q306.45312 349.575 305.67188 348.71564Q304.89062 347.84064 304.89062 346.3094L304.89062 346.2Q304.89062 344.73126 305.67188 343.8719Q306.45312 342.9969 307.8125 342.9969Q309.0 342.9969 309.71875 343.66876Q310.4375 344.34064 310.4375 345.46564L308.85938 345.46564Q308.84375 344.98126 308.54688 344.66876Q308.25 344.35626 307.78125 344.35626Q307.1875 344.35626 306.875 344.79376Q306.57812 345.23126 306.57812 346.1844L306.57812 346.3719Q306.57812 347.34064 306.875 347.77814Q307.17188 348.2 307.78125 348.2ZM314.95312 348.8094Q314.32812 349.575 313.21875 349.575Q312.1875 349.575 311.65625 348.98126Q311.125 348.3875 311.10938 347.2625L311.10938 343.10626L312.79688 343.10626L312.79688 347.2Q312.79688 348.2 313.70312 348.2Q314.5625 348.2 314.89062 347.59064L314.89062 343.10626L316.59375 343.10626L316.59375 349.45L315.0 349.45L314.95312 348.8094ZM321.71875 344.7Q321.375 344.65314 321.10938 344.65314Q320.14062 344.65314 319.84375 345.29376L319.84375 349.45L318.15625 349.45L318.15625 343.10626L319.75 343.10626L319.79688 343.8719Q320.3125 342.9969 321.20312 342.9969Q321.48438 342.9969 321.73438 343.075L321.71875 344.7ZM325.71875 344.7Q325.375 344.65314 325.10938 344.65314Q324.14062 344.65314 323.84375 345.29376L323.84375 349.45L322.15625 349.45L322.15625 343.10626L323.75 343.10626L323.79688 343.8719Q324.3125 342.9969 325.20312 342.9969Q325.48438 342.9969 325.73438 343.075L325.71875 344.7ZM329.0625 349.575Q327.67188 349.575 326.79688 348.71564Q325.92188 347.85626 325.92188 346.4344L325.92188 346.2625Q325.92188 345.3094 326.28125 344.5594Q326.65625 343.8094 327.32812 343.40314Q328.01562 342.9969 328.875 342.9969Q330.1875 342.9969 330.92188 343.825Q331.67188 344.6375 331.67188 346.1375L331.67188 346.825L327.64062 346.825Q327.71875 347.45 328.125 347.825Q328.54688 348.2 329.1875 348.2Q330.15625 348.2 330.70312 347.4969L331.54688 348.41876Q331.15625 348.96564 330.5 349.27814Q329.85938 349.575 329.0625 349.575ZM328.875 344.35626Q328.375 344.35626 328.0625 344.7Q327.75 345.04376 327.65625 345.66876L330.01562 345.66876L330.01562 345.54376Q330.0 344.98126 329.70312 344.66876Q329.42188 344.35626 328.875 344.35626ZM333.70312 343.10626L333.76562 343.84064Q334.4375 342.9969 335.57812 342.9969Q336.59375 342.9969 337.07812 343.59064Q337.57812 344.16876 337.59375 345.35626L337.59375 349.45L335.89062 349.45L335.89062 345.3875Q335.89062 344.85626 335.65625 344.6219Q335.42188 344.3719 334.875 344.3719Q334.17188 344.3719 333.8125 344.98126L333.8125 349.45L332.10938 349.45L332.10938 343.10626L333.70312 343.10626ZM341.78125 348.2Q342.25 348.2 342.54688 347.95Q342.84375 347.6844 342.85938 347.2625L344.4375 347.2625Q344.4375 347.90314 344.09375 348.45Q343.75 348.98126 343.14062 349.27814Q342.54688 349.575 341.8125 349.575Q340.45312 349.575 339.67188 348.71564Q338.89062 347.84064 338.89062 346.3094L338.89062 346.2Q338.89062 344.73126 339.67188 343.8719Q340.45312 342.9969 341.8125 342.9969Q343.0 342.9969 343.71875 343.66876Q344.4375 344.34064 344.4375 345.46564L342.85938 345.46564Q342.84375 344.98126 342.54688 344.66876Q342.25 344.35626 341.78125 344.35626Q341.1875 344.35626 340.875 344.79376Q340.57812 345.23126 340.57812 346.1844L340.57812 346.3719Q340.57812 347.34064 340.875 347.77814Q341.17188 348.2 341.78125 348.2ZM347.51562 347.0594L348.6875 343.10626L350.5 343.10626L347.95312 350.4344L347.8125 350.7625Q347.25 352.0125 345.9375 352.0125Q345.57812 352.0125 345.1875 351.90314L345.1875 350.6219L345.45312 350.6219Q345.9375 350.6219 346.17188 350.46564Q346.40625 350.325 346.54688 349.9969L346.73438 349.46564L344.51562 343.10626L346.34375 343.10626L347.51562 347.0594ZM355.9375 349.45L354.23438 349.45L354.23438 340.45L355.9375 340.45L355.9375 349.45ZM360.0625 349.575Q358.67188 349.575 357.79688 348.71564Q356.92188 347.85626 356.92188 346.4344L356.92188 346.2625Q356.92188 345.3094 357.28125 344.5594Q357.65625 343.8094 358.32812 343.40314Q359.01562 342.9969 359.875 342.9969Q361.1875 342.9969 361.92188 343.825Q362.67188 344.6375 362.67188 346.1375L362.67188 346.825L358.64062 346.825Q358.71875 347.45 359.125 347.825Q359.54688 348.2 360.1875 348.2Q361.15625 348.2 361.70312 347.4969L362.54688 348.41876Q362.15625 348.96564 361.5 349.27814Q360.85938 349.575 360.0625 349.575ZM359.875 344.35626Q359.375 344.35626 359.0625 344.7Q358.75 345.04376 358.65625 345.66876L361.01562 345.66876L361.01562 345.54376Q361.0 344.98126 360.70312 344.66876Q360.42188 344.35626 359.875 344.35626ZM365.53125 347.3875L366.70312 343.10626L368.46875 343.10626L366.32812 349.45L364.71875 349.45L362.57812 343.10626L364.34375 343.10626L365.53125 347.3875ZM372.0625 349.575Q370.67188 349.575 369.79688 348.71564Q368.92188 347.85626 368.92188 346.4344L368.92188 346.2625Q368.92188 345.3094 369.28125 344.5594Q369.65625 343.8094 370.32812 343.40314Q371.01562 342.9969 371.875 342.9969Q373.1875 342.9969 373.92188 343.825Q374.67188 344.6375 374.67188 346.1375L374.67188 346.825L370.64062 346.825Q370.71875 347.45 371.125 347.825Q371.54688 348.2 372.1875 348.2Q373.15625 348.2 373.70312 347.4969L374.54688 348.41876Q374.15625 348.96564 373.5 349.27814Q372.85938 349.575 372.0625 349.575ZM371.875 344.35626Q371.375 344.35626 371.0625 344.7Q370.75 345.04376 370.65625 345.66876L373.01562 345.66876L373.01562 345.54376Q373.0 344.98126 372.70312 344.66876Q372.42188 344.35626 371.875 344.35626ZM376.9375 349.45L375.23438 349.45L375.23438 340.45L376.9375 340.45L376.9375 349.45Z" fill-rule="nonzero"/><path fill="#000000" d="M23.440638 251.67917L23.440638 254.28854L30.550013 254.28854L30.550013 256.05417L23.440638 256.05417L23.440638 258.6323L22.018763 258.6323L22.018763 251.67917L23.440638 251.67917ZM30.550013 249.42917L30.550013 251.1323L24.206263 251.1323L24.206263 249.42917L30.550013 249.42917ZM22.565638 251.22604Q22.190638 251.22604 21.940638 250.97604Q21.690638 250.71042 21.690638 250.27292Q21.690638 249.85104 21.940638 249.60104Q22.190638 249.33542 22.565638 249.33542Q22.956263 249.33542 23.206263 249.60104Q23.440638 249.85104 23.440638 250.28854Q23.440638 250.71042 23.206263 250.97604Q22.956263 251.22604 22.565638 251.22604ZM24.206263 246.6323L24.925013 246.5698Q24.096888 245.89792 24.096888 244.7573Q24.096888 243.52292 25.065638 243.0698Q24.096888 242.39792 24.096888 241.16354Q24.096888 240.1323 24.706263 239.6323Q25.300013 239.1323 26.503138 239.1323L30.550013 239.1323L30.550013 240.8198L26.503138 240.8198Q25.971888 240.8198 25.721888 241.03854Q25.471888 241.24167 25.471888 241.78854Q25.471888 242.53854 26.190638 242.83542L30.550013 242.83542L30.550013 244.52292L26.518763 244.52292Q25.956263 244.52292 25.721888 244.74167Q25.471888 244.96042 25.471888 245.47604Q25.471888 246.1948 26.065638 246.52292L30.550013 246.52292L30.550013 248.21042L24.206263 248.21042L24.206263 246.6323ZM30.675013 235.30417Q30.675013 236.6948 29.815638 237.5698Q28.956263 238.4448 27.534388 238.4448L27.362513 238.4448Q26.409388 238.4448 25.659388 238.08542Q24.909388 237.71042 24.503138 237.03854Q24.096888 236.35104 24.096888 235.49167Q24.096888 234.17917 24.925013 233.4448Q25.737513 232.6948 27.237513 232.6948L27.925013 232.6948L27.925013 236.72604Q28.550013 236.64792 28.925013 236.24167Q29.300013 235.8198 29.300013 235.17917Q29.300013 234.21042 28.596888 233.66354L29.518763 232.8198Q30.065638 233.21042 30.378138 233.86667Q30.675013 234.5073 30.675013 235.30417ZM25.456263 235.49167Q25.456263 235.99167 25.800013 236.30417Q26.143763 236.61667 26.768763 236.71042L26.768763 234.35104L26.643763 234.35104Q26.081263 234.36667 25.768763 234.66354Q25.456263 234.9448 25.456263 235.49167ZM27.440638 223.5073Q28.909388 223.5073 29.800013 224.17917Q30.675013 224.83542 30.675013 225.97604Q30.675013 226.92917 30.003138 227.52292L32.98751 227.52292L32.98751 229.21042L24.206263 229.21042L24.206263 227.64792L24.831263 227.58542Q24.096888 226.97604 24.096888 225.97604Q24.096888 224.80417 24.971888 224.16354Q25.831263 223.5073 27.346888 223.5073L27.440638 223.5073ZM27.315638 225.1948Q26.425013 225.1948 25.956263 225.52292Q25.471888 225.83542 25.471888 226.42917Q25.471888 227.22604 26.081263 227.52292L28.675013 227.52292Q29.300013 227.21042 29.300013 226.41354Q29.300013 225.1948 27.315638 225.1948ZM30.675013 219.30417Q30.675013 220.6948 29.815638 221.5698Q28.956263 222.4448 27.534388 222.4448L27.362513 222.4448Q26.409388 222.4448 25.659388 222.08542Q24.909388 221.71042 24.503138 221.03854Q24.096888 220.35104 24.096888 219.49167Q24.096888 218.17917 24.925013 217.4448Q25.737513 216.6948 27.237513 216.6948L27.925013 216.6948L27.925013 220.72604Q28.550013 220.64792 28.925013 220.24167Q29.300013 219.8198 29.300013 219.17917Q29.300013 218.21042 28.596888 217.66354L29.518763 216.8198Q30.065638 217.21042 30.378138 217.86667Q30.675013 218.5073 30.675013 219.30417ZM25.456263 219.49167Q25.456263 219.99167 25.800013 220.30417Q26.143763 220.61667 26.768763 220.71042L26.768763 218.35104L26.643763 218.35104Q26.081263 218.36667 25.768763 218.66354Q25.456263 218.9448 25.456263 219.49167ZM25.800013 212.64792Q25.753138 212.99167 25.753138 213.2573Q25.753138 214.22604 26.393763 214.52292L30.550013 214.52292L30.550013 216.21042L24.206263 216.21042L24.206263 214.61667L24.971888 214.5698Q24.096888 214.05417 24.096888 213.16354Q24.096888 212.8823 24.175013 212.6323L25.800013 212.64792ZM25.800013 205.64792Q25.753138 205.99167 25.753138 206.2573Q25.753138 207.22604 26.393763 207.52292L30.550013 207.52292L30.550013 209.21042L24.206263 209.21042L24.206263 207.61667L24.971888 207.5698Q24.096888 207.05417 24.096888 206.16354Q24.096888 205.8823 24.175013 205.6323L25.800013 205.64792ZM30.675013 202.30417Q30.675013 203.6948 29.815638 204.5698Q28.956263 205.4448 27.534388 205.4448L27.362513 205.4448Q26.409388 205.4448 25.659388 205.08542Q24.909388 204.71042 24.503138 204.03854Q24.096888 203.35104 24.096888 202.49167Q24.096888 201.17917 24.925013 200.4448Q25.737513 199.6948 27.237513 199.6948L27.925013 199.6948L27.925013 203.72604Q28.550013 203.64792 28.925013 203.24167Q29.300013 202.8198 29.300013 202.17917Q29.300013 201.21042 28.596888 200.66354L29.518763 199.8198Q30.065638 200.21042 30.378138 200.86667Q30.675013 201.5073 30.675013 202.30417ZM25.456263 202.49167Q25.456263 202.99167 25.800013 203.30417Q26.143763 203.61667 26.768763 203.71042L26.768763 201.35104L26.643763 201.35104Q26.081263 201.36667 25.768763 201.66354Q25.456263 201.9448 25.456263 202.49167ZM27.315638 199.47604Q25.831263 199.47604 24.971888 198.8198Q24.096888 198.14792 24.096888 196.99167Q24.096888 195.97604 24.878138 195.36667L24.206263 195.2573L24.206263 193.77292L32.98751 193.77292L32.98751 195.46042L30.003138 195.46042Q30.675013 196.05417 30.675013 197.0073Q30.675013 198.1323 29.800013 198.80417Q28.909388 199.47604 27.315638 199.47604ZM27.440638 197.78854Q28.346888 197.78854 28.831263 197.47604Q29.300013 197.14792 29.300013 196.5698Q29.300013 195.78854 28.675013 195.46042L26.065638 195.46042Q25.456263 195.78854 25.456263 196.55417Q25.456263 197.14792 25.940638 197.47604Q26.409388 197.78854 27.440638 197.78854ZM29.909388 188.41354Q30.675013 189.03854 30.675013 190.14792Q30.675013 191.17917 30.081263 191.71042Q29.487513 192.24167 28.362513 192.2573L24.206263 192.2573L24.206263 190.5698L28.300013 190.5698Q29.300013 190.5698 29.300013 189.66354Q29.300013 188.80417 28.690638 188.47604L24.206263 188.47604L24.206263 186.77292L30.550013 186.77292L30.550013 188.36667L29.909388 188.41354ZM30.675013 182.30417Q30.675013 183.6948 29.815638 184.5698Q28.956263 185.4448 27.534388 185.4448L27.362513 185.4448Q26.409388 185.4448 25.659388 185.08542Q24.909388 184.71042 24.503138 184.03854Q24.096888 183.35104 24.096888 182.49167Q24.096888 181.17917 24.925013 180.4448Q25.737513 179.6948 27.237513 179.6948L27.925013 179.6948L27.925013 183.72604Q28.550013 183.64792 28.925013 183.24167Q29.300013 182.8198 29.300013 182.17917Q29.300013 181.21042 28.596888 180.66354L29.518763 179.8198Q30.065638 180.21042 30.378138 180.86667Q30.675013 181.5073 30.675013 182.30417ZM25.456263 182.49167Q25.456263 182.99167 25.800013 183.30417Q26.143763 183.61667 26.768763 183.71042L26.768763 181.35104L26.643763 181.35104Q26.081263 181.36667 25.768763 181.66354Q25.456263 181.9448 25.456263 182.49167ZM28.800013 175.78854Q28.487513 175.78854 28.315638 176.10104Q28.128138 176.39792 27.987513 177.0698Q27.518763 179.33542 26.065638 179.33542Q25.221888 179.33542 24.659388 178.64792Q24.096888 177.9448 24.096888 176.80417Q24.096888 175.60104 24.659388 174.8823Q25.221888 174.14792 26.143763 174.14792L26.143763 175.85104Q25.768763 175.85104 25.534388 176.08542Q25.300013 176.3198 25.300013 176.8198Q25.300013 177.24167 25.503138 177.47604Q25.690638 177.71042 25.987513 177.71042Q26.268763 177.71042 26.440638 177.4448Q26.612513 177.17917 26.737513 176.55417Q26.862513 175.91354 27.018763 175.47604Q27.518763 174.1323 28.721888 174.1323Q29.596888 174.1323 30.143763 174.8823Q30.675013 175.61667 30.675013 176.80417Q30.675013 177.60104 30.393763 178.22604Q30.096888 178.83542 29.612513 179.1948Q29.112513 179.53854 28.534388 179.53854L28.534388 177.92917Q28.987513 177.91354 29.237513 177.60104Q29.471888 177.28854 29.471888 176.77292Q29.471888 176.27292 29.284388 176.03854Q29.096888 175.78854 28.800013 175.78854ZM22.643763 171.1948L24.206263 171.1948L24.206263 170.10104L25.456263 170.10104L25.456263 171.1948L28.612513 171.1948Q28.971888 171.1948 29.128138 171.05417Q29.268763 170.91354 29.268763 170.53854Q29.268763 170.2573 29.237513 170.03854L30.518763 170.03854Q30.675013 170.53854 30.675013 171.0698Q30.675013 172.85104 28.862513 172.8823L25.456263 172.8823L25.456263 173.80417L24.206263 173.80417L24.206263 172.8823L22.643763 172.8823L22.643763 171.1948ZM27.081263 166.1323Q25.737513 166.1323 24.534388 165.78854Q23.315638 165.42917 22.378138 164.72604Q21.440638 164.02292 21.081263 163.21042L21.987513 162.8823Q22.628138 163.74167 23.956263 164.22604Q25.268763 164.71042 27.050013 164.71042L27.221888 164.71042Q29.003138 164.71042 30.331263 164.24167Q31.659388 163.7573 32.315636 162.8823L33.221886 163.21042Q32.86251 164.0073 31.956263 164.6948Q31.050013 165.3823 29.862513 165.7573Q28.675013 166.11667 27.393763 166.1323L27.081263 166.1323ZM24.206263 160.6323L24.925013 160.5698Q24.096888 159.89792 24.096888 158.7573Q24.096888 157.52292 25.065638 157.0698Q24.096888 156.39792 24.096888 155.16354Q24.096888 154.1323 24.706263 153.6323Q25.300013 153.1323 26.503138 153.1323L30.550013 153.1323L30.550013 154.8198L26.503138 154.8198Q25.971888 154.8198 25.721888 155.03854Q25.471888 155.24167 25.471888 155.78854Q25.471888 156.53854 26.190638 156.83542L30.550013 156.83542L30.550013 158.52292L26.518763 158.52292Q25.956263 158.52292 25.721888 158.74167Q25.471888 158.96042 25.471888 159.47604Q25.471888 160.1948 26.065638 160.52292L30.550013 160.52292L30.550013 162.21042L24.206263 162.21042L24.206263 160.6323ZM28.800013 148.78854Q28.487513 148.78854 28.315638 149.10104Q28.128138 149.39792 27.987513 150.0698Q27.518763 152.33542 26.065638 152.33542Q25.221888 152.33542 24.659388 151.64792Q24.096888 150.9448 24.096888 149.80417Q24.096888 148.60104 24.659388 147.8823Q25.221888 147.14792 26.143763 147.14792L26.143763 148.85104Q25.768763 148.85104 25.534388 149.08542Q25.300013 149.3198 25.300013 149.8198Q25.300013 150.24167 25.503138 150.47604Q25.690638 150.71042 25.987513 150.71042Q26.268763 150.71042 26.440638 150.4448Q26.612513 150.17917 26.737513 149.55417Q26.862513 148.91354 27.018763 148.47604Q27.518763 147.1323 28.721888 147.1323Q29.596888 147.1323 30.143763 147.8823Q30.675013 148.61667 30.675013 149.80417Q30.675013 150.60104 30.393763 151.22604Q30.096888 151.83542 29.612513 152.1948Q29.112513 152.53854 28.534388 152.53854L28.534388 150.92917Q28.987513 150.91354 29.237513 150.60104Q29.471888 150.28854 29.471888 149.77292Q29.471888 149.27292 29.284388 149.03854Q29.096888 148.78854 28.800013 148.78854ZM27.221888 143.30417Q28.534388 143.30417 29.768763 143.67917Q30.987513 144.05417 31.925013 144.77292Q32.86251 145.49167 33.221886 146.30417L32.315636 146.6323Q31.690638 145.80417 30.393763 145.3198Q29.081263 144.83542 27.378138 144.8198L27.065638 144.8198Q25.315638 144.8198 23.987513 145.30417Q22.643763 145.77292 21.971888 146.6323L21.081263 146.30417Q21.425013 145.5073 22.331263 144.80417Q23.237513 144.10104 24.456263 143.71042Q25.659388 143.3198 26.956263 143.30417L27.221888 143.30417Z" fill-rule="nonzero"/><path fill="#000000" d="M71.6125 299.3094Q71.6125 301.21564 70.95625 302.15314Q70.31563 303.075 68.925 303.075Q67.56563 303.075 66.90938 302.16876Q66.25313 301.2625 66.22188 299.45L66.22188 298.0125Q66.22188 296.1219 66.8625 295.21564Q67.51875 294.29376 68.90938 294.29376Q70.28438 294.29376 70.94063 295.1844Q71.59688 296.0594 71.6125 297.90314L71.6125 299.3094ZM70.51875 297.825Q70.51875 296.45 70.12813 295.825Q69.75313 295.1844 68.90938 295.1844Q68.08125 295.1844 67.69063 295.825Q67.31563 296.45 67.31563 297.7469L67.31563 299.48126Q67.31563 300.85626 67.70625 301.52814Q68.1125 302.1844 68.925 302.1844Q69.72188 302.1844 70.1125 301.5594Q70.50313 300.9344 70.51875 299.60626L70.51875 297.825Z" fill-rule="nonzero"/><path fill="#000000" d="M55.815624 261.21667L54.7375 261.21667L54.7375 253.99792L52.55 254.7948L52.55 253.81042L55.659374 252.63855L55.815624 252.63855L55.815624 261.21667ZM64.6125 257.57605Q64.6125 259.4823 63.95625 260.4198Q63.315624 261.34167 61.925 261.34167Q60.565624 261.34167 59.909374 260.43542Q59.253124 259.52917 59.221874 257.71667L59.221874 256.27917Q59.221874 254.38855 59.8625 253.4823Q60.51875 252.56042 61.909374 252.56042Q63.284374 252.56042 63.940624 253.45105Q64.59688 254.32605 64.6125 256.1698L64.6125 257.57605ZM63.51875 256.09167Q63.51875 254.71667 63.128124 254.09167Q62.753124 253.45105 61.909374 253.45105Q61.08125 253.45105 60.690624 254.09167Q60.315624 254.71667 60.315624 256.01355L60.315624 257.74792Q60.315624 259.12292 60.70625 259.7948Q61.1125 260.45105 61.925 260.45105Q62.721874 260.45105 63.1125 259.82605Q63.503124 259.20105 63.51875 257.87292L63.51875 256.09167ZM71.6125 257.57605Q71.6125 259.4823 70.95625 260.4198Q70.31563 261.34167 68.925 261.34167Q67.56563 261.34167 66.90938 260.43542Q66.25313 259.52917 66.22188 257.71667L66.22188 256.27917Q66.22188 254.38855 66.8625 253.4823Q67.51875 252.56042 68.90938 252.56042Q70.28438 252.56042 70.94063 253.45105Q71.59688 254.32605 71.6125 256.1698L71.6125 257.57605ZM70.51875 256.09167Q70.51875 254.71667 70.12813 254.09167Q69.75313 253.45105 68.90938 253.45105Q68.08125 253.45105 67.69063 254.09167Q67.31563 254.71667 67.31563 256.01355L67.31563 257.74792Q67.31563 259.12292 67.70625 259.7948Q68.1125 260.45105 68.925 260.45105Q69.72188 260.45105 70.1125 259.82605Q70.50313 259.20105 70.51875 257.87292L70.51875 256.09167Z" fill-rule="nonzero"/><path fill="#000000" d="M57.846874 219.48334L52.253124 219.48334L52.253124 218.70209L55.20625 215.42084Q55.8625 214.67084 56.1125 214.21771Q56.3625 213.74896 56.3625 213.24896Q56.3625 212.57709 55.95625 212.15521Q55.565624 211.71771 54.878124 211.71771Q54.08125 211.71771 53.628124 212.18646Q53.175 212.63959 53.175 213.46771L52.096874 213.46771Q52.096874 212.28021 52.846874 211.56146Q53.6125 210.82709 54.878124 210.82709Q56.08125 210.82709 56.76875 211.45209Q57.45625 212.07709 57.45625 213.12396Q57.45625 214.37396 55.846874 216.12396L53.565624 218.59271L57.846874 218.59271L57.846874 219.48334ZM64.6125 215.84271Q64.6125 217.74896 63.95625 218.68646Q63.315624 219.60834 61.925 219.60834Q60.565624 219.60834 59.909374 218.70209Q59.253124 217.79584 59.221874 215.98334L59.221874 214.54584Q59.221874 212.65521 59.8625 211.74896Q60.51875 210.82709 61.909374 210.82709Q63.284374 210.82709 63.940624 211.71771Q64.59688 212.59271 64.6125 214.43646L64.6125 215.84271ZM63.51875 214.35834Q63.51875 212.98334 63.128124 212.35834Q62.753124 211.71771 61.909374 211.71771Q61.08125 211.71771 60.690624 212.35834Q60.315624 212.98334 60.315624 214.28021L60.315624 216.01459Q60.315624 217.38959 60.70625 218.06146Q61.1125 218.71771 61.925 218.71771Q62.721874 218.71771 63.1125 218.09271Q63.503124 217.46771 63.51875 216.13959L63.51875 214.35834ZM71.6125 215.84271Q71.6125 217.74896 70.95625 218.68646Q70.31563 219.60834 68.925 219.60834Q67.56563 219.60834 66.90938 218.70209Q66.25313 217.79584 66.22188 215.98334L66.22188 214.54584Q66.22188 212.65521 66.8625 211.74896Q67.51875 210.82709 68.90938 210.82709Q70.28438 210.82709 70.94063 211.71771Q71.59688 212.59271 71.6125 214.43646L71.6125 215.84271ZM70.51875 214.35834Q70.51875 212.98334 70.12813 212.35834Q69.75313 211.71771 68.90938 211.71771Q68.08125 211.71771 67.69063 212.35834Q67.31563 212.98334 67.31563 214.28021L67.31563 216.01459Q67.31563 217.38959 67.70625 218.06146Q68.1125 218.71771 68.925 218.71771Q69.72188 218.71771 70.1125 218.09271Q70.50313 217.46771 70.51875 216.13959L70.51875 214.35834Z" fill-rule="nonzero"/><path fill="#000000" d="M53.83125 172.95312L54.64375 172.95312Q55.425 172.9375 55.8625 172.54688Q56.3 172.15625 56.3 171.48438Q56.3 169.98438 54.8 169.98438Q54.096874 169.98438 53.675 170.39062Q53.26875 170.79688 53.26875 171.45312L52.175 171.45312Q52.175 170.4375 52.909374 169.76562Q53.659374 169.09375 54.8 169.09375Q56.003124 169.09375 56.690624 169.73438Q57.378124 170.375 57.378124 171.51562Q57.378124 172.07812 57.01875 172.59375Q56.659374 173.10938 56.034374 173.375Q56.7375 173.59375 57.1125 174.10938Q57.503124 174.625 57.503124 175.375Q57.503124 176.51562 56.753124 177.20312Q56.003124 177.875 54.8 177.875Q53.6125 177.875 52.846874 177.21875Q52.096874 176.5625 52.096874 175.5L53.190624 175.5Q53.190624 176.17188 53.628124 176.57812Q54.065624 176.98438 54.815624 176.98438Q55.596874 176.98438 56.003124 176.57812Q56.425 176.15625 56.425 175.39062Q56.425 174.65625 55.971874 174.26562Q55.51875 173.85938 54.64375 173.84375L53.83125 173.84375L53.83125 172.95312ZM64.6125 174.10938Q64.6125 176.01562 63.95625 176.95312Q63.315624 177.875 61.925 177.875Q60.565624 177.875 59.909374 176.96875Q59.253124 176.0625 59.221874 174.25L59.221874 172.8125Q59.221874 170.92188 59.8625 170.01562Q60.51875 169.09375 61.909374 169.09375Q63.284374 169.09375 63.940624 169.98438Q64.59688 170.85938 64.6125 172.70312L64.6125 174.10938ZM63.51875 172.625Q63.51875 171.25 63.128124 170.625Q62.753124 169.98438 61.909374 169.98438Q61.08125 169.98438 60.690624 170.625Q60.315624 171.25 60.315624 172.54688L60.315624 174.28125Q60.315624 175.65625 60.70625 176.32812Q61.1125 176.98438 61.925 176.98438Q62.721874 176.98438 63.1125 176.35938Q63.503124 175.73438 63.51875 174.40625L63.51875 172.625ZM71.6125 174.10938Q71.6125 176.01562 70.95625 176.95312Q70.31563 177.875 68.925 177.875Q67.56563 177.875 66.90938 176.96875Q66.25313 176.0625 66.22188 174.25L66.22188 172.8125Q66.22188 170.92188 66.8625 170.01562Q67.51875 169.09375 68.90938 169.09375Q70.28438 169.09375 70.94063 169.98438Q71.59688 170.85938 71.6125 172.70312L71.6125 174.10938ZM70.51875 172.625Q70.51875 171.25 70.12813 170.625Q69.75313 169.98438 68.90938 169.98438Q68.08125 169.98438 67.69063 170.625Q67.31563 171.25 67.31563 172.54688L67.31563 174.28125Q67.31563 175.65625 67.70625 176.32812Q68.1125 176.98438 68.925 176.98438Q69.72188 176.98438 70.1125 176.35938Q70.50313 175.73438 70.51875 174.40625L70.51875 172.625Z" fill-rule="nonzero"/><path fill="#000000" d="M56.83125 133.15729L58.01875 133.15729L58.01875 134.03229L56.83125 134.03229L56.83125 136.01666L55.753124 136.01666L55.753124 134.03229L51.8625 134.03229L51.8625 133.39166L55.675 127.48541L56.83125 127.48541L56.83125 133.15729ZM53.096874 133.15729L55.753124 133.15729L55.753124 128.96979L55.6125 129.20416L53.096874 133.15729ZM64.6125 132.37604Q64.6125 134.28229 63.95625 135.21979Q63.315624 136.14166 61.925 136.14166Q60.565624 136.14166 59.909374 135.23541Q59.253124 134.32916 59.221874 132.51666L59.221874 131.07916Q59.221874 129.18854 59.8625 128.28229Q60.51875 127.36041 61.909374 127.36041Q63.284374 127.36041 63.940624 128.25104Q64.59688 129.12604 64.6125 130.96979L64.6125 132.37604ZM63.51875 130.89166Q63.51875 129.51666 63.128124 128.89166Q62.753124 128.25104 61.909374 128.25104Q61.08125 128.25104 60.690624 128.89166Q60.315624 129.51666 60.315624 130.81354L60.315624 132.54791Q60.315624 133.92291 60.70625 134.59479Q61.1125 135.25104 61.925 135.25104Q62.721874 135.25104 63.1125 134.62604Q63.503124 134.00104 63.51875 132.67291L63.51875 130.89166ZM71.6125 132.37604Q71.6125 134.28229 70.95625 135.21979Q70.31563 136.14166 68.925 136.14166Q67.56563 136.14166 66.90938 135.23541Q66.25313 134.32916 66.22188 132.51666L66.22188 131.07916Q66.22188 129.18854 66.8625 128.28229Q67.51875 127.36041 68.90938 127.36041Q70.28438 127.36041 70.94063 128.25104Q71.59688 129.12604 71.6125 130.96979L71.6125 132.37604ZM70.51875 130.89166Q70.51875 129.51666 70.12813 128.89166Q69.75313 128.25104 68.90938 128.25104Q68.08125 128.25104 67.69063 128.89166Q67.31563 129.51666 67.31563 130.81354L67.31563 132.54791Q67.31563 133.92291 67.70625 134.59479Q68.1125 135.25104 68.925 135.25104Q69.72188 135.25104 70.1125 134.62604Q70.50313 134.00104 70.51875 132.67291L70.51875 130.89166Z" fill-rule="nonzero"/><path fill="#000000" d="M52.753124 90.00208L53.190624 85.75208L57.565624 85.75208L57.565624 86.75208L54.1125 86.75208L53.846874 89.08021Q54.4875 88.70521 55.284374 88.70521Q56.440624 88.70521 57.128124 89.48646Q57.815624 90.25208 57.815624 91.56458Q57.815624 92.87708 57.096874 93.64271Q56.39375 94.40833 55.1125 94.40833Q53.9875 94.40833 53.26875 93.78333Q52.55 93.14271 52.45625 92.03333L53.471874 92.03333Q53.58125 92.76771 54.003124 93.14271Q54.425 93.51771 55.1125 93.51771Q55.8625 93.51771 56.3 93.00208Q56.7375 92.48646 56.7375 91.58021Q56.7375 90.72083 56.26875 90.20521Q55.8 89.68958 55.01875 89.68958Q54.315624 89.68958 53.909374 89.98646L53.628124 90.22083L52.753124 90.00208ZM64.6125 90.64271Q64.6125 92.54896 63.95625 93.48646Q63.315624 94.40833 61.925 94.40833Q60.565624 94.40833 59.909374 93.50208Q59.253124 92.59583 59.221874 90.78333L59.221874 89.34583Q59.221874 87.45521 59.8625 86.54896Q60.51875 85.62708 61.909374 85.62708Q63.284374 85.62708 63.940624 86.51771Q64.59688 87.39271 64.6125 89.23646L64.6125 90.64271ZM63.51875 89.15833Q63.51875 87.78333 63.128124 87.15833Q62.753124 86.51771 61.909374 86.51771Q61.08125 86.51771 60.690624 87.15833Q60.315624 87.78333 60.315624 89.08021L60.315624 90.81458Q60.315624 92.18958 60.70625 92.86146Q61.1125 93.51771 61.925 93.51771Q62.721874 93.51771 63.1125 92.89271Q63.503124 92.26771 63.51875 90.93958L63.51875 89.15833ZM71.6125 90.64271Q71.6125 92.54896 70.95625 93.48646Q70.31563 94.40833 68.925 94.40833Q67.56563 94.40833 66.90938 93.50208Q66.25313 92.59583 66.22188 90.78333L66.22188 89.34583Q66.22188 87.45521 66.8625 86.54896Q67.51875 85.62708 68.90938 85.62708Q70.28438 85.62708 70.94063 86.51771Q71.59688 87.39271 71.6125 89.23646L71.6125 90.64271ZM70.51875 89.15833Q70.51875 87.78333 70.12813 87.15833Q69.75313 86.51771 68.90938 86.51771Q68.08125 86.51771 67.69063 87.15833Q67.31563 87.78333 67.31563 89.08021L67.31563 90.81458Q67.31563 92.18958 67.70625 92.86146Q68.1125 93.51771 68.925 93.51771Q69.72188 93.51771 70.1125 92.89271Q70.50313 92.26771 70.51875 90.93958L70.51875 89.15833Z" fill-rule="nonzero"/><path fill="#000000" d="M136.20312 312.16876L136.64062 307.91876L141.01562 307.91876L141.01562 308.91876L137.5625 308.91876L137.29688 311.2469Q137.9375 310.8719 138.73438 310.8719Q139.89062 310.8719 140.57812 311.65314Q141.26562 312.41876 141.26562 313.73126Q141.26562 315.04376 140.54688 315.8094Q139.84375 316.575 138.5625 316.575Q137.4375 316.575 136.71875 315.95Q136.0 315.3094 135.90625 314.2L136.92188 314.2Q137.03125 314.9344 137.45312 315.3094Q137.875 315.6844 138.5625 315.6844Q139.3125 315.6844 139.75 315.16876Q140.1875 314.65314 140.1875 313.7469Q140.1875 312.8875 139.71875 312.3719Q139.25 311.85626 138.46875 311.85626Q137.76562 311.85626 137.35938 312.15314L137.07812 312.3875L136.20312 312.16876ZM148.0625 312.8094Q148.0625 314.71564 147.40625 315.65314Q146.76562 316.575 145.375 316.575Q144.01562 316.575 143.35938 315.66876Q142.70312 314.7625 142.67188 312.95L142.67188 311.5125Q142.67188 309.6219 143.3125 308.71564Q143.96875 307.79376 145.35938 307.79376Q146.73438 307.79376 147.39062 308.6844Q148.04688 309.5594 148.0625 311.40314L148.0625 312.8094ZM146.96875 311.325Q146.96875 309.95 146.57812 309.325Q146.20312 308.6844 145.35938 308.6844Q144.53125 308.6844 144.14062 309.325Q143.76562 309.95 143.76562 311.2469L143.76562 312.98126Q143.76562 314.35626 144.15625 315.02814Q144.5625 315.6844 145.375 315.6844Q146.17188 315.6844 146.5625 315.0594Q146.95312 314.4344 146.96875 313.10626L146.96875 311.325Z" fill-rule="nonzero"/><path fill="#000000" d="M229.76562 316.45L228.6875 316.45L228.6875 309.23126L226.5 310.02814L226.5 309.04376L229.60938 307.8719L229.76562 307.8719L229.76562 316.45ZM238.5625 312.8094Q238.5625 314.71564 237.90625 315.65314Q237.26562 316.575 235.875 316.575Q234.51562 316.575 233.85938 315.66876Q233.20312 314.7625 233.17188 312.95L233.17188 311.5125Q233.17188 309.6219 233.8125 308.71564Q234.46875 307.79376 235.85938 307.79376Q237.23438 307.79376 237.89062 308.6844Q238.54688 309.5594 238.5625 311.40314L238.5625 312.8094ZM237.46875 311.325Q237.46875 309.95 237.07812 309.325Q236.70312 308.6844 235.85938 308.6844Q235.03125 308.6844 234.64062 309.325Q234.26562 309.95 234.26562 311.2469L234.26562 312.98126Q234.26562 314.35626 234.65625 315.02814Q235.0625 315.6844 235.875 315.6844Q236.67188 315.6844 237.0625 315.0594Q237.45312 314.4344 237.46875 313.10626L237.46875 311.325ZM245.5625 312.8094Q245.5625 314.71564 244.90625 315.65314Q244.26562 316.575 242.875 316.575Q241.51562 316.575 240.85938 315.66876Q240.20312 314.7625 240.17188 312.95L240.17188 311.5125Q240.17188 309.6219 240.8125 308.71564Q241.46875 307.79376 242.85938 307.79376Q244.23438 307.79376 244.89062 308.6844Q245.54688 309.5594 245.5625 311.40314L245.5625 312.8094ZM244.46875 311.325Q244.46875 309.95 244.07812 309.325Q243.70312 308.6844 242.85938 308.6844Q242.03125 308.6844 241.64062 309.325Q241.26562 309.95 241.26562 311.2469L241.26562 312.98126Q241.26562 314.35626 241.65625 315.02814Q242.0625 315.6844 242.875 315.6844Q243.67188 315.6844 244.0625 315.0594Q244.45312 314.4344 244.46875 313.10626L244.46875 311.325Z" fill-rule="nonzero"/><path fill="#000000" d="M323.76562 316.45L322.6875 316.45L322.6875 309.23126L320.5 310.02814L320.5 309.04376L323.60938 307.8719L323.76562 307.8719L323.76562 316.45ZM327.70312 312.16876L328.14062 307.91876L332.51562 307.91876L332.51562 308.91876L329.0625 308.91876L328.79688 311.2469Q329.4375 310.8719 330.23438 310.8719Q331.39062 310.8719 332.07812 311.65314Q332.76562 312.41876 332.76562 313.73126Q332.76562 315.04376 332.04688 315.8094Q331.34375 316.575 330.0625 316.575Q328.9375 316.575 328.21875 315.95Q327.5 315.3094 327.40625 314.2L328.42188 314.2Q328.53125 314.9344 328.95312 315.3094Q329.375 315.6844 330.0625 315.6844Q330.8125 315.6844 331.25 315.16876Q331.6875 314.65314 331.6875 313.7469Q331.6875 312.8875 331.21875 312.3719Q330.75 311.85626 329.96875 311.85626Q329.26562 311.85626 328.85938 312.15314L328.57812 312.3875L327.70312 312.16876ZM339.5625 312.8094Q339.5625 314.71564 338.90625 315.65314Q338.26562 316.575 336.875 316.575Q335.51562 316.575 334.85938 315.66876Q334.20312 314.7625 334.17188 312.95L334.17188 311.5125Q334.17188 309.6219 334.8125 308.71564Q335.46875 307.79376 336.85938 307.79376Q338.23438 307.79376 338.89062 308.6844Q339.54688 309.5594 339.5625 311.40314L339.5625 312.8094ZM338.46875 311.325Q338.46875 309.95 338.07812 309.325Q337.70312 308.6844 336.85938 308.6844Q336.03125 308.6844 335.64062 309.325Q335.26562 309.95 335.26562 311.2469L335.26562 312.98126Q335.26562 314.35626 335.65625 315.02814Q336.0625 315.6844 336.875 315.6844Q337.67188 315.6844 338.0625 315.0594Q338.45312 314.4344 338.46875 313.10626L338.46875 311.325Z" fill-rule="nonzero"/><path fill="#000000" d="M419.79688 316.45L414.20312 316.45L414.20312 315.66876L417.15625 312.3875Q417.8125 311.6375 418.0625 311.1844Q418.3125 310.71564 418.3125 310.21564Q418.3125 309.54376 417.90625 309.1219Q417.51562 308.6844 416.82812 308.6844Q416.03125 308.6844 415.57812 309.15314Q415.125 309.60626 415.125 310.4344L414.04688 310.4344Q414.04688 309.2469 414.79688 308.52814Q415.5625 307.79376 416.82812 307.79376Q418.03125 307.79376 418.71875 308.41876Q419.40625 309.04376 419.40625 310.09064Q419.40625 311.34064 417.79688 313.09064L415.51562 315.5594L419.79688 315.5594L419.79688 316.45ZM426.5625 312.8094Q426.5625 314.71564 425.90625 315.65314Q425.26562 316.575 423.875 316.575Q422.51562 316.575 421.85938 315.66876Q421.20312 314.7625 421.17188 312.95L421.17188 311.5125Q421.17188 309.6219 421.8125 308.71564Q422.46875 307.79376 423.85938 307.79376Q425.23438 307.79376 425.89062 308.6844Q426.54688 309.5594 426.5625 311.40314L426.5625 312.8094ZM425.46875 311.325Q425.46875 309.95 425.07812 309.325Q424.70312 308.6844 423.85938 308.6844Q423.03125 308.6844 422.64062 309.325Q422.26562 309.95 422.26562 311.2469L422.26562 312.98126Q422.26562 314.35626 422.65625 315.02814Q423.0625 315.6844 423.875 315.6844Q424.67188 315.6844 425.0625 315.0594Q425.45312 314.4344 425.46875 313.10626L425.46875 311.325ZM433.5625 312.8094Q433.5625 314.71564 432.90625 315.65314Q432.26562 316.575 430.875 316.575Q429.51562 316.575 428.85938 315.66876Q428.20312 314.7625 428.17188 312.95L428.17188 311.5125Q428.17188 309.6219 428.8125 308.71564Q429.46875 307.79376 430.85938 307.79376Q432.23438 307.79376 432.89062 308.6844Q433.54688 309.5594 433.5625 311.40314L433.5625 312.8094ZM432.46875 311.325Q432.46875 309.95 432.07812 309.325Q431.70312 308.6844 430.85938 308.6844Q430.03125 308.6844 429.64062 309.325Q429.26562 309.95 429.26562 311.2469L429.26562 312.98126Q429.26562 314.35626 429.65625 315.02814Q430.0625 315.6844 430.875 315.6844Q431.67188 315.6844 432.0625 315.0594Q432.45312 314.4344 432.46875 313.10626L432.46875 311.325Z" fill-rule="nonzero"/><path fill="#000000" d="M513.7969 316.45L508.20312 316.45L508.20312 315.66876L511.15625 312.3875Q511.8125 311.6375 512.0625 311.1844Q512.3125 310.71564 512.3125 310.21564Q512.3125 309.54376 511.90625 309.1219Q511.51562 308.6844 510.82812 308.6844Q510.03125 308.6844 509.57812 309.15314Q509.125 309.60626 509.125 310.4344L508.04688 310.4344Q508.04688 309.2469 508.79688 308.52814Q509.5625 307.79376 510.82812 307.79376Q512.03125 307.79376 512.71875 308.41876Q513.40625 309.04376 513.40625 310.09064Q513.40625 311.34064 511.79688 313.09064L509.51562 315.5594L513.7969 315.5594L513.7969 316.45ZM515.7031 312.16876L516.1406 307.91876L520.5156 307.91876L520.5156 308.91876L517.0625 308.91876L516.7969 311.2469Q517.4375 310.8719 518.2344 310.8719Q519.3906 310.8719 520.0781 311.65314Q520.7656 312.41876 520.7656 313.73126Q520.7656 315.04376 520.0469 315.8094Q519.34375 316.575 518.0625 316.575Q516.9375 316.575 516.21875 315.95Q515.5 315.3094 515.40625 314.2L516.4219 314.2Q516.53125 314.9344 516.9531 315.3094Q517.375 315.6844 518.0625 315.6844Q518.8125 315.6844 519.25 315.16876Q519.6875 314.65314 519.6875 313.7469Q519.6875 312.8875 519.21875 312.3719Q518.75 311.85626 517.96875 311.85626Q517.2656 311.85626 516.8594 312.15314L516.5781 312.3875L515.7031 312.16876ZM527.5625 312.8094Q527.5625 314.71564 526.90625 315.65314Q526.2656 316.575 524.875 316.575Q523.5156 316.575 522.8594 315.66876Q522.2031 314.7625 522.1719 312.95L522.1719 311.5125Q522.1719 309.6219 522.8125 308.71564Q523.46875 307.79376 524.8594 307.79376Q526.2344 307.79376 526.8906 308.6844Q527.5469 309.5594 527.5625 311.40314L527.5625 312.8094ZM526.46875 311.325Q526.46875 309.95 526.0781 309.325Q525.7031 308.6844 524.8594 308.6844Q524.03125 308.6844 523.6406 309.325Q523.2656 309.95 523.2656 311.2469L523.2656 312.98126Q523.2656 314.35626 523.65625 315.02814Q524.0625 315.6844 524.875 315.6844Q525.6719 315.6844 526.0625 315.0594Q526.4531 314.4344 526.46875 313.10626L526.46875 311.325Z" fill-rule="nonzero"/><path fill="#34a853" d="M238.5 57.416668C238.5 56.864384 238.94771 56.416668 239.5 56.416668L249.5 56.416668C250.05229 56.416668 250.5 56.864384 250.5 57.416668L250.5 67.416664C250.5 67.96895 250.05229 68.416664 249.5 68.416664L239.5 68.416664C238.94771 68.416664 238.5 67.96895 238.5 67.416664Z" fill-rule="nonzero"/><path fill="#1a1a1a" d="M260.34375 60.572914L260.375 61.36979Q261.10938 60.46354 262.28125 60.46354Q264.29688 60.46354 264.3125 62.729164L264.3125 66.916664L263.21875 66.916664L263.21875 62.71354Q263.21875 62.041664 262.90625 61.71354Q262.60938 61.385414 261.95312 61.385414Q261.42188 61.385414 261.01562 61.666664Q260.625 61.947914 260.40625 62.40104L260.40625 66.916664L259.32812 66.916664L259.32812 60.572914L260.34375 60.572914ZM266.03125 63.68229Q266.03125 62.760414 266.39062 62.010414Q266.76562 61.260414 267.42188 60.86979Q268.07812 60.46354 268.90625 60.46354Q270.20312 60.46354 271.0 61.354164Q271.8125 62.24479 271.8125 63.74479L271.8125 63.822914Q271.8125 64.74479 271.45312 65.479164Q271.09375 66.21354 270.4375 66.635414Q269.78125 67.041664 268.92188 67.041664Q267.64062 67.041664 266.82812 66.15104Q266.03125 65.24479 266.03125 63.760414L266.03125 63.68229ZM267.125 63.822914Q267.125 64.86979 267.60938 65.510414Q268.10938 66.15104 268.92188 66.15104Q269.75 66.15104 270.23438 65.510414Q270.71875 64.854164 270.71875 63.68229Q270.71875 62.65104 270.21875 62.010414Q269.73438 61.354164 268.90625 61.354164Q268.10938 61.354164 267.60938 61.99479Q267.125 62.61979 267.125 63.822914ZM273.0625 63.697914Q273.0625 62.229164 273.75 61.354164Q274.4375 60.46354 275.5625 60.46354Q276.67188 60.46354 277.32812 61.21354L277.32812 57.916664L278.40625 57.916664L278.40625 66.916664L277.40625 66.916664L277.35938 66.229164Q276.70312 67.041664 275.54688 67.041664Q274.45312 67.041664 273.75 66.135414Q273.0625 65.229164 273.0625 63.77604L273.0625 63.697914ZM274.14062 63.822914Q274.14062 64.90104 274.57812 65.510414Q275.03125 66.11979 275.8125 66.11979Q276.84375 66.11979 277.32812 65.18229L277.32812 62.27604Q276.84375 61.385414 275.82812 61.385414Q275.03125 61.385414 274.57812 61.99479Q274.14062 62.604164 274.14062 63.822914ZM282.95312 67.041664Q281.65625 67.041664 280.84375 66.197914Q280.04688 65.33854 280.04688 63.916664L280.04688 63.729164Q280.04688 62.77604 280.40625 62.041664Q280.76562 61.291664 281.40625 60.885414Q282.0625 60.46354 282.8125 60.46354Q284.04688 60.46354 284.73438 61.27604Q285.42188 62.08854 285.42188 63.604164L285.42188 64.05729L281.125 64.05729Q281.15625 64.99479 281.67188 65.572914Q282.20312 66.15104 283.01562 66.15104Q283.57812 66.15104 283.96875 65.916664Q284.375 65.68229 284.6875 65.291664L285.34375 65.80729Q284.54688 67.041664 282.95312 67.041664ZM282.8125 61.354164Q282.15625 61.354164 281.70312 61.83854Q281.26562 62.30729 281.17188 63.166664L284.34375 63.166664L284.34375 63.08854Q284.29688 62.260414 283.89062 61.80729Q283.5 61.354164 282.8125 61.354164Z" fill-rule="nonzero"/><path fill="#4285f4" d="M301.5 57.416668C301.5 56.864384 301.94772 56.416668 302.5 56.416668L312.5 56.416668C313.05228 56.416668 313.5 56.864384 313.5 57.416668L313.5 67.416664C313.5 67.96895 313.05228 68.416664 312.5 68.416664L302.5 68.416664C301.94772 68.416664 301.5 67.96895 301.5 67.416664Z" fill-rule="nonzero"/><path fill="#1a1a1a" d="M326.23438 66.916664Q326.14062 66.729164 326.07812 66.24479Q325.32812 67.041664 324.28125 67.041664Q323.34375 67.041664 322.73438 66.510414Q322.14062 65.979164 322.14062 65.15104Q322.14062 64.166664 322.89062 63.61979Q323.64062 63.072914 325.01562 63.072914L326.0625 63.072914L326.0625 62.572914Q326.0625 62.010414 325.71875 61.68229Q325.39062 61.33854 324.71875 61.33854Q324.14062 61.33854 323.75 61.635414Q323.35938 61.916664 323.35938 62.33854L322.26562 62.33854Q322.26562 61.854164 322.59375 61.416664Q322.9375 60.979164 323.51562 60.729164Q324.09375 60.46354 324.78125 60.46354Q325.89062 60.46354 326.5 61.010414Q327.125 61.55729 327.15625 62.510414L327.15625 65.43229Q327.15625 66.30729 327.375 66.822914L327.375 66.916664L326.23438 66.916664ZM324.4375 66.08854Q324.95312 66.08854 325.40625 65.822914Q325.85938 65.55729 326.0625 65.135414L326.0625 63.83854L325.21875 63.83854Q323.21875 63.83854 323.21875 65.010414Q323.21875 65.510414 323.5625 65.80729Q323.90625 66.08854 324.4375 66.08854ZM334.67188 63.822914Q334.67188 65.260414 334.01562 66.15104Q333.35938 67.041664 332.21875 67.041664Q331.0625 67.041664 330.40625 66.30729L330.40625 69.354164L329.32812 69.354164L329.32812 60.572914L330.3125 60.572914L330.35938 61.27604Q331.03125 60.46354 332.20312 60.46354Q333.34375 60.46354 334.0 61.322914Q334.67188 62.18229 334.67188 63.71354L334.67188 63.822914ZM333.59375 63.697914Q333.59375 62.61979 333.125 62.010414Q332.67188 61.385414 331.875 61.385414Q330.89062 61.385414 330.40625 62.24479L330.40625 65.27604Q330.89062 66.15104 331.89062 66.15104Q332.67188 66.15104 333.125 65.541664Q333.59375 64.916664 333.59375 63.697914ZM340.23438 66.916664Q340.14062 66.729164 340.07812 66.24479Q339.32812 67.041664 338.28125 67.041664Q337.34375 67.041664 336.73438 66.510414Q336.14062 65.979164 336.14062 65.15104Q336.14062 64.166664 336.89062 63.61979Q337.64062 63.072914 339.01562 63.072914L340.0625 63.072914L340.0625 62.572914Q340.0625 62.010414 339.71875 61.68229Q339.39062 61.33854 338.71875 61.33854Q338.14062 61.33854 337.75 61.635414Q337.35938 61.916664 337.35938 62.33854L336.26562 62.33854Q336.26562 61.854164 336.59375 61.416664Q336.9375 60.979164 337.51562 60.729164Q338.09375 60.46354 338.78125 60.46354Q339.89062 60.46354 340.5 61.010414Q341.125 61.55729 341.15625 62.510414L341.15625 65.43229Q341.15625 66.30729 341.375 66.822914L341.375 66.916664L340.23438 66.916664ZM338.4375 66.08854Q338.95312 66.08854 339.40625 65.822914Q339.85938 65.55729 340.0625 65.135414L340.0625 63.83854L339.21875 63.83854Q337.21875 63.83854 337.21875 65.010414Q337.21875 65.510414 337.5625 65.80729Q337.90625 66.08854 338.4375 66.08854ZM345.85938 66.15104Q346.4375 66.15104 346.875 65.80729Q347.3125 65.447914 347.35938 64.916664L348.39062 64.916664Q348.35938 65.46354 348.0 65.96354Q347.65625 66.447914 347.07812 66.74479Q346.51562 67.041664 345.85938 67.041664Q344.5625 67.041664 343.79688 66.18229Q343.04688 65.30729 343.04688 63.80729L343.04688 63.61979Q343.04688 62.697914 343.375 61.979164Q343.71875 61.260414 344.34375 60.86979Q344.98438 60.46354 345.85938 60.46354Q346.92188 60.46354 347.625 61.104164Q348.34375 61.729164 348.39062 62.760414L347.35938 62.760414Q347.3125 62.135414 346.89062 61.74479Q346.46875 61.354164 345.85938 61.354164Q345.03125 61.354164 344.57812 61.947914Q344.125 62.541664 344.125 63.666664L344.125 63.86979Q344.125 64.96354 344.57812 65.55729Q345.03125 66.15104 345.85938 66.15104ZM350.40625 61.33854Q351.125 60.46354 352.28125 60.46354Q354.29688 60.46354 354.3125 62.729164L354.3125 66.916664L353.21875 66.916664L353.21875 62.71354Q353.21875 62.041664 352.90625 61.71354Q352.60938 61.385414 351.95312 61.385414Q351.42188 61.385414 351.01562 61.666664Q350.625 61.947914 350.40625 62.40104L350.40625 66.916664L349.32812 66.916664L349.32812 57.916664L350.40625 57.916664L350.40625 61.33854ZM358.95312 67.041664Q357.65625 67.041664 356.84375 66.197914Q356.04688 65.33854 356.04688 63.916664L356.04688 63.729164Q356.04688 62.77604 356.40625 62.041664Q356.76562 61.291664 357.40625 60.885414Q358.0625 60.46354 358.8125 60.46354Q360.04688 60.46354 360.73438 61.27604Q361.42188 62.08854 361.42188 63.604164L361.42188 64.05729L357.125 64.05729Q357.15625 64.99479 357.67188 65.572914Q358.20312 66.15104 359.01562 66.15104Q359.57812 66.15104 359.96875 65.916664Q360.375 65.68229 360.6875 65.291664L361.34375 65.80729Q360.54688 67.041664 358.95312 67.041664ZM358.8125 61.354164Q358.15625 61.354164 357.70312 61.83854Q357.26562 62.30729 357.17188 63.166664L360.34375 63.166664L360.34375 63.08854Q360.29688 62.260414 359.89062 61.80729Q359.5 61.354164 358.8125 61.354164Z" fill-rule="nonzero"/><path fill="#757575" d="M24.39375 31.20625Q21.971874 30.51875 20.878124 29.51875Q19.784374 28.503124 19.784374 27.01875Q19.784374 25.33125 21.128124 24.2375Q22.471874 23.128124 24.6125 23.128124Q26.08125 23.128124 27.221874 23.70625Q28.378124 24.26875 29.003124 25.26875Q29.628124 26.253124 29.628124 27.440624L27.753124 27.440624Q27.753124 26.159374 26.925 25.425Q26.1125 24.675 24.6125 24.675Q23.221874 24.675 22.440624 25.284374Q21.675 25.89375 21.675 26.9875Q21.675 27.846874 22.409374 28.45625Q23.14375 29.05 24.909374 29.55Q26.690624 30.05 27.690624 30.659374Q28.690624 31.253124 29.175 32.05Q29.659374 32.846874 29.659374 33.940624Q29.659374 35.659374 28.315624 36.70625Q26.971874 37.753124 24.70625 37.753124Q23.253124 37.753124 21.971874 37.190624Q20.70625 36.628124 20.01875 35.659374Q19.33125 34.675 19.33125 33.425L21.221874 33.425Q21.221874 34.721874 22.175 35.471874Q23.128124 36.20625 24.70625 36.20625Q26.190624 36.20625 26.9875 35.6125Q27.784374 35.003124 27.784374 33.95625Q27.784374 32.909374 27.05 32.346874Q26.315624 31.76875 24.39375 31.20625ZM33.878124 37.55L32.08125 37.55L32.08125 26.9875L33.878124 26.9875L33.878124 37.55ZM31.925 24.175Q31.925 23.7375 32.190624 23.440624Q32.471874 23.128124 32.9875 23.128124Q33.51875 23.128124 33.784374 23.440624Q34.065624 23.7375 34.065624 24.175Q34.065624 24.6125 33.784374 24.909374Q33.51875 25.20625 32.9875 25.20625Q32.471874 25.20625 32.190624 24.909374Q31.925 24.6125 31.925 24.175ZM38.6125 26.9875L38.659374 28.159374Q39.83125 26.784374 41.8 26.784374Q44.01875 26.784374 44.815624 28.4875Q45.346874 27.721874 46.190624 27.253124Q47.034374 26.784374 48.190624 26.784374Q51.659374 26.784374 51.721874 30.471874L51.721874 37.55L49.909374 37.55L49.909374 30.58125Q49.909374 29.440624 49.39375 28.878124Q48.878124 28.315624 47.659374 28.315624Q46.659374 28.315624 45.9875 28.925Q45.33125 29.51875 45.221874 30.534374L45.221874 37.55L43.409374 37.55L43.409374 30.628124Q43.409374 28.315624 41.14375 28.315624Q39.3625 28.315624 38.721874 29.83125L38.721874 37.55L36.909374 37.55L36.909374 26.9875L38.6125 26.9875ZM61.440624 36.503124Q60.39375 37.753124 58.346874 37.753124Q56.659374 37.753124 55.76875 36.76875Q54.89375 35.784374 54.878124 33.8625L54.878124 26.9875L56.690624 26.9875L56.690624 33.815624Q56.690624 36.20625 58.64375 36.20625Q60.70625 36.20625 61.39375 34.675L61.39375 26.9875L63.20625 26.9875L63.20625 37.55L61.4875 37.55L61.440624 36.503124ZM67.87813 37.55L66.08125 37.55L66.08125 22.55L67.87813 22.55L67.87813 37.55ZM77.44063 37.55Q77.28438 37.2375 77.19063 36.440624Q75.925 37.753124 74.175 37.753124Q72.6125 37.753124 71.6125 36.8625Q70.6125 35.971874 70.6125 34.6125Q70.6125 32.971874 71.8625 32.065624Q73.12813 31.14375 75.39375 31.14375L77.15938 31.14375L77.15938 30.315624Q77.15938 29.3625 76.58125 28.8Q76.01875 28.2375 74.925 28.2375Q73.95625 28.2375 73.3 28.7375Q72.64375 29.221874 72.64375 29.909374L70.83125 29.909374Q70.83125 29.128124 71.39375 28.39375Q71.95625 27.64375 72.90938 27.221874Q73.87813 26.784374 75.03438 26.784374Q76.8625 26.784374 77.89375 27.70625Q78.925 28.6125 78.97188 30.221874L78.97188 35.08125Q78.97188 36.534374 79.33125 37.39375L79.33125 37.55L77.44063 37.55ZM74.44063 36.175Q75.3 36.175 76.05 35.7375Q76.81563 35.3 77.15938 34.596874L77.15938 32.425L75.7375 32.425Q72.425 32.425 72.425 34.3625Q72.425 35.221874 72.9875 35.70625Q73.55 36.175 74.44063 36.175ZM84.3625 24.425L84.3625 26.9875L86.34688 26.9875L86.34688 28.378124L84.3625 28.378124L84.3625 34.925Q84.3625 35.565624 84.62813 35.89375Q84.89375 36.20625 85.53438 36.20625Q85.84688 36.20625 86.39375 36.08125L86.39375 37.55Q85.675 37.753124 85.00313 37.753124Q83.8 37.753124 83.175 37.01875Q82.56563 36.284374 82.56563 34.925L82.56563 28.378124L80.64375 28.378124L80.64375 26.9875L82.56563 26.9875L82.56563 24.425L84.3625 24.425ZM93.3 37.753124Q91.15938 37.753124 89.8 36.346874Q88.45625 34.925 88.45625 32.565624L88.45625 32.221874Q88.45625 30.659374 89.05 29.425Q89.65938 28.190624 90.7375 27.4875Q91.81563 26.784374 93.08125 26.784374Q95.14375 26.784374 96.28438 28.14375Q97.425 29.503124 97.425 32.034374L97.425 32.784374L90.26875 32.784374Q90.3 34.346874 91.175 35.315624Q92.05 36.26875 93.39375 36.26875Q94.3625 36.26875 95.01875 35.878124Q95.69063 35.4875 96.19063 34.846874L97.28438 35.70625Q95.95625 37.753124 93.3 37.753124ZM93.08125 28.26875Q91.9875 28.26875 91.2375 29.065624Q90.50313 29.8625 90.33125 31.3L95.6125 31.3L95.6125 31.159374Q95.53438 29.784374 94.8625 29.034374Q94.20625 28.26875 93.08125 28.26875ZM99.47188 32.175Q99.47188 29.753124 100.62813 28.26875Q101.78438 26.784374 103.64375 26.784374Q105.50313 26.784374 106.58125 28.05L106.58125 22.55L108.39375 22.55L108.39375 37.55L106.7375 37.55L106.64375 36.409374Q105.56563 37.753124 103.62813 37.753124Q101.8 37.753124 100.62813 36.253124Q99.47188 34.7375 99.47188 32.315624L99.47188 32.175ZM101.28438 32.378124Q101.28438 34.175 102.01875 35.190624Q102.76875 36.20625 104.08125 36.20625Q105.8 36.20625 106.58125 34.675L106.58125 29.815624Q105.78438 28.315624 104.09688 28.315624Q102.76875 28.315624 102.01875 29.346874Q101.28438 30.378124 101.28438 32.378124ZM118.20625 37.55L116.33125 37.55L116.33125 23.33125L118.20625 23.33125L118.20625 37.55ZM132.14375 30.89375Q132.14375 32.9875 131.44063 34.55Q130.7375 36.096874 129.44063 36.925Q128.15938 37.753124 126.44063 37.753124Q124.75313 37.753124 123.45625 36.925Q122.15938 36.096874 121.44063 34.565624Q120.72188 33.034374 120.70625 31.01875L120.70625 30.003124Q120.70625 27.95625 121.40938 26.378124Q122.12813 24.8 123.425 23.971874Q124.7375 23.128124 126.40938 23.128124Q128.12813 23.128124 129.425 23.95625Q130.7375 24.784374 131.44063 26.3625Q132.14375 27.925 132.14375 30.003124L132.14375 30.89375ZM130.26875 29.9875Q130.26875 27.45625 129.25313 26.1125Q128.2375 24.753124 126.40938 24.753124Q124.64375 24.753124 123.6125 26.1125Q122.59688 27.45625 122.56563 29.846874L122.56563 30.89375Q122.56563 33.346874 123.59688 34.753124Q124.62813 36.159374 126.44063 36.159374Q128.25313 36.159374 129.2375 34.83125Q130.2375 33.503124 130.26875 31.034374L130.26875 29.9875ZM142.3625 24.425L142.3625 26.9875L144.34688 26.9875L144.34688 28.378124L142.3625 28.378124L142.3625 34.925Q142.3625 35.565624 142.62813 35.89375Q142.89375 36.20625 143.53438 36.20625Q143.84688 36.20625 144.39375 36.08125L144.39375 37.55Q143.675 37.753124 143.00313 37.753124Q141.8 37.753124 141.175 37.01875Q140.56563 36.284374 140.56563 34.925L140.56563 28.378124L138.64375 28.378124L138.64375 26.9875L140.56563 26.9875L140.56563 24.425L142.3625 24.425ZM148.87813 37.55L147.08125 37.55L147.08125 26.9875L148.87813 26.9875L148.87813 37.55ZM146.925 24.175Q146.925 23.7375 147.19063 23.440624Q147.47188 23.128124 147.9875 23.128124Q148.51875 23.128124 148.78438 23.440624Q149.06563 23.7375 149.06563 24.175Q149.06563 24.6125 148.78438 24.909374Q148.51875 25.20625 147.9875 25.20625Q147.47188 25.20625 147.19063 24.909374Q146.925 24.6125 146.925 24.175ZM153.6125 26.9875L153.65938 28.159374Q154.83125 26.784374 156.8 26.784374Q159.01875 26.784374 159.81563 28.4875Q160.34688 27.721874 161.19063 27.253124Q162.03438 26.784374 163.19063 26.784374Q166.65938 26.784374 166.72188 30.471874L166.72188 37.55L164.90938 37.55L164.90938 30.58125Q164.90938 29.440624 164.39375 28.878124Q163.87813 28.315624 162.65938 28.315624Q161.65938 28.315624 160.9875 28.925Q160.33125 29.51875 160.22188 30.534374L160.22188 37.55L158.40938 37.55L158.40938 30.628124Q158.40938 28.315624 156.14375 28.315624Q154.3625 28.315624 153.72188 29.83125L153.72188 37.55L151.90938 37.55L151.90938 26.9875L153.6125 26.9875ZM174.3 37.753124Q172.15938 37.753124 170.8 36.346874Q169.45625 34.925 169.45625 32.565624L169.45625 32.221874Q169.45625 30.659374 170.05 29.425Q170.65938 28.190624 171.7375 27.4875Q172.81563 26.784374 174.08125 26.784374Q176.14375 26.784374 177.28438 28.14375Q178.425 29.503124 178.425 32.034374L178.425 32.784374L171.26875 32.784374Q171.3 34.346874 172.175 35.315624Q173.05 36.26875 174.39375 36.26875Q175.3625 36.26875 176.01875 35.878124Q176.69063 35.4875 177.19063 34.846874L178.28438 35.70625Q176.95625 37.753124 174.3 37.753124ZM174.08125 28.26875Q172.9875 28.26875 172.2375 29.065624Q171.50313 29.8625 171.33125 31.3L176.6125 31.3L176.6125 31.159374Q176.53438 29.784374 175.8625 29.034374Q175.20625 28.26875 174.08125 28.26875ZM194.84688 32.378124Q194.84688 34.8 193.7375 36.284374Q192.64375 37.753124 190.75313 37.753124Q188.83125 37.753124 187.72188 36.51875L187.72188 41.6125L185.925 41.6125L185.925 26.9875L187.56563 26.9875L187.65938 28.159374Q188.75313 26.784374 190.72188 26.784374Q192.62813 26.784374 193.7375 28.221874Q194.84688 29.659374 194.84688 32.221874L194.84688 32.378124ZM193.03438 32.175Q193.03438 30.39375 192.26875 29.3625Q191.51875 28.315624 190.19063 28.315624Q188.55 28.315624 187.72188 29.76875L187.72188 34.83125Q188.53438 36.26875 190.20625 36.26875Q191.50313 36.26875 192.26875 35.2375Q193.03438 34.20625 193.03438 32.175ZM201.3 37.753124Q199.15938 37.753124 197.8 36.346874Q196.45625 34.925 196.45625 32.565624L196.45625 32.221874Q196.45625 30.659374 197.05 29.425Q197.65938 28.190624 198.7375 27.4875Q199.81563 26.784374 201.08125 26.784374Q203.14375 26.784374 204.28438 28.14375Q205.425 29.503124 205.425 32.034374L205.425 32.784374L198.26875 32.784374Q198.3 34.346874 199.175 35.315624Q200.05 36.26875 201.39375 36.26875Q202.3625 36.26875 203.01875 35.878124Q203.69063 35.4875 204.19063 34.846874L205.28438 35.70625Q203.95625 37.753124 201.3 37.753124ZM201.08125 28.26875Q199.9875 28.26875 199.2375 29.065624Q198.50313 29.8625 198.33125 31.3L203.6125 31.3L203.6125 31.159374Q203.53438 29.784374 202.8625 29.034374Q202.20625 28.26875 201.08125 28.26875ZM213.01875 28.596874Q212.6125 28.534374 212.14375 28.534374Q210.3625 28.534374 209.72188 30.05L209.72188 37.55L207.925 37.55L207.925 26.9875L209.675 26.9875L209.70625 28.20625Q210.59688 26.784374 212.22188 26.784374Q212.75313 26.784374 213.01875 26.925L213.01875 28.596874ZM225.01875 28.596874Q224.6125 28.534374 224.14375 28.534374Q222.3625 28.534374 221.72188 30.05L221.72188 37.55L219.925 37.55L219.925 26.9875L221.675 26.9875L221.70625 28.20625Q222.59688 26.784374 224.22188 26.784374Q224.75313 26.784374 225.01875 26.925L225.01875 28.596874ZM231.3 37.753124Q229.15938 37.753124 227.8 36.346874Q226.45625 34.925 226.45625 32.565624L226.45625 32.221874Q226.45625 30.659374 227.05 29.425Q227.65938 28.190624 228.7375 27.4875Q229.81563 26.784374 231.08125 26.784374Q233.14375 26.784374 234.28438 28.14375Q235.425 29.503124 235.425 32.034374L235.425 32.784374L228.26875 32.784374Q228.3 34.346874 229.175 35.315624Q230.05 36.26875 231.39375 36.26875Q232.3625 36.26875 233.01875 35.878124Q233.69063 35.4875 234.19063 34.846874L235.28438 35.70625Q233.95625 37.753124 231.3 37.753124ZM231.08125 28.26875Q229.9875 28.26875 229.2375 29.065624Q228.50313 29.8625 228.33125 31.3L233.6125 31.3L233.6125 31.159374Q233.53438 29.784374 232.8625 29.034374Q232.20625 28.26875 231.08125 28.26875ZM237.47188 32.175Q237.47188 29.690624 238.6125 28.2375Q239.76875 26.784374 241.69063 26.784374Q243.56563 26.784374 244.64375 28.05L244.72188 26.9875L246.37813 26.9875L246.37813 41.6125L244.58125 41.6125L244.58125 36.565624Q243.4875 37.753124 241.675 37.753124Q239.75313 37.753124 238.6125 36.26875Q237.47188 34.76875 237.47188 32.3L237.47188 32.175ZM239.28438 32.378124Q239.28438 34.20625 240.05 35.2375Q240.81563 36.26875 242.1125 36.26875Q243.72188 36.26875 244.58125 34.846874L244.58125 29.675Q243.72188 28.26875 242.14375 28.26875Q240.83125 28.26875 240.05 29.315624Q239.28438 30.346874 239.28438 32.378124ZM255.44063 36.503124Q254.39375 37.753124 252.34688 37.753124Q250.65938 37.753124 249.76875 36.76875Q248.89375 35.784374 248.87813 33.8625L248.87813 26.9875L250.69063 26.9875L250.69063 33.815624Q250.69063 36.20625 252.64375 36.20625Q254.70625 36.20625 255.39375 34.675L255.39375 26.9875L257.20624 26.9875L257.20624 37.55L255.4875 37.55L255.44063 36.503124ZM264.3 37.753124Q262.15936 37.753124 260.8 36.346874Q259.45624 34.925 259.45624 32.565624L259.45624 32.221874Q259.45624 30.659374 260.05 29.425Q260.65936 28.190624 261.7375 27.4875Q262.8156 26.784374 264.08124 26.784374Q266.14374 26.784374 267.28436 28.14375Q268.425 29.503124 268.425 32.034374L268.425 32.784374L261.26874 32.784374Q261.3 34.346874 262.175 35.315624Q263.05 36.26875 264.39374 36.26875Q265.3625 36.26875 266.01874 35.878124Q266.6906 35.4875 267.1906 34.846874L268.28436 35.70625Q266.95624 37.753124 264.3 37.753124ZM264.08124 28.26875Q262.9875 28.26875 262.2375 29.065624Q261.5031 29.8625 261.33124 31.3L266.6125 31.3L266.6125 31.159374Q266.53436 29.784374 265.8625 29.034374Q265.20624 28.26875 264.08124 28.26875ZM277.0656 34.753124Q277.0656 34.01875 276.51874 33.6125Q275.97186 33.20625 274.59686 32.909374Q273.22186 32.6125 272.40936 32.20625Q271.6125 31.8 271.22186 31.2375Q270.84686 30.659374 270.84686 29.878124Q270.84686 28.58125 271.9406 27.690624Q273.03436 26.784374 274.7531 26.784374Q276.55 26.784374 277.65936 27.721874Q278.78436 28.64375 278.78436 30.08125L276.95624 30.08125Q276.95624 29.346874 276.33124 28.815624Q275.70624 28.26875 274.7531 28.26875Q273.7531 28.26875 273.1906 28.70625Q272.64374 29.128124 272.64374 29.83125Q272.64374 30.471874 273.15936 30.815624Q273.675 31.14375 275.03436 31.45625Q276.39374 31.753124 277.22186 32.175Q278.0656 32.58125 278.47186 33.175Q278.8781 33.76875 278.8781 34.6125Q278.8781 36.034374 277.7375 36.89375Q276.6125 37.753124 274.8 37.753124Q273.53436 37.753124 272.55 37.3Q271.58124 36.846874 271.01874 36.05Q270.47186 35.2375 270.47186 34.3L272.28436 34.3Q272.33124 35.20625 273.0031 35.7375Q273.6906 36.26875 274.8 36.26875Q275.83124 36.26875 276.4406 35.8625Q277.0656 35.440624 277.0656 34.753124ZM283.3625 24.425L283.3625 26.9875L285.34686 26.9875L285.34686 28.378124L283.3625 28.378124L283.3625 34.925Q283.3625 35.565624 283.6281 35.89375Q283.89374 36.20625 284.53436 36.20625Q284.84686 36.20625 285.39374 36.08125L285.39374 37.55Q284.675 37.753124 284.0031 37.753124Q282.8 37.753124 282.175 37.01875Q281.5656 36.284374 281.5656 34.925L281.5656 28.378124L279.64374 28.378124L279.64374 26.9875L281.5656 26.9875L281.5656 24.425L283.3625 24.425Z" fill-rule="nonzero"/></svg>